<?xml version="1.0" encoding="utf-8"?>
<!-- Generator: Adobe Illustrator 21.0.0, SVG Export Plug-In . SVG Version: 6.00 Build 0)  -->
<svg version="1.1" id="Capa_1" xmlns="http://www.w3.org/2000/svg" xmlns:xlink="http://www.w3.org/1999/xlink" x="0px" y="0px"
	 viewBox="0 0 1200 866" style="enable-background:new 0 0 1200 866;" xml:space="preserve">
<style type="text/css">
	.st0{fill:#4F6F7F;}
	.st1{fill:#86B0C7;}
</style>
<g>
	<g transform="translate(350,350)">
		<path class="st0" d="M-75.4,381.3l-168.8,0l-29.7-51.4L-75.4,381.3z"/>
	</g>
	<path class="st0" d="M76.1,679.8l84.4-146.2h59.4L76.1,679.8z"/>
	<path class="st0" d="M219.9,533.6l84.4,146.2l-29.7,51.4L219.9,533.6z"/>
	<path class="st1" d="M274.6,731.3l-168.8,0l198.5-51.4L274.6,731.3z"/>
	<path class="st1" d="M219.9,533.6l84.4,146.2L160.5,533.6H219.9z"/>
	<path class="st0" d="M274.6,731.3l-168.8,0l-29.7-51.4L274.6,731.3z"/>
	<path class="st1" d="M76.1,679.8l84.4-146.2l-54.7,197.7L76.1,679.8z"/>
</g>
<g>
	<g transform="translate(350,350)">
		<path class="st0" d="M-45.8,97.7L-130.1,244l-59.4,0L-45.8,97.7z"/>
	</g>
	<path class="st0" d="M160.5,594L75.9,447.9l29.7-51.5L160.5,594z"/>
	<path class="st0" d="M105.6,396.4l168.8-0.1l29.7,51.4L105.6,396.4z"/>
	<path class="st1" d="M304.2,447.7L219.9,594l54.6-197.7L304.2,447.7z"/>
	<path class="st1" d="M105.6,396.4l168.8-0.1L75.9,447.9L105.6,396.4z"/>
	<path class="st0" d="M304.2,447.7L219.9,594l-59.4,0L304.2,447.7z"/>
	<path class="st1" d="M160.5,594L75.9,447.9L219.9,594L160.5,594z"/>
</g>
<g>
	<g transform="translate(350,350)">
		<path class="st0" d="M100.2,350.4L15.9,496.7l-59.4,0L100.2,350.4z"/>
	</g>
	<path class="st0" d="M306.5,846.7L222,700.6l29.7-51.5L306.5,846.7z"/>
	<path class="st0" d="M251.7,649.1l168.8-0.1l29.7,51.4L251.7,649.1z"/>
	<path class="st1" d="M450.2,700.4l-84.3,146.3L420.5,649L450.2,700.4z"/>
	<path class="st1" d="M251.7,649.1l168.8-0.1L222,700.6L251.7,649.1z"/>
	<path class="st0" d="M450.2,700.4l-84.3,146.3l-59.4,0L450.2,700.4z"/>
	<path class="st1" d="M306.5,846.7L222,700.6l143.9,146.1L306.5,846.7z"/>
</g>
<g>
	<g transform="translate(350,350)">
		<path class="st0" d="M-47.6-70.7l2.3,168.8l-51,30.4L-47.6-70.7z"/>
	</g>
	<path class="st0" d="M253.7,478.5l-147.4-82.4l-0.8-59.4L253.7,478.5z"/>
	<path class="st0" d="M105.6,336.7l145-86.4l51.9,29L105.6,336.7z"/>
	<path class="st1" d="M302.4,279.3l2.3,168.8l-54.2-197.8L302.4,279.3z"/>
	<path class="st1" d="M105.6,336.7l145-86.4L106.4,396.1L105.6,336.7z"/>
	<path class="st0" d="M302.4,279.3l2.3,168.8l-51,30.4L302.4,279.3z"/>
	<path class="st1" d="M253.7,478.5l-147.4-82.4l198.4,52L253.7,478.5z"/>
</g>
<g>
	<g transform="translate(350,350)">
		<path class="st0" d="M159.8,182.7l85.4,145.6l-29.3,51.7L159.8,182.7z"/>
	</g>
	<path class="st0" d="M565.9,729.9l-168.8,1.2L367,679.9L565.9,729.9z"/>
	<path class="st0" d="M367,679.9l83.4-146.8l59.4-0.4L367,679.9z"/>
	<path class="st1" d="M509.8,532.7l85.4,145.6L450.4,533.1L509.8,532.7z"/>
	<path class="st1" d="M367,679.9l83.4-146.8l-53.3,198L367,679.9z"/>
	<path class="st0" d="M509.8,532.7l85.4,145.6l-29.3,51.7L509.8,532.7z"/>
	<path class="st1" d="M565.9,729.9l-168.8,1.2l198.2-52.9L565.9,729.9z"/>
</g>
<g>
	<g transform="translate(350,350)">
		<path class="st0" d="M296.8,128.5l1,168.8l-51.3,30L296.8,128.5z"/>
	</g>
	<path class="st0" d="M596.5,677.3l-146.7-83.6l-0.3-59.4L596.5,677.3z"/>
	<path class="st0" d="M449.5,534.4l145.7-85.3l51.6,29.4L449.5,534.4z"/>
	<path class="st1" d="M646.8,478.5l1,168.8l-52.6-198.2L646.8,478.5z"/>
	<path class="st1" d="M449.5,534.4l145.7-85.3L449.8,593.8L449.5,534.4z"/>
	<path class="st0" d="M646.8,478.5l1,168.8l-51.3,30L646.8,478.5z"/>
	<path class="st1" d="M596.5,677.3l-146.7-83.6l198,53.6L596.5,677.3z"/>
</g>
<g>
	<g transform="translate(350,350)">
		<path class="st0" d="M69.7,188.7l-145.2,86.1l-51.8-29.1L69.7,188.7z"/>
	</g>
	<path class="st0" d="M222.7,595.7l-2-168.8l51.1-30.3L222.7,595.7z"/>
	<path class="st0" d="M271.8,396.6L419,479.3l0.7,59.4L271.8,396.6z"/>
	<path class="st1" d="M419.7,538.7l-145.2,86.1L419,479.3L419.7,538.7z"/>
	<path class="st1" d="M271.8,396.6L419,479.3l-198.3-52.4L271.8,396.6z"/>
	<path class="st0" d="M419.7,538.7l-145.2,86.1l-51.8-29.1L419.7,538.7z"/>
	<path class="st1" d="M222.7,595.7l-2-168.8l53.7,197.9L222.7,595.7z"/>
</g>
<g>
	<g transform="translate(350,350)">
		<path class="st0" d="M68.3-103.4L-76.9-17.3l-51.8-29.1L68.3-103.4z"/>
	</g>
	<path class="st0" d="M221.3,303.6l-2-168.8l51.1-30.3L221.3,303.6z"/>
	<path class="st0" d="M270.4,104.5l147.2,82.7l0.7,59.4L270.4,104.5z"/>
	<path class="st1" d="M418.3,246.6l-145.2,86.1l144.5-145.5L418.3,246.6z"/>
	<path class="st1" d="M270.4,104.5l147.2,82.7l-198.3-52.4L270.4,104.5z"/>
	<path class="st0" d="M418.3,246.6l-145.2,86.1l-51.8-29.1L418.3,246.6z"/>
	<path class="st1" d="M221.3,303.6l-2-168.8l53.7,197.9L221.3,303.6z"/>
</g>
<g>
	<g transform="translate(350,350)">
		<path class="st0" d="M411.9,94.2l-145.2,86.1l-51.8-29.1L411.9,94.2z"/>
	</g>
	<path class="st0" d="M564.9,501.2l-2-168.8l51.1-30.3L564.9,501.2z"/>
	<path class="st0" d="M614.1,302.1l147.2,82.7l0.7,59.4L614.1,302.1z"/>
	<path class="st1" d="M761.9,444.2l-145.2,86.1l144.5-145.5L761.9,444.2z"/>
	<path class="st1" d="M614.1,302.1l147.2,82.7L563,332.4L614.1,302.1z"/>
	<path class="st0" d="M761.9,444.2l-145.2,86.1l-51.8-29.1L761.9,444.2z"/>
	<path class="st1" d="M564.9,501.2l-2-168.8l53.7,197.9L564.9,501.2z"/>
</g>
<g>
	<g transform="translate(350,350)">
		<path class="st0" d="M294.4-165l2.1,168.8l-51.1,30.3L294.4-165z"/>
	</g>
	<path class="st0" d="M595.4,384.1l-147.3-82.6l-0.7-59.4L595.4,384.1z"/>
	<path class="st0" d="M447.4,242.1l145.1-86.2l51.8,29.1L447.4,242.1z"/>
	<path class="st1" d="M644.4,185l2.1,168.8l-53.9-197.9L644.4,185z"/>
	<path class="st1" d="M447.4,242.1l145.1-86.2L448.2,301.5L447.4,242.1z"/>
	<path class="st0" d="M644.4,185l2.1,168.8l-51.1,30.3L644.4,185z"/>
	<path class="st1" d="M595.4,384.1l-147.3-82.6l198.3,52.2L595.4,384.1z"/>
</g>
<g>
	<g transform="translate(350,350)">
		<path class="st0" d="M440.7-143.5L355.5,2.3L296.1,2L440.7-143.5z"/>
	</g>
	<path class="st0" d="M646.1,352l-83.7-146.6l30-51.3L646.1,352z"/>
	<path class="st0" d="M592.4,154.1l168.8,0.9l29.4,51.6L592.4,154.1z"/>
	<path class="st1" d="M790.7,206.5l-85.2,145.8l55.7-197.4L790.7,206.5z"/>
	<path class="st1" d="M592.4,154.1l168.8,0.9l-198.8,50.4L592.4,154.1z"/>
	<path class="st0" d="M790.7,206.5l-85.2,145.8l-59.4-0.3L790.7,206.5z"/>
	<path class="st1" d="M646.1,352l-83.7-146.6l143.1,146.9L646.1,352z"/>
</g>
<g>
	<polygon class="st0" points="853.2,38.3 937.3,184.7 907.5,236.1 	"/>
	<polygon class="st0" points="907.5,236.1 738.7,235.8 709.1,184.2 	"/>
	<polygon class="st0" points="709.1,184.2 793.8,38.2 853.2,38.3 	"/>
	<polygon class="st1" points="853.2,38.3 937.3,184.7 793.8,38.2 	"/>
	<polygon class="st1" points="709.1,184.2 793.8,38.2 738.7,235.8 	"/>
	<polygon class="st0" points="853.2,38.3 937.3,184.7 907.5,236.1 	"/>
	<polygon class="st1" points="907.5,236.1 738.7,235.8 937.3,184.7 	"/>
</g>
<g>
	<polygon class="st0" points="903.8,8.5 1051.4,90.4 1052.4,149.8 	"/>
	<polygon class="st0" points="1052.4,149.8 907.7,236.7 855.7,207.8 	"/>
	<polygon class="st0" points="855.7,207.8 852.9,39 903.8,8.5 	"/>
	<polygon class="st1" points="903.8,8.5 1051.4,90.4 852.9,39 	"/>
	<polygon class="st1" points="855.7,207.8 852.9,39 907.7,236.7 	"/>
	<polygon class="st0" points="903.8,8.5 1051.4,90.4 1052.4,149.8 	"/>
	<polygon class="st1" points="1052.4,149.8 907.7,236.7 1051.4,90.4 	"/>
</g>
<g>
	<polygon class="st0" points="883.9,154.6 1052.7,149.1 1084,199.5 	"/>
	<polygon class="st0" points="1084,199.5 1004.4,348.4 945.1,350.4 	"/>
	<polygon class="st0" points="945.1,350.4 855.9,207 883.9,154.6 	"/>
	<polygon class="st1" points="883.9,154.6 1052.7,149.1 855.9,207 	"/>
	<polygon class="st1" points="945.1,350.4 855.9,207 1004.4,348.4 	"/>
	<polygon class="st0" points="883.9,154.6 1052.7,149.1 1084,199.5 	"/>
	<polygon class="st1" points="1084,199.5 1004.4,348.4 1052.7,149.1 	"/>
</g>
<g>
	<polygon class="st0" points="941.3,183.2 941.3,352 889.9,381.8 	"/>
	<polygon class="st0" points="889.9,381.8 743.7,297.3 743.7,237.9 	"/>
	<polygon class="st0" points="743.7,237.9 889.9,153.5 941.3,183.2 	"/>
	<polygon class="st1" points="941.3,183.2 941.3,352 889.9,153.5 	"/>
	<polygon class="st1" points="743.7,237.9 889.9,153.5 743.7,297.3 	"/>
	<polygon class="st0" points="941.3,183.2 941.3,352 889.9,381.8 	"/>
	<polygon class="st1" points="889.9,381.8 743.7,297.3 941.3,352 	"/>
</g>
<g>
	<polygon class="st0" points="939.9,349 1087.5,430.9 1088.5,490.3 	"/>
	<polygon class="st0" points="1088.5,490.3 943.7,577.2 891.8,548.4 	"/>
	<polygon class="st0" points="891.8,548.4 888.9,379.6 939.9,349 	"/>
	<polygon class="st1" points="939.9,349 1087.5,430.9 888.9,379.6 	"/>
	<polygon class="st1" points="891.8,548.4 888.9,379.6 943.7,577.2 	"/>
	<polygon class="st0" points="939.9,349 1087.5,430.9 1088.5,490.3 	"/>
	<polygon class="st1" points="1088.5,490.3 943.7,577.2 1087.5,430.9 	"/>
</g>
<g>
	<polygon class="st0" points="920,495.1 1088.7,489.6 1120.1,540.1 	"/>
	<polygon class="st0" points="1120.1,540.1 1040.5,689 981.1,690.9 	"/>
	<polygon class="st0" points="981.1,690.9 892,547.5 920,495.1 	"/>
	<polygon class="st1" points="920,495.1 1088.7,489.6 892,547.5 	"/>
	<polygon class="st1" points="981.1,690.9 892,547.5 1040.5,689 	"/>
	<polygon class="st0" points="920,495.1 1088.7,489.6 1120.1,540.1 	"/>
	<polygon class="st1" points="1120.1,540.1 1040.5,689 1088.7,489.6 	"/>
</g>
<g>
	<polygon class="st0" points="977.4,523.8 977.4,692.6 925.9,722.3 	"/>
	<polygon class="st0" points="925.9,722.3 779.7,637.9 779.7,578.5 	"/>
	<polygon class="st0" points="779.7,578.5 925.9,494.1 977.4,523.8 	"/>
	<polygon class="st1" points="977.4,523.8 977.4,692.6 925.9,494.1 	"/>
	<polygon class="st1" points="779.7,578.5 925.9,494.1 779.7,637.9 	"/>
	<polygon class="st0" points="977.4,523.8 977.4,692.6 925.9,722.3 	"/>
	<polygon class="st1" points="925.9,722.3 779.7,637.9 977.4,692.6 	"/>
</g>
<g>
	<polygon class="st0" points="889.3,378.9 973.4,525.2 943.6,576.6 	"/>
	<polygon class="st0" points="943.6,576.6 774.7,576.3 745.1,524.8 	"/>
	<polygon class="st0" points="745.1,524.8 829.8,378.7 889.3,378.9 	"/>
	<polygon class="st1" points="889.3,378.9 973.4,525.2 829.8,378.7 	"/>
	<polygon class="st1" points="745.1,524.8 829.8,378.7 774.7,576.3 	"/>
	<polygon class="st0" points="889.3,378.9 973.4,525.2 943.6,576.6 	"/>
	<polygon class="st1" points="943.6,576.6 774.7,576.3 973.4,525.2 	"/>
</g>
</svg>
