<?xml version="1.0" encoding="utf-8"?>
<!-- Generator: Adobe Illustrator 21.0.0, SVG Export Plug-In . SVG Version: 6.00 Build 0)  -->
<svg version="1.1" id="Capa_1" xmlns="http://www.w3.org/2000/svg" xmlns:xlink="http://www.w3.org/1999/xlink" x="0px" y="0px"
	 viewBox="0 0 700 297.7" style="enable-background:new 0 0 700 297.7;" xml:space="preserve">
<style type="text/css">
	.st0{fill:#507283;}
	.st1{fill:#8BB9D1;}
	.st2{font-family:'Cera-Black';}
	.st3{font-size:20.3559px;}
	.st4{font-family:'Cera-Regular';}
</style>
<g>
	<g transform="translate(350,350)">
		<path class="st0" d="M-122.3-86.6l-50-188.4l79.4,137.5L-122.3-86.6z"/>
		<path class="st0" d="M-172.3-275l-138.1,137.5L-231-275H-172.3z"/>
		<path class="st1" d="M-92.9-137.5l-29.4,50.9h-158.8L-92.9-137.5z"/>
		<path class="st1" d="M-231-275h58.7l79.4,137.5L-231-275z"/>
		<path class="st1" d="M-281.1-86.6l-29.4-50.9L-231-275L-281.1-86.6z"/>
	</g>
	<g transform="translate(350,350)">
		<path class="st0" d="M-270.5-126.8l148.3,40.1h-158.8L-270.5-126.8z"/>
	</g>
</g>
<text transform="matrix(1 0 0 1 296.3139 47.5601)"><tspan x="0" y="0" class="st0 st2 st3">DIPLOMA</tspan><tspan x="89" y="0" class="st0 st4 st3"> </tspan><tspan x="0" y="24.4" class="st0 st4 st3">ingeniería 2030</tspan><tspan x="0" y="48.9" class="st0 st4 st3">e[ad] escuela de arquitectura y diseño</tspan><tspan x="0" y="73.3" class="st0 st4 st3">PUCV</tspan><tspan x="0" y="146.6" class="st0 st2 st3">PROYECTOS DE INNOVACIÓN</tspan><tspan x="0" y="171" class="st0 st4 st3">certificado por proyecto</tspan></text>
<circle class="st0" cx="148.3" cy="37.3" r="11.6"/>
</svg>
