<?xml version="1.0" encoding="utf-8"?>
<!-- Generator: Adobe Illustrator 21.0.0, SVG Export Plug-In . SVG Version: 6.00 Build 0)  -->
<svg version="1.1" id="Capa_1" xmlns="http://www.w3.org/2000/svg" xmlns:xlink="http://www.w3.org/1999/xlink" x="0px" y="0px"
	 viewBox="0 0 300 200" style="enable-background:new 0 0 300 200;" xml:space="preserve">
<style type="text/css">
	.st0{opacity:0.6;}
	.st1{fill:#FFFFFF;}
	.st2{opacity:0.6;fill:#FFFFFF;enable-background:new    ;}
</style>
<g id="XMLID_9_">
	<g id="XMLID_79_" class="st0">
		<path id="XMLID_112_" class="st1" d="M42.1,106.3V71.6h1.7v34.7H42.1z"/>
		<path id="XMLID_110_" class="st1" d="M54.3,80.7c0.9,0,1.9,0.2,2.7,0.5c0.8,0.3,1.6,0.9,2.2,1.5c0.6,0.6,1.1,1.3,1.5,2.2
			s0.5,1.7,0.5,2.7v6v12.7h-1.7V93.6v-6c0-0.7-0.1-1.4-0.4-2s-0.6-1.2-1.1-1.6s-1-0.8-1.6-1.1c-0.6-0.3-1.3-0.4-2-0.4
			c-0.7,0-1.4,0.1-2,0.4c-0.6,0.3-1.2,0.6-1.6,1.1c-0.5,0.5-0.8,1-1.1,1.6s-0.4,1.3-0.4,2v6v12.7h-1.7V93.6v-6V81h1.7v2.1
			c0.6-0.8,1.4-1.3,2.3-1.7C52.3,81,53.3,80.7,54.3,80.7z"/>
		<path id="XMLID_102_" class="st1" d="M78.5,81v6.6v12.1v11.7c0,0.9-0.2,1.9-0.5,2.7c-0.3,0.8-0.8,1.6-1.5,2.2
			c-0.6,0.6-1.3,1.1-2.2,1.5c-0.8,0.3-1.7,0.5-2.7,0.5s-1.9-0.2-2.7-0.5c-0.8-0.3-1.6-0.9-2.2-1.5c-0.6-0.6-1.1-1.3-1.5-2.2
			c-0.3-0.8-0.5-1.7-0.5-2.7h1.7c0,0.7,0.1,1.4,0.4,2c0.3,0.6,0.6,1.2,1.1,1.6c0.5,0.5,1,0.9,1.6,1.1c0.6,0.3,1.3,0.4,2,0.4
			c0.7,0,1.4-0.1,2-0.4c0.6-0.3,1.2-0.6,1.6-1.1c0.5-0.5,0.8-1,1.1-1.6c0.3-0.6,0.4-1.3,0.4-2v-7.2c-0.6,0.7-1.4,1.3-2.3,1.7
			c-0.9,0.4-1.9,0.6-2.9,0.6c-0.9,0-1.9-0.2-2.7-0.5c-0.8-0.3-1.6-0.8-2.2-1.5c-0.6-0.6-1.1-1.3-1.5-2.2c-0.3-0.8-0.5-1.7-0.5-2.7
			V87.6c0-0.9,0.2-1.9,0.5-2.7c0.3-0.8,0.8-1.6,1.5-2.2c0.6-0.6,1.3-1.1,2.2-1.5c0.8-0.3,1.7-0.5,2.7-0.5c1,0,2,0.2,2.9,0.6
			c0.9,0.4,1.6,1,2.3,1.7v-2.1h1.6C78.5,81.1,78.5,81,78.5,81z M71.6,104.8c0.7,0,1.4-0.1,2-0.4c0.6-0.3,1.2-0.6,1.6-1.1
			s0.8-1,1.1-1.6c0.3-0.6,0.4-1.3,0.4-2v-12c0-0.7-0.1-1.4-0.4-2c-0.3-0.6-0.6-1.2-1.1-1.6s-1-0.8-1.6-1.1c-0.6-0.3-1.3-0.4-2-0.4
			c-0.7,0-1.4,0.1-2,0.4C69,83.1,68.4,83.5,68,84s-0.8,1-1.1,1.6c-0.3,0.6-0.4,1.3-0.4,2v12.1c0,0.7,0.1,1.4,0.4,2
			c0.3,0.6,0.6,1.2,1.1,1.6s1,0.8,1.6,1.1C70.2,104.7,70.9,104.8,71.6,104.8z"/>
		<path id="XMLID_98_" class="st1" d="M92.5,92.2c-0.3,0.1-0.8,0.3-1.5,0.6c-0.7,0.3-1.5,0.6-2.3,0.9c-0.8,0.3-1.6,0.6-2.4,0.9
			c-0.8,0.3-1.4,0.5-1.9,0.6v4.4c0,0.7,0.1,1.4,0.4,2c0.3,0.6,0.6,1.2,1.1,1.6c0.5,0.5,1,0.8,1.6,1.1c0.6,0.3,1.3,0.4,2,0.4
			c0.7,0,1.4-0.1,2-0.4c0.6-0.3,1.2-0.6,1.6-1.1s0.8-1,1.1-1.6c0.3-0.6,0.4-1.3,0.4-2h1.7c0,0.9-0.2,1.9-0.5,2.7s-0.8,1.6-1.5,2.2
			c-0.6,0.6-1.3,1.1-2.2,1.5c-0.8,0.3-1.7,0.5-2.7,0.5c-0.9,0-1.9-0.2-2.7-0.5c-0.8-0.3-1.6-0.8-2.2-1.5c-0.6-0.6-1.1-1.3-1.5-2.2
			c-0.3-0.8-0.5-1.7-0.5-2.7V87.6c0-0.9,0.2-1.9,0.5-2.7c0.3-0.8,0.8-1.6,1.5-2.2c0.6-0.6,1.3-1.1,2.2-1.5c0.8-0.3,1.7-0.5,2.7-0.5
			c0.9,0,1.9,0.2,2.7,0.5c0.8,0.3,1.6,0.9,2.2,1.5c0.6,0.6,1.1,1.3,1.5,2.2s0.5,1.7,0.5,2.6v0.1C96.4,89.7,95,91.3,92.5,92.2z
			 M89.5,82.4c-0.7,0-1.4,0.1-2,0.4c-0.6,0.3-1.2,0.6-1.6,1.1s-0.8,1-1.1,1.6c-0.3,0.6-0.4,1.3-0.4,2v5.9c0.5-0.2,1.2-0.5,1.9-0.8
			c0.8-0.3,1.5-0.6,2.3-0.8c0.8-0.3,1.5-0.5,2.1-0.8c0.6-0.2,1.1-0.4,1.3-0.5c0.6-0.2,1.2-0.6,1.9-1.1c0.6-0.5,0.9-1.2,0.9-2
			c0-0.7-0.1-1.4-0.4-2c-0.3-0.6-0.6-1.2-1.1-1.6s-1-0.8-1.6-1.1C90.9,82.6,90.2,82.4,89.5,82.4z"/>
		<path id="XMLID_96_" class="st1" d="M106.8,80.7c0.9,0,1.9,0.2,2.7,0.5c0.8,0.3,1.6,0.9,2.2,1.5c0.6,0.6,1.1,1.3,1.5,2.2
			s0.5,1.7,0.5,2.7v6v12.7h-1.7V93.6v-6c0-0.7-0.1-1.4-0.4-2c-0.3-0.6-0.6-1.2-1.1-1.6c-0.5-0.5-1-0.8-1.6-1.1
			c-0.6-0.3-1.3-0.4-2-0.4c-0.7,0-1.4,0.1-2,0.4c-0.6,0.3-1.2,0.6-1.6,1.1s-0.8,1-1.1,1.6c-0.3,0.6-0.4,1.3-0.4,2v6v12.7h-1.7V93.6
			v-6V81h1.7v2.1c0.6-0.8,1.4-1.3,2.3-1.7C104.8,81,105.8,80.7,106.8,80.7z"/>
		<path id="XMLID_93_" class="st1" d="M119,80.6h1.7v1.7v23.6H119V82.3h-1.7v-1.7H119z M119.4,74.7c-0.3,0-0.7-0.1-0.9-0.3
			c-0.2-0.2-0.3-0.5-0.3-0.9c0-0.3,0.1-0.7,0.3-0.9c0.2-0.2,0.5-0.3,0.9-0.3c0.3,0,0.6,0.1,0.9,0.3s0.4,0.5,0.4,0.9
			s-0.1,0.7-0.4,0.9C120.1,74.6,119.8,74.7,119.4,74.7z"/>
		<path id="XMLID_89_" class="st1" d="M134.9,92.2c-0.3,0.1-0.8,0.3-1.5,0.6c-0.7,0.3-1.5,0.6-2.3,0.9c-0.8,0.3-1.6,0.6-2.4,0.9
			c-0.8,0.3-1.4,0.5-1.9,0.6v4.4c0,0.7,0.1,1.4,0.4,2c0.3,0.6,0.6,1.2,1.1,1.6c0.5,0.5,1,0.8,1.6,1.1c0.6,0.3,1.3,0.4,2,0.4
			c0.7,0,1.4-0.1,2-0.4c0.6-0.3,1.2-0.6,1.6-1.1c0.5-0.5,0.8-1,1.1-1.6c0.3-0.6,0.4-1.3,0.4-2h1.7c0,0.9-0.2,1.9-0.5,2.7
			s-0.9,1.6-1.5,2.2c-0.6,0.6-1.3,1.1-2.2,1.5c-0.8,0.3-1.7,0.5-2.7,0.5s-1.9-0.2-2.7-0.5c-0.8-0.3-1.6-0.8-2.2-1.5
			s-1.1-1.3-1.5-2.2c-0.3-0.8-0.5-1.7-0.5-2.7V87.6c0-0.9,0.2-1.9,0.5-2.7c0.3-0.8,0.9-1.6,1.5-2.2c0.6-0.6,1.3-1.1,2.2-1.5
			c0.8-0.3,1.7-0.5,2.7-0.5s1.9,0.2,2.7,0.5c0.8,0.3,1.6,0.9,2.2,1.5c0.6,0.6,1.1,1.3,1.5,2.2c0.3,0.8,0.5,1.7,0.5,2.6v0.1
			C138.8,89.7,137.6,91.3,134.9,92.2z M132,82.4c-0.7,0-1.4,0.1-2,0.4c-0.6,0.3-1.2,0.6-1.6,1.1c-0.5,0.5-0.8,1-1.1,1.6
			c-0.3,0.6-0.4,1.3-0.4,2v5.9c0.5-0.2,1.2-0.5,1.9-0.8c0.8-0.3,1.5-0.6,2.3-0.8c0.8-0.3,1.5-0.5,2.1-0.8c0.6-0.2,1.1-0.4,1.3-0.5
			c0.6-0.2,1.2-0.6,1.9-1.1c0.6-0.5,0.9-1.2,0.9-2c0-0.7-0.1-1.4-0.4-2c-0.3-0.6-0.6-1.2-1.1-1.6c-0.5-0.5-1-0.8-1.6-1.1
			C133.4,82.6,132.7,82.4,132,82.4z"/>
		<path id="XMLID_87_" class="st1" d="M151.7,80.7v1.7h-2c-0.7,0-1.4,0.1-2,0.4c-0.6,0.3-1.2,0.6-1.6,1.1c-0.5,0.5-0.9,1-1.1,1.6
			c-0.3,0.6-0.4,1.3-0.4,2v6v12.7h-1.7V93.6v-6v-4.9h-1.7V81h1.7h1.7v1.7v0.4c1.3-1.5,3-2.3,5-2.3L151.7,80.7L151.7,80.7z"/>
		<path id="XMLID_84_" class="st1" d="M155.9,77.9l5.2-5.8l1,1L157,79L155.9,77.9z M155.3,80.6h1.7h1.7v1.7v23.6H157V82.3h-1.7V80.6
			z"/>
		<path id="XMLID_80_" class="st1" d="M170.4,80.7c0.9,0,1.8,0.2,2.6,0.5c0.8,0.3,1.5,0.9,2,1.5c0.6,0.6,1,1.3,1.3,2.2
			c0.3,0.8,0.5,1.7,0.5,2.7v6v6.1v6.6h-1.7v-2.1c-0.6,0.7-1.4,1.3-2.3,1.7c-0.9,0.4-1.9,0.6-2.9,0.6c-0.9,0-1.9-0.2-2.7-0.5
			c-0.8-0.3-1.6-0.8-2.2-1.5c-0.6-0.6-1.1-1.3-1.5-2.2c-0.3-0.8-0.5-1.7-0.5-2.7v-1.5c0-2.1,1.3-3.7,3.9-4.6
			c0.3-0.1,0.8-0.3,1.6-0.6c0.8-0.3,1.5-0.6,2.4-0.9c0.8-0.3,1.6-0.6,2.4-0.9c0.8-0.3,1.4-0.5,1.8-0.7v-2.9c0-1.5-0.5-2.7-1.3-3.7
			c-0.9-1-2-1.5-3.4-1.5c-0.7,0-1.4,0.1-2,0.4c-0.6,0.3-1.2,0.6-1.6,1.1c-0.5,0.5-0.9,1-1.1,1.6c-0.3,0.6-0.4,1.3-0.4,2h-1.7
			c0-0.9,0.2-1.9,0.5-2.7c0.3-0.8,0.8-1.6,1.5-2.2c0.6-0.6,1.3-1.1,2.2-1.5C168.5,80.9,169.5,80.7,170.4,80.7z M175.2,93.6v-1.3
			c-0.5,0.2-1.2,0.5-1.9,0.7c-0.8,0.3-1.5,0.6-2.3,0.8c-0.8,0.3-1.5,0.6-2,0.8c-0.6,0.2-1,0.4-1.3,0.5c-0.6,0.2-1.3,0.6-1.9,1
			c-0.6,0.5-0.9,1.1-0.9,1.9v1.5c0,0.7,0.1,1.4,0.4,2c0.3,0.6,0.6,1.2,1.1,1.6s1,0.8,1.6,1.1c0.6,0.3,1.3,0.4,2,0.4
			c0.7,0,1.4-0.1,2-0.4c0.6-0.3,1.2-0.6,1.6-1.1c0.5-0.5,0.8-1,1.1-1.6c0.3-0.6,0.4-1.3,0.4-2L175.2,93.6L175.2,93.6z"/>
	</g>
	<path id="XMLID_77_" class="st1" d="M190.1,104.6h13.1v1.7h-13.1h-0.8h-0.9v-7.2c0-1.3,0.2-2.6,0.6-3.7c0.4-1.1,0.9-2,1.6-2.9
		c0.6-0.9,1.4-1.7,2.3-2.4c0.8-0.8,1.7-1.5,2.6-2.2c0.8-0.6,1.6-1.2,2.3-1.9c0.8-0.6,1.4-1.3,1.9-2c0.6-0.7,1-1.5,1.3-2.3
		c0.3-0.8,0.5-1.8,0.5-2.9c0-0.8-0.2-1.5-0.5-2.2c-0.3-0.7-0.7-1.3-1.2-1.8c-0.5-0.5-1.1-0.9-1.8-1.2s-1.4-0.5-2.2-0.5
		c-0.8,0-1.5,0.2-2.2,0.5c-0.7,0.3-1.3,0.7-1.8,1.2s-0.9,1.1-1.2,1.8c-0.3,0.7-0.5,1.4-0.5,2.2h-1.7c0-1,0.2-2,0.6-2.9
		c0.4-0.9,0.9-1.7,1.6-2.3c0.7-0.6,1.5-1.2,2.4-1.6c0.9-0.4,1.9-0.6,2.9-0.6c1,0,2,0.2,2.9,0.6c0.9,0.4,1.7,0.9,2.3,1.6
		s1.2,1.5,1.6,2.4c0.4,0.9,0.6,1.9,0.6,2.9c0,1.3-0.2,2.4-0.6,3.4c-0.4,1-0.9,1.9-1.5,2.7c-0.6,0.8-1.3,1.6-2.2,2.3
		c-0.8,0.7-1.6,1.4-2.4,2s-1.6,1.3-2.4,2c-0.8,0.6-1.5,1.4-2,2.2c-0.6,0.8-1,1.6-1.5,2.6c-0.3,0.9-0.5,2-0.5,3.1L190.1,104.6
		L190.1,104.6z"/>
	<path id="XMLID_74_" class="st1" d="M214.3,106.5c-1,0-2-0.2-2.9-0.6c-0.9-0.4-1.7-0.9-2.4-1.6c-0.6-0.6-1.2-1.5-1.6-2.3
		c-0.4-0.9-0.6-1.9-0.6-2.9V78.8c0-1,0.2-2,0.6-2.9c0.4-0.9,0.9-1.7,1.6-2.4c0.6-0.6,1.5-1.2,2.4-1.6c0.9-0.4,1.9-0.6,2.9-0.6
		c1,0,2,0.2,2.9,0.6c0.9,0.4,1.7,0.9,2.3,1.6s1.2,1.5,1.6,2.4c0.4,0.9,0.6,1.9,0.6,2.9v20.3c0,1-0.2,2-0.6,2.9
		c-0.4,0.9-0.9,1.7-1.6,2.3s-1.5,1.2-2.3,1.6C216.2,106.4,215.3,106.5,214.3,106.5z M214.3,73.1c-0.8,0-1.5,0.2-2.2,0.5
		c-0.7,0.3-1.3,0.7-1.8,1.2c-0.5,0.5-0.9,1.1-1.2,1.8c-0.3,0.7-0.5,1.4-0.5,2.2v20.3c0,0.8,0.2,1.5,0.5,2.2c0.3,0.7,0.7,1.3,1.2,1.8
		c0.5,0.5,1.1,0.9,1.8,1.2c0.7,0.3,1.5,0.5,2.2,0.5c0.8,0,1.5-0.2,2.2-0.5c0.7-0.3,1.3-0.7,1.8-1.2c0.5-0.5,0.9-1.1,1.2-1.8
		s0.5-1.5,0.5-2.2V78.8c0-0.8-0.2-1.5-0.5-2.2c-0.3-0.7-0.7-1.3-1.2-1.8s-1.1-0.9-1.8-1.2C215.8,73.3,215.1,73.1,214.3,73.1z"/>
	<path id="XMLID_72_" class="st1" d="M239,86.3c-0.7,1.2-1.7,2-2.9,2.7c1.2,0.6,2.2,1.5,2.9,2.7c0.7,1.2,1,2.4,1,3.9v3.5
		c0,1-0.2,2-0.6,2.9c-0.4,0.9-0.9,1.7-1.6,2.3c-0.6,0.6-1.5,1.2-2.3,1.6c-0.9,0.4-1.9,0.6-2.9,0.6c-1,0-2-0.2-2.9-0.6
		c-0.9-0.4-1.7-0.9-2.3-1.6c-0.7-0.6-1.2-1.5-1.6-2.3c-0.4-0.9-0.6-1.9-0.6-2.9h1.7c0,0.8,0.2,1.5,0.5,2.2c0.3,0.7,0.7,1.3,1.2,1.8
		c0.5,0.5,1.1,0.9,1.8,1.2c0.7,0.3,1.5,0.5,2.2,0.5s1.5-0.2,2.2-0.5c0.7-0.3,1.3-0.7,1.8-1.2c0.5-0.5,0.9-1.1,1.2-1.8
		s0.5-1.5,0.5-2.2v-3.5c0-0.8-0.2-1.5-0.5-2.2s-0.7-1.3-1.2-1.8s-1.1-0.9-1.8-1.2c-0.7-0.3-1.4-0.5-2.2-0.5h-1.9v-1.7h1.9
		c0.8,0,1.5-0.2,2.2-0.5c0.7-0.3,1.3-0.7,1.8-1.2c0.5-0.5,0.9-1.1,1.2-1.8s0.5-1.5,0.5-2.2V79c0-0.8-0.2-1.5-0.5-2.2
		c-0.3-0.7-0.7-1.3-1.2-1.8s-1.1-0.9-1.8-1.2c-0.7-0.3-1.4-0.5-2.2-0.5c-0.8,0-1.5,0.2-2.2,0.5c-0.7,0.3-1.3,0.7-1.8,1.2
		c-0.5,0.5-0.9,1.1-1.2,1.8c-0.3,0.7-0.5,1.5-0.5,2.2h-1.7c0-1,0.2-2,0.6-2.9c0.4-0.9,0.9-1.7,1.6-2.4c0.6-0.7,1.5-1.2,2.3-1.6
		c0.9-0.4,1.9-0.6,2.9-0.6c1,0,2,0.2,2.9,0.6c0.9,0.4,1.7,0.9,2.3,1.6c0.6,0.7,1.2,1.5,1.6,2.4c0.4,0.9,0.6,1.9,0.6,2.9v3.6
		C240.1,83.9,239.7,85.2,239,86.3z"/>
	<path id="XMLID_68_" class="st1" d="M251.1,106.5c-1,0-2-0.2-2.9-0.6c-0.9-0.4-1.7-0.9-2.3-1.6c-0.6-0.6-1.2-1.5-1.6-2.3
		c-0.4-0.9-0.6-1.9-0.6-2.9V78.8c0-1,0.2-2,0.6-2.9c0.4-0.9,0.9-1.7,1.6-2.4c0.6-0.6,1.5-1.2,2.3-1.6c0.9-0.4,1.9-0.6,2.9-0.6
		c1,0,2,0.2,2.9,0.6s1.7,0.9,2.3,1.6s1.2,1.5,1.6,2.4c0.4,0.9,0.6,1.9,0.6,2.9v20.3c0,1-0.2,2-0.6,2.9c-0.4,0.9-0.9,1.7-1.6,2.3
		s-1.5,1.2-2.3,1.6C253.1,106.4,252.1,106.5,251.1,106.5z M251.1,73.1c-0.8,0-1.5,0.2-2.2,0.5c-0.7,0.3-1.3,0.7-1.8,1.2
		c-0.5,0.5-0.9,1.1-1.2,1.8c-0.3,0.7-0.5,1.4-0.5,2.2v20.3c0,0.8,0.2,1.5,0.5,2.2c0.3,0.7,0.7,1.3,1.2,1.8c0.5,0.5,1.1,0.9,1.8,1.2
		c0.7,0.3,1.5,0.5,2.2,0.5s1.5-0.2,2.2-0.5c0.7-0.3,1.3-0.7,1.8-1.2c0.5-0.5,0.9-1.1,1.2-1.8c0.3-0.7,0.5-1.5,0.5-2.2V78.8
		c0-0.8-0.2-1.5-0.5-2.2c-0.3-0.7-0.7-1.3-1.2-1.8s-1.1-0.9-1.8-1.2C252.6,73.3,251.9,73.1,251.1,73.1z"/>
	<path id="XMLID_65_" class="st2" d="M81.7,125.1v-8h2c0.9,0,1.5,0.2,1.9,0.5c0.4,0.3,0.6,0.9,0.6,1.7c0,0.8-0.2,1.4-0.6,1.8
		c-0.4,0.4-1,0.6-1.9,0.6h-1.2v3.4C82.5,125.1,81.7,125.1,81.7,125.1z M82.6,120.9h1.2c0.5,0,0.9-0.1,1.2-0.4
		c0.2-0.2,0.4-0.6,0.4-1.2c0-0.5-0.1-0.9-0.4-1.1c-0.2-0.2-0.7-0.3-1.2-0.3h-1.1L82.6,120.9L82.6,120.9z"/>
	<path id="XMLID_63_" class="st2" d="M87.3,117.1h0.9v5.4c0,0.8,0.1,1.3,0.3,1.6c0.2,0.3,0.6,0.5,1.1,0.5c0.5,0,0.9-0.2,1.2-0.5
		c0.2-0.3,0.3-0.8,0.3-1.5v-5.4h0.9v5.2c0,0.7-0.1,1.2-0.1,1.5s-0.2,0.5-0.4,0.8c-0.2,0.2-0.5,0.5-0.8,0.6c-0.3,0.1-0.7,0.2-1.1,0.2
		s-0.8-0.1-1.1-0.2c-0.3-0.2-0.6-0.3-0.8-0.6c-0.1-0.2-0.2-0.4-0.3-0.7c-0.1-0.3-0.1-0.8-0.1-1.5V117.1z"/>
	<path id="XMLID_61_" class="st2" d="M97.3,122.2h0.9c0,1-0.2,1.8-0.6,2.3c-0.4,0.5-1,0.8-1.8,0.8s-1.5-0.3-1.8-1
		c-0.4-0.7-0.6-1.7-0.6-3.1c0-1.5,0.2-2.6,0.6-3.2c0.4-0.6,1-1,1.9-1c0.8,0,1.3,0.2,1.7,0.6c0.4,0.4,0.6,1,0.6,1.8v0.1h-0.9
		c0-0.5-0.1-1-0.4-1.3c-0.2-0.3-0.6-0.5-1-0.5c-0.5,0-0.9,0.3-1.2,0.8s-0.3,1.4-0.3,2.6c0,1.2,0.1,2,0.3,2.6
		c0.2,0.5,0.6,0.8,1.2,0.8c0.5,0,0.8-0.2,1-0.6c0.2-0.3,0.3-0.9,0.3-1.6L97.3,122.2L97.3,122.2z"/>
	<path id="XMLID_58_" class="st2" d="M101,125.1l-2.2-8h1l1.8,6.9l1.9-6.9h0.9l-2.2,8H101z"/>
	<path id="XMLID_56_" class="st1" d="M110.1,117v10.7h-0.8V117C109.3,117,110.1,117,110.1,117z"/>
	<path id="XMLID_54_" class="st2" d="M115.7,117.1h0.9v5.4c0,0.8,0.1,1.3,0.3,1.6c0.2,0.3,0.6,0.5,1.1,0.5c0.5,0,0.9-0.2,1.2-0.5
		c0.2-0.3,0.3-0.8,0.3-1.5v-5.4h0.9v5.2c0,0.7-0.1,1.2-0.1,1.5s-0.2,0.5-0.4,0.8c-0.2,0.2-0.5,0.5-0.8,0.6c-0.3,0.1-0.7,0.2-1.1,0.2
		s-0.8-0.1-1.1-0.2c-0.3-0.2-0.6-0.3-0.8-0.6c-0.1-0.2-0.2-0.4-0.3-0.7c-0.1-0.3-0.1-0.8-0.1-1.5L115.7,117.1L115.7,117.1z"/>
	<path id="XMLID_51_" class="st2" d="M125.7,125.1h-0.8v-0.8c-0.1,0.3-0.2,0.5-0.5,0.6c-0.2,0.2-0.5,0.2-0.8,0.2
		c-0.6,0-1.1-0.3-1.4-0.9c-0.3-0.6-0.5-1.4-0.5-2.4c0-0.9,0.2-1.6,0.5-2.2c0.3-0.5,0.8-0.8,1.3-0.8c0.3,0,0.6,0.1,0.8,0.2
		c0.2,0.1,0.4,0.3,0.5,0.5v-2.6h0.8L125.7,125.1L125.7,125.1z M124.8,122c0-0.9-0.1-1.5-0.2-1.8c-0.2-0.3-0.5-0.5-0.9-0.5
		c-0.4,0-0.7,0.2-0.9,0.6c-0.2,0.3-0.3,0.9-0.3,1.7c0,0.9,0.1,1.5,0.3,1.9c0.2,0.4,0.5,0.6,0.9,0.6c0.4,0,0.7-0.2,0.9-0.5
		C124.8,123.6,124.8,122.9,124.8,122z"/>
	<path id="XMLID_48_" class="st2" d="M129.6,123.1h0.8c0,0.7-0.2,1.2-0.5,1.6c-0.3,0.3-0.8,0.6-1.3,0.6c-0.6,0-1.1-0.2-1.4-0.8
		c-0.3-0.5-0.5-1.3-0.5-2.3c0-1.1,0.2-1.9,0.5-2.4c0.3-0.5,0.8-0.8,1.5-0.8s1.1,0.2,1.4,0.6c0.3,0.5,0.5,1.1,0.5,2
		c0,0.1,0,0.2,0,0.3c0,0.1,0,0.1,0,0.2h-2.9v0.3c0,0.8,0.1,1.3,0.2,1.6c0.2,0.3,0.5,0.5,0.8,0.5c0.3,0,0.5-0.1,0.7-0.4
		C129.6,123.9,129.6,123.6,129.6,123.1L129.6,123.1z M127.6,121.5h2v-0.2c0-0.5-0.1-1-0.2-1.2c-0.2-0.3-0.4-0.4-0.8-0.4
		c-0.3,0-0.6,0.2-0.8,0.5C127.7,120.4,127.6,120.8,127.6,121.5z"/>
	<path id="XMLID_46_" class="st2" d="M135.5,122.2h0.9c0,1-0.2,1.8-0.6,2.3s-1,0.8-1.8,0.8c-0.8,0-1.5-0.3-1.8-1
		c-0.4-0.7-0.6-1.7-0.6-3.1c0-1.5,0.2-2.6,0.6-3.2s1-1,1.9-1c0.8,0,1.3,0.2,1.7,0.6c0.4,0.4,0.6,1,0.6,1.8v0.1h-0.9
		c0-0.5-0.1-1-0.4-1.3c-0.2-0.3-0.6-0.5-1-0.5c-0.5,0-0.9,0.3-1.2,0.8s-0.3,1.4-0.3,2.6c0,1.2,0.1,2,0.3,2.6
		c0.2,0.5,0.6,0.8,1.2,0.8c0.5,0,0.8-0.2,1-0.6c0.2-0.3,0.3-0.9,0.3-1.6L135.5,122.2L135.5,122.2z"/>
	<path id="XMLID_44_" class="st1" d="M142.7,117v10.7h-0.8V117C141.9,117,142.7,117,142.7,117z"/>
	<path id="XMLID_42_" class="st2" d="M148.3,117.1h0.9v5.4c0,0.8,0.1,1.3,0.3,1.6c0.2,0.3,0.6,0.5,1.1,0.5c0.5,0,0.9-0.2,1.2-0.5
		c0.2-0.3,0.3-0.8,0.3-1.5v-5.4h0.9v5.2c0,0.7-0.1,1.2-0.1,1.5c-0.1,0.3-0.2,0.5-0.4,0.8c-0.2,0.2-0.5,0.5-0.8,0.6s-0.7,0.2-1.1,0.2
		s-0.8-0.1-1.1-0.2c-0.3-0.2-0.6-0.3-0.8-0.6c-0.1-0.2-0.2-0.4-0.3-0.7c-0.1-0.3-0.1-0.8-0.1-1.5L148.3,117.1L148.3,117.1z"/>
	<path id="XMLID_40_" class="st2" d="M154.3,122.6h0.9v0.3c0,0.5,0.1,0.9,0.3,1.2c0.2,0.3,0.6,0.4,1.1,0.4c0.5,0,0.8-0.1,1-0.4
		s0.4-0.6,0.4-1.1c0-0.3-0.1-0.6-0.2-0.9c-0.2-0.2-0.5-0.4-1-0.6c-0.1-0.1-0.3-0.1-0.5-0.2c-0.6-0.2-1-0.4-1.2-0.5
		c-0.2-0.2-0.4-0.4-0.5-0.7c-0.1-0.3-0.2-0.6-0.2-0.9c0-0.7,0.2-1.2,0.6-1.6s0.9-0.6,1.6-0.6c0.6,0,1.2,0.2,1.5,0.5
		c0.3,0.3,0.6,0.9,0.6,1.5c0,0,0,0.1,0,0.1s0,0.1,0,0.1h-0.8v-0.1c0-0.5-0.1-0.8-0.3-1c-0.2-0.2-0.5-0.3-0.9-0.3s-0.8,0.1-1,0.3
		c-0.2,0.2-0.3,0.5-0.3,0.9c0,0.3,0.1,0.6,0.2,0.9c0.2,0.2,0.5,0.4,1,0.6c0.1,0,0.2,0.1,0.3,0.1c0.8,0.3,1.3,0.5,1.5,0.7
		c0.2,0.2,0.3,0.4,0.5,0.6c0.1,0.3,0.2,0.6,0.2,0.9c0,0.8-0.2,1.3-0.6,1.7c-0.4,0.4-1,0.6-1.7,0.6c-0.8,0-1.3-0.2-1.7-0.6
		c-0.4-0.4-0.6-1-0.6-1.8c0,0,0-0.1,0-0.1C154.3,122.6,154.3,122.6,154.3,122.6z"/>
	<path id="XMLID_37_" class="st2" d="M159.6,125.1l2.2-8h1.2l2.2,8h-0.9l-0.6-2.3h-2.6l-0.6,2.3H159.6z M161.3,122h2.2l-1-4.2
		L161.3,122z"/>
	<path id="XMLID_35_" class="st2" d="M169.8,122.2h0.9c0,1-0.2,1.8-0.6,2.3s-1,0.8-1.8,0.8s-1.5-0.3-1.8-1c-0.4-0.7-0.6-1.7-0.6-3.1
		c0-1.5,0.2-2.6,0.6-3.2c0.4-0.6,1-1,1.9-1c0.8,0,1.3,0.2,1.7,0.6c0.4,0.4,0.6,1,0.6,1.8v0.1h-0.8c0-0.5-0.1-1-0.4-1.3
		c-0.2-0.3-0.6-0.5-1-0.5c-0.5,0-0.9,0.3-1.2,0.8s-0.3,1.4-0.3,2.6c0,1.2,0.1,2,0.3,2.6c0.2,0.5,0.6,0.8,1.2,0.8
		c0.5,0,0.8-0.2,1-0.6c0.2-0.3,0.3-0.9,0.3-1.6V122.2L169.8,122.2z"/>
	<path id="XMLID_32_" class="st2" d="M172.1,125.1v-8h0.9v3.3h3v-3.3h0.9v8H176v-3.9h-3v3.9H172.1z"/>
	<g id="XMLID_10_" class="st0">
		<path id="XMLID_26_" class="st1" d="M193.4,122.7c0,0.3,0,0.7-0.1,1c-0.1,0.3-0.2,0.7-0.4,1c-0.2,0.3-0.5,0.5-0.8,0.7
			c-0.3,0.2-0.6,0.3-1,0.3c-0.4,0-0.8-0.1-1-0.2c-0.3-0.2-0.5-0.3-0.7-0.6c-0.2-0.2-0.3-0.5-0.4-0.8c-0.1-0.3-0.2-0.6-0.2-1
			c-0.1-0.3-0.1-0.7-0.1-1s0-0.6,0-0.9c0-0.3,0-0.6,0-0.9c0-0.3,0.1-0.6,0.1-0.9c0.1-0.3,0.1-0.6,0.2-0.9c0.1-0.3,0.2-0.5,0.4-0.8
			c0.2-0.2,0.4-0.3,0.6-0.5c0.2-0.1,0.6-0.2,0.9-0.2c0.4,0,0.7,0.1,1,0.2c0.3,0.1,0.5,0.3,0.7,0.6c0.2,0.2,0.3,0.5,0.4,0.8
			c0.1,0.3,0.1,0.6,0.1,1h-0.7c0-0.2-0.1-0.5-0.1-0.7c-0.1-0.2-0.2-0.5-0.3-0.6c-0.1-0.2-0.3-0.3-0.5-0.5c-0.2-0.1-0.4-0.2-0.7-0.2
			s-0.5,0.1-0.8,0.2c-0.2,0.1-0.3,0.3-0.5,0.5c-0.1,0.2-0.2,0.5-0.3,0.7c-0.1,0.2-0.1,0.5-0.1,0.8c0,0.3-0.1,0.5-0.1,0.8
			c0,0.2,0,0.5,0,0.6c0,0.2,0,0.5,0,0.7c0,0.3,0,0.5,0.1,0.8c0,0.3,0.1,0.5,0.1,0.8c0.1,0.3,0.2,0.5,0.3,0.7
			c0.1,0.2,0.3,0.3,0.5,0.5c0.2,0.1,0.5,0.2,0.8,0.2s0.6-0.1,0.8-0.2c0.2-0.2,0.3-0.3,0.5-0.6s0.2-0.5,0.2-0.8
			c0.1-0.3,0.1-0.5,0.1-0.8L193.4,122.7L193.4,122.7z"/>
		<path id="XMLID_19_" class="st1" d="M197.7,125.7c-0.4,0-0.8-0.1-1-0.2c-0.3-0.2-0.5-0.3-0.7-0.6c-0.2-0.2-0.3-0.5-0.4-0.8
			c-0.1-0.3-0.2-0.6-0.2-1c-0.1-0.3-0.1-0.7-0.1-1s0-0.6,0-0.9c0-0.4,0-0.9,0.1-1.3c0.1-0.5,0.2-0.9,0.3-1.3c0.2-0.4,0.4-0.8,0.8-1
			c0.3-0.3,0.8-0.4,1.3-0.4c0.4,0,0.8,0.1,1,0.2c0.3,0.1,0.5,0.3,0.7,0.6c0.2,0.2,0.3,0.5,0.4,0.8c0.1,0.3,0.2,0.6,0.2,0.9
			c0.1,0.3,0.1,0.7,0.1,1c0,0.3,0,0.6,0,1c0,0.5,0,0.9-0.1,1.4s-0.1,0.9-0.3,1.3c-0.2,0.4-0.4,0.8-0.8,1
			C198.7,125.5,198.3,125.7,197.7,125.7z M197.7,125.1c0.3,0,0.5-0.1,0.8-0.2c0.2-0.1,0.3-0.3,0.5-0.5c0.1-0.2,0.2-0.5,0.3-0.7
			c0.1-0.3,0.1-0.5,0.1-0.8c0-0.3,0.1-0.5,0.1-0.8c0-0.2,0-0.5,0-0.7c0-0.2,0-0.4,0-0.7c0-0.2,0-0.5-0.1-0.8
			c-0.1-0.3-0.1-0.5-0.2-0.8c-0.1-0.3-0.2-0.5-0.3-0.7c-0.1-0.2-0.3-0.3-0.5-0.5c-0.2-0.1-0.5-0.2-0.8-0.2c-0.3,0-0.5,0.1-0.7,0.2
			c-0.2,0.1-0.3,0.3-0.5,0.5s-0.2,0.4-0.3,0.7c-0.1,0.2-0.1,0.5-0.2,0.8c0,0.3-0.1,0.5-0.1,0.8c0,0.2,0,0.5,0,0.7s0,0.5,0,0.7
			c0,0.3,0,0.5,0.1,0.8c0,0.3,0.1,0.5,0.1,0.8c0.1,0.3,0.2,0.5,0.3,0.7c0.1,0.2,0.3,0.3,0.5,0.5C197.2,125,197.5,125.1,197.7,125.1z
			"/>
		<path id="XMLID_16_" class="st1" d="M202.8,121.6v3.9h-0.7v-8.3h1.6c0.3,0,0.7,0,1,0.1c0.3,0.1,0.6,0.2,0.8,0.3
			c0.2,0.2,0.4,0.3,0.5,0.6c0.1,0.3,0.2,0.6,0.2,1c0,0.2,0,0.4-0.1,0.6c-0.1,0.2-0.1,0.4-0.2,0.6c-0.1,0.2-0.2,0.3-0.3,0.5
			c-0.2,0.1-0.3,0.2-0.6,0.3l0,0c0.2,0.1,0.4,0.2,0.6,0.3c0.2,0.1,0.2,0.3,0.3,0.5c0.1,0.2,0.1,0.3,0.2,0.6c0,0.2,0.1,0.5,0.1,0.7
			c0,0.1,0,0.2,0,0.5s0,0.4,0.1,0.6c0,0.2,0.1,0.4,0.1,0.6c0.1,0.2,0.1,0.3,0.2,0.3v0.1h-0.8c-0.1-0.2-0.1-0.4-0.2-0.6
			c-0.1-0.2-0.1-0.5-0.1-0.8c0-0.2-0.1-0.5-0.1-0.8c0-0.2,0-0.4,0-0.6c0-0.3-0.1-0.5-0.2-0.6c-0.1-0.2-0.2-0.3-0.4-0.3
			c-0.2-0.1-0.3-0.1-0.6-0.1s-0.5-0.1-0.7-0.1L202.8,121.6L202.8,121.6z M202.8,120.9h1.3c0.1,0,0.2,0,0.3-0.1
			c0.2,0,0.3-0.1,0.5-0.2c0.2-0.1,0.3-0.2,0.5-0.5c0.1-0.2,0.2-0.5,0.2-0.9c0-0.3-0.1-0.5-0.1-0.8c-0.1-0.2-0.2-0.3-0.3-0.5
			c-0.1-0.1-0.3-0.2-0.5-0.2s-0.5-0.1-0.8-0.1h-1V120.9z"/>
		<path id="XMLID_14_" class="st1" d="M208.2,125.5v-8.3h3.8v0.6h-3.1v3h2.7v0.6h-2.7v4H208.2z"/>
		<path id="XMLID_11_" class="st1" d="M215.9,125.7c-0.4,0-0.8-0.1-1-0.2c-0.3-0.2-0.5-0.3-0.7-0.6c-0.2-0.2-0.3-0.5-0.4-0.8
			s-0.2-0.6-0.2-1c-0.1-0.3-0.1-0.7-0.1-1s0-0.6,0-0.9c0-0.4,0-0.9,0.1-1.3s0.2-0.9,0.3-1.3c0.2-0.4,0.4-0.8,0.8-1
			c0.3-0.3,0.8-0.4,1.3-0.4c0.4,0,0.8,0.1,1,0.2c0.3,0.1,0.5,0.3,0.7,0.6c0.2,0.2,0.3,0.5,0.4,0.8c0.1,0.3,0.2,0.6,0.2,0.9
			c0.1,0.3,0.1,0.7,0.1,1c0,0.3,0,0.6,0,1c0,0.5,0,0.9-0.1,1.4c-0.1,0.5-0.1,0.9-0.3,1.3c-0.2,0.4-0.4,0.8-0.8,1
			C217,125.5,216.5,125.7,215.9,125.7z M216,125.1c0.3,0,0.5-0.1,0.8-0.2c0.2-0.1,0.3-0.3,0.5-0.5c0.1-0.2,0.2-0.5,0.3-0.7
			c0.1-0.3,0.1-0.5,0.1-0.8c0-0.3,0.1-0.5,0.1-0.8c0-0.2,0-0.5,0-0.7c0-0.2,0-0.4,0-0.7c0-0.2,0-0.5-0.1-0.8
			c-0.1-0.3-0.1-0.5-0.2-0.8c-0.1-0.3-0.2-0.5-0.3-0.7c-0.1-0.2-0.3-0.3-0.5-0.5c-0.2-0.1-0.5-0.2-0.8-0.2s-0.5,0.1-0.7,0.2
			c-0.2,0.1-0.3,0.3-0.5,0.5c-0.1,0.2-0.2,0.4-0.3,0.7c-0.1,0.2-0.1,0.5-0.2,0.8c0,0.3-0.1,0.5-0.1,0.8c0,0.2,0,0.5,0,0.7
			s0,0.5,0,0.7c0,0.3,0,0.5,0.1,0.8c0.1,0.3,0.1,0.5,0.1,0.8c0.1,0.3,0.2,0.5,0.3,0.7c0.1,0.2,0.3,0.3,0.5,0.5
			C215.4,125,215.7,125.1,216,125.1z"/>
	</g>
</g>
</svg>
