<?xml version="1.0" encoding="utf-8"?>
<!-- Generator: Adobe Illustrator 21.0.0, SVG Export Plug-In . SVG Version: 6.00 Build 0)  -->
<svg version="1.1" id="Capa_1" xmlns="http://www.w3.org/2000/svg" xmlns:xlink="http://www.w3.org/1999/xlink" x="0px" y="0px"
	 viewBox="0 0 112.2 100" style="enable-background:new 0 0 112.2 100;" xml:space="preserve">
<style type="text/css">
	.st0{fill:#FFFFFF;}
	.st1{fill:#507283;}
	.st2{fill:#0B3842;}
	.st3{fill:#22B2D9;}
</style>
<g>
	<path class="st0" d="M68.6,8.4l35.5,61.5V70l0,0L91.6,91.6l0,0l0,0h-71L8.1,70l0,0v-0.1L43.6,8.4H68.6 M68.6,5.4h-25
		c-1.1,0-2.1,0.6-2.6,1.5L5.5,68.4C5.2,69,5,69.6,5.1,70.2c0,0.4,0.2,0.8,0.4,1.2L18,93c0.5,0.9,1.5,1.5,2.6,1.5h71
		c1.1,0,2.1-0.6,2.6-1.5l12.5-21.6c0.3-0.5,0.4-1,0.4-1.5s-0.1-1.1-0.4-1.5L71.2,6.9C70.6,6,69.7,5.4,68.6,5.4L68.6,5.4z"/>
</g>
<g>
	<g transform="translate(350,350)">
		<path class="st1" d="M-258.4-258.4h-71l-12.5-21.6L-258.4-258.4z"/>
	</g>
	<path class="st2" d="M8.1,69.9L43.6,8.4h25L8.1,69.9z"/>
	<path class="st2" d="M68.6,8.4l35.5,61.5L91.6,91.5L68.6,8.4z"/>
	<path class="st3" d="M91.6,91.6h-71L104.1,70L91.6,91.6z"/>
	<path class="st3" d="M68.6,8.4l35.5,61.5L43.6,8.4H68.6z"/>
	<path class="st2" d="M91.6,91.6h-71L8.1,70L91.6,91.6z"/>
	<path class="st3" d="M8.1,69.9L43.6,8.4l-23,83.1L8.1,69.9z"/>
</g>
</svg>
