<?xml version="1.0" encoding="utf-8"?>
<!-- Generator: Adobe Illustrator 21.0.0, SVG Export Plug-In . SVG Version: 6.00 Build 0)  -->
<svg version="1.1" id="Capa_1" xmlns="http://www.w3.org/2000/svg" xmlns:xlink="http://www.w3.org/1999/xlink" x="0px" y="0px"
	 viewBox="0 0 361.3 188.7" style="enable-background:new 0 0 361.3 188.7;" xml:space="preserve">
<style type="text/css">
	.st0{fill:#3D588A;}
</style>
<g>
	<path class="st0" d="M175.7,66.4c-1,0-1.4-0.2-1.4-0.2v-0.4c0,0,0.2,0,0.5,0c0.6,0,1.1-0.2,1.6-0.5c0.7-0.5,1.1-1.5,1.1-2.9
		c0-3.1-1.8-3.2-3-3.2c-0.4,0-0.9,0.1-0.9,0.1v9.6c0,1.7,0,2.4,0.3,2.8c0.3,0.4,0.8,0.6,1.7,0.7v0.4c-0.9,0-2.8-0.1-3.5-0.1
		c-0.8,0-2,0-2.9,0.1v-0.4c0.3,0,0.7-0.1,1.1-0.5c0.4-0.4,0.4-1,0.4-2.9v-7.5c0-1.4-0.1-1.9-0.3-2.2c-0.2-0.2-0.5-0.5-1.1-0.5v-0.4
		c0.9,0,1.9,0.1,2.6,0.1c1.2,0,2,0,3.3,0c0.4,0,1.6,0,2.5,0.2c1.6,0.4,3.1,1.3,3.1,3.6C180.6,65.1,178.3,66.4,175.7,66.4L175.7,66.4
		z"/>
	<path class="st0" d="M189.6,73c-4.5,0-7.2-2.8-7.2-7.1c0-4.5,2.9-7.6,7.4-7.6c4.5,0,7.2,2.8,7.2,7.1C197.1,69.9,194.2,73,189.6,73
		L189.6,73z M189.8,59.2c-3,0-4,2.8-4,6.3c0,3.6,1.2,6.5,4,6.5c3,0,4-2.8,4-6.3C193.8,62,192.5,59.2,189.8,59.2L189.8,59.2z"/>
	<path class="st0" d="M212.8,59.2c-0.4,0.4-0.4,1-0.4,2.9v10.7h-1.2l-8.3-11.1c-0.4-0.5-0.5-0.8-0.5-0.8v8.7c0,1.4,0.1,1.9,0.3,2.2
		c0.2,0.2,0.5,0.5,1.1,0.5v0.4c-0.9,0-1.3-0.1-2.1-0.1c-0.8,0-1.2,0-2.2,0.1v-0.4c0.3,0,0.7-0.1,1.1-0.5c0.4-0.4,0.4-1,0.4-2.9v-7.5
		c0-1.4-0.1-1.9-0.3-2.2c-0.2-0.2-0.5-0.5-1.1-0.5v-0.4c0.9,0,1.8,0.1,2.5,0.1c0.3,0,1.3,0,1.9-0.1l6.3,8.4c0.5,0.7,0.7,1.1,0.7,1.1
		v-6.4c0-1.4-0.1-1.9-0.3-2.2c-0.2-0.2-0.5-0.5-1.1-0.5v-0.4c0.9,0,1.4,0.1,2.1,0.1c0.8,0,1.2,0,2.1-0.1v0.4
		C213.6,58.7,213.1,58.9,212.8,59.2L212.8,59.2z"/>
	<path class="st0" d="M226.1,61.2c0-0.7-0.3-1.2-0.7-1.5c-0.5-0.3-0.9-0.3-2.3-0.3h-0.8v10.2c0,1.4,0.1,1.9,0.3,2.2
		c0.4,0.5,1.3,0.6,1.6,0.6v0.4c-0.9,0-2.6-0.1-3.4-0.1c-0.8,0-2.5,0-3.4,0.1v-0.4c0.2,0,1.1-0.1,1.5-0.5c0.4-0.4,0.4-1,0.4-2.9v-9.6
		h-0.8c-1.4,0-1.8,0-2.3,0.3c-0.4,0.2-0.7,0.7-0.7,1.5h-0.5c0.1-1,0.1-2.8,0.1-2.8h11.5c0,0,0,1.8,0.1,2.8H226.1L226.1,61.2z"/>
	<path class="st0" d="M232.7,59.2c-0.4,0.4-0.4,1-0.4,2.9v7.5c0,1.4,0.1,1.9,0.3,2.2c0.2,0.2,0.5,0.5,1.1,0.5v0.4
		c-0.9,0-2.2-0.1-3-0.1c-0.8,0-2.1,0-2.9,0.1v-0.4c0.3,0,0.7-0.1,1.1-0.5c0.4-0.4,0.4-1,0.4-2.9v-7.5c0-1.4-0.1-1.9-0.3-2.2
		c-0.2-0.2-0.5-0.5-1.1-0.5v-0.4c0.9,0,2.2,0.1,3,0.1c0.8,0,2.1,0,2.9-0.1v0.4C233.5,58.7,233,58.9,232.7,59.2L232.7,59.2z"/>
	<path class="st0" d="M245.5,61.2c0-0.7-0.3-1.2-0.7-1.5c-0.5-0.3-0.9-0.3-2.3-0.3h-1.8v5.4h1.8c0.8,0,1.4,0,1.8-0.4
		c0.3-0.2,0.5-0.7,0.6-1.3h0.5c0,0.5,0,0.8,0,2.2c0,1.4,0,1.6,0,2.1h-0.5c0-0.6-0.2-0.9-0.5-1.2c-0.5-0.4-1.1-0.4-1.9-0.4h-1.8v3.9
		c0,1.4,0.1,1.8,0.3,2.1c0.4,0.5,1.3,0.6,1.6,0.6v0.4c-0.9,0-2.6-0.1-3.3-0.1c-1.2,0-1.7,0-3,0.1v-0.4c0.3,0,0.7-0.1,1.1-0.5
		c0.4-0.4,0.4-1,0.4-2.9v-7.5c0-1.4-0.1-1.9-0.3-2.2c-0.2-0.2-0.5-0.5-1.1-0.5v-0.4c1.2,0.1,2.1,0.1,3.4,0.1h6.3c0,0,0,1.8,0.1,2.8
		H245.5L245.5,61.2z"/>
	<path class="st0" d="M252.8,59.2c-0.4,0.4-0.4,1-0.4,2.9v7.5c0,1.4,0.1,1.9,0.3,2.2c0.2,0.2,0.5,0.5,1.1,0.5v0.4
		c-0.9,0-2.2-0.1-2.9-0.1c-0.8,0-2.1,0-2.9,0.1v-0.4c0.3,0,0.7-0.1,1.1-0.5c0.4-0.4,0.4-1,0.4-2.9v-7.5c0-1.4-0.1-1.9-0.3-2.2
		c-0.2-0.2-0.5-0.5-1.1-0.5v-0.4c0.9,0,2.2,0.1,3,0.1c0.8,0,2.1,0,2.9-0.1v0.4C253.5,58.7,253.1,58.9,252.8,59.2L252.8,59.2z"/>
	<path class="st0" d="M267.5,61.2c0-0.6-0.2-1-0.6-1.3c-0.7-0.6-1.8-0.7-2.5-0.7c-1.9,0-4.9,0.4-4.9,6.4c0,3.6,1.2,6.2,4.9,6.2
		c0.8,0,1.8-0.1,2.4-0.8c0.3-0.3,0.5-0.7,0.5-1.3h0.5c0,0.6-0.1,1.3-0.1,2.3v0.4c-1,0.3-2.6,0.5-3.7,0.5c-2.8,0-5-0.8-6.4-2.5
		c-0.9-1.1-1.4-2.6-1.4-4.5c0-3.8,2.1-6.2,4.9-7.2c1.1-0.4,2.5-0.5,3.3-0.5c1.7,0,3.2,0.2,3.4,0.2c0,0.4,0,0.9,0,1.4
		c0,0.6,0,1.1,0,1.4H267.5L267.5,61.2z"/>
	<path class="st0" d="M275.2,59.2c-0.4,0.4-0.4,1-0.4,2.9v7.5c0,1.4,0.1,1.9,0.3,2.2c0.2,0.2,0.5,0.5,1.1,0.5v0.4
		c-0.9,0-2.2-0.1-2.9-0.1c-0.8,0-2.1,0-2.9,0.1v-0.4c0.3,0,0.7-0.1,1.1-0.5c0.4-0.4,0.4-1,0.4-2.9v-7.5c0-1.4-0.1-1.9-0.3-2.2
		c-0.2-0.2-0.5-0.5-1.1-0.5v-0.4c0.9,0,2.2,0.1,2.9,0.1c0.8,0,2.1,0,2.9-0.1v0.4C276,58.7,275.5,58.9,275.2,59.2L275.2,59.2z"/>
	<path class="st0" d="M288.7,72.7c-0.7,0-2.3,0-2.9,0.1v-0.4c0.5,0,0.9-0.1,1-0.3c0.1-0.1,0.2-0.3,0.2-0.5c0-0.3-0.1-0.6-0.3-1.2
		l-1-3h-4.1l-1.1,3c-0.2,0.6-0.3,1-0.3,1.2c0,0.2,0,0.3,0.2,0.5c0.2,0.2,0.7,0.2,1,0.3v0.4c-0.8,0-1.3-0.1-2.1-0.1
		c-0.7,0-1.3,0-2,0.1v-0.4c0.6,0,0.9-0.4,1.1-0.6c0.2-0.3,0.5-1,1.1-2.4l4.5-11l1.6-0.3l3.9,11.1c0.5,1.5,0.9,2.4,1,2.6
		c0.1,0.2,0.4,0.6,1,0.6v0.4C290.8,72.7,289.3,72.7,288.7,72.7L288.7,72.7z M284.3,63.5c-0.5-1.4-0.6-2-0.6-2l-1.8,4.9h3.4
		L284.3,63.5L284.3,63.5z"/>
	<path class="st0" d="M182.3,84.5c-0.4,0.4-0.4,1-0.4,2.9v4.4c0,1.6,0,2.7-0.4,3.5c-1,2.6-3.8,2.8-5.6,2.8c-3.7,0-4.9-1.3-5.5-2.8
		c-0.4-1.1-0.4-2.5-0.4-3.7v-5c0-1.4-0.1-1.9-0.3-2.2c-0.2-0.2-0.5-0.5-1.1-0.5v-0.4c0.9,0,2.2,0.1,3,0.1c0.8,0,2.1,0,2.9-0.1v0.4
		c-0.3,0-0.7,0.1-1.1,0.5c-0.4,0.4-0.4,1-0.4,2.9v5.8c0,2,0.2,4,3.3,4c3.3,0,3.4-2.3,3.4-4v-6.4c0-1.4-0.1-1.9-0.3-2.2
		c-0.2-0.2-0.5-0.5-1.1-0.5v-0.4c0.9,0,1.6,0.1,2.4,0.1s1.7,0,2.6-0.1v0.4C183,84.1,182.6,84.2,182.3,84.5L182.3,84.5z"/>
	<path class="st0" d="M198.6,84.5c-0.4,0.4-0.4,1-0.4,2.9v10.7H197l-8.3-11.1c-0.4-0.5-0.5-0.8-0.5-0.8V95c0,1.4,0.1,1.9,0.3,2.2
		c0.2,0.2,0.5,0.5,1.1,0.5v0.4c-0.9,0-1.3-0.1-2.1-0.1c-0.8,0-1.2,0-2.2,0.1v-0.4c0.3,0,0.7-0.1,1.1-0.5c0.4-0.4,0.4-1,0.4-2.9v-7.5
		c0-1.4-0.1-1.9-0.3-2.2c-0.2-0.2-0.5-0.5-1.1-0.5v-0.4c0.9,0,1.8,0.1,2.5,0.1c0.3,0,1.3,0,1.9-0.1l6.3,8.4c0.5,0.7,0.7,1.1,0.7,1.1
		v-6.4c0-1.4-0.1-1.9-0.3-2.2c-0.2-0.2-0.5-0.5-1.1-0.5v-0.4c0.9,0,1.4,0.1,2.1,0.1c0.8,0,1.2,0,2.1-0.1v0.4
		C199.4,84.1,199,84.2,198.6,84.5L198.6,84.5z"/>
	<path class="st0" d="M206.6,84.5c-0.4,0.4-0.4,1-0.4,2.9V95c0,1.4,0.1,1.9,0.3,2.2c0.2,0.2,0.5,0.5,1.1,0.5v0.4
		c-0.9,0-2.2-0.1-2.9-0.1c-0.8,0-2.1,0-2.9,0.1v-0.4c0.3,0,0.7-0.1,1.1-0.5c0.4-0.4,0.4-1,0.4-2.9v-7.5c0-1.4-0.1-1.9-0.3-2.2
		c-0.2-0.2-0.5-0.5-1.1-0.5v-0.4c0.9,0,2.2,0.1,2.9,0.1c0.8,0,2.1,0,2.9-0.1v0.4C207.4,84.1,207,84.2,206.6,84.5L206.6,84.5z"/>
	<path class="st0" d="M222.3,84.7c-0.2,0.3-0.5,1-1.1,2.4l-4.5,11l-1.7,0.3l-3.9-11.1c-0.5-1.5-0.9-2.4-1-2.6
		c-0.1-0.2-0.4-0.6-1-0.6v-0.4c0.6,0,2.1,0.1,2.7,0.1c0.7,0,2.3,0,2.9-0.1v0.4c-0.5,0-0.9,0.1-1,0.3c-0.1,0.1-0.2,0.3-0.2,0.5
		c0,0.3,0.1,0.6,0.3,1.2l2.4,6.9c0.5,1.3,0.6,2,0.6,2s0.2-0.7,0.7-2L220,86c0.2-0.6,0.3-1,0.3-1.2c0-0.2,0-0.3-0.2-0.5
		c-0.2-0.2-0.7-0.2-1-0.3v-0.4c0.8,0,1.3,0.1,2.1,0.1c0.7,0,1.3,0,2-0.1v0.4C222.7,84,222.4,84.5,222.3,84.7L222.3,84.7z"/>
	<path class="st0" d="M233.9,98h-6.1c-1.2,0-2.4,0-3.6,0v-0.4c0.3,0,0.7-0.1,1.1-0.5c0.4-0.4,0.4-1,0.4-2.9v-7.5
		c0-1.4-0.1-1.9-0.3-2.2c-0.2-0.2-0.5-0.5-1.1-0.5v-0.4c1.2,0.1,2.1,0.1,3.4,0.1h6.3c0,0,0,1.8,0.1,2.8h-0.5c0-0.7-0.3-1.2-0.7-1.5
		c-0.5-0.3-0.9-0.3-2.3-0.3h-1.8v5.4h1.8c0.8,0,1.4,0,1.8-0.4c0.3-0.2,0.5-0.7,0.6-1.3h0.5c0,0.5,0,0.8,0,2.2c0,1.4,0,1.6,0,2.1
		h-0.5c0-0.6-0.2-0.9-0.5-1.2c-0.5-0.4-1.1-0.4-1.9-0.4h-1.8v4.8c0,1,0.2,1.1,1.4,1.1h0.4c1.2,0,2.1,0,2.6-0.6
		c0.3-0.3,0.5-0.8,0.5-1.5h0.5C233.8,96,233.9,98,233.9,98L233.9,98z"/>
	<path class="st0" d="M248.7,98.1c-2.3,0-2.8-0.9-3.6-1.9c-0.5-0.6-2.1-2.7-3.2-4.3H241v3c0,1.4,0.1,1.9,0.3,2.2
		c0.2,0.2,0.5,0.5,1.1,0.5v0.4c-0.9,0-2.1-0.1-2.9-0.1c-0.8,0-2.1,0-2.9,0.1v-0.4c0.3,0,0.7-0.1,1.1-0.5c0.4-0.4,0.4-1,0.4-2.9v-7.5
		c0-1.4-0.1-1.9-0.3-2.2c-0.2-0.2-0.5-0.5-1.1-0.5v-0.4c0.9,0,1.6,0.1,2.4,0.1c1.6,0,1.9-0.1,3.3-0.1c0.5,0,1.6,0,2.5,0.2
		c2.6,0.7,2.9,2.6,2.9,3.5c0,1.1-0.4,3.2-3.2,4c0,0,2.4,2.8,3.7,4.3c1.1,1.2,1.8,2,2.7,2.1v0.4C251.1,98.1,250.6,98.1,248.7,98.1
		L248.7,98.1z M242,84.5c-0.5,0-0.9,0.1-0.9,0.1V91c0,0,0.5,0,1,0c0.3,0,0.6,0,0.9-0.1c0.3-0.1,1.7-0.4,1.7-3.3
		C244.7,84.6,242.8,84.5,242,84.5L242,84.5z"/>
	<path class="st0" d="M255.7,98.2c-1,0-2.4-0.1-3.5-0.5v-0.4c0-1,0-1.7-0.1-2.4h0.5c0.1,0.7,0.3,1.2,0.8,1.6
		c0.6,0.5,1.4,0.6,2.2,0.6c2.8,0,2.9-1.9,2.9-2.3c0-1.4-0.9-1.9-2.1-2.7l-1.2-0.8c-1.6-1-2.6-1.9-2.6-4c0-1.1,0.5-3.8,5.1-3.8
		c2,0,3.4,0.2,3.4,0.2s-0.1,0.5-0.1,1.2c0,1.2,0,1.6,0,1.6h-0.5c0-0.5-0.3-1-0.6-1.3c-0.6-0.6-1.5-0.7-2.2-0.7c-2.3,0-2.5,1.3-2.5,2
		c0,1.1,0.7,1.7,1.8,2.4l1.4,0.8c1.8,1,2.8,2,2.8,4.2C261.2,96.9,258.9,98.2,255.7,98.2L255.7,98.2z"/>
	<path class="st0" d="M268.7,84.5c-0.4,0.4-0.4,1-0.4,2.9V95c0,1.4,0.1,1.9,0.3,2.2c0.2,0.2,0.5,0.5,1.1,0.5v0.4
		c-0.9,0-2.2-0.1-3-0.1c-0.8,0-2.1,0-2.9,0.1v-0.4c0.3,0,0.7-0.1,1.1-0.5c0.4-0.4,0.4-1,0.4-2.9v-7.5c0-1.4-0.1-1.9-0.3-2.2
		c-0.2-0.2-0.5-0.5-1.1-0.5v-0.4c0.9,0,2.2,0.1,2.9,0.1c0.8,0,2.1,0,2.9-0.1v0.4C269.5,84.1,269,84.2,268.7,84.5L268.7,84.5z"/>
	<path class="st0" d="M281.2,97.7c-0.7,0.2-1.9,0.3-3.6,0.3c-1.1,0-1.9-0.1-2.9-0.1c-0.8,0-1.7,0-2.5,0.1v-0.4
		c0.3,0,0.7-0.1,1.1-0.5c0.4-0.4,0.4-1,0.4-2.9v-7.5c0-1.4-0.1-1.9-0.3-2.2c-0.2-0.2-0.5-0.5-1.1-0.5v-0.4c0,0,0.8,0.1,2.4,0.1
		c0.7,0,2,0,3.6,0c2,0,8,0.2,8,6.8C286.3,95.6,283.2,97.2,281.2,97.7L281.2,97.7z M278.2,84.7c-1.2,0-1.6,0.1-1.6,0.1v11.2
		c0,0.6,0.1,1,0.5,1.1c0.2,0.1,0.6,0.1,1,0.1c3.3,0,4.7-1.7,4.7-6.3C283,85.2,280.1,84.7,278.2,84.7L278.2,84.7z"/>
	<path class="st0" d="M298.5,98c-0.7,0-2.3,0-2.9,0.1v-0.4c0.5,0,0.9-0.1,1-0.3c0.1-0.1,0.2-0.3,0.2-0.5c0-0.3-0.1-0.6-0.3-1.2l-1-3
		h-4.1l-1.1,3c-0.2,0.6-0.4,1-0.4,1.2c0,0.2,0,0.4,0.2,0.5c0.2,0.2,0.7,0.2,1,0.3v0.4c-0.8,0-1.3-0.1-2.1-0.1c-0.7,0-1.3,0-2,0.1
		v-0.4c0.6,0,0.9-0.4,1.1-0.6c0.2-0.3,0.5-1,1.1-2.4l4.5-11l1.6-0.3l3.9,11.1c0.5,1.5,0.9,2.4,1,2.6c0.1,0.2,0.4,0.6,1,0.6v0.4
		C300.6,98,299.1,98,298.5,98L298.5,98z M294.1,88.8c-0.5-1.4-0.6-2-0.6-2l-1.8,4.9h3.4L294.1,88.8L294.1,88.8z"/>
	<path class="st0" d="M311.6,97.7c-0.7,0.2-1.9,0.3-3.6,0.3c-1.1,0-1.9-0.1-2.9-0.1c-0.8,0-1.7,0-2.5,0.1v-0.4
		c0.3,0,0.7-0.1,1.1-0.5c0.4-0.4,0.4-1,0.4-2.9v-7.5c0-1.4-0.1-1.9-0.3-2.2c-0.2-0.2-0.5-0.5-1.1-0.5v-0.4c0,0,0.8,0.1,2.4,0.1
		c0.7,0,2,0,3.6,0c2,0,8,0.2,8,6.8C316.7,95.6,313.6,97.2,311.6,97.7L311.6,97.7z M308.6,84.7c-1.2,0-1.6,0.1-1.6,0.1v11.2
		c0,0.6,0.1,1,0.5,1.1c0.2,0.1,0.6,0.1,1,0.1c3.3,0,4.7-1.7,4.7-6.3C313.4,85.2,310.5,84.7,308.6,84.7L308.6,84.7z"/>
	<path class="st0" d="M185.3,112.8c0-0.8-0.3-1.4-0.8-1.8c-1-0.8-2.6-1-3.5-1c-2.7,0-6.9,0.6-6.9,9c0,5.2,1.8,8.8,7,8.8
		c1.1,0,2.6-0.2,3.4-1.1c0.4-0.4,0.7-1.1,0.7-1.9h0.7c-0.1,0.9-0.1,1.9-0.1,3.3v0.5c-1.4,0.5-3.6,0.7-5.2,0.7
		c-3.9,0-7.2-1.1-9.1-3.5c-1.2-1.6-2-3.7-2-6.4c0-5.4,3-8.8,7-10.2c1.6-0.6,3.5-0.7,4.7-0.7c2.4,0,4.6,0.3,4.9,0.3
		c-0.1,0.6-0.1,1.3-0.1,1.9c0,0.8,0,1.6,0.1,2H185.3L185.3,112.8z"/>
	<path class="st0" d="M203.6,129c-0.9,0-3.2,0.1-4.1,0.1v-0.6c0.7,0,1.2-0.2,1.5-0.4c0.2-0.2,0.3-0.4,0.3-0.7c0-0.4-0.2-0.9-0.5-1.8
		l-1.5-4.3h-5.8l-1.6,4.3c-0.3,0.9-0.5,1.4-0.5,1.8c0,0.3,0.1,0.5,0.2,0.7c0.3,0.3,1,0.3,1.4,0.4v0.6c-1.1-0.1-1.8-0.1-3-0.1
		c-1,0-1.9,0-2.9,0.1v-0.6c0.9,0,1.3-0.6,1.5-0.9c0.2-0.4,0.7-1.5,1.5-3.4l6.5-15.7l2.3-0.4l5.6,15.8c0.8,2.1,1.3,3.5,1.5,3.7
		c0.2,0.3,0.6,0.9,1.5,0.9v0.6C206.6,129.1,204.5,129,203.6,129L203.6,129z M197.3,116c-0.7-2-0.8-2.8-0.8-2.8l-2.6,7h4.8L197.3,116
		L197.3,116z"/>
	<path class="st0" d="M223.3,112.8c0-1.1-0.5-1.8-1.1-2.1c-0.7-0.4-1.3-0.5-3.2-0.5h-1.1v14.5c0,2,0.1,2.6,0.4,3.1
		c0.5,0.7,1.9,0.8,2.2,0.8v0.6c-1.2-0.1-3.7-0.1-4.8-0.1c-1.1,0-3.6,0.1-4.8,0.1v-0.6c0.2,0,1.6-0.1,2.1-0.7
		c0.5-0.6,0.6-1.4,0.6-4.1v-13.6h-1.1c-1.9,0-2.5,0.1-3.2,0.5c-0.6,0.3-1,1.1-1.1,2.1h-0.7c0.1-1.4,0.1-4,0.1-4h16.3
		c0,0,0,2.6,0.1,4H223.3L223.3,112.8z"/>
	<path class="st0" d="M236,129.4c-6.4,0-10.2-3.9-10.2-10.2c0-6.5,4.1-10.7,10.6-10.7c6.4,0,10.2,3.9,10.2,10.2
		C246.6,125.1,242.5,129.4,236,129.4L236,129.4z M236.2,109.9c-4.2,0-5.7,4-5.7,9c0,5.2,1.8,9.2,5.7,9.2c4.2,0,5.7-4,5.7-9
		C241.9,113.9,240.1,109.9,236.2,109.9L236.2,109.9z M240.4,104.8l-6.7,2.4l-0.4-0.6l4.3-4.3l0.2-0.1l2.7,2.1L240.4,104.8
		L240.4,104.8z"/>
	<path class="st0" d="M263.7,129.1h-8.5c-1.7,0-3.4,0-5.2,0.1v-0.6c0.4,0,1.1-0.2,1.5-0.7c0.5-0.6,0.6-1.5,0.6-4.1v-10.7
		c0-2-0.1-2.6-0.4-3.1c-0.2-0.3-0.7-0.7-1.6-0.8v-0.6c1.2,0.1,3.4,0.1,4.5,0.1c1.1,0,3.4-0.1,4.6-0.1v0.6c-1.3,0.1-2,0.3-2.4,0.9
		c-0.5,0.6-0.4,1.6-0.4,4v11.9c0,1.4,0.2,1.6,1.9,1.6h0.5c1.7,0,2.8-0.1,3.5-0.8c0.4-0.4,0.7-1.1,0.7-2.1h0.7
		C263.6,126.2,263.7,129.1,263.7,129.1L263.7,129.1z"/>
	<path class="st0" d="M273.8,109.9c-0.5,0.6-0.6,1.5-0.6,4.1v10.7c0,2,0.1,2.6,0.4,3.1c0.2,0.3,0.7,0.7,1.6,0.8v0.6
		c-1.2-0.1-3.1-0.1-4.2-0.1c-1.1,0-3,0.1-4.2,0.1v-0.6c0.4,0,1.1-0.2,1.5-0.7c0.5-0.6,0.6-1.5,0.6-4.1v-10.7c0-2-0.1-2.6-0.4-3.1
		c-0.2-0.3-0.7-0.7-1.6-0.8v-0.6c1.2,0.1,3.1,0.1,4.2,0.1c1.1,0,2.9-0.1,4.2-0.1v0.6C274.9,109.2,274.2,109.4,273.8,109.9
		L273.8,109.9z"/>
	<path class="st0" d="M294.7,112.8c0-0.8-0.3-1.4-0.8-1.8c-1-0.8-2.6-1-3.5-1c-2.7,0-6.9,0.6-6.9,9c0,5.2,1.8,8.8,7,8.8
		c1.1,0,2.6-0.2,3.4-1.1c0.4-0.4,0.7-1.1,0.7-1.9h0.7c-0.1,0.9-0.1,1.9-0.1,3.3v0.5c-1.4,0.5-3.6,0.7-5.2,0.7
		c-3.9,0-7.2-1.1-9.1-3.5c-1.2-1.6-2-3.7-2-6.4c0-5.4,3-8.8,7-10.2c1.6-0.6,3.5-0.7,4.7-0.7c2.4,0,4.6,0.3,4.9,0.3
		c-0.1,0.6-0.1,1.3-0.1,1.9c0,0.8,0,1.6,0.1,2H294.7L294.7,112.8z"/>
	<path class="st0" d="M313,129c-0.9,0-3.2,0.1-4.1,0.1v-0.6c0.7,0,1.2-0.2,1.5-0.4c0.2-0.2,0.3-0.4,0.3-0.7c0-0.4-0.2-0.9-0.5-1.8
		l-1.5-4.3h-5.8l-1.6,4.3c-0.3,0.9-0.5,1.4-0.5,1.8c0,0.3,0.1,0.5,0.2,0.7c0.3,0.3,1,0.3,1.4,0.4v0.6c-1.1-0.1-1.8-0.1-3-0.1
		c-1,0-1.9,0-2.9,0.1v-0.6c0.9,0,1.3-0.6,1.5-0.9c0.2-0.4,0.7-1.5,1.5-3.4l6.5-15.7l2.3-0.4l5.6,15.8c0.8,2.1,1.3,3.5,1.5,3.7
		c0.2,0.3,0.6,0.9,1.5,0.9v0.6C316,129.1,313.9,129,313,129L313,129z M306.7,116c-0.7-2-0.8-2.8-0.8-2.8l-2.6,7h4.8L306.7,116
		L306.7,116z"/>
	<path class="st0" d="M334.5,128.8c-0.7,0.2-1.9,0.3-3.6,0.3c-1.1,0-1.9-0.1-2.9-0.1c-0.8,0-1.7,0-2.5,0.1v-0.4
		c0.3,0,0.7-0.1,1.1-0.5c0.4-0.4,0.4-1,0.4-2.9v-7.5c0-1.4-0.1-1.9-0.3-2.2c-0.2-0.2-0.5-0.5-1.1-0.5v-0.4c0,0,0.8,0.1,2.4,0.1
		c0.7,0,2,0,3.6,0c2,0,8,0.2,8,6.8C339.6,126.7,336.6,128.2,334.5,128.8L334.5,128.8z M331.6,115.7c-1.2,0-1.6,0.1-1.6,0.1V127
		c0,0.6,0.1,1,0.5,1.1c0.2,0.1,0.6,0.1,1,0.1c3.3,0,4.7-1.7,4.7-6.3C336.3,116.3,333.4,115.7,331.6,115.7L331.6,115.7z"/>
	<path class="st0" d="M351.7,129.1h-6.1c-1.2,0-2.4,0-3.6,0v-0.4c0.3,0,0.7-0.1,1.1-0.5c0.4-0.4,0.4-1,0.4-2.9v-7.5
		c0-1.4-0.1-1.9-0.3-2.2c-0.2-0.2-0.5-0.5-1.1-0.5v-0.4c1.2,0.1,2.1,0.1,3.4,0.1h6.3c0,0,0,1.8,0.1,2.8h-0.5c0-0.7-0.3-1.2-0.7-1.5
		c-0.5-0.3-0.9-0.3-2.3-0.3h-1.8v5.4h1.8c0.8,0,1.4,0,1.8-0.4c0.3-0.2,0.5-0.7,0.6-1.3h0.5c0,0.5,0,0.8,0,2.2c0,1.4,0,1.6,0,2.1
		h-0.5c0-0.6-0.2-0.9-0.5-1.2c-0.5-0.4-1.1-0.4-1.9-0.4h-1.8v4.8c0,1,0.2,1.1,1.4,1.1h0.4c1.2,0,2.1,0,2.6-0.6
		c0.3-0.3,0.5-0.8,0.5-1.5h0.5C351.7,127,351.7,129.1,351.7,129.1L351.7,129.1z"/>
	<path class="st0" d="M186.5,141.3c-0.2,0.4-0.7,1.4-1.5,3.4l-6.4,15.5l-2.3,0.4l-5.5-15.7c-0.8-2.1-1.3-3.5-1.5-3.7
		c-0.2-0.3-0.6-0.9-1.4-0.9v-0.6c0.9,0.1,3,0.1,3.9,0.1c0.9,0,3.2-0.1,4.1-0.1v0.6c-0.7,0-1.2,0.2-1.4,0.4c-0.2,0.2-0.3,0.4-0.3,0.7
		c0,0.4,0.2,0.9,0.5,1.8l3.4,9.7c0.6,1.9,0.9,2.8,0.9,2.8s0.3-1,1-2.8l3.6-9.7c0.3-0.9,0.5-1.4,0.5-1.8c0-0.3-0.1-0.5-0.2-0.6
		c-0.3-0.3-1-0.3-1.4-0.4v-0.6c1.1,0.1,1.8,0.1,3,0.1c1,0,1.9,0,2.9-0.1v0.6C187.1,140.4,186.7,141,186.5,141.3L186.5,141.3z"/>
	<path class="st0" d="M202.3,160.1c-0.9,0-3.2,0.1-4.1,0.1v-0.6c0.7,0,1.2-0.2,1.4-0.4c0.2-0.2,0.3-0.4,0.3-0.7
		c0-0.4-0.2-0.9-0.5-1.8l-1.5-4.3h-5.8l-1.6,4.3c-0.3,0.9-0.5,1.4-0.5,1.8c0,0.3,0.1,0.5,0.2,0.6c0.3,0.3,1,0.3,1.4,0.4v0.6
		c-1.1-0.1-1.8-0.1-2.9-0.1c-1,0-1.9,0-2.9,0.1v-0.6c0.9,0,1.3-0.6,1.5-0.9c0.2-0.4,0.7-1.4,1.5-3.4l6.4-15.5l2.3-0.4l5.5,15.7
		c0.8,2.1,1.3,3.5,1.4,3.7c0.2,0.3,0.6,0.9,1.4,0.9v0.6C205.2,160.2,203.1,160.1,202.3,160.1L202.3,160.1z M196.1,147.1
		c-0.7-1.9-0.8-2.8-0.8-2.8l-2.6,6.9h4.8L196.1,147.1L196.1,147.1z"/>
	<path class="st0" d="M221.7,160.2h-8.4c-1.7,0-3.4,0-5.1,0.1v-0.6c0.4,0,1-0.2,1.5-0.7c0.5-0.6,0.6-1.4,0.6-4.1v-10.6
		c0-1.9-0.1-2.6-0.4-3.1c-0.2-0.3-0.7-0.7-1.6-0.8v-0.6c1.2,0.1,3.4,0.1,4.5,0.1c1.1,0,3.4-0.1,4.6-0.1v0.6c-1.3,0.1-2,0.3-2.4,0.9
		c-0.5,0.6-0.4,1.6-0.4,4v11.8c0,1.4,0.2,1.6,1.9,1.6h0.5c1.7,0,2.7-0.1,3.5-0.8c0.4-0.4,0.7-1.1,0.7-2.1h0.6
		C221.6,157.3,221.7,160.2,221.7,160.2L221.7,160.2z"/>
	<path class="st0" d="M234.2,151.2c-1.4,0-2-0.2-2-0.2v-0.6c0,0,0.3,0,0.6,0c0.9,0,1.6-0.2,2.2-0.6c1-0.7,1.5-2.2,1.5-4.1
		c0-4.4-2.6-4.6-4.2-4.6c-0.5,0-1.3,0.1-1.3,0.1v13.6c0,2.4,0,3.4,0.4,4c0.4,0.6,1.1,0.9,2.4,0.9v0.6c-1.2-0.1-3.9-0.1-5-0.1
		c-1.1,0-2.8,0-4.1,0.1v-0.6c0.4,0,1-0.2,1.5-0.7c0.5-0.6,0.6-1.4,0.6-4.1v-10.6c0-1.9-0.1-2.6-0.4-3.1c-0.2-0.3-0.7-0.7-1.6-0.8
		v-0.6c1.2,0.1,2.6,0.1,3.7,0.1c1.7,0,2.8-0.1,4.7-0.1c0.6,0,2.2,0,3.5,0.3c2.3,0.5,4.3,1.9,4.3,5.1
		C241.1,149.4,237.9,151.2,234.2,151.2L234.2,151.2z"/>
	<path class="st0" d="M256.6,160.1c-0.9,0-3.2,0.1-4.1,0.1v-0.6c0.7,0,1.2-0.2,1.4-0.4c0.2-0.2,0.3-0.4,0.3-0.7
		c0-0.4-0.2-0.9-0.5-1.8l-1.5-4.3h-5.8l-1.6,4.3c-0.3,0.9-0.5,1.4-0.5,1.8c0,0.3,0.1,0.5,0.2,0.6c0.3,0.3,1,0.3,1.4,0.4v0.6
		c-1.1-0.1-1.8-0.1-2.9-0.1c-1,0-1.9,0-2.9,0.1v-0.6c0.9,0,1.3-0.6,1.5-0.9c0.2-0.4,0.7-1.4,1.5-3.4l6.4-15.5l2.2-0.4l5.5,15.7
		c0.8,2.1,1.3,3.5,1.4,3.7c0.2,0.3,0.6,0.9,1.5,0.9v0.6C259.6,160.2,257.5,160.1,256.6,160.1L256.6,160.1z M250.4,147.1
		c-0.7-1.9-0.8-2.8-0.8-2.8l-2.6,6.9h4.8L250.4,147.1L250.4,147.1z"/>
	<path class="st0" d="M279.5,160.3c-3.2,0-4-1.3-5.1-2.6c-0.7-0.9-3-3.9-4.5-6.1h-1.3v4.2c0,1.9,0.1,2.6,0.4,3.1
		c0.2,0.3,0.7,0.7,1.6,0.8v0.6c-1.2-0.1-3-0.1-4-0.1c-1.1,0-2.9,0.1-4.1,0.1v-0.6c0.4,0,1-0.2,1.5-0.7c0.5-0.6,0.6-1.4,0.6-4.1
		v-10.6c0-1.9-0.1-2.6-0.4-3.1c-0.2-0.3-0.7-0.7-1.6-0.8v-0.6c1.2,0.1,2.3,0.1,3.3,0.1c2.2,0,2.7-0.1,4.7-0.1c0.7,0,2.3,0,3.5,0.3
		c3.7,0.9,4.1,3.7,4.1,4.9c0,1.6-0.6,4.5-4.5,5.6c0,0,3.4,3.9,5.2,6c1.5,1.7,2.6,2.9,3.9,2.9v0.5
		C282.8,160.2,282.1,160.3,279.5,160.3L279.5,160.3z M269.9,141.1c-0.6,0-1.3,0.1-1.3,0.1v9.1c0,0,0.7,0.1,1.4,0.1
		c0.4,0,0.9,0,1.2-0.1c0.4-0.1,2.5-0.5,2.5-4.7C273.7,141.2,271.1,141.1,269.9,141.1L269.9,141.1z"/>
	<path class="st0" d="M299.9,160.1c-0.9,0-3.2,0.1-4.1,0.1v-0.6c0.7,0,1.2-0.2,1.4-0.4c0.2-0.2,0.3-0.4,0.3-0.7
		c0-0.4-0.2-0.9-0.5-1.8l-1.5-4.3h-5.8l-1.6,4.3c-0.3,0.9-0.5,1.4-0.5,1.8c0,0.3,0.1,0.5,0.2,0.6c0.3,0.3,1,0.3,1.4,0.4v0.6
		c-1.1-0.1-1.8-0.1-2.9-0.1c-1,0-1.9,0-2.9,0.1v-0.6c0.9,0,1.3-0.6,1.5-0.9c0.2-0.4,0.7-1.4,1.5-3.4l6.4-15.5l2.2-0.4l5.5,15.7
		c0.8,2.1,1.3,3.5,1.4,3.7c0.2,0.3,0.6,0.9,1.5,0.9v0.6C302.9,160.2,300.8,160.1,299.9,160.1L299.9,160.1z M293.7,147.1
		c-0.7-1.9-0.8-2.8-0.8-2.8l-2.6,6.9h4.8L293.7,147.1L293.7,147.1z"/>
	<path class="st0" d="M312.6,141.1c-0.5,0.6-0.6,1.5-0.6,4.1v10.6c0,1.9,0.1,2.6,0.4,3.1c0.2,0.3,0.7,0.7,1.6,0.8v0.6
		c-1.2-0.1-3.1-0.1-4.2-0.1c-1.1,0-2.9,0.1-4.1,0.1v-0.6c0.4,0,1-0.2,1.5-0.7c0.5-0.6,0.6-1.4,0.6-4.1v-10.6c0-1.9-0.1-2.6-0.4-3.1
		c-0.2-0.3-0.7-0.7-1.6-0.8v-0.6c1.2,0.1,3.1,0.1,4.2,0.1c1.1,0,2.9-0.1,4.1-0.1v0.6C313.8,140.4,313.1,140.6,312.6,141.1
		L312.6,141.1z M314.1,136l-6.7,2.3l-0.4-0.6l4.3-4.2l0.2-0.1l2.7,2L314.1,136L314.1,136z"/>
	<path class="st0" d="M322.5,160.3c-1.4,0-3.5-0.2-4.9-0.6v-0.5c0-1.4-0.1-2.5-0.1-3.4h0.6c0.1,0.9,0.4,1.7,1.1,2.2
		c0.8,0.7,2,0.8,3.1,0.8c4,0,4-2.6,4-3.2c0-2-1.3-2.7-3-3.8l-1.7-1.1c-2.2-1.4-3.7-2.7-3.7-5.7c0-1.5,0.7-5.4,7.2-5.4
		c2.8,0,4.7,0.3,4.7,0.3s-0.1,0.7-0.1,1.7c0,1.7,0.1,2.2,0.1,2.2h-0.6c-0.1-0.8-0.4-1.4-0.8-1.8c-0.8-0.8-2.2-1-3.1-1
		c-3.2,0-3.5,1.8-3.5,2.9c0,1.6,0.9,2.4,2.6,3.4l2,1.2c2.5,1.5,4,2.8,4,5.9C330.3,158.6,327,160.3,322.5,160.3L322.5,160.3z"/>
	<path class="st0" d="M344.1,160.5c-6.4,0-10.1-3.9-10.1-10.1c0-6.4,4.1-10.7,10.5-10.7c6.4,0,10.1,3.9,10.1,10.1
		C354.6,156.2,350.6,160.5,344.1,160.5L344.1,160.5z M344.3,141.1c-4.2,0-5.7,4-5.7,8.9c0,5.1,1.8,9.1,5.7,9.1c4.2,0,5.7-4,5.7-8.9
		C350,145.1,348.2,141.1,344.3,141.1L344.3,141.1z"/>
	<polygon class="st0" points="80.1,23.3 80.1,26.1 77,26.1 77,27.8 80.1,27.8 80.1,33.3 81.9,33.3 81.9,27.8 84.9,27.8 84.9,26.1 
		81.9,26.1 81.9,23.3 80.1,23.3 	"/>
	<path class="st0" d="M27.6,107.5c0,29.7,23.9,53.7,53.4,53.7c29.5,0,53.4-24,53.4-53.7c0-29.5-24.1-53.7-53.4-53.7
		C51.5,53.8,27.6,77.8,27.6,107.5 M29.1,108.3H64c0.2,13.8,7.2,22.9,16.1,25.2v26.2C51.9,159.3,29.4,136.5,29.1,108.3 M81,91.3
		c3.3,1.1,7.4,1.8,15.6,1.3v14.9c0,13.3-6.6,22.8-15.6,24.8c-9.1-2-15.6-11.5-15.6-24.8V92.5C73.6,93.1,77.7,92.4,81,91.3
		 M81.9,159.7v-26.2c8.9-2.3,15.8-11.5,16.1-25.2h35.1C132.7,136.5,109.7,159.3,81.9,159.7 M133.1,106.6H98V91.3
		c-7.6,0.7-12.7-0.1-16.2-1.2V55.2C109.7,55.6,132.7,78.7,133.1,106.6 M80.1,55.2v34.8c-3.4,1.1-8.6,1.9-16.2,1.2v15.3H29.1
		C29.4,78.4,51.9,55.6,80.1,55.2"/>
	<path class="st0" d="M90.8,33.8l-0.4,1.5c35.7,4.7,63.2,35.7,63.2,72.3c0,40-32.6,72.8-72.6,72.8c-40,0-72.6-32.8-72.6-72.8
		c0-36.8,27.5-67.5,63.2-72.3l-0.4-1.5C35,38.3,6.8,70,6.8,107.5c0,41.1,33.3,74.6,74.3,74.6c40.9,0,74.3-33.5,74.3-74.6
		C155.3,70,127.1,38.3,90.8,33.8"/>
	<path class="st0" d="M105.6,33l-14-1.5l-0.2,1.1l12.7,1.9C104.5,34.2,105.2,33.4,105.6,33 M91.6,30.2l14.9,1.1
		c0.4-0.6,1.3-1.5,1.3-1.5l-1.3-1L91.6,29V30.2L91.6,30.2z M91.4,27.1l0.2,1l13.4-1.3c0,0-1.1-1.5-1.5-1.9L91.4,27.1L91.4,27.1z
		 M90.9,25l0.4,1.1l11-3.2l-0.9-1.9L90.9,25L90.9,25z M89.8,23.1l0.6,1l10.1-5.5c-0.2-0.4-0.4-2.3-0.4-2.3L89.8,23.1L89.8,23.1z
		 M88.3,21.4l0.9,1l10.3-8.6v-2.3h-2L88.3,21.4L88.3,21.4z M86.5,20.1l0.9,0.6l7-9.5l-2.6-0.2L86.5,20.1L86.5,20.1z M84.8,18.9
		l0.9,0.6l3.9-9l-2-0.8L84.8,18.9L84.8,18.9z M82.6,18.5l1.1,0.2l2.2-9.9l-1.3-1L82.6,18.5L82.6,18.5z M56.7,33
		c0.4,0.4,1.1,1.1,1.5,1.5l12.7-1.9l-0.2-1.1L56.7,33L56.7,33z M70.7,30.2V29l-14.9-0.2l-1.3,1c0,0,0.9,1,1.3,1.5L70.7,30.2
		L70.7,30.2z M70.9,27.1l-12.1-2.3c-0.4,0.4-1.5,1.9-1.5,1.9l13.4,1.3L70.9,27.1L70.9,27.1z M71.4,25l-10.5-4L60,22.9l11,3.2
		L71.4,25L71.4,25z M72.5,23.1l-10.3-6.9c0,0-0.2,1.9-0.4,2.3L72,24.1L72.5,23.1L72.5,23.1z M74,21.4l-9.2-9.9h-2v2.3l10.3,8.6
		L74,21.4L74,21.4z M75.8,20.1l-5.3-9.2l-2.6,0.2l7,9.5L75.8,20.1L75.8,20.1z M77.5,18.9l-2.8-9.2l-2,0.8l3.9,9L77.5,18.9L77.5,18.9
		z M79.7,18.5l-2-10.7c0,0-1.1,0.8-1.3,1l2.2,9.9L79.7,18.5L79.7,18.5z M81.7,18.4l0.9-11.8c-0.7-0.2-1.5-1-1.5-1s-0.7,0.8-1.5,1
		l0.9,11.8H81.7L81.7,18.4z"/>
	<path class="st0" d="M34.4,156.6c-0.4-0.2-1-0.7-1.7-1.4c-0.5-0.5-0.8-0.9-1.2-1.3c-0.3-0.3-0.7-0.7-1.1-1.1l0.2-0.2
		c0.1,0.1,0.4,0.3,0.7,0.3c0.3,0,0.6-0.3,1.4-1.1l3.2-3.3c0.6-0.6,0.8-0.8,0.8-1.1c0-0.2,0-0.4-0.2-0.7l0.2-0.2c0,0,0.3,0.4,1,1.1
		c0.3,0.3,0.9,0.8,1.6,1.5c0.9,0.8,3.4,3.5,0.6,6.4C37.5,157.9,35.5,157.3,34.4,156.6 M38.7,149.6c-0.5-0.5-0.7-0.6-0.7-0.6
		l-4.8,4.9c-0.3,0.3-0.4,0.4-0.2,0.7c0.1,0.1,0.2,0.3,0.4,0.5c1.4,1.4,2.8,1.3,4.8-0.7C40.6,151.9,39.6,150.5,38.7,149.6"/>
	<path class="st0" d="M43.4,164.2l-3-2.2c-0.6-0.4-1.2-0.9-1.8-1.3l0.1-0.2c0.1,0.1,0.4,0.2,0.7,0.1c0.3-0.1,0.6-0.4,1.3-1.3
		l2.7-3.7c0.5-0.7,0.6-0.9,0.7-1.2c0-0.2-0.1-0.4-0.4-0.7l0.1-0.2c0.6,0.5,1,0.8,1.6,1.3l3.1,2.3c0,0-0.7,0.9-1,1.4l-0.2-0.2
		c0.3-0.4,0.3-0.7,0.2-1c-0.1-0.3-0.3-0.5-1-1l-0.9-0.7l-1.9,2.7l0.9,0.7c0.4,0.3,0.7,0.5,1,0.5c0.2,0,0.5-0.1,0.7-0.4l0.2,0.2
		c-0.2,0.2-0.3,0.4-0.8,1.1c-0.5,0.7-0.6,0.8-0.7,1.1l-0.2-0.2c0.2-0.3,0.2-0.5,0.2-0.8c-0.1-0.4-0.4-0.6-0.8-0.9l-0.9-0.7l-1.8,2.4
		c-0.4,0.5-0.3,0.6,0.3,1l0.2,0.1c0.6,0.4,1,0.7,1.5,0.7c0.2,0,0.5-0.2,0.8-0.5l0.2,0.2C44.2,163.2,43.4,164.2,43.4,164.2"/>
	<path class="st0" d="M59.5,163.5c-0.2,0.1-0.5,0.4-1.2,1l-5.4,4.9l-1-0.3l0.7-7.2c0.1-1,0.1-1.6,0.1-1.7c0-0.1-0.1-0.5-0.4-0.6
		l0.1-0.2c0.3,0.2,1.1,0.6,1.5,0.8c0.4,0.2,1.3,0.6,1.6,0.7l-0.1,0.2c-0.3-0.1-0.5-0.2-0.6-0.1c-0.1,0-0.2,0.1-0.2,0.2
		c-0.1,0.1-0.1,0.4-0.1,0.8l-0.5,4.4c-0.1,0.9-0.2,1.3-0.2,1.3s0.3-0.3,0.9-0.9l3.2-3.1c0.3-0.3,0.4-0.4,0.5-0.6
		c0.1-0.1,0.1-0.2,0-0.3c-0.1-0.2-0.3-0.3-0.5-0.4l0.1-0.2c0.4,0.2,0.7,0.4,1.1,0.6c0.4,0.2,0.7,0.3,1.2,0.5l-0.1,0.2
		C59.9,163.2,59.6,163.4,59.5,163.5"/>
	<path class="st0" d="M63.7,173.3c-0.4-0.1-1.3-0.4-1.7-0.5l0.1-0.2c0.3,0.1,0.5,0.1,0.7,0c0.1,0,0.2-0.1,0.2-0.2
		c0-0.2,0.1-0.4,0-0.8l-0.1-2l-2.4-0.7l-1.2,1.6c-0.2,0.3-0.4,0.5-0.4,0.7c0,0.1,0,0.2,0,0.3c0.1,0.2,0.4,0.3,0.5,0.3l-0.1,0.2
		c-0.4-0.2-0.7-0.3-1.2-0.4c-0.4-0.1-0.8-0.2-1.2-0.3l0.1-0.2c0.4,0.1,0.6-0.1,0.7-0.2c0.1-0.1,0.5-0.5,1.1-1.2l4.6-5.6l1,0.1
		l0.3,7.2c0,1,0.1,1.6,0.1,1.7c0,0.1,0.1,0.4,0.5,0.5l-0.1,0.2C64.9,173.7,64.1,173.4,63.7,173.3 M62.8,167.1c0-0.9,0-1.3,0-1.3
		l-1.9,2.5l2,0.6L62.8,167.1L62.8,167.1z"/>
	<path class="st0" d="M73.1,175.2l-3.6-0.6c-0.7-0.1-1.5-0.3-2.2-0.3l0-0.2c0.2,0,0.5,0,0.7-0.2c0.3-0.2,0.3-0.6,0.5-1.7l0.7-4.6
		c0.1-0.8,0.1-1.1,0-1.4c-0.1-0.2-0.3-0.4-0.6-0.4l0-0.2c0.5,0.1,1.5,0.3,1.9,0.4c0.5,0.1,1.4,0.2,2,0.3l0,0.3
		c-0.6-0.1-0.9,0-1.1,0.2c-0.2,0.2-0.3,0.6-0.5,1.7l-0.8,5.1c-0.1,0.6,0,0.7,0.7,0.8l0.2,0c0.7,0.1,1.2,0.2,1.6-0.1
		c0.2-0.1,0.4-0.4,0.5-0.8l0.3,0C73.3,173.9,73.1,175.2,73.1,175.2"/>
	<path class="st0" d="M79.8,171.7c-0.6,0-0.9-0.1-0.9-0.1l0-0.3c0,0,0.1,0,0.3,0c0.4,0,0.7-0.1,1-0.3c0.4-0.3,0.7-0.9,0.7-1.8
		c0.1-1.9-1.1-2-1.7-2c-0.2,0-0.6,0-0.6,0l-0.2,5.9c0,1-0.1,1.5,0.1,1.7c0.2,0.3,0.5,0.4,1,0.4l0,0.2c-0.5,0-1.7-0.1-2.2-0.1
		c-0.5,0-1.2,0-1.8,0l0-0.2c0.2,0,0.5-0.1,0.7-0.3c0.2-0.2,0.3-0.6,0.3-1.8l0.1-4.6c0-0.8,0-1.1-0.1-1.3c-0.1-0.2-0.3-0.3-0.7-0.4
		l0-0.2c0.5,0,1.1,0.1,1.6,0.1c0.7,0,1.2,0,2,0c0.3,0,1,0,1.5,0.2c1,0.3,1.9,0.9,1.8,2.3C82.8,171,81.5,171.8,79.8,171.7"/>
	<path class="st0" d="M90.5,175c-0.4,0-1.4,0.2-1.8,0.2l0-0.2c0.3,0,0.5-0.1,0.6-0.2c0.1-0.1,0.1-0.2,0.1-0.3c0-0.2-0.1-0.4-0.3-0.7
		l-0.8-1.8l-2.5,0.3l-0.5,1.9c-0.1,0.4-0.2,0.6-0.1,0.8c0,0.1,0,0.2,0.1,0.3c0.2,0.1,0.4,0.1,0.6,0.1l0,0.2c-0.5,0-0.8,0-1.3,0.1
		c-0.4,0-0.8,0.1-1.2,0.2l0-0.2c0.4,0,0.5-0.3,0.6-0.5c0.1-0.2,0.2-0.7,0.5-1.5l2.1-7l1-0.3l3.1,6.5c0.4,0.9,0.7,1.4,0.8,1.5
		c0.1,0.1,0.3,0.4,0.7,0.3l0,0.2C91.8,174.9,90.9,174.9,90.5,175 M87.3,169.6c-0.4-0.8-0.5-1.2-0.5-1.2l-0.8,3.1l2.1-0.2L87.3,169.6
		L87.3,169.6z"/>
	<path class="st0" d="M101.5,172.6c-1.3,0.3-1.8-0.1-2.4-0.6c-0.4-0.3-1.7-1.3-2.6-2.1l-0.5,0.1l0.5,1.8c0.2,0.8,0.3,1.1,0.5,1.3
		c0.1,0.1,0.4,0.2,0.7,0.2l0.1,0.2c-0.5,0.1-1.3,0.3-1.7,0.4c-0.5,0.1-1.2,0.3-1.7,0.5l-0.1-0.2c0.2,0,0.4-0.2,0.6-0.4
		c0.2-0.3,0.1-0.7-0.2-1.8l-1.2-4.5c-0.2-0.8-0.3-1.1-0.5-1.3c-0.1-0.1-0.4-0.2-0.7-0.2l-0.1-0.2c0.5-0.1,1-0.2,1.4-0.3
		c0.9-0.2,1.1-0.3,2-0.6c0.3-0.1,1-0.2,1.5-0.3c1.6,0,2.1,1.1,2.3,1.6c0.2,0.7,0.3,2-1.3,2.9c0,0,1.9,1.3,2.9,2
		c0.8,0.6,1.4,0.9,1.9,0.8l0.1,0.2C102.9,172.2,102.6,172.4,101.5,172.6 M95.4,165.6c-0.3,0.1-0.5,0.2-0.5,0.2l1,3.8
		c0,0,0.3-0.1,0.6-0.1c0.2,0,0.4-0.1,0.5-0.2c0.2-0.1,1-0.5,0.5-2.2C97,165.2,95.9,165.4,95.4,165.6"/>
	<path class="st0" d="M110.9,168.8c-0.4,0.2-1.3,0.6-1.6,0.8l-0.1-0.2c0.3-0.1,0.4-0.3,0.5-0.4c0-0.1,0-0.2,0-0.3
		c-0.1-0.1-0.2-0.3-0.5-0.6l-1.3-1.4l-2.3,1l0.1,2c0,0.4,0,0.6,0.1,0.8c0,0.1,0.1,0.2,0.2,0.2c0.2,0.1,0.5,0,0.6-0.1l0.1,0.2
		c-0.4,0.2-0.7,0.3-1.2,0.5c-0.4,0.2-0.7,0.3-1.1,0.6l-0.1-0.2c0.3-0.1,0.4-0.5,0.4-0.6c0-0.2,0-0.7,0-1.6l-0.2-7.3l0.8-0.6l5,5.3
		c0.7,0.7,1.1,1.1,1.2,1.2c0.1,0.1,0.4,0.3,0.7,0.1l0.1,0.2C112.1,168.3,111.3,168.6,110.9,168.8 M106.2,164.7c-0.6-0.7-0.8-1-0.8-1
		l0.2,3.2l1.9-0.8L106.2,164.7L106.2,164.7z"/>
	<path class="st0" d="M111.9,156.2l-2,2.4l-0.3-0.1l0.7-2.5l0.1-0.1l1.4,0.2L111.9,156.2L111.9,156.2z M112.5,158.4
		c-0.1,0.3,0.1,0.7,0.7,1.7l2.4,4c0.4,0.7,0.6,1,0.8,1.1c0.2,0.1,0.4,0.1,0.8-0.1l0.1,0.2c-0.5,0.2-1.2,0.6-1.6,0.9
		c-0.4,0.2-1.1,0.7-1.5,1l-0.1-0.2c0.1-0.1,0.4-0.3,0.4-0.6c0.1-0.3-0.1-0.7-0.7-1.7l-2.4-4c-0.4-0.7-0.6-1-0.8-1.1
		c-0.2-0.1-0.4-0.1-0.8,0.1l-0.1-0.2c0.5-0.2,1.2-0.6,1.6-0.9c0.4-0.2,1.1-0.7,1.5-1l0.1,0.2C112.7,157.9,112.5,158.1,112.5,158.4"
		/>
	<path class="st0" d="M121.1,162.7c-0.5,0.4-1.3,0.8-1.9,1l-0.1-0.2c-0.4-0.5-0.7-0.8-0.9-1.1l0.2-0.2c0.3,0.3,0.6,0.5,1,0.5
		c0.5,0,0.9-0.2,1.3-0.5c1.4-1,0.7-2,0.6-2.2c-0.5-0.7-1.2-0.6-2-0.5l-0.9,0.1c-1.1,0.1-2,0-2.8-1c-0.4-0.5-1.1-2.1,1.1-3.7
		c1-0.7,1.7-1.1,1.7-1.1s0.1,0.3,0.4,0.6c0.4,0.6,0.6,0.8,0.6,0.8l-0.2,0.2c-0.2-0.3-0.5-0.4-0.8-0.4c-0.5-0.1-1,0.2-1.4,0.5
		c-1.1,0.8-0.8,1.6-0.5,1.9c0.4,0.6,0.9,0.6,1.8,0.5l1-0.1c1.3-0.1,2.1-0.1,2.9,1C123.4,160,122.7,161.5,121.1,162.7"/>
	<path class="st0" d="M129.3,155.8c-2,2-4.3,1.9-6.2,0c-2-2-2-4.5-0.1-6.5c2-2,4.3-1.9,6.2,0C131.2,151.3,131.2,153.8,129.3,155.8
		 M123.3,149.8c-1.3,1.3-0.5,3,1,4.5c1.6,1.6,3.3,2.3,4.6,1.1c1.3-1.3,0.5-3-1-4.5C126.3,149.3,124.5,148.6,123.3,149.8"/>
	<path class="st0" d="M22.3,130.4c0.2,0.6,0.2,0.9,0.2,0.9l-0.2,0.1c0,0,0-0.1-0.1-0.3c-0.1-0.4-0.3-0.6-0.6-0.8
		c-0.5-0.3-1.1-0.3-1.9,0.1c-1.8,0.7-1.4,1.8-1.2,2.4c0.1,0.2,0.2,0.5,0.2,0.5l5.5-2.2c1-0.4,1.4-0.5,1.5-0.8c0.2-0.3,0.2-0.6,0-1.1
		l0.2-0.1c0.2,0.5,0.6,1.6,0.8,2c0.2,0.4,0.5,1.1,0.7,1.6l-0.2,0.1c-0.1-0.2-0.2-0.4-0.5-0.5c-0.3-0.1-0.7,0-1.7,0.4l-4.3,1.7
		c-0.8,0.3-1,0.5-1.2,0.7c-0.1,0.2-0.2,0.4-0.1,0.8l-0.2,0.1c-0.2-0.5-0.4-1.1-0.6-1.5c-0.3-0.7-0.5-1.1-0.8-1.9
		c-0.1-0.2-0.4-0.9-0.4-1.5c-0.2-1,0.1-2,1.4-2.6C20.4,128,21.7,128.9,22.3,130.4"/>
	<path class="st0" d="M23.5,120.7c0.6,2.7-0.6,4.7-3.3,5.3c-2.7,0.6-4.9-0.7-5.6-3.4c-0.6-2.7,0.6-4.7,3.3-5.3
		C20.6,116.7,22.8,118,23.5,120.7 M15.2,122.6c0.4,1.8,2.3,2,4.3,1.5c2.2-0.5,3.7-1.6,3.3-3.3c-0.4-1.8-2.3-2-4.3-1.5
		C16.4,119.8,14.9,120.9,15.2,122.6"/>
	<path class="st0" d="M13.4,107.1c0.3,0.2,0.6,0.2,1.8,0.1l6.6-0.4l0,0.8l-6.5,5.5c-0.3,0.2-0.5,0.4-0.5,0.4l5.3-0.3
		c0.8,0,1.1-0.1,1.3-0.2c0.1-0.1,0.3-0.3,0.3-0.7l0.2,0c0,0.5,0,0.8,0,1.3c0,0.5,0,0.8,0.1,1.3l-0.2,0c0-0.2-0.1-0.5-0.3-0.6
		c-0.3-0.2-0.6-0.2-1.8-0.1l-4.6,0.3c-0.8,0-1.1,0.1-1.3,0.2c-0.1,0.1-0.3,0.3-0.3,0.7l-0.2,0c0-0.5,0-1.1,0-1.6
		c0-0.2-0.1-0.8-0.1-1.2l5-4.2c0.4-0.4,0.6-0.5,0.6-0.5l-3.9,0.2c-0.8,0-1.1,0.1-1.3,0.2c-0.1,0.1-0.3,0.3-0.3,0.7l-0.2,0
		c0-0.5,0-0.8,0-1.3c0-0.5,0-0.7-0.1-1.3l0.2,0C13.1,106.7,13.1,106.9,13.4,107.1"/>
	<path class="st0" d="M15.3,97.8c-0.5,0-0.8,0.1-1,0.4c-0.2,0.3-0.3,0.5-0.3,1.4l0,0.5l6.2,0.6c0.8,0.1,1.1,0.1,1.3,0
		c0.3-0.2,0.4-0.8,0.4-0.9l0.3,0c-0.1,0.5-0.2,1.6-0.2,2.1c0,0.5-0.1,1.6-0.1,2.1l-0.2,0c0-0.1,0-0.7-0.2-1
		c-0.2-0.3-0.6-0.3-1.7-0.4l-5.8-0.6l0,0.5c-0.1,0.8-0.1,1.1,0.1,1.4c0.1,0.3,0.4,0.5,0.9,0.5l0,0.3c-0.6-0.1-1.7-0.2-1.7-0.2l0.7-7
		c0,0,1.1,0.1,1.7,0.1L15.3,97.8L15.3,97.8z"/>
	<path class="st0" d="M15.1,92.6c0.2,0.3,0.6,0.4,1.7,0.6l4.5,0.9c0.8,0.2,1.1,0.2,1.3,0.1c0.2-0.1,0.4-0.3,0.5-0.6l0.2,0
		c-0.1,0.5-0.3,1.3-0.4,1.8c-0.1,0.5-0.2,1.3-0.3,1.8l-0.2,0c0-0.2,0-0.5-0.2-0.7c-0.2-0.3-0.6-0.4-1.7-0.6L16,94.9
		c-0.8-0.2-1.1-0.2-1.3-0.1c-0.2,0.1-0.4,0.3-0.5,0.6L14,95.4c0.1-0.5,0.3-1.3,0.4-1.8c0.1-0.5,0.2-1.3,0.3-1.8l0.2,0
		C14.9,92.1,14.9,92.4,15.1,92.6"/>
	<path class="st0" d="M18.7,84.5c-0.4-0.1-0.8,0-1,0.2c-0.3,0.2-0.4,0.5-0.6,1.3l-0.3,1l3.1,1l0.3-1.1c0.1-0.5,0.2-0.8,0.1-1.1
		c-0.1-0.2-0.3-0.4-0.6-0.6l0.1-0.3c0.3,0.1,0.5,0.2,1.3,0.4c0.8,0.3,0.9,0.3,1.2,0.4L22.2,86c-0.3-0.1-0.6,0-0.8,0.1
		c-0.3,0.2-0.5,0.6-0.6,1l-0.3,1l2.3,0.7c0.8,0.3,1.1,0.3,1.3,0.2c0.4-0.1,0.6-0.7,0.6-0.8l0.2,0.1c-0.2,0.5-0.5,1.5-0.7,1.9
		c-0.2,0.7-0.3,1-0.5,1.8L23.5,92c0.1-0.2,0.1-0.5-0.1-0.7c-0.2-0.3-0.5-0.4-1.6-0.8l-4.4-1.4c-0.8-0.3-1.1-0.3-1.3-0.2
		c-0.2,0.1-0.4,0.2-0.5,0.5l-0.2-0.1c0.3-0.7,0.4-1.2,0.7-2l1.2-3.7c0,0,1.1,0.4,1.7,0.5L18.7,84.5L18.7,84.5z"/>
	<path class="st0" d="M19.7,79c0.1,0.3,0.5,0.5,1.5,0.9l4.2,1.9c0.8,0.3,1.1,0.4,1.3,0.4c0.2,0,0.4-0.2,0.6-0.5l0.2,0.1
		c-0.2,0.5-0.6,1.2-0.8,1.6c-0.2,0.4-0.5,1.2-0.7,1.7L25.9,85c0.1-0.2,0.1-0.4,0-0.7c-0.1-0.3-0.5-0.5-1.5-0.9l-4.2-1.9
		c-0.8-0.3-1.1-0.4-1.3-0.4c-0.2,0-0.4,0.2-0.6,0.5L18,81.5c0.2-0.5,0.6-1.2,0.8-1.6c0.2-0.4,0.5-1.2,0.7-1.7l0.2,0.1
		C19.7,78.4,19.6,78.7,19.7,79"/>
	<path class="st0" d="M25.7,70.7c-0.3-0.2-0.6-0.2-0.9-0.1c-0.5,0.2-0.9,0.7-1.1,1.1c-0.6,1-1.3,2.7,1.8,4.6
		c1.9,1.1,3.7,1.3,4.8-0.7c0.2-0.4,0.5-1,0.3-1.5c-0.1-0.2-0.2-0.5-0.6-0.7l0.1-0.2c0.3,0.2,0.7,0.5,1.2,0.8l0.2,0.1
		c-0.1,0.6-0.5,1.5-0.9,2.1c-0.9,1.5-2,2.4-3.3,2.6c-0.8,0.1-1.8-0.1-2.8-0.7c-2-1.2-2.6-3.1-2.2-4.8c0.1-0.7,0.5-1.5,0.8-1.9
		c0.5-0.9,1.1-1.6,1.2-1.7c0.2,0.2,0.5,0.3,0.7,0.4c0.3,0.2,0.6,0.3,0.8,0.4L25.7,70.7L25.7,70.7z"/>
	<path class="st0" d="M28.1,65.4c0.1,0.3,0.4,0.6,1.3,1.3l3.7,2.8c0.7,0.5,0.9,0.7,1.2,0.7c0.2,0,0.4-0.1,0.7-0.3l0.2,0.1
		c-0.3,0.4-0.9,1-1.1,1.4c-0.3,0.4-0.8,1-1,1.5l-0.2-0.1c0.1-0.1,0.2-0.4,0.2-0.7c-0.1-0.3-0.4-0.6-1.3-1.3l-3.7-2.8
		c-0.7-0.5-0.9-0.7-1.2-0.7c-0.2,0-0.4,0.1-0.7,0.3l-0.2-0.1c0.3-0.4,0.9-1,1.1-1.4c0.3-0.4,0.8-1,1-1.5l0.2,0.1
		C28.2,64.8,28,65.1,28.1,65.4"/>
	<path class="st0" d="M40.3,64.2c-0.3,0.3-1,1-1.2,1.3l-0.2-0.2c0.2-0.2,0.3-0.4,0.3-0.6c0-0.1,0-0.2-0.1-0.3
		c-0.1-0.1-0.3-0.2-0.7-0.4l-1.8-0.8L34.9,65l0.9,1.8c0.2,0.4,0.3,0.6,0.4,0.7c0.1,0.1,0.2,0.1,0.3,0.1c0.2,0,0.4-0.2,0.5-0.3
		l0.2,0.2c-0.3,0.3-0.6,0.5-0.9,0.9c-0.3,0.3-0.6,0.6-0.8,0.9l-0.2-0.2c0.3-0.3,0.2-0.6,0.2-0.7c0-0.2-0.2-0.7-0.6-1.5l-2.9-6.7
		l0.6-0.8l6.6,3c0.9,0.4,1.5,0.6,1.6,0.7c0.1,0,0.5,0.1,0.7-0.2l0.2,0.2C41.2,63.2,40.6,63.9,40.3,64.2 M34.4,62.2
		c-0.8-0.4-1.1-0.6-1.1-0.6l1.4,2.9l1.5-1.5L34.4,62.2L34.4,62.2z"/>
	<path class="st0" d="M47.2,48.8c-0.1,0.3,0.1,0.7,0.8,1.6l1.5,2.3c0.6,0.8,0.9,1.4,1,1.9c0.4,1.7-1,2.7-1.9,3.3
		c-1.9,1.2-3,1-3.8,0.4c-0.6-0.4-1-1.2-1.4-1.8L41.6,54c-0.5-0.7-0.7-0.9-0.9-1c-0.2-0.1-0.4-0.1-0.8,0.1l-0.1-0.2
		c0.4-0.3,1.1-0.7,1.5-0.9c0.4-0.3,1-0.7,1.5-1l0.1,0.2c-0.1,0.1-0.3,0.3-0.4,0.6c-0.1,0.3,0.1,0.7,0.8,1.6l2,3c0.7,1,1.4,2,3.1,0.9
		c1.7-1.1,1-2.3,0.4-3.2l-2.2-3.3c-0.5-0.7-0.7-0.9-0.9-1c-0.2-0.1-0.4-0.1-0.8,0.1l-0.1-0.2c0.5-0.3,0.8-0.5,1.2-0.7
		c0.4-0.3,0.9-0.6,1.3-0.9l0.1,0.2C47.4,48.2,47.2,48.5,47.2,48.8"/>
	<path class="st0" d="M57.6,43.9c-0.1,0.3,0,0.7,0.5,1.7l2.6,6L60,51.9l-7.4-4.2c-0.3-0.2-0.5-0.3-0.5-0.3l2.1,4.9
		c0.3,0.8,0.5,1,0.7,1.2c0.2,0.1,0.4,0.2,0.8,0l0.1,0.2c-0.5,0.2-0.7,0.3-1.2,0.5c-0.4,0.2-0.7,0.3-1.2,0.6l-0.1-0.2
		c0.2-0.1,0.4-0.2,0.5-0.5c0.1-0.3,0-0.7-0.5-1.7L51.4,48c-0.3-0.8-0.5-1-0.7-1.2c-0.2-0.1-0.4-0.2-0.8,0l-0.1-0.2
		c0.5-0.2,1-0.4,1.4-0.6c0.2-0.1,0.7-0.3,1-0.5l5.6,3.2c0.5,0.3,0.7,0.4,0.7,0.4l-1.6-3.6c-0.3-0.8-0.5-1-0.7-1.2
		c-0.2-0.1-0.4-0.2-0.8,0l-0.1-0.2c0.5-0.2,0.8-0.3,1.2-0.5c0.4-0.2,0.7-0.3,1.2-0.6l0.1,0.2C57.9,43.4,57.6,43.6,57.6,43.9"/>
	<path class="st0" d="M63.4,42.1c-0.1,0.3-0.1,0.7,0.3,1.8l1.3,4.4c0.2,0.8,0.4,1.1,0.5,1.2c0.1,0.1,0.4,0.2,0.7,0.1l0.1,0.2
		c-0.5,0.1-1.3,0.3-1.8,0.5c-0.5,0.1-1.2,0.4-1.7,0.6l-0.1-0.2c0.2,0,0.4-0.2,0.5-0.5c0.1-0.3,0.1-0.7-0.3-1.8L61.8,44
		c-0.2-0.8-0.4-1.1-0.5-1.2c-0.1-0.1-0.4-0.2-0.7-0.1l-0.1-0.2c0.5-0.1,1.3-0.3,1.8-0.5c0.5-0.1,1.2-0.4,1.7-0.6l0.1,0.2
		C63.8,41.7,63.5,41.8,63.4,42.1"/>
	<path class="st0" d="M73.9,40.1c-0.1,0.2-0.2,0.7-0.4,1.6l-1.6,7.1l-1,0.3l-3.5-6.3c-0.5-0.9-0.8-1.4-0.9-1.5
		c-0.1-0.1-0.3-0.3-0.7-0.3l0-0.2c0.4,0,1.3-0.2,1.7-0.2c0.4-0.1,1.4-0.3,1.8-0.3l0,0.2c-0.3,0.1-0.5,0.2-0.6,0.3
		c-0.1,0.1-0.1,0.2-0.1,0.3c0,0.2,0.1,0.4,0.3,0.7l2.1,3.9c0.4,0.8,0.6,1.1,0.6,1.1s0.1-0.5,0.2-1.3l0.8-4.4
		c0.1-0.4,0.1-0.6,0.1-0.8c0-0.1-0.1-0.2-0.2-0.3C72.5,40,72.2,40,72,40.1l0-0.2c0.5-0.1,0.8-0.1,1.3-0.2c0.4-0.1,0.8-0.1,1.2-0.3
		l0,0.2C74.1,39.7,74,40,73.9,40.1"/>
	<path class="st0" d="M82.5,48l-3.8,0.1c-0.7,0-1.5,0-2.2,0.1l0-0.2c0.2,0,0.5-0.1,0.6-0.3c0.2-0.3,0.2-0.6,0.2-1.8l-0.1-4.6
		c0-0.8-0.1-1.1-0.2-1.3c-0.1-0.1-0.3-0.3-0.7-0.3l0-0.2c0.7,0,1.3,0,2.1,0l3.8-0.1c0,0,0,1.1,0.1,1.7L82,41c0-0.5-0.2-0.8-0.5-0.9
		c-0.3-0.2-0.6-0.2-1.4-0.2l-1.1,0l0.1,3.3l1.1,0c0.5,0,0.8,0,1.1-0.3c0.2-0.2,0.3-0.4,0.3-0.8l0.3,0c0,0.3,0,0.5,0,1.3
		c0,0.8,0,1,0.1,1.3l-0.3,0c0-0.3-0.1-0.6-0.3-0.7c-0.3-0.2-0.7-0.3-1.2-0.2l-1.1,0l0.1,3c0,0.6,0.1,0.7,0.8,0.7l0.2,0
		c0.7,0,1.3-0.1,1.6-0.4c0.2-0.2,0.3-0.5,0.3-0.9l0.3,0C82.4,46.8,82.5,48,82.5,48"/>
	<path class="st0" d="M91.6,49c-1.4-0.2-1.6-0.8-2-1.4c-0.2-0.4-1.1-1.8-1.6-2.9l-0.6-0.1l-0.2,1.8c-0.1,0.8-0.1,1.1,0,1.4
		c0.1,0.2,0.3,0.3,0.6,0.4l0,0.2c-0.5-0.1-1.3-0.2-1.7-0.3c-0.5-0.1-1.3-0.1-1.8-0.2l0-0.2c0.2,0,0.5,0,0.7-0.2
		c0.3-0.2,0.3-0.6,0.5-1.7l0.6-4.6c0.1-0.8,0.1-1.1,0-1.4c-0.1-0.2-0.3-0.3-0.6-0.4l0-0.2c0.5,0.1,1,0.2,1.4,0.2
		c1,0.1,1.2,0.1,2,0.2c0.3,0,1,0.1,1.5,0.3c1.5,0.6,1.6,1.8,1.5,2.3c-0.1,0.7-0.5,1.9-2.2,2.2c0,0,1.3,1.9,1.9,2.9
		c0.6,0.8,1,1.4,1.5,1.5l0,0.2C93.1,49.1,92.7,49.1,91.6,49 M88.5,40.2c-0.3,0-0.6,0-0.6,0l-0.5,3.9c0,0,0.3,0.1,0.6,0.1
		c0.2,0,0.4,0,0.5,0c0.2,0,1.1-0.1,1.3-1.9C90.2,40.4,89.1,40.2,88.5,40.2"/>
	<path class="st0" d="M95.9,50.1c-0.6-0.2-1.4-0.5-2-0.8l0.1-0.2c0.2-0.6,0.3-1,0.3-1.4l0.3,0.1c-0.1,0.4,0,0.8,0.2,1.1
		c0.3,0.4,0.8,0.6,1.2,0.7c1.7,0.5,2-0.6,2.1-0.9c0.2-0.8-0.2-1.3-0.8-1.9l-0.6-0.7c-0.8-0.8-1.2-1.6-0.9-2.8
		c0.2-0.6,0.9-2.2,3.6-1.4c1.2,0.3,2,0.7,2,0.7s-0.1,0.3-0.2,0.7c-0.2,0.7-0.2,0.9-0.2,0.9l-0.3-0.1c0.1-0.3,0-0.6-0.1-0.9
		c-0.2-0.4-0.8-0.7-1.2-0.8c-1.3-0.4-1.7,0.4-1.8,0.8c-0.2,0.7,0.1,1.1,0.7,1.7l0.7,0.7c0.9,0.9,1.4,1.6,1,2.9
		C99.3,50.2,97.7,50.6,95.9,50.1"/>
	<path class="st0" d="M106.6,44.8c-0.3,0.2-0.5,0.5-0.9,1.6l-1.7,4.3c-0.3,0.8-0.4,1.1-0.3,1.3c0,0.2,0.2,0.4,0.5,0.6l-0.1,0.2
		c-0.5-0.2-1.2-0.5-1.7-0.7c-0.4-0.2-1.2-0.4-1.7-0.6l0.1-0.2c0.2,0.1,0.4,0.1,0.7,0c0.3-0.2,0.5-0.5,0.9-1.6l1.7-4.3
		c0.3-0.8,0.4-1.1,0.3-1.3c0-0.2-0.2-0.4-0.5-0.6l0.1-0.2c0.5,0.2,1.2,0.5,1.7,0.7c0.4,0.2,1.2,0.4,1.7,0.6l-0.1,0.2
		C107.2,44.7,106.9,44.7,106.6,44.8"/>
	<path class="st0" d="M110.7,55.8c-0.4-0.1-1.1-0.4-2-0.9c-0.6-0.3-1-0.6-1.5-0.9c-0.4-0.2-0.9-0.5-1.4-0.7l0.1-0.2
		c0.2,0.1,0.4,0.2,0.7,0.1c0.3-0.1,0.5-0.4,1.1-1.4l2.2-4c0.4-0.7,0.5-1,0.5-1.3c0-0.2-0.1-0.4-0.4-0.6l0.1-0.2c0,0,0.4,0.3,1.3,0.8
		c0.4,0.2,1.1,0.6,1.9,1c1.1,0.6,4.3,2.5,2.3,6C114,56.2,111.9,56.1,110.7,55.8 M112.9,47.9c-0.6-0.3-0.9-0.4-0.9-0.4l-3.3,6
		c-0.2,0.3-0.2,0.5,0,0.7c0.1,0.1,0.3,0.2,0.5,0.3c1.8,1,3.1,0.5,4.4-2C115.3,49.6,113.9,48.5,112.9,47.9"/>
	<path class="st0" d="M119.3,62c-0.3-0.2-1.1-0.8-1.4-1l0.1-0.2c0.3,0.2,0.5,0.3,0.6,0.3c0.1,0,0.2-0.1,0.3-0.2
		c0.1-0.1,0.2-0.3,0.3-0.7l0.6-1.9l-2-1.5l-1.7,1.1c-0.3,0.2-0.5,0.3-0.6,0.5c-0.1,0.1-0.1,0.2-0.1,0.3c0,0.2,0.2,0.4,0.4,0.5
		l-0.1,0.2c-0.4-0.3-0.6-0.5-1-0.8c-0.3-0.3-0.7-0.5-1-0.7l0.1-0.2c0.3,0.2,0.6,0.1,0.8,0.1c0.2-0.1,0.6-0.3,1.4-0.8l6.3-3.6
		l0.9,0.5l-2.3,6.9c-0.3,0.9-0.5,1.5-0.5,1.6c0,0.1,0,0.5,0.3,0.7l-0.1,0.2C120.3,62.9,119.6,62.3,119.3,62 M120.6,55.9
		c0.3-0.8,0.5-1.2,0.5-1.2l-2.7,1.7l1.7,1.3L120.6,55.9L120.6,55.9z"/>
	<path class="st0" d="M125.2,67.6c-0.4-0.2-0.9-0.7-1.6-1.4c-0.5-0.5-0.8-0.9-1.2-1.3c-0.3-0.3-0.7-0.7-1.1-1.1l0.2-0.2
		c0.1,0.1,0.4,0.3,0.7,0.3c0.3,0,0.6-0.3,1.5-1l3.4-3.2c0.6-0.6,0.8-0.8,0.9-1c0-0.2,0-0.4-0.2-0.7l0.2-0.2c0,0,0.3,0.4,1,1.1
		c0.3,0.3,0.9,0.9,1.5,1.6c0.8,0.9,3.3,3.7,0.3,6.4C128.3,69,126.3,68.3,125.2,67.6 M129.8,60.8c-0.5-0.5-0.7-0.7-0.7-0.7l-5,4.7
		c-0.3,0.3-0.4,0.4-0.3,0.7c0.1,0.1,0.2,0.3,0.4,0.5c1.4,1.5,2.8,1.4,4.8-0.5C131.6,63.2,130.6,61.7,129.8,60.8"/>
	<path class="st0" d="M139.8,76.5c0.3-0.2,0.4-0.4,0.5-0.7c0.1-0.5-0.2-1.2-0.4-1.5c-0.6-1-1.7-2.4-4.9-0.6
		c-1.9,1.1-2.9,2.6-1.7,4.5c0.2,0.4,0.6,0.9,1.2,1c0.3,0.1,0.5,0,0.8-0.2l0.1,0.2c-0.3,0.2-0.7,0.4-1.3,0.7l-0.2,0.1
		c-0.5-0.4-1-1.2-1.4-1.8c-0.9-1.5-1.2-2.9-0.7-4.2c0.3-0.8,0.9-1.5,2-2.1c2-1.2,3.9-0.8,5.3,0.4c0.6,0.5,1,1.2,1.3,1.6
		c0.5,0.9,0.9,1.8,0.9,1.9c-0.2,0.1-0.5,0.3-0.7,0.4c-0.3,0.2-0.6,0.4-0.7,0.5L139.8,76.5L139.8,76.5z"/>
	<path class="st0" d="M136.8,87.4c-0.2-0.4-0.5-1.3-0.7-1.6l0.2-0.1c0.1,0.3,0.3,0.5,0.4,0.5c0.1,0,0.2,0,0.3,0
		c0.2-0.1,0.3-0.2,0.6-0.5l1.5-1.3l-0.9-2.3l-2,0.1c-0.4,0-0.6,0-0.8,0.1c-0.1,0-0.2,0.1-0.2,0.2c-0.1,0.2,0,0.5,0.1,0.6l-0.2,0.1
		c-0.1-0.4-0.2-0.8-0.4-1.2c-0.2-0.4-0.3-0.8-0.5-1.1l0.2-0.1c0.1,0.4,0.5,0.4,0.6,0.5c0.2,0,0.7,0,1.6,0.1l7.3,0.1l0.5,0.8L139,87
		c-0.7,0.7-1.2,1.1-1.2,1.2c-0.1,0.1-0.3,0.4-0.1,0.7l-0.2,0.1C137.3,88.6,137,87.8,136.8,87.4 M141.1,82.8c0.7-0.6,1-0.8,1-0.8
		l-3.2,0.1l0.8,1.9L141.1,82.8L141.1,82.8z"/>
	<path class="st0" d="M146,93.9c0.4-0.1,0.7-0.4,0.8-0.7c0.1-0.3,0.1-0.6-0.2-1.4l-0.1-0.5l-6.1,1.6c-0.8,0.2-1.1,0.3-1.2,0.5
		c-0.3,0.3-0.1,0.9-0.1,1l-0.2,0.1c-0.1-0.5-0.3-1.6-0.5-2c-0.1-0.5-0.4-1.5-0.6-2l0.2-0.1c0,0.1,0.2,0.6,0.5,0.8
		c0.3,0.2,0.6,0.1,1.8-0.2l5.7-1.5l-0.1-0.5c-0.2-0.8-0.3-1.1-0.5-1.3c-0.2-0.2-0.6-0.3-1-0.2l-0.1-0.3c0.6-0.1,1.7-0.4,1.7-0.4
		l1.8,6.8c0,0-1.1,0.3-1.7,0.5L146,93.9L146,93.9z"/>
	<path class="st0" d="M139.8,101.2c-0.3-2.8,1.2-4.6,3.9-4.8c2.8-0.3,4.8,1.3,5.1,4.1c0.3,2.8-1.2,4.6-3.9,4.8
		C142.1,105.6,140.1,104,139.8,101.2 M148.2,100.5c-0.2-1.8-2-2.3-4.1-2.1c-2.2,0.2-3.9,1.2-3.7,2.9c0.2,1.8,2,2.3,4.1,2.1
		C146.7,103.1,148.3,102.2,148.2,100.5 M150.5,102.1l-1.3-2.8l0.2-0.2l2,1.7l0,0.1l-0.8,1.2L150.5,102.1L150.5,102.1z"/>
	<path class="st0" d="M140,113.2l0.2-3.7c0-0.7,0.1-1.5,0.1-2.2l0.2,0c0,0.2,0,0.5,0.3,0.7c0.2,0.2,0.6,0.3,1.8,0.3l4.6,0.2
		c0.8,0,1.1,0,1.3-0.1c0.2-0.1,0.3-0.3,0.4-0.7l0.2,0c-0.1,0.5-0.1,1.5-0.2,2c0,0.5,0,1.5,0,2l-0.3,0c0-0.6-0.1-0.9-0.4-1.1
		c-0.3-0.2-0.7-0.2-1.7-0.3l-5.1-0.3c-0.6,0-0.7,0.1-0.7,0.8l0,0.2c0,0.7,0,1.2,0.3,1.5c0.2,0.2,0.5,0.3,0.9,0.4l0,0.3
		C141.3,113.3,140,113.2,140,113.2"/>
	<path class="st0" d="M147.5,119c-0.2-0.3-0.6-0.3-1.7-0.5l-4.6-0.7c-0.8-0.1-1.1-0.1-1.4,0c-0.2,0.1-0.4,0.3-0.4,0.6l-0.2,0
		c0.1-0.5,0.3-1.3,0.3-1.8c0.1-0.5,0.2-1.3,0.2-1.8l0.2,0c0,0.2,0,0.5,0.2,0.7c0.2,0.3,0.6,0.3,1.7,0.5l4.6,0.7
		c0.8,0.1,1.1,0.1,1.4,0c0.2-0.1,0.4-0.3,0.4-0.6l0.2,0c-0.1,0.5-0.3,1.3-0.3,1.8c-0.1,0.5-0.2,1.3-0.2,1.8l-0.2,0
		C147.7,119.5,147.7,119.3,147.5,119"/>
	<path class="st0" d="M143.9,128.5c0.3,0.1,0.6,0,0.8-0.1c0.5-0.3,0.7-1,0.8-1.4c0.3-1.1,0.6-2.9-2.9-3.9c-2.2-0.6-3.9-0.3-4.5,1.9
		c-0.1,0.5-0.2,1.1,0.1,1.6c0.1,0.2,0.4,0.4,0.7,0.5l-0.1,0.3c-0.4-0.1-0.8-0.3-1.4-0.4l-0.2-0.1c0-0.6,0.1-1.6,0.3-2.3
		c0.5-1.6,1.3-2.9,2.5-3.4c0.8-0.3,1.8-0.4,2.9-0.1c2.2,0.6,3.3,2.3,3.4,4.1c0,0.7-0.1,1.6-0.3,2c-0.3,1-0.7,1.9-0.7,2
		c-0.2-0.1-0.5-0.2-0.8-0.3c-0.3-0.1-0.7-0.2-0.8-0.2L143.9,128.5L143.9,128.5z"/>
	<path class="st0" d="M134,134c0.2-0.4,0.5-1.3,0.7-1.6l0.2,0.1c-0.1,0.3-0.2,0.5-0.1,0.6c0,0.1,0.1,0.2,0.2,0.2
		c0.1,0.1,0.4,0.1,0.8,0.1l2,0.2l1-2.3l-1.4-1.4c-0.3-0.3-0.4-0.4-0.6-0.5c-0.1-0.1-0.2-0.1-0.3,0c-0.2,0.1-0.3,0.3-0.4,0.5
		l-0.2-0.1c0.2-0.4,0.4-0.7,0.6-1.1c0.2-0.4,0.3-0.8,0.5-1.2l0.2,0.1c-0.2,0.3,0,0.6,0.1,0.8c0.1,0.2,0.4,0.5,1.1,1.2l5,5.3l-0.2,1
		l-7.2-0.6c-1-0.1-1.6-0.1-1.7-0.1c-0.1,0-0.5,0.1-0.6,0.4l-0.2-0.1C133.4,135.1,133.8,134.3,134,134 M140.2,133.8
		c0.9,0.1,1.3,0.2,1.3,0.2l-2.3-2.2l-0.9,1.9L140.2,133.8L140.2,133.8z"/>
	<path class="st0" d="M85.3,75.3h1.4c-0.3-0.3-0.8-0.9-0.8-1.5c0-1.2,1.4-1.9,1.4-3.4c0-1.5-1-2.3-1-3.7c0-1.3,0.9-2.1,0.9-3.2
		c0-0.5-0.2-1.3-0.6-1.7h-1.3c0.2,0.3,0.6,1.2,0.6,1.7c0,1-0.9,1.7-0.9,3.2c0,1.4,1.2,2.5,1.2,3.7c0,1.2-1.4,2-1.4,3.4
		C84.7,74.4,85,74.9,85.3,75.3"/>
	<path class="st0" d="M86,84.4v1.5h35.4v-1.4h-9.2c3.3-0.7,5.5-3.2,5.5-6.9c0-5.5-6.2-11.1-15.2-11.1c-2.2,0-4.1,0.3-5.7,0.8
		c-0.1-0.2-0.1-0.5-0.1-0.7c0-1.3,0.9-2.1,0.9-3.2c0-0.5-0.2-1.3-0.6-1.7h-1.3c0.2,0.3,0.6,1.2,0.6,1.7c0,1-0.9,1.7-0.9,3.2
		c0,0.4,0.1,0.7,0.2,1.1c-0.7,0.3-1.4,0.6-2,1c-0.3-0.7-0.6-1.3-0.6-2.1c0-1.3,0.9-2.1,0.9-3.2c0-0.5-0.2-1.3-0.6-1.7h-1.3
		c0.2,0.3,0.6,1.2,0.6,1.7c0,1-0.9,1.7-0.9,3.2c0,1,0.6,1.8,0.9,2.7c-1.7,1.3-2.8,2.8-3.6,4.4c0-0.1,0-0.2,0-0.3
		c0-0.9,1.4-2.1,1.4-3.2c0-1.5-1-2.3-1-3.7c0-1.3,0.9-2.1,0.9-3.2c0-0.5-0.2-1.3-0.6-1.7h-1.3c0.2,0.3,0.6,1.2,0.6,1.7
		c0,1-0.9,1.7-0.9,3.2c0,1.4,1.2,2.5,1.2,3.7c0,1.2-1.4,2-1.4,3.4c0,0.6,0.2,1.1,0.6,1.5h1h0.2c1.2-3.4,4.7-7.5,12.6-7.5
		c8.5,0,13.8,5.4,13.8,9.8c0,3.9-2.5,5.7-5.3,5.7c-3.7,0-5-2.3-5-4.3c0-1.6,0.8-3.1,2.6-3.8c-0.9-2.1-3.7-4.4-8.2-4.4
		c-5,0-7.5,2.7-8.2,4.5h1.4c0.2-0.3,0.7-1.2,1.6-1.8c0,0.1,0,0.2,0,0.3c0,0.6,0.2,1.1,0.6,1.5h1.4c-0.3-0.3-0.8-0.9-0.8-1.5
		c0-0.4,0.2-0.8,0.4-1.1c1-0.4,2.2-0.6,3.6-0.6c3.7,0,5.5,1.6,6.3,2.7c-1.2,0.6-2.4,2.5-2.4,4.3c0,2.6,1.6,4.8,4.9,5.5H96.6
		c0-2.4-3.1-2.4-3.1-3.1c0-0.7,4.1-2.1,4.1-4.8H84.9c0,2.8,4.2,4.1,4.2,4.8C89,82.1,86,82.3,86,84.4 M86.5,77.7H96
		c0,1.7-3.7,2.3-3.7,3.7c0,1.4,2.8,1.1,2.8,3.2h-7.7c0-2.1,2.8-1.8,2.8-3.2C90.2,80,86.5,79.4,86.5,77.7"/>
	<path class="st0" d="M106.6,89.6c-0.2-0.2-0.8-0.5-1.6-0.5c-2.2,0-3.9,1.7-3.9,4c0,2.7,2.5,3.5,2.5,5.1c0,0.9-0.7,1.6-1.3,2
		c0.3,0.3,1,0.6,1.8,0.6c2.3,0,3.9-1.7,3.9-4c0-2.3-2.4-3.3-2.4-5C105.7,91.1,106,90.3,106.6,89.6 M107,96.9c0,1.7-1.3,2.9-2.8,2.9
		c0.3-0.3,0.7-1.2,0.7-1.7c0-2-2.5-2.9-2.5-5c0-1.7,1.2-2.9,2.6-2.9c-0.3,0.5-0.6,1.3-0.6,2C104.4,94,107,95,107,96.9"/>
	<path class="st0" d="M122.3,91.8c0-0.7,0.3-1.5,0.9-2.2c-0.2-0.2-0.8-0.5-1.6-0.5c-2.2,0-3.9,1.7-3.9,4c0,2.7,2.5,3.5,2.5,5.1
		c0,0.9-0.7,1.6-1.3,2c0.3,0.3,1,0.6,1.8,0.6c2.3,0,3.9-1.7,3.9-4C124.7,94.5,122.3,93.4,122.3,91.8 M120.8,99.8
		c0.3-0.3,0.7-1.2,0.7-1.7c0-2-2.5-2.9-2.5-5c0-1.7,1.2-2.9,2.6-2.9c-0.3,0.5-0.6,1.3-0.6,2c0,1.8,2.5,2.9,2.5,4.7
		C123.6,98.6,122.3,99.8,120.8,99.8"/>
	<path class="st0" d="M114.9,89.6c-0.2-0.2-0.8-0.5-1.6-0.5c-2.2,0-3.9,1.7-3.9,4c0,2.7,2.5,3.5,2.5,5.1c0,0.9-0.7,1.6-1.3,2
		c0.3,0.3,1,0.6,1.8,0.6c2.3,0,3.9-1.7,3.9-4c0-2.3-2.4-3.3-2.4-5C114,91.1,114.3,90.3,114.9,89.6 M115.3,96.9
		c0,1.7-1.3,2.9-2.8,2.9c0.3-0.3,0.7-1.2,0.7-1.7c0-2-2.5-2.9-2.5-5c0-1.7,1.2-2.9,2.6-2.9c-0.3,0.5-0.6,1.3-0.6,2
		C112.7,94,115.3,95,115.3,96.9"/>
	<path class="st0" d="M64.3,76.4c0,0.5,0.1,0.7,0.2,0.7c0.1,0,0.4-0.4,0.6-0.5c0,0.3,0.4,0.6,0.7,0.6c0.5,0,0.7-0.2,0.7-0.7
		c0.4,0.1,0.5,0.5,0.7,0.5c0.1,0,0.3-0.1,0.3-0.5c0-0.7-0.6-0.9-1.5-0.9C65.1,75.6,64.4,76.2,64.3,76.4 M62.7,83.4
		c0.1,0.2,0.4,0.5,0.8,0.5c0.5,0,0.7-0.2,0.8-0.5c0-0.1,0-0.4-0.1-0.5c-0.1,0.1-0.2,0.2-0.7,0.2c-0.5,0-0.6-0.1-0.7-0.2
		C62.7,83.1,62.7,83.3,62.7,83.4 M62.1,80.6c0.7,0,0.8,0.2,1.4,0.2c0.6,0,0.7-0.2,1.4-0.2c0-0.2-0.1-0.5-0.2-0.7
		c-0.9,0-0.9,0.4-1.2,0.4c-0.2,0-0.2-0.4-1.2-0.4C62.2,80.2,62.1,80.4,62.1,80.6 M61.7,81.9l0.1,0.6c0.1-0.1,0.4-0.1,0.6-0.1
		c0.4,0,0.5,0.1,1.1,0.1c0.6,0,0.7-0.1,1-0.1c0.2,0,0.5,0,0.6,0.1l0.1-0.6c-0.1-0.1-0.5-0.2-0.8-0.2c-0.4,0-0.6,0.1-0.9,0.1
		c-0.4,0-0.6-0.1-0.9-0.1C62.2,81.7,61.8,81.8,61.7,81.9 M59.4,76.6c0,0.4,0.2,0.5,0.4,0.5c0.2,0,0.4-0.3,0.7-0.5
		c0,0.5,0.2,0.7,0.7,0.7c0.4,0,0.7-0.2,0.7-0.6c0.2,0.1,0.5,0.5,0.6,0.5c0.1,0,0.2-0.2,0.2-0.7c-0.1-0.2-0.8-0.8-1.8-0.8
		C60,75.6,59.4,75.9,59.4,76.6 M56.1,76c-0.6,0.7-0.1,1.3,0.6,1.3c0.7,0,1.6-0.4,2.6-2c0.6-0.8,0.8-1.4,1.9-1.4
		c1.5,0,1.4-1.5,2.3-1.5c0.9,0,0.8,1.5,2.3,1.5c1,0,1.3,0.6,1.9,1.4c0.9,1.6,1.9,2,2.6,2c0.7,0,1.2-0.6,0.6-1.3
		c-0.1,0.2-0.3,0.5-0.7,0.5c-0.9,0-1.3-0.8-2-1.9c0.3,0.1,0.7,0.6,1.2,0.6c0.6,0,0.7-0.5,0.6-0.8c-1.9,0-1.4-1.3-3.7-1.3
		c-1,0-1.4-1.5-2.7-1.5c-1.3,0-1.6,1.5-2.7,1.5c-2.3,0-1.9,1.3-3.7,1.3c-0.1,0.4,0,0.8,0.6,0.8c0.5,0,0.8-0.5,1.2-0.6
		c-0.7,1.1-1,1.9-2,1.9C56.5,76.4,56.2,76.2,56.1,76 M53.9,77.8c0,0.7,0.6,1.3,1.1,1.5c-0.1,0.1-0.2,0.4-0.2,0.8
		c0,1.3,1.3,1.5,1.6,1.5c-0.2,0.2-0.4,0.6-0.4,0.9c0,0.6,0.6,1.3,1.5,1.3c0.7,0,1.2-0.5,1-1.1c-0.2,0.1-0.5,0.2-0.8,0.2
		c-0.5,0-0.9-0.2-0.9-0.7c0-0.4,0.1-0.6,0.2-0.7c0.5-0.1,0.7-0.2,0.7-0.8C57.4,81,57.1,81,56.7,81c-0.6,0-1.2-0.4-1.2-0.9
		c0-0.2,0.1-0.5,0.2-0.6c0.6,0.2,1.5,0.1,2-0.2c0.5,2.7,2.6,6.9,5.7,6.8c3.2,0.1,5.2-4.1,5.7-6.8c0.5,0.4,1.4,0.5,2,0.2
		c0.1,0.1,0.2,0.4,0.2,0.6c0,0.6-0.6,0.9-1.2,0.9c-0.4,0-0.7,0-1-0.1c0,0.6,0.2,0.7,0.7,0.8c0.1,0.1,0.2,0.4,0.2,0.7
		c0,0.5-0.5,0.7-0.9,0.7c-0.4,0-0.6-0.1-0.8-0.2c-0.1,0.6,0.4,1.1,1,1.1c0.9,0,1.5-0.7,1.5-1.3c0-0.4-0.1-0.7-0.4-0.9
		c0.4,0,1.6-0.2,1.6-1.5c0-0.5-0.1-0.7-0.2-0.8c0.5-0.2,1-0.8,1-1.5c0-0.6-0.3-1.2-1.3-1.2c0.2,0.2,0.4,0.5,0.4,0.8
		c0,0.7-0.6,1.2-1.5,1.2c-0.4,0-1-0.1-1.3-0.4c0.1-0.6-0.3-0.9-0.8-1.2c0.1,0.7,0,1.2-0.1,1.5c-0.4,1.1-1.9,1.3-1.9,1.4
		c0,0.4,0.4,0.5,0.6,0.5c0.5,0,0.8-0.2,1.2-0.7c-0.5,2-2.1,5.3-4.8,5.3c-2.7,0-4.3-3.3-4.8-5.3c0.3,0.5,0.7,0.7,1.2,0.7
		c0.2,0,0.6-0.1,0.6-0.5c0-0.1-1.5-0.4-1.9-1.4c-0.1-0.4-0.2-0.8-0.1-1.5c-0.5,0.2-0.9,0.6-0.8,1.2c-0.2,0.2-0.9,0.4-1.3,0.4
		c-0.9,0-1.5-0.5-1.5-1.2c0-0.4,0.1-0.6,0.4-0.8C54.3,76.7,53.9,77.3,53.9,77.8 M52.3,66.9c0,0.2,0.1,0.4,0.2,0.4h21.9
		c0.1,0,0.2-0.1,0.2-0.4c0-0.4-0.2-0.7-0.9-0.7H53.2C52.5,66.2,52.3,66.5,52.3,66.9 M49,72.2c0,2.9,2.6,4.1,4.3,4.1
		c1.9,0,3.6-1.4,3.6-3.4c0-0.6-0.2-1.2-0.5-1.5c1.3,0.5,2.9,0.6,3.8,0.6c1,0,1.8-0.5,2-0.8c-4.4-0.1-6.2-1.2-8.2-1.2
		c-1.5,0-2.4,1.1-2.4,2.2s0.8,2,1.9,2c0.9,0,1.4-0.6,1.4-1.2c0-0.4-0.2-0.6-0.6-0.6c0,0.3-0.2,0.6-0.7,0.6c-0.5,0-0.8-0.4-0.8-0.8
		c0-0.6,0.5-1.1,1.3-1.1c1.2,0,1.8,0.7,1.8,1.8c0,1.4-0.9,2.3-2.7,2.3c-1.8,0-2.9-1.3-2.9-3c0-2.6,2-3.4,3.6-3.4
		c2.7,0,4.4,0.7,9.6,0.7c5.1,0,6.9-0.7,9.6-0.7c1.6,0,3.6,0.8,3.6,3.4c0,1.8-1.2,3-2.9,3c-1.8,0-2.7-0.9-2.7-2.3
		c0-1.1,0.6-1.8,1.8-1.8c0.8,0,1.3,0.5,1.3,1.1c0,0.5-0.3,0.8-0.8,0.8c-0.5,0-0.7-0.2-0.7-0.6c-0.4,0-0.6,0.2-0.6,0.6
		c0,0.6,0.5,1.2,1.4,1.2c1,0,1.9-0.8,1.9-2S74.3,70,72.8,70c-2,0-3.7,1.1-8.2,1.2c0.2,0.4,0.9,0.8,2,0.8c0.9,0,2.6-0.1,3.8-0.6
		c-0.2,0.4-0.5,0.9-0.5,1.5c0,2,1.7,3.4,3.6,3.4c1.8,0,4.3-1.2,4.3-4.1c0-2.6-1.6-4.4-4.9-4.4c-2.8,0-4.7,0.8-9.6,0.8
		c-4.9,0-6.8-0.8-9.6-0.8C50.6,67.8,49,69.7,49,72.2"/>
	<path class="st0" d="M58.2,101.5c-4.7,0-7.6,0.8-9.6,2.2H47c-2-1.4-4.9-2.2-9.7-2.2V88.6c0.2,0,1.1,0.2,1.5,0.4v11.4
		c3.6,0,6,0.4,8.2,1.7h1.4c2.2-1.3,4.8-1.7,8.3-1.7V89c0.5-0.2,1.2-0.4,1.5-0.4V101.5L58.2,101.5z M55.6,87.3v12.1
		c-2.5,0-5,0.5-7.2,1.4V89C49.9,87.6,53.1,87.3,55.6,87.3 M40.1,87.3c2.5,0,5.6,0.4,7.2,1.7v11.8c-2.2-1-4.6-1.4-7.2-1.4V87.3
		L40.1,87.3z M56.8,87.9v-1.5c-3.5,0-6.5,0.2-9,1.7c-2.6-1.5-5.3-1.7-8.9-1.7v1.5c-0.7-0.2-1.6-0.4-2.7-0.4v15.4
		c5.8,0,8.6,0.8,10.6,2h2.1c1.9-1.1,4.7-2,10.5-2V87.5C58.4,87.5,57.5,87.6,56.8,87.9"/>
	<path class="st0" d="M67.2,138.9c-4.5,0-4.5,4-8.8,4c-4,0-4.5-4.1-8.8-4.1c-2.3,0-3.6,1.1-4.7,2.2c0.3,0.3,0.7,0.7,1,1
		c0.9-0.9,2-1.8,3.7-1.8c3.6,0,4.3,4,8.8,4c4.9,0,4.9-4,8.8-4c3.9,0,4.2,4.2,8.8,4V143C71.7,143,71.7,138.9,67.2,138.9"/>
	<path class="st0" d="M67.2,144.4c-4.5,0-4.5,4-8.8,4c-4,0-4.5-4.1-8.8-4.1c-0.5,0-0.9,0.1-1.3,0.1c0.4,0.4,1.5,1.3,1.5,1.3
		c3.4,0.1,4,4,8.6,4c4.9,0,4.9-4,8.8-4c3.9,0,4.2,4.2,8.8,4v-1.3C71.7,148.4,71.7,144.4,67.2,144.4"/>
	<path class="st0" d="M67.2,149.8c-3.1,0-4.1,1.9-5.7,3.1c0.4,0.3,0.9,0.4,1.3,0.7c1.3-1.1,2.2-2.4,4.4-2.4c3.9,0,4.2,4.2,8.8,4
		v-1.3C71.8,153.9,71.8,149.8,67.2,149.8"/>
	<path class="st0" d="M42,137.6l0.8,1c2.6-0.7,3.6-3.6,6.7-3.6c3.6,0,4.3,4,8.8,4c4.9,0,4.9-4,8.8-4c3.9,0,4.2,4.2,8.8,4v-1.3
		c-4.2,0-4.2-4-8.8-4c-4.5,0-4.5,4-8.8,4c-4,0-4.5-4.1-8.8-4.1C45.8,133.6,44.7,136.7,42,137.6"/>
	<path class="st0" d="M48.1,134.1h1.4v-3c0.1,0.2,0.6,0.3,1.1,0.3c1.9,0,4-2,4-4.1l3.7-3.8l-0.7-0.6l-3.6,3.5
		c-0.2-0.2-0.6-0.3-1.2-0.3c1.2-0.8,1.7-1.7,1.7-3l3.8-3.7l-0.7-0.6l-3.6,3.5c-0.2-0.2-0.6-0.3-1.1-0.3c0.7-0.3,1.5-1.6,1.7-2.9
		l3.7-3.8l-0.7-0.7l-3.4,3.6c-0.2-0.3-0.6-0.6-1.2-0.6c-0.8,0-1.5,0.3-2.1,0.8c0.2-0.3,0.4-0.8,0.4-1.5c0-1.4-0.8-2.9-1.8-3.3
		l-0.1-4.1h-0.9l-0.1,4.1c-0.9,0.5-1.8,2-1.8,3.3c0,0.7,0.1,1,0.2,1.4c-0.6-0.3-1.3-0.7-2.1-0.7c-0.6,0-0.8,0.2-1.1,0.5l-3.4-3.5
		l-0.7,0.7l3.6,3.7c0,1.2,0.5,2.1,1.3,2.9c-0.4,0-0.7,0.1-0.9,0.3l-3.3-3.3l-0.7,0.6l3.6,3.7c0,0.9,0.5,2,1.5,2.9
		c-0.5,0-0.8,0.2-0.9,0.3l-3.4-3.3l-0.7,0.6l3.7,3.7c0,2.2,2.1,4.3,4,4.3c0.5,0,0.9-0.1,1.2-0.3V134.1L48.1,134.1z M48.9,124.9
		c-0.2-0.9-0.7-1.5-1.4-2c0.7,0,1.3-0.1,1.4-1.2c0.1,1,0.7,1.2,1.4,1.2C49.6,123.4,49.1,124,48.9,124.9 M50.5,130.5
		c-0.6,0-0.8-0.3-0.8-0.8c0-1,1.2-2.8,2.8-2.8c0.6,0,1.1,0.1,1.1,0.6C53.6,128.9,52.3,130.5,50.5,130.5 M47.1,130.5
		c-1.7,0-3.1-1.6-3.1-3c0-0.5,0.4-0.6,0.7-0.6c1.8,0,3.3,1.5,3.3,2.8C48,130.2,47.7,130.5,47.1,130.5 M48.9,129.2
		c-0.2-1-0.7-1.5-1.3-2c0.7,0,1.2-0.2,1.3-1c0.1,0.8,0.6,1,1.3,1C49.6,127.7,49.1,128.1,48.9,129.2 M50.4,126.3
		c-0.6,0-0.7-0.3-0.7-0.7c0-1,1.2-2.6,2.8-2.6c0.6,0,0.8,0.1,0.8,0.6C53.3,124.9,52.2,126.3,50.4,126.3 M44.5,122.8
		c2,0,3.5,1.7,3.5,2.8c0,0.5-0.4,0.7-0.8,0.7c-1.8,0-3.3-1.5-3.3-2.9C43.9,122.9,44.1,122.8,44.5,122.8 M52.8,118.6
		c0.5,0,0.7,0.2,0.7,0.7c0,1.1-1.3,2.9-3.1,2.9c-0.5,0-0.7-0.2-0.7-0.7C49.7,120.4,51.2,118.6,52.8,118.6 M44.8,118.6
		c1.5,0,3.2,1.8,3.2,2.9c0,0.5-0.4,0.7-0.9,0.7c-1.7,0-3.1-1.7-3.1-2.9C44,118.8,44.2,118.6,44.8,118.6 M48.9,114.3
		c0.5,0,1.4,1.4,1.4,2.8c0,1.6-0.8,2.8-1.4,2.8c-0.6,0-1.4-1.2-1.4-2.8C47.4,115.7,48.4,114.3,48.9,114.3"/>
	<path class="st0" d="M93.2,145.8c-0.6-0.3-1.3-0.4-1.9-0.1c-0.6,0.2-1.1,0.6-1.4,1.2c-0.3,0.6-0.4,1.3-0.1,1.9
		c0.2,0.6,0.6,1.1,1.2,1.4c0.5,0.2,1,0.3,1.5,0.2c0.1,0,0.2,0,0.4-0.1c0.6-0.2,1.1-0.6,1.4-1.2c0.3-0.6,0.4-1.3,0.1-1.9
		C94.3,146.6,93.8,146.1,93.2,145.8 M93.5,148.7c-0.2,0.4-0.5,0.7-0.9,0.8c-0.4,0.1-0.8,0.1-1.2-0.1c-0.4-0.2-0.7-0.5-0.8-0.9
		c-0.1-0.4-0.1-0.8,0.1-1.2c0.2-0.4,0.5-0.7,0.9-0.8c0.4-0.1,0.8-0.1,1.2,0.1c0.4,0.2,0.7,0.5,0.8,0.9
		C93.8,147.9,93.7,148.4,93.5,148.7"/>
	<path class="st0" d="M105.7,141.8c-0.5-0.3-1.1-0.3-1.7-0.1c-1.1,0.4-1.8,1.6-1.4,2.7c0.2,0.5,0.6,1,1.1,1.3
		c0.4,0.2,0.9,0.3,1.3,0.2c0.1,0,0.2,0,0.3-0.1c0.5-0.2,1-0.6,1.3-1.1c0.3-0.5,0.3-1.1,0.1-1.7C106.6,142.5,106.2,142.1,105.7,141.8
		 M105.9,144.3c-0.2,0.3-0.4,0.5-0.7,0.6c-0.3,0.1-0.7,0.1-1-0.1c-0.3-0.2-0.5-0.4-0.6-0.7c-0.2-0.7,0.1-1.4,0.8-1.6
		c0.1,0,0.1,0,0.2,0c0.3,0,0.5,0,0.8,0.1c0.3,0.2,0.5,0.4,0.6,0.7C106.1,143.6,106.1,144,105.9,144.3"/>
	<path class="st0" d="M111.7,143.9c-0.7-1-2-1.1-2.7-1l-0.3-0.9c0.6-0.4,1.5-1.2,1.6-2.3l0-0.3l-1.9-1.7l-0.3,0.1
		c-1.2,0.5-1.8,1.3-2,1.9l-0.9-0.2c0-0.7-0.2-2-1.3-2.7l-0.2-0.1l-2.1,0.7l-0.1,0.2c-0.5,1.2,0.1,2.3,0.5,2.9l-0.6,0.7
		c-0.5-0.3-1.5-0.7-2.7-0.3l-0.3,0.1l-0.5,2.5l0.2,0.2c0.2,0.2,0.3,0.3,0.5,0.4c-0.7,0-1.3,0.3-1.7,0.6l-0.7-0.7
		c0.5-0.5,1.2-1.5,0.8-2.6l-0.1-0.2l-2-1l-0.2,0.1c-1,0.3-1.4,1.5-1.6,2.2l-1-0.1c0-0.7-0.2-1.9-1.2-2.4l-0.2-0.1l-2.2,0.7l-0.1,0.2
		c-0.5,1,0,2,0.4,2.6l-0.7,0.7c-0.5-0.5-1.5-1.1-2.6-0.8l-0.2,0.1l-1,2l0.1,0.2c0.3,1,1.5,1.4,2.2,1.6l-0.1,1
		c-0.7,0-1.9,0.2-2.4,1.2l-0.1,0.2l0.7,2.1l0.2,0.1c0.9,0.4,2-0.1,2.6-0.4l0.7,0.8c-0.5,0.5-1.2,1.5-0.9,2.5l0.1,0.2l2,1l0.2-0.1
		c1.1-0.4,1.5-1.5,1.6-2.1l0.9,0.1c0,0.7,0.3,1.8,1.2,2.4l0.2,0.2l2.2-0.7l0.1-0.3c0.4-1-0.1-2-0.5-2.6l0.7-0.6
		c0.5,0.5,1.5,1.1,2.6,0.8l0.2-0.1l1-2l-0.1-0.2c-0.3-1-1.5-1.4-2.2-1.5l0.1-1c0.4-0.1,1-0.2,1.5-0.5c0,0.2-0.1,0.4-0.1,0.6l0,0.2
		l1.7,1.6l0.3-0.1c1.3-0.4,1.9-1.3,2.1-1.9l0.9,0.2c0,0.7,0.1,2,1.2,2.7l0.2,0.1l2.2-0.7l0.1-0.2c0.5-1.2-0.1-2.3-0.6-2.9l0.6-0.7
		c0.5,0.3,1.6,0.7,2.9,0.3l0.3-0.1l0.4-2.3L111.7,143.9L111.7,143.9z M100.2,146.1l-0.5-1.6c0.4,0.1,0.7,0.1,1,0.1l0.3,1
		C100.7,145.7,100.4,145.9,100.2,146.1 M97.3,146.8l-0.5,0l-0.3,3l0.6,0.1c0.4,0,1.4,0.3,1.7,0.7l-0.6,1.1c-0.8,0.1-1.6-0.9-1.6-0.9
		l-0.4-0.4l-2.3,2l0.4,0.4c0,0,0.7,0.9,0.6,1.7l-1.1,0.4c-0.6-0.6-0.5-1.7-0.5-1.8l0-0.5l-3.1-0.3l0,0.6c0,0-0.1,1.2-0.8,1.6
		l-1.1-0.5c0-0.5,0.6-1.3,1-1.6l0.4-0.4l-2-2.3l-0.4,0.3c-0.4,0.3-1.2,0.7-1.7,0.7l-0.4-1.2c0.4-0.4,1.4-0.5,1.8-0.4l0.5,0l0.3-3.1
		l-0.5-0.1c-0.4,0-1.3-0.2-1.7-0.7l0.6-1.1c0.6,0,1.4,0.6,1.6,0.9l0.4,0.4l2.3-2.1l-0.4-0.4c-0.2-0.3-0.8-1-0.7-1.6l1.3-0.4
		c0.4,0.4,0.4,1.4,0.4,1.7l-0.1,0.5l3.1,0.3l0.1-0.6c0-0.4,0.2-1.3,0.8-1.7l1.1,0.5c0,0.6-0.7,1.4-0.9,1.6l-0.4,0.4l2,2.3l0.4-0.3
		c0.3-0.2,1.1-0.7,1.7-0.6l0.3,1C98.7,146.6,97.9,146.8,97.3,146.8 M110.5,145.5c-1.1,0.2-1.9-0.4-1.9-0.5l-0.4-0.4l-2,2.3l0.4,0.4
		c0,0,0.9,0.9,0.8,1.9l-1.2,0.4c-0.7-0.6-0.5-1.9-0.5-2l0.1-0.5l-2.4-0.5l-0.6-0.1l-0.1,0.6c0,0-0.2,1-1.3,1.5l-0.8-0.8
		c0.1-0.7,1-1.2,1.4-1.4l0.4-0.2l-0.8-2.7l-0.5,0.1c0,0-1.2,0.2-2-0.3l0.2-1.2c1.2-0.2,1.8,0.4,1.8,0.5l0.4,0.4l2-2.3l-0.3-0.4
		c0,0-0.9-1-0.7-1.9l1.2-0.4c0.7,0.6,0.5,1.9,0.5,1.9l-0.1,0.5l2.4,0.5l0.6,0.1l0.1-0.6c0,0,0.2-0.9,1.2-1.5l0.9,0.8
		c-0.3,0.7-1.1,1.2-1.4,1.4l-0.4,0.2l0.9,2.7l0.5-0.1c0.4-0.1,1.4-0.1,1.9,0.3L110.5,145.5L110.5,145.5z"/>
	<path class="st0" d="M121,121.5l-8.5,6.4v-5.7l-9.1,5.7v-4.2l-8.9,5.4v1.7l7.7-4.7v4.1l9.1-5.8v5.8l11.5-8.5l-1-1.3h3.6v4.1
		l-1.4-1.5l-14.3,11.2v-5.9l-8.7,5.6v-3.7l-8,5.1v1.7l6.9-4.4v3.7l8.7-5.6v6.2l15.4-12.2l2.6,2.8v-8h-7.3L121,121.5L121,121.5z
		 M108.1,113.1v4.6l8.4-4.9v4.9l7.7-5.3l-1-1.3h3.6v3.8l-1.5-1.5l-10.3,7.6v-5.1l-9.2,5.7v-4l-8.5,5v1.7l7.4-4.4v4.1l9.1-5.7v5.1
		l11.5-8.5l2.6,2.8v-7.8h-7.1l1.7,2.1l-4.8,3.4v-4.9l-8.4,4.9v-4.6l-9.7,5.2v1.7L108.1,113.1L108.1,113.1z"/>
	<path class="st0" d="M79.7,120c0.4,0.3,0.7,0.5,1.4,0.6c0.7-0.1,1-0.3,1.4-0.6v-14.5H90v-3h-7.5v-6.7h-2.8v6.7h-7.5v3h7.5V120
		L79.7,120z M83.6,120.9c-0.6,0.4-1.7,1-2.6,1.1c-0.8-0.1-2-0.7-2.6-1.1v-14.3h-7.6v-5.2h7.6v-6.9h5.1v6.9h7.6v5.2h-7.6V120.9
		L83.6,120.9z"/>
	<polygon class="st0" points="80.8,127.5 80.8,128.1 78.3,128.1 78.3,125 80.7,125 80.7,125.7 79,125.7 79,126.3 80.5,126.3 
		80.5,126.9 79,126.9 79,127.5 80.8,127.5 	"/>
	<polygon class="st0" points="84,125.7 83,125.7 83,128.1 82.3,128.1 82.3,125.7 81.3,125.7 81.3,125 84,125 84,125.7 	"/>
	<polygon class="st0" points="88.8,124.6 89.2,125.1 87.6,126.6 85.4,124.4 86,123.9 87.6,125.7 88.8,124.6 	"/>
	<path class="st0" d="M91.4,122.2c-0.3-0.1-0.6-0.1-0.8-0.2l-0.8,1.2c0.1,0.2,0.3,0.5,0.5,0.7l-0.4,0.6c-1.2-1.8-1.7-2.9-1.7-2.9
		l0.5-0.7c0,0,1.2,0.2,3.3,0.7L91.4,122.2L91.4,122.2z M89.9,121.9c-0.8-0.2-1.2-0.2-1.2-0.2s0.2,0.4,0.6,1L89.9,121.9L89.9,121.9z"
		/>
	<path class="st0" d="M92.5,118c0.6,0.3,0.6,0.7,0.4,1.4l-0.7,1.6l-2.8-1.3l0.6-1.4c0.3-0.6,0.7-0.8,1.2-0.6
		c0.3,0.1,0.4,0.4,0.4,0.6C91.6,118,92,117.8,92.5,118 M90.1,119.3l0.6,0.3l0.3-0.7c0.1-0.3,0.1-0.4-0.1-0.5c-0.2-0.1-0.4,0-0.5,0.3
		L90.1,119.3L90.1,119.3z M92.2,119.2c0.1-0.3,0.1-0.5-0.1-0.6c-0.2-0.1-0.4,0-0.5,0.3l-0.4,0.9l0.6,0.3L92.2,119.2L92.2,119.2z"/>
	<path class="st0" d="M90.9,115.2c0.2-1,0.9-1.5,1.9-1.3c1,0.2,1.4,1,1.2,2c-0.2,1-0.9,1.5-1.9,1.3C91.1,117,90.7,116.2,90.9,115.2
		 M93.3,115.8c0.1-0.6-0.1-1-0.7-1.2c-0.6-0.1-1,0.2-1.1,0.7c-0.1,0.6,0.1,1,0.7,1.2C92.8,116.7,93.2,116.3,93.3,115.8"/>
	<path class="st0" d="M94.6,111.4c-0.3,0.1-0.7,0.3-0.9,0.4l0,0.1l-0.1,0.8l0.9,0.1l0,0.7l-3.1-0.2l0.1-1.5c0.1-0.8,0.5-1.2,1.2-1.2
		c0.4,0,0.7,0.2,0.9,0.6c0.3-0.1,0.7-0.4,1.1-0.6L94.6,111.4L94.6,111.4z M92.9,112.6l0.1-0.7c0-0.4-0.1-0.6-0.4-0.6
		c-0.3,0-0.5,0.1-0.5,0.6l-0.1,0.7L92.9,112.6L92.9,112.6z"/>
	<polygon class="st0" points="70.5,112.4 69.8,112.5 69.9,114 69.3,114 69.2,112.5 68,112.6 68,111.9 71.1,111.7 71.3,114.1 
		70.6,114.2 70.5,112.4 	"/>
	<polygon class="st0" points="71.6,115.4 68.5,116 68.4,115.3 71.4,114.7 71.6,115.4 	"/>
	<path class="st0" d="M72.2,117.5c0.4,1.1,0.1,1.8-0.8,2.2c-0.9,0.4-1.6,0-2.1-1.1l-0.4-1.2l2.9-1.1L72.2,117.5L72.2,117.5z
		 M70,118.4c0.2,0.6,0.6,0.8,1.2,0.6c0.6-0.2,0.7-0.6,0.5-1.2l-0.2-0.6l-1.6,0.6L70,118.4L70,118.4z"/>
	<polygon class="st0" points="72.5,123.3 71.9,123.6 70.6,121.5 73.2,119.9 74.5,121.9 74,122.2 73.1,120.8 72.5,121.2 73.3,122.4 
		72.8,122.7 72,121.5 71.5,121.8 72.5,123.3 	"/>
	<path class="st0" d="M75.2,124.4c0,0,0.1,0,0.2-0.1c0.1-0.1,0.2-0.3-0.1-0.7c-0.3-0.3-0.5-0.4-0.7-0.2c-0.5,0.4,1.2,1.6,0.4,2.4
		c-0.4,0.4-1,0.3-1.6-0.4c-0.7-0.7-0.6-1.3-0.2-1.6c0,0,0.2,0.1,0.5,0.4c-0.3,0.2-0.2,0.5,0.1,0.9c0.3,0.4,0.5,0.4,0.7,0.2
		c0.5-0.4-1.3-1.5-0.3-2.4c0.4-0.4,0.9-0.3,1.5,0.4c0.7,0.8,0.6,1.2,0.3,1.5c-0.2,0.2-0.3,0.2-0.3,0.2L75.2,124.4L75.2,124.4z"/>
</g>
</svg>
