<?xml version="1.0" encoding="utf-8"?>
<!-- Generator: Adobe Illustrator 21.0.0, SVG Export Plug-In . SVG Version: 6.00 Build 0)  -->
<svg version="1.1" id="Capa_1" xmlns="http://www.w3.org/2000/svg" xmlns:xlink="http://www.w3.org/1999/xlink" x="0px" y="0px"
	 viewBox="0 0 300 200" style="enable-background:new 0 0 300 200;" xml:space="preserve">
<style type="text/css">
	.st0{opacity:0.6;fill:#FFFFFF;enable-background:new    ;}
	.st1{fill:#FFFFFF;}
</style>
<g>
	<polygon class="st0" points="79.4,96.8 69.4,114 88.3,114 98.4,96.8 	"/>
	<g>
		<path class="st1" d="M145.9,119.2c0,2.3-1.7,3.8-3.9,4.5c-1.9,0.5-5,0.5-6.9,0.1c-2.3-0.6-4.1-2.1-4.2-4.4v-15.5
			c0.1-2.6,2.2-4.1,4.8-4.6c1.9-0.4,4.8-0.3,6.6,0.3c2.1,0.7,3.6,2.1,3.6,4.3h-1.8c0-1.3-1.1-2.2-2.3-2.6c-1.6-0.5-4-0.5-5.7-0.2
			c-1.8,0.4-3.3,1.3-3.3,2.9v15.5c0,1.4,1.2,2.3,2.8,2.7c1.6,0.4,4.3,0.4,6-0.1c1.5-0.4,2.6-1.3,2.6-2.7L145.9,119.2z"/>
		<path class="st1" d="M150.9,112.4c0,3.6,0,7.8,0,11.5h-1.8V99h1.8v11.5h11V99h1.8v24.8h-1.8v-11.5L150.9,112.4L150.9,112.4z"/>
		<path class="st1" d="M169,114.4v9.5h-1.8c0-8.1,0-16.6,0-24.8h6.7c0.8,0,6.6,0.1,6.6,4.7v5.9c0,1.9-1.5,3.5-3.3,3.9
			c1.8,0.4,3.3,1.9,3.3,3.9v6.3h-1.8v-6.3c0-2.4-3.2-3.2-5-3.2H169z M178.8,103.8c0-2.3-3-3.2-4.8-3.2H169v12.1h4.8c1.9,0,5-0.6,5-3
			L178.8,103.8L178.8,103.8z"/>
		<path class="st1" d="M190.8,112.5l4.5-4.7c0.6-0.6,0.9-1.1,0.9-2v-6.6h1.8v6.6c0,1.3-0.4,2.2-1.3,3.2l-5,5.2v9.7h-1.8v-9.7l-5-5.2
			c-1-1-1.3-1.9-1.3-3.2v-6.6h1.8v6.7c0,0.9,0.3,1.4,0.9,2L190.8,112.5z"/>
		<path class="st1" d="M212.2,103.4c0.1-3.5-6.7-3.7-9-1.5c-1.5,1.4-1.8,4.5-0.4,6.2c1.1,1.2,2.9,1.8,4.6,2.2
			c4.2,1.1,7.5,2.9,7.4,7.7c-0.1,2-0.9,3.6-2.3,4.8c-2.3,1.9-6.1,1.9-8.9,1c-2-0.7-3.6-2.3-3.6-4.5l1.8,0.1c0.1,1.5,1.3,2.7,2.6,3.1
			c2.3,0.6,5,0.6,6.9-0.9c1-0.8,1.6-2,1.6-3.5c0.1-3.8-3.2-5.3-6.1-6.1c-2.1-0.5-4.2-1.2-5.4-2.5c-2.2-2.3-1.8-6.7,0.4-8.7
			c3.2-3,11.9-2.3,11.9,2.8L212.2,103.4z"/>
		<path class="st1" d="M232.6,103.6L232.6,103.6l0.1,20.2h-1.8v-9.7c-3.8,0-7.6,0-11.5,0c0,3.6,0,6,0,9.7h-1.8c0-6.4,0-13.9,0-20.2
			c0-1.6,0.9-2.9,2.2-3.6c2.6-1.6,8-1.6,10.6,0C231.7,100.7,232.6,102,232.6,103.6z M219.4,103.6v8.8c3.8,0,7.6,0,11.5,0v-8.8
			c0-0.9-0.6-1.6-1.4-2.2c-2-1.2-6.7-1.2-8.7,0C219.9,102,219.4,102.7,219.4,103.6z"/>
		<path class="st1" d="M248.3,122.1v1.8h-5.2c-3.4,0-6.7-1.4-6.7-5.3c0-6.4,0-13,0-19.4h1.8v19.4c0,2.6,2.8,3.5,4.9,3.5H248.3z"/>
		<path class="st1" d="M253.3,99v24.8h-1.8c0-8.3,0-16.5,0-24.8H253.3z"/>
		<path class="st1" d="M268.4,103.4c0.1-3.5-6.7-3.7-9-1.5c-1.5,1.4-1.8,4.5-0.4,6.2c1.1,1.2,2.9,1.8,4.6,2.2
			c4.2,1.1,7.5,2.9,7.4,7.7c-0.1,2-0.9,3.6-2.3,4.8c-2.3,1.9-6.1,1.9-8.9,1c-2-0.7-3.6-2.3-3.6-4.5l1.8,0.1c0.1,1.5,1.3,2.7,2.6,3.1
			c2.3,0.6,5,0.6,6.9-0.9c1-0.8,1.6-2,1.6-3.5c0.1-3.8-3.2-5.3-6.1-6.1c-2.1-0.5-4.2-1.2-5.4-2.5c-2.2-2.3-1.8-6.7,0.4-8.7
			c3.2-3,11.9-2.3,11.9,2.8L268.4,103.4z"/>
		<path class="st1" d="M129.9,135.2v-6.9h0.8v6.9H129.9z"/>
		<path class="st1" d="M135.4,135.2v-3.5c0-0.7-0.4-1.1-1.2-1.1c-0.5,0-0.8,0.1-1.1,0.2v4.4h-0.8v-4.8c0.5-0.2,1.1-0.4,1.9-0.4
			c1.3,0,2,0.6,2,1.7v3.5L135.4,135.2L135.4,135.2z"/>
		<path class="st1" d="M139.6,135.3c-1.1,0-2.2-0.8-2.2-2.6s1.1-2.6,2.2-2.6c0.5,0,0.9,0.1,1.3,0.4l-0.3,0.6
			c-0.2-0.2-0.6-0.3-0.9-0.3c-0.7,0-1.5,0.5-1.5,2c0,1.4,0.8,2,1.5,2c0.4,0,0.7-0.1,0.9-0.3l0.3,0.6
			C140.6,135.1,140.1,135.3,139.6,135.3z"/>
		<path class="st1" d="M144,135.3c-1.3,0-2-0.5-2-1.8v-3.4h0.8v3.4c0,0.8,0.4,1.1,1.2,1.1c0.5,0,0.9-0.1,1.1-0.2v-4.3h0.8v4.8
			C145.5,135.1,144.7,135.3,144,135.3z"/>
		<path class="st1" d="M149,135.3c-0.6,0-1.2-0.2-1.6-0.4v-7.1h0.8v2.5c0.3-0.1,0.6-0.2,1.1-0.2c1.3,0,2.2,0.9,2.2,2.5
			C151.4,134.4,150.4,135.3,149,135.3z M149.1,130.6c-0.4,0-0.7,0.1-0.9,0.2v3.6c0.2,0.1,0.5,0.2,0.9,0.2c0.9,0,1.6-0.6,1.6-2
			C150.6,131.4,150,130.6,149.1,130.6z"/>
		<path class="st1" d="M154.5,135.3c-1.4,0-2.1-0.6-2.1-1.6c0-1.5,1.6-1.7,3.1-1.8v-0.4c0-0.8-0.5-1-1.2-1c-0.5,0-1.1,0.2-1.4,0.3
			l-0.2-0.6c0.4-0.2,1.1-0.4,1.6-0.4c1.1,0,1.9,0.5,1.9,1.6v3.3C155.9,135.1,155.2,135.3,154.5,135.3z M155.5,132.5
			c-1.1,0.1-2.3,0.1-2.3,1.2c0,0.6,0.5,1,1.3,1c0.4,0,0.9-0.1,1.1-0.2L155.5,132.5L155.5,132.5z"/>
		<path class="st1" d="M160,135.3c-1.5,0-2.4-1-2.4-2.6c0-1.6,0.8-2.6,2.3-2.6c0.4,0,0.7,0.1,0.9,0.1v-2.4h0.8v7.1
			C161.3,135.1,160.7,135.3,160,135.3z M160.8,130.8c-0.2-0.1-0.5-0.1-0.9-0.1c-1.1,0-1.6,0.9-1.6,2s0.6,1.9,1.6,1.9
			c0.3,0,0.7-0.1,0.9-0.2V130.8z"/>
		<path class="st1" d="M165.1,135.3c-1.4,0-2.2-1.1-2.2-2.6s0.8-2.6,2.2-2.6s2.2,1.1,2.2,2.6C167.2,134.1,166.5,135.3,165.1,135.3z
			 M165.1,130.6c-0.9,0-1.4,0.8-1.4,2c0,1.2,0.5,2,1.4,2c0.9,0,1.4-0.8,1.4-2C166.4,131.4,165.9,130.6,165.1,130.6z"/>
		<path class="st1" d="M170.7,130.7c-0.1,0-0.3-0.1-0.5-0.1c-0.4,0-0.7,0.1-0.9,0.2v4.4h-0.8v-4.8c0.5-0.2,1.2-0.4,1.9-0.4
			c0.2,0,0.4,0,0.5,0.1L170.7,130.7z"/>
		<path class="st1" d="M173.7,135.3c-1.4,0-2.1-0.6-2.1-1.6c0-1.5,1.6-1.7,3.1-1.8v-0.4c0-0.8-0.5-1-1.2-1c-0.5,0-1.1,0.2-1.4,0.3
			l-0.2-0.6c0.4-0.2,1.1-0.4,1.6-0.4c1.2,0,1.9,0.5,1.9,1.6v3.3C175.1,135.1,174.3,135.3,173.7,135.3z M174.7,132.5
			c-1.1,0.1-2.3,0.1-2.3,1.2c0,0.6,0.5,1,1.3,1c0.4,0,0.9-0.1,1.1-0.2L174.7,132.5L174.7,132.5z"/>
		<path class="st1" d="M181.8,135.3c-1.5,0-2.4-1-2.4-2.6c0-1.6,0.8-2.6,2.3-2.6c0.4,0,0.7,0.1,0.9,0.1v-2.4h0.8v7.1
			C183.1,135.1,182.5,135.3,181.8,135.3z M182.6,130.8c-0.2-0.1-0.5-0.1-0.9-0.1c-1.1,0-1.6,0.9-1.6,2s0.6,1.9,1.6,1.9
			c0.3,0,0.7-0.1,0.9-0.2V130.8z"/>
		<path class="st1" d="M188.9,132.5l-3.5,0.5c0.1,1.1,0.8,1.6,1.7,1.6c0.5,0,1.1-0.1,1.4-0.3l0.2,0.6c-0.4,0.2-1,0.4-1.6,0.4
			c-1.5,0-2.5-1-2.5-2.6c0-1.6,0.8-2.6,2.2-2.6c1.2,0,2,0.8,2,2.2C188.9,132.2,188.9,132.4,188.9,132.5z M186.9,130.6
			c-0.9,0-1.5,0.7-1.5,1.9l2.8-0.4C188.1,131.1,187.7,130.6,186.9,130.6z"/>
		<path class="st1" d="M196,135.2v-3.5c0-0.7-0.4-1.1-1.2-1.1c-0.5,0-0.8,0.1-1.1,0.2v4.4h-0.8v-4.8c0.5-0.2,1.1-0.4,1.9-0.4
			c1.3,0,2,0.6,2,1.7v3.5L196,135.2L196,135.2z"/>
		<path class="st1" d="M202.3,132.5l-3.5,0.5c0.1,1.1,0.8,1.6,1.7,1.6c0.5,0,1.1-0.1,1.4-0.3l0.2,0.6c-0.4,0.2-1,0.4-1.7,0.4
			c-1.5,0-2.5-1-2.5-2.6c0-1.6,0.8-2.6,2.2-2.6c1.2,0,2,0.8,2,2.2C202.3,132.2,202.3,132.4,202.3,132.5z M200.3,130.6
			c-0.9,0-1.5,0.7-1.5,1.9l2.8-0.4C201.5,131.1,201,130.6,200.3,130.6z"/>
		<path class="st1" d="M205.3,137.3c-0.6,0-1.3-0.2-1.7-0.4l0.2-0.6c0.3,0.2,0.9,0.4,1.4,0.4c0.9,0,1.4-0.5,1.4-1.4v-0.4
			c-0.3,0.1-0.7,0.2-1.1,0.2c-1.3,0-2.2-0.9-2.2-2.4c0-1.8,1.1-2.6,2.5-2.6c0.6,0,1.2,0.2,1.6,0.4v4.9
			C207.4,136.5,206.6,137.3,205.3,137.3z M206.6,130.8c-0.2-0.1-0.5-0.2-0.9-0.2c-0.9,0-1.6,0.5-1.6,1.9c0,1.2,0.6,1.8,1.5,1.8
			c0.4,0,0.8-0.1,1-0.2L206.6,130.8L206.6,130.8z"/>
		<path class="st1" d="M210.9,135.3c-1.4,0-2.2-1.1-2.2-2.6s0.8-2.6,2.2-2.6c1.4,0,2.2,1.1,2.2,2.6
			C213,134.1,212.3,135.3,210.9,135.3z M210.9,130.6c-0.9,0-1.4,0.8-1.4,2c0,1.2,0.5,2,1.4,2s1.4-0.8,1.4-2
			C212.2,131.4,211.8,130.6,210.9,130.6z"/>
		<path class="st1" d="M216.3,135.3c-1.1,0-2.2-0.8-2.2-2.6s1.1-2.6,2.2-2.6c0.5,0,0.9,0.1,1.3,0.4l-0.3,0.6
			c-0.2-0.2-0.6-0.3-0.9-0.3c-0.7,0-1.5,0.5-1.5,2c0,1.4,0.8,2,1.5,2c0.4,0,0.7-0.1,0.9-0.3l0.3,0.6
			C217.2,135.1,216.8,135.3,216.3,135.3z"/>
		<path class="st1" d="M219.2,129c-0.3,0-0.5-0.2-0.5-0.5c0-0.2,0.2-0.5,0.5-0.5s0.5,0.2,0.5,0.5C219.6,128.9,219.4,129,219.2,129z
			 M218.8,135.2v-5.1h0.8v5.1H218.8z"/>
		<path class="st1" d="M223,135.3c-1.4,0-2.2-1.1-2.2-2.6s0.8-2.6,2.2-2.6c1.4,0,2.2,1.1,2.2,2.6C225.2,134.1,224.5,135.3,223,135.3
			z M223,130.6c-0.9,0-1.3,0.8-1.3,2c0,1.2,0.5,2,1.3,2c0.9,0,1.4-0.8,1.4-2C224.4,131.4,224,130.6,223,130.6z"/>
		<path class="st1" d="M227.7,135.3c-0.5,0-1.1-0.2-1.5-0.4l0.3-0.6c0.3,0.2,0.8,0.3,1.2,0.3c0.6,0,1.1-0.3,1.1-0.8
			c0-0.5-0.4-0.8-1.1-0.9c-0.7-0.2-1.4-0.6-1.4-1.5c0-0.8,0.6-1.3,1.7-1.3c0.6,0,1.1,0.2,1.4,0.4l-0.3,0.6c-0.2-0.2-0.6-0.3-1.1-0.3
			c-0.6,0-0.9,0.4-0.9,0.8c0,0.5,0.4,0.7,1,0.9c0.8,0.3,1.5,0.6,1.5,1.5C229.6,134.7,228.9,135.3,227.7,135.3z"/>
		<path class="st1" d="M235.2,132.4c-0.3,0-0.6,0-0.8-0.1v2.9h-0.8v-6.6c0.5-0.2,1.1-0.4,1.8-0.4c1.6,0,2.5,0.8,2.5,2.1
			C237.8,131.5,236.9,132.4,235.2,132.4z M235.3,128.9c-0.4,0-0.8,0.1-1,0.2v2.6c0.2,0.1,0.5,0.1,0.8,0.1c1.2,0,1.9-0.6,1.9-1.4
			C237,129.4,236.4,128.9,235.3,128.9z"/>
		<path class="st1" d="M241.3,135.2c-1.2,0-2.2-0.8-2.2-2v-4.9h0.8v4.9c0,0.8,0.6,1.3,1.4,1.3c0.8,0,1.4-0.5,1.4-1.3v-4.9h0.8v4.9
			C243.4,134.5,242.5,135.2,241.3,135.2z"/>
		<path class="st1" d="M247.5,135.3c-1.5,0-2.7-1.1-2.7-3.5s1.2-3.5,2.7-3.5c0.6,0,1.2,0.2,1.5,0.4l-0.3,0.6
			c-0.2-0.2-0.6-0.3-1.1-0.3c-1.1,0-1.9,0.9-1.9,2.8s0.9,2.8,1.9,2.8c0.5,0,0.9-0.1,1.1-0.3l0.3,0.6
			C248.6,135.1,248.1,135.3,247.5,135.3z"/>
		<path class="st1" d="M252.8,135.2h-0.9l-2.2-6.9h0.9l1.5,5c0.1,0.4,0.2,0.9,0.2,0.9l0,0c0,0,0.1-0.5,0.2-0.9l1.5-5h0.9
			L252.8,135.2z"/>
	</g>
	<path class="st1" d="M99.3,96.8c0-0.1,0-0.1,0-0.1c0-0.1,0-0.1,0-0.1s0-0.1,0-0.1c0-0.1,0-0.1-0.1-0.1c0-0.1,0-0.1-0.1-0.1l0,0l0,0
		L89.1,78.9c-0.1-0.2-0.4-0.4-0.7-0.4H69.5c-0.1,0-0.1,0-0.2,0h-0.1c-0.1,0-0.1,0.1-0.1,0.1L69,78.7c-0.1,0-0.1,0.1-0.1,0.1
		l-0.1,0.1l-0.1,0.1l0,0l0,0l0,0L58.7,96.3c-0.1,0.2-0.1,0.5,0,0.8l10.1,17.3l0,0l0,0l0,0l0.1,0.1l0.1,0.1c0.1,0.1,0.1,0.1,0.1,0.1
		l0.1,0.1c0.1,0,0.1,0.1,0.1,0.1h0.1c0.1,0,0.1,0,0.2,0h19c0.3,0,0.5-0.2,0.7-0.4L99.3,97l0,0l0,0C99.3,96.9,99.3,96.9,99.3,96.8
		c0.1,0.1,0.1,0,0.1,0C99.3,96.9,99.3,96.9,99.3,96.8z M88,80.2l9.1,15.7H79.9l-9.1-15.7H88z M69.5,81l9.1,15.7l-2.5,4.3l-6.7,11.5
		l-9.2-15.7L69.5,81z M88,113.2H70.8l8.3-14.3l0.8-1.4h17.2L88,113.2z"/>
	<g>
		<path class="st1" d="M95.6,125.6H62.3L45.6,96.8l16.6-28.8h33.3l16.7,28.8L95.6,125.6z M63.4,123.6h31L110,96.7L94.5,69.8h-31
			L47.9,96.8L63.4,123.6z"/>
	</g>
	<g>
		<path class="st1" d="M102.6,137.7H55.3L31.6,96.8l23.7-40.9h47.3l23.7,40.9L102.6,137.7z M57.6,133.8h42.8l21.4-37l-21.4-37H57.6
			l-21.4,37L57.6,133.8z"/>
	</g>
</g>
</svg>
