<?xml version="1.0" encoding="utf-8"?>
<!-- Generator: Adobe Illustrator 21.0.0, SVG Export Plug-In . SVG Version: 6.00 Build 0)  -->
<svg version="1.1" id="Capa_1" xmlns="http://www.w3.org/2000/svg" xmlns:xlink="http://www.w3.org/1999/xlink" x="0px" y="0px"
	 viewBox="0 0 300 200" style="enable-background:new 0 0 300 200;" xml:space="preserve">
<style type="text/css">
	.st0{fill:#FFFFFF;}
	.st1{opacity:0.2;fill:#FFFFFF;enable-background:new    ;}
	.st2{opacity:0.6;fill:#FFFFFF;enable-background:new    ;}
</style>
<g>
	<g>
		<g>
			<polygon class="st0" points="195.3,74.2 152.2,74.2 152.2,125.2 			"/>
			<polygon class="st1" points="173.7,70.9 152.2,35.8 152.2,70.9 			"/>
			<polygon class="st1" points="127.3,90.1 148.9,125.2 148.9,90.1 			"/>
			<polygon class="st2" points="105.8,86.8 148.9,86.8 148.9,35.8 			"/>
		</g>
	</g>
	<g>
		<g>
			<path class="st0" d="M103.4,150.5v-4.9h-6v4.9h-2.3v-12.1h2.3v5.1h6v-5.1h2.3v12.1H103.4z"/>
			<path class="st0" d="M118.5,138.4v7c0,3.6-2.2,5.4-5.2,5.4c-2.9,0-5.4-1.8-5.4-5.4v-7h2.3v7c0,2.2,1.3,3.3,3.2,3.3
				c1.9,0,3-1.3,3-3.3v-7H118.5z"/>
			<path class="st0" d="M130.6,141.8c0,0.9-0.5,1.9-1.6,2.3c1.4,0.4,2,2,2,2.7c0,2.7-2,3.6-4.6,3.6c-1.9,0-3.9,0-5.8,0v-12.2
				c1.9,0,3.9,0,5.8,0C128.8,138.3,130.6,139.4,130.6,141.8z M122.9,143.2h3.5c1.4,0,1.9-0.6,1.9-1.3c0-0.6-0.5-1.5-1.9-1.5h-3.5
				V143.2z M122.9,148.3h3.5c0.9,0,2.3-0.3,2.3-1.4c0-1.1-1.3-1.7-2.3-1.7h-3.5V148.3z"/>
			<path class="st0" d="M145.1,141.3c-0.8-0.8-2-1.2-3.1-1.2c-2.6,0-4.2,2-4.2,4.5c0,2,1.2,4,4.2,4c1,0,1.8-0.2,2.7-1v-2.1h-3.1v-2
				h5.2v5.1c-1.2,1.3-2.7,2.2-4.8,2.2c-4.6,0-6.4-3-6.4-6.2c0-3.4,2.1-6.6,6.4-6.6c1.6,0,3.3,0.6,4.5,1.9L145.1,141.3z"/>
			<path class="st0" d="M151,138.3v10h6.2v2.1h-8.5v-12.2L151,138.3L151,138.3z"/>
			<path class="st0" d="M170.5,144.5c0,3.2-2,6.3-6.2,6.3s-6.2-3.1-6.2-6.3s2-6.4,6.2-6.4C168.4,138.1,170.5,141.3,170.5,144.5z
				 M160.3,144.5c0,2,1.1,4.1,4,4.1c2.9,0,3.9-2.1,4-4.1c0-2-1.1-4.3-4-4.3C161.4,140.2,160.2,142.5,160.3,144.5z"/>
			<path class="st0" d="M182,141.8c0,0.9-0.5,1.9-1.6,2.3c1.4,0.4,2,2,2,2.7c0,2.7-2,3.6-4.6,3.6c-2,0-3.9,0-5.8,0v-12.2
				c1.9,0,3.9,0,5.8,0C180.3,138.3,182,139.4,182,141.8z M174.4,143.2h3.5c1.4,0,1.9-0.6,1.9-1.3c0-0.6-0.5-1.5-1.9-1.5h-3.5V143.2z
				 M174.4,148.3h3.5c0.9,0,2.3-0.3,2.3-1.4c0-1.1-1.3-1.7-2.3-1.7h-3.5V148.3z"/>
			<path class="st0" d="M192.7,148.2h-6.4l-1,2.3h-2.5l5.4-12.2h2.5l5.4,12.2h-2.5L192.7,148.2z M189.5,140.9l-2.3,5.2h4.5
				L189.5,140.9z"/>
			<path class="st0" d="M199.7,138.3v10h6.3v2.1h-8.5v-12.2L199.7,138.3L199.7,138.3z"/>
		</g>
		<g>
			<path class="st0" d="M140.2,160.7v2h-0.4v-5.7c0.8,0,1.7,0,2.5,0c2.5,0,2.5,3.7,0,3.7H140.2z M140.2,157.4v2.9h2
				c1.9,0,1.9-2.9,0-2.9H140.2z"/>
			<path class="st0" d="M149.6,156.9v3.5c0,3-4.4,3-4.4,0v-3.5h0.4v3.5c0,2.5,3.5,2.4,3.5,0v-3.5H149.6z"/>
			<path class="st0" d="M155.7,161.8c-0.6,0.6-1.3,0.8-2.1,0.8c-1.9,0-2.9-1.3-2.9-2.9s1-2.9,2.9-2.9c0.7,0,1.5,0.3,2.1,0.8
				l-0.3,0.3c-0.5-0.5-1.1-0.7-1.8-0.7c-1.7,0-2.5,1.2-2.5,2.5s0.9,2.5,2.5,2.5c0.7,0,1.3-0.2,1.8-0.7L155.7,161.8z"/>
			<path class="st0" d="M161.3,156.9l-2.3,5.7h-0.5l-2.3-5.7h0.5l2.1,5.2l2.1-5.2H161.3z"/>
		</g>
	</g>
</g>
</svg>
