<?xml version="1.0" encoding="utf-8"?>
<!-- Generator: Adobe Illustrator 21.0.0, SVG Export Plug-In . SVG Version: 6.00 Build 0)  -->
<svg version="1.1" id="Capa_1" xmlns="http://www.w3.org/2000/svg" xmlns:xlink="http://www.w3.org/1999/xlink" x="0px" y="0px"
	 viewBox="0 0 131.7 150.3" style="enable-background:new 0 0 131.7 150.3;" xml:space="preserve">
<style type="text/css">
	.st0{fill:#444B73;}
	.st1{fill:#975253;}
	.st2{fill:#FFFFFF;}
	.st3{fill:#A08A53;}
</style>
<path class="st0" d="M65.2,72.1V45.3c-21.4,0.3-38.5,17.9-38.8,39.1h26.8V73C58.6,73.5,62.4,73,65.2,72.1"/>
<path class="st1" d="M78.5,73v11.3h27.1c-0.3-20.9-17.9-38.8-39-39.1v26.9C69.1,73,73.1,73.5,78.5,73"/>
<path class="st1" d="M53.2,85.7H26.2c0.3,21.1,17.4,38.8,38.8,39.1v-20.5C58.4,102.6,53.4,95.8,53.2,85.7"/>
<path class="st0" d="M66.5,104.2v20.5c21.1-0.3,38.8-18,39-39.1H78.5C78.3,95.8,73.1,102.6,66.5,104.2"/>
<path class="st0" d="M31.4,121.4c-0.3-0.2-0.7-0.5-1.3-1c-0.4-0.4-0.6-0.6-0.9-1c-0.2-0.2-0.5-0.5-0.8-0.8l0.1-0.1
	c0.1,0.1,0.3,0.2,0.5,0.2c0.3,0,0.5-0.2,1.1-0.8l2.4-2.4c0.4-0.4,0.6-0.6,0.6-0.8c0-0.1,0-0.3-0.2-0.5l0.1-0.1c0,0,0.2,0.3,0.8,0.8
	c0.2,0.2,0.7,0.6,1.2,1.1c0.6,0.6,2.5,2.6,0.4,4.8C33.8,122.3,32.3,121.8,31.4,121.4 M34.7,116.2c-0.4-0.4-0.5-0.5-0.5-0.5l-3.6,3.6
	c-0.2,0.2-0.3,0.3-0.2,0.5c0,0.1,0.2,0.2,0.3,0.4c1.1,1.1,2.1,1,3.5-0.5C36,117.9,35.3,116.8,34.7,116.2"/>
<path class="st0" d="M38.1,126.9l-2.2-1.6c-0.4-0.3-0.9-0.7-1.3-1l0.1-0.1c0.1,0.1,0.3,0.2,0.5,0.1c0.2-0.1,0.4-0.3,0.9-1l2-2.8
	c0.4-0.5,0.5-0.7,0.5-0.9c0-0.1-0.1-0.3-0.3-0.5l0.1-0.1c0.4,0.3,0.8,0.6,1.2,0.9l2.3,1.7c0,0-0.5,0.7-0.7,1.1l-0.2-0.1
	c0.2-0.3,0.2-0.5,0.1-0.7c-0.1-0.2-0.2-0.4-0.7-0.7l-0.7-0.5l-1.4,2l0.7,0.5c0.3,0.2,0.5,0.4,0.7,0.3c0.2,0,0.4-0.1,0.6-0.3l0.2,0.1
	c-0.1,0.2-0.2,0.3-0.6,0.8c-0.4,0.5-0.4,0.6-0.6,0.8l-0.2-0.1c0.1-0.2,0.2-0.4,0.1-0.6c-0.1-0.3-0.3-0.5-0.6-0.7l-0.7-0.5l-1.3,1.8
	c-0.3,0.4-0.2,0.5,0.2,0.8l0.1,0.1c0.4,0.3,0.8,0.5,1.1,0.5c0.2,0,0.4-0.2,0.6-0.4l0.2,0.1C38.7,126.2,38.1,126.9,38.1,126.9"/>
<path class="st0" d="M50,126.4c-0.1,0.1-0.4,0.3-0.9,0.8l-4,3.7l-0.7-0.2l0.5-5.3c0.1-0.7,0.1-1.2,0.1-1.3c0-0.1,0-0.3-0.3-0.4
	l0.1-0.2c0.3,0.1,0.8,0.4,1.1,0.6c0.3,0.1,1,0.4,1.2,0.5l-0.1,0.2c-0.2-0.1-0.4-0.1-0.5-0.1c-0.1,0-0.1,0.1-0.2,0.2
	c-0.1,0.1-0.1,0.3-0.1,0.6l-0.3,3.3c-0.1,0.6-0.1,0.9-0.1,0.9s0.2-0.3,0.7-0.7l2.4-2.3c0.2-0.2,0.3-0.3,0.4-0.4c0-0.1,0-0.2,0-0.2
	c-0.1-0.1-0.2-0.2-0.4-0.3l0.1-0.2c0.3,0.2,0.5,0.3,0.8,0.4c0.3,0.1,0.6,0.2,0.9,0.4l-0.1,0.2C50.3,126.2,50.1,126.4,50,126.4"/>
<path class="st0" d="M53.1,133.7c-0.3-0.1-1-0.3-1.3-0.3l0.1-0.2c0.2,0.1,0.4,0.1,0.5,0c0.1,0,0.1-0.1,0.1-0.2c0-0.1,0-0.3,0-0.6
	l-0.1-1.4l-1.8-0.5l-0.9,1.2c-0.2,0.2-0.3,0.4-0.3,0.5c0,0.1,0,0.2,0,0.2c0.1,0.1,0.3,0.2,0.4,0.2l-0.1,0.2
	c-0.3-0.1-0.5-0.2-0.9-0.3c-0.3-0.1-0.6-0.2-0.9-0.2l0.1-0.2c0.3,0.1,0.5-0.1,0.5-0.1c0.1-0.1,0.4-0.4,0.8-0.9l3.4-4.2l0.7,0.1
	l0.2,5.3c0,0.7,0.1,1.2,0.1,1.3c0,0.1,0.1,0.3,0.4,0.4l-0.1,0.2C54,134,53.4,133.8,53.1,133.7 M52.5,129.1c0-0.7,0-0.9,0-0.9
	l-1.4,1.9l1.5,0.5L52.5,129.1z"/>
<path class="st0" d="M60.1,135.1l-2.7-0.4c-0.5-0.1-1.1-0.2-1.6-0.2l0-0.2c0.1,0,0.3,0,0.5-0.1c0.2-0.2,0.3-0.4,0.4-1.3l0.6-3.4
	c0.1-0.6,0.1-0.8,0-1c-0.1-0.1-0.2-0.3-0.5-0.3l0-0.2c0.4,0.1,1.1,0.2,1.4,0.3c0.3,0.1,1.1,0.2,1.5,0.2l0,0.2c-0.4,0-0.6,0-0.8,0.2
	c-0.2,0.2-0.2,0.5-0.3,1.2l-0.6,3.8c-0.1,0.4,0,0.5,0.5,0.6l0.2,0c0.5,0.1,0.9,0.1,1.2-0.1c0.1-0.1,0.3-0.3,0.3-0.6l0.2,0
	C60.3,134.2,60.1,135.1,60.1,135.1"/>
<path class="st0" d="M65.1,132.5c-0.4,0-0.7-0.1-0.7-0.1l0-0.2c0,0,0.1,0,0.2,0c0.3,0,0.5-0.1,0.7-0.2c0.3-0.2,0.5-0.7,0.5-1.3
	c0-1.4-0.8-1.5-1.3-1.5c-0.2,0-0.4,0-0.4,0l-0.1,4.4c0,0.8,0,1.1,0.1,1.3c0.1,0.2,0.3,0.3,0.8,0.3l0,0.2c-0.4,0-1.2-0.1-1.6-0.1
	c-0.3,0-0.9,0-1.3,0l0-0.2c0.1,0,0.3,0,0.5-0.2c0.2-0.2,0.2-0.5,0.2-1.3l0.1-3.4c0-0.6,0-0.8-0.1-1c-0.1-0.1-0.2-0.2-0.5-0.3l0-0.2
	c0.4,0,0.8,0.1,1.2,0.1c0.6,0,0.9,0,1.5,0c0.2,0,0.7,0,1.1,0.1c0.7,0.2,1.4,0.6,1.3,1.7C67.3,132,66.3,132.5,65.1,132.5"/>
<path class="st0" d="M73,134.9c-0.3,0-1,0.1-1.3,0.2l0-0.2c0.2,0,0.4-0.1,0.5-0.2c0.1-0.1,0.1-0.1,0.1-0.2c0-0.1-0.1-0.3-0.2-0.5
	l-0.6-1.3l-1.8,0.2l-0.4,1.4c-0.1,0.3-0.1,0.5-0.1,0.6c0,0.1,0,0.2,0.1,0.2c0.1,0.1,0.3,0.1,0.5,0.1l0,0.2c-0.3,0-0.6,0-0.9,0.1
	c-0.3,0-0.6,0.1-0.9,0.1l0-0.2c0.3,0,0.4-0.2,0.5-0.3c0.1-0.1,0.2-0.5,0.4-1.1l1.6-5.2l0.7-0.2l2.3,4.8c0.3,0.7,0.5,1.1,0.6,1.1
	c0.1,0.1,0.2,0.3,0.5,0.2l0,0.2C73.9,134.8,73.3,134.9,73,134.9 M70.6,131c-0.3-0.6-0.4-0.9-0.4-0.9l-0.6,2.3l1.5-0.2L70.6,131z"/>
<path class="st0" d="M81.1,133.2c-1,0.3-1.3-0.1-1.8-0.4c-0.3-0.2-1.2-1-1.9-1.5l-0.4,0.1l0.3,1.3c0.2,0.6,0.2,0.8,0.4,0.9
	c0.1,0.1,0.3,0.2,0.6,0.1l0,0.2c-0.4,0.1-0.9,0.2-1.3,0.3c-0.3,0.1-0.9,0.3-1.3,0.4l0-0.2c0.1,0,0.3-0.1,0.4-0.3
	c0.1-0.2,0.1-0.5-0.2-1.3l-0.9-3.3c-0.2-0.6-0.2-0.8-0.4-0.9c-0.1-0.1-0.3-0.2-0.6-0.1l0-0.2c0.4-0.1,0.7-0.2,1-0.2
	c0.7-0.2,0.8-0.2,1.5-0.4c0.2-0.1,0.7-0.2,1.1-0.2c1.2,0,1.6,0.8,1.7,1.2c0.1,0.5,0.2,1.4-1,2.1c0,0,1.4,1,2.1,1.5
	c0.6,0.4,1,0.7,1.4,0.6l0,0.2C82.1,132.9,81.9,133,81.1,133.2 M76.6,128c-0.2,0.1-0.4,0.1-0.4,0.1l0.7,2.8c0,0,0.2,0,0.5-0.1
	c0.1,0,0.3-0.1,0.4-0.1c0.1-0.1,0.7-0.4,0.4-1.7C77.8,127.7,77,127.9,76.6,128"/>
<path class="st0" d="M88.1,130.3c-0.3,0.1-0.9,0.4-1.2,0.6l-0.1-0.2c0.2-0.1,0.3-0.2,0.4-0.3c0-0.1,0-0.2,0-0.2
	c0-0.1-0.2-0.2-0.4-0.5l-1-1.1l-1.7,0.8l0.1,1.5c0,0.3,0,0.5,0.1,0.6c0,0.1,0.1,0.1,0.2,0.2c0.1,0.1,0.3,0,0.5-0.1l0.1,0.2
	c-0.3,0.1-0.6,0.2-0.9,0.3c-0.3,0.1-0.5,0.3-0.8,0.4l-0.1-0.2c0.3-0.1,0.3-0.4,0.3-0.5c0-0.1,0-0.5,0-1.2l-0.1-5.4l0.6-0.4l3.7,3.9
	c0.5,0.5,0.8,0.8,0.9,0.9c0.1,0.1,0.3,0.2,0.5,0.1l0.1,0.2C89,130,88.4,130.2,88.1,130.3 M84.6,127.3c-0.5-0.5-0.6-0.7-0.6-0.7
	l0.1,2.4l1.4-0.6L84.6,127.3z"/>
<path class="st0" d="M88.8,121.1l-1.5,1.7l-0.2-0.1l0.5-1.9l0-0.1l1.1,0.1L88.8,121.1z M89.3,122.7c0,0.2,0.1,0.5,0.5,1.2l1.7,2.9
	c0.3,0.5,0.5,0.7,0.6,0.8c0.1,0.1,0.3,0.1,0.6,0l0.1,0.2c-0.3,0.2-0.9,0.5-1.2,0.6c-0.3,0.2-0.8,0.5-1.1,0.7l-0.1-0.2
	c0.1-0.1,0.3-0.2,0.3-0.4c0-0.2-0.1-0.5-0.5-1.2l-1.7-2.9c-0.3-0.5-0.5-0.7-0.6-0.8c-0.1-0.1-0.3-0.1-0.6,0l-0.1-0.2
	c0.3-0.2,0.9-0.5,1.2-0.6c0.3-0.2,0.8-0.5,1.1-0.7l0.1,0.2C89.4,122.3,89.3,122.5,89.3,122.7"/>
<path class="st0" d="M95.7,125.8c-0.4,0.3-0.9,0.6-1.4,0.8l-0.1-0.1c-0.3-0.4-0.5-0.6-0.7-0.8l0.2-0.1c0.2,0.2,0.4,0.4,0.7,0.4
	c0.3,0,0.7-0.2,1-0.4c1-0.8,0.5-1.5,0.4-1.6c-0.4-0.5-0.9-0.5-1.5-0.4l-0.7,0.1c-0.8,0.1-1.5,0-2-0.8c-0.3-0.4-0.8-1.5,0.8-2.8
	c0.7-0.5,1.3-0.8,1.3-0.8s0.1,0.2,0.3,0.4c0.3,0.4,0.4,0.6,0.4,0.6l-0.2,0.1c-0.2-0.2-0.4-0.3-0.6-0.3c-0.4-0.1-0.7,0.2-1,0.3
	c-0.8,0.6-0.6,1.2-0.4,1.4c0.3,0.4,0.7,0.4,1.3,0.4l0.7-0.1c0.9-0.1,1.6,0,2.2,0.8C97.3,123.9,96.8,125,95.7,125.8"/>
<path class="st0" d="M101.7,120.7c-1.5,1.5-3.2,1.4-4.6,0c-1.5-1.5-1.5-3.4,0-4.8c1.5-1.5,3.2-1.4,4.6,0
	C103.1,117.4,103.1,119.3,101.7,120.7 M97.3,116.3c-1,1-0.4,2.2,0.7,3.3c1.2,1.2,2.5,1.7,3.4,0.8c1-1,0.4-2.2-0.7-3.3
	C99.5,115.9,98.2,115.4,97.3,116.3"/>
<path class="st0" d="M22.5,102c0.2,0.4,0.2,0.6,0.2,0.6l-0.2,0.1c0,0,0-0.1-0.1-0.2c-0.1-0.3-0.3-0.5-0.5-0.6
	c-0.3-0.2-0.8-0.2-1.4,0c-1.3,0.5-1,1.3-0.9,1.8c0.1,0.2,0.2,0.4,0.2,0.4l4-1.6c0.7-0.3,1-0.4,1.1-0.6c0.1-0.2,0.1-0.4,0-0.8
	l0.2-0.1c0.1,0.4,0.4,1.2,0.6,1.5c0.1,0.3,0.3,0.8,0.5,1.2l-0.2,0.1c0-0.1-0.2-0.3-0.4-0.4c-0.2-0.1-0.5,0-1.3,0.3l-3.2,1.3
	c-0.6,0.2-0.8,0.3-0.9,0.5c-0.1,0.1-0.1,0.3,0,0.6l-0.2,0.1c-0.1-0.4-0.3-0.8-0.4-1.1c-0.2-0.5-0.4-0.8-0.6-1.4
	c-0.1-0.2-0.3-0.7-0.3-1.1c-0.1-0.7,0-1.5,1-1.9C21.1,100.1,22,100.9,22.5,102"/>
<path class="st0" d="M23.4,94.8c0.5,2-0.5,3.5-2.4,3.9c-2,0.5-3.6-0.5-4.1-2.5c-0.5-2,0.5-3.5,2.4-3.9
	C21.3,91.8,22.9,92.8,23.4,94.8 M17.3,96.2c0.3,1.3,1.7,1.5,3.2,1.1c1.6-0.4,2.7-1.2,2.4-2.4c-0.3-1.3-1.7-1.5-3.2-1.1
	C18.1,94.1,17,94.9,17.3,96.2"/>
<path class="st0" d="M15.9,84.7c0.2,0.2,0.5,0.2,1.3,0.1l4.9-0.3l0,0.6l-4.8,4.1c-0.2,0.2-0.4,0.3-0.4,0.3l3.9-0.2
	c0.6,0,0.8-0.1,1-0.2c0.1-0.1,0.2-0.3,0.2-0.5l0.2,0c0,0.4,0,0.6,0,0.9c0,0.3,0,0.6,0.1,1l-0.2,0c0-0.1-0.1-0.3-0.2-0.5
	c-0.2-0.2-0.5-0.2-1.3-0.1L17.2,90c-0.6,0-0.8,0.1-1,0.2c-0.1,0.1-0.2,0.3-0.2,0.5l-0.2,0c0-0.4,0-0.8,0-1.2c0-0.1-0.1-0.6-0.1-0.9
	l3.7-3.1c0.3-0.3,0.5-0.3,0.5-0.3L17,85.5c-0.6,0-0.8,0.1-1,0.2c-0.1,0.1-0.2,0.3-0.2,0.5l-0.2,0c0-0.4,0-0.6,0-1
	c0-0.3,0-0.5-0.1-0.9l0.2,0C15.7,84.4,15.7,84.6,15.9,84.7"/>
<path class="st0" d="M17.3,77.8c-0.3,0-0.6,0.1-0.7,0.3c-0.1,0.2-0.2,0.4-0.2,1l0,0.4l4.6,0.4c0.6,0.1,0.8,0.1,1,0
	c0.3-0.1,0.3-0.6,0.3-0.7l0.2,0c-0.1,0.4-0.2,1.2-0.2,1.5c0,0.3-0.1,1.1-0.1,1.5l-0.2,0c0-0.1,0-0.5-0.2-0.7
	c-0.2-0.2-0.4-0.2-1.3-0.3l-4.3-0.4l0,0.4c-0.1,0.6-0.1,0.8,0.1,1c0.1,0.2,0.3,0.4,0.6,0.4l0,0.2c-0.5-0.1-1.3-0.2-1.3-0.2l0.5-5.2
	c0,0,0.8,0.1,1.3,0.1L17.3,77.8z"/>
<path class="st0" d="M17.2,74c0.2,0.2,0.4,0.3,1.3,0.4l3.3,0.7c0.6,0.1,0.8,0.1,1,0.1c0.1-0.1,0.3-0.2,0.3-0.4l0.2,0
	c-0.1,0.4-0.2,1-0.3,1.3c-0.1,0.3-0.2,0.9-0.2,1.3l-0.2,0c0-0.1,0-0.3-0.1-0.5c-0.2-0.2-0.4-0.3-1.3-0.4l-3.3-0.7
	c-0.6-0.1-0.8-0.1-1-0.1c-0.1,0.1-0.3,0.2-0.3,0.4l-0.2,0c0.1-0.4,0.2-1,0.3-1.3c0.1-0.3,0.2-0.9,0.2-1.3l0.2,0
	C17,73.6,17,73.8,17.2,74"/>
<path class="st0" d="M19.9,68c-0.3-0.1-0.6,0-0.7,0.1c-0.2,0.2-0.3,0.4-0.5,0.9l-0.2,0.8l2.3,0.7l0.3-0.8c0.1-0.3,0.2-0.6,0.1-0.8
	c-0.1-0.2-0.2-0.3-0.5-0.4l0.1-0.2c0.2,0.1,0.3,0.1,0.9,0.3c0.6,0.2,0.7,0.2,0.9,0.3l-0.1,0.2c-0.3-0.1-0.4,0-0.6,0
	c-0.2,0.1-0.3,0.4-0.5,0.8l-0.2,0.8l1.7,0.5c0.6,0.2,0.8,0.2,1,0.2c0.3-0.1,0.4-0.5,0.5-0.6l0.2,0.1c-0.1,0.4-0.4,1.1-0.5,1.4
	c-0.2,0.5-0.2,0.8-0.4,1.3l-0.2-0.1c0-0.1,0.1-0.3-0.1-0.5c-0.1-0.2-0.4-0.3-1.2-0.6l-3.3-1c-0.6-0.2-0.8-0.2-1-0.2
	c-0.1,0-0.3,0.2-0.4,0.4l-0.2-0.1c0.2-0.5,0.3-0.9,0.5-1.4l0.9-2.7c0,0,0.8,0.3,1.2,0.4L19.9,68z"/>
<path class="st0" d="M20.6,63.9c0.1,0.2,0.4,0.4,1.1,0.7l3.1,1.4c0.6,0.3,0.8,0.3,1,0.3c0.1,0,0.3-0.1,0.4-0.4l0.2,0.1
	c-0.2,0.3-0.4,0.9-0.6,1.2c-0.1,0.3-0.4,0.9-0.5,1.2l-0.2-0.1c0.1-0.1,0.1-0.3,0-0.5c-0.1-0.2-0.4-0.4-1.1-0.7l-3.1-1.4
	c-0.6-0.3-0.8-0.3-1-0.3c-0.1,0-0.3,0.1-0.4,0.4l-0.2-0.1c0.2-0.3,0.4-0.9,0.6-1.2c0.1-0.3,0.4-0.9,0.5-1.2l0.2,0.1
	C20.5,63.5,20.5,63.7,20.6,63.9"/>
<path class="st0" d="M25,57.8c-0.2-0.1-0.4-0.1-0.6-0.1c-0.4,0.1-0.7,0.5-0.8,0.8c-0.4,0.8-1,2,1.4,3.4c1.4,0.8,2.7,0.9,3.6-0.5
	c0.2-0.3,0.4-0.7,0.2-1.1c-0.1-0.2-0.2-0.4-0.4-0.5l0.1-0.2c0.2,0.2,0.5,0.3,0.9,0.6l0.1,0.1c-0.1,0.5-0.4,1.1-0.7,1.6
	c-0.6,1.1-1.5,1.8-2.4,1.9c-0.6,0.1-1.3-0.1-2.1-0.5c-1.5-0.9-1.9-2.3-1.7-3.6c0.1-0.5,0.4-1.1,0.6-1.4C23.5,57.6,24,57,24,57
	c0.2,0.1,0.3,0.2,0.5,0.3c0.2,0.1,0.4,0.2,0.6,0.3L25,57.8z"/>
<path class="st0" d="M26.8,53.8c0,0.2,0.3,0.4,0.9,0.9l2.7,2.1c0.5,0.4,0.7,0.5,0.9,0.5c0.1,0,0.3-0.1,0.5-0.3l0.1,0.1
	c-0.3,0.3-0.6,0.8-0.8,1c-0.2,0.3-0.6,0.8-0.8,1.1l-0.1-0.1c0.1-0.1,0.2-0.3,0.1-0.5c0-0.2-0.3-0.4-0.9-0.9l-2.7-2.1
	c-0.5-0.4-0.7-0.5-0.9-0.5c-0.1,0-0.3,0.1-0.5,0.3l-0.1-0.1c0.3-0.3,0.6-0.8,0.8-1c0.2-0.3,0.6-0.8,0.8-1.1l0.1,0.1
	C26.8,53.4,26.7,53.6,26.8,53.8"/>
<path class="st0" d="M35.8,52.9c-0.2,0.2-0.7,0.8-0.9,1l-0.1-0.1c0.2-0.2,0.2-0.3,0.2-0.4c0-0.1,0-0.2-0.1-0.2
	c-0.1-0.1-0.2-0.2-0.5-0.3l-1.3-0.6l-1.3,1.3l0.6,1.3c0.1,0.3,0.2,0.4,0.3,0.5c0.1,0.1,0.1,0.1,0.2,0.1c0.2,0,0.3-0.2,0.4-0.2
	l0.1,0.1c-0.3,0.2-0.4,0.4-0.7,0.6c-0.2,0.2-0.4,0.4-0.6,0.7l-0.1-0.1c0.2-0.2,0.2-0.4,0.1-0.5c0-0.1-0.2-0.5-0.4-1.1l-2.1-5
	l0.4-0.6l4.9,2.2c0.7,0.3,1.1,0.5,1.2,0.5c0.1,0,0.3,0.1,0.5-0.1l0.1,0.1C36.5,52.3,36,52.7,35.8,52.9 M31.4,51.4
	c-0.6-0.3-0.8-0.4-0.8-0.4l1,2.1l1.1-1.1L31.4,51.4z"/>
<path class="st0" d="M40.9,41.5c0,0.3,0.1,0.5,0.6,1.2l1.1,1.7c0.4,0.6,0.7,1,0.7,1.4c0.3,1.2-0.7,2-1.4,2.5
	c-1.4,0.9-2.2,0.7-2.8,0.3c-0.4-0.3-0.8-0.9-1.1-1.3l-1.3-1.9c-0.3-0.5-0.5-0.7-0.7-0.8c-0.1,0-0.3-0.1-0.6,0.1l-0.1-0.1
	c0.3-0.2,0.9-0.5,1.1-0.7c0.3-0.2,0.8-0.5,1.1-0.8l0.1,0.1c-0.1,0.1-0.3,0.2-0.3,0.4c0,0.2,0.1,0.5,0.6,1.2l1.4,2.2
	c0.5,0.7,1.1,1.5,2.3,0.7c1.2-0.8,0.7-1.7,0.3-2.4L40.5,43c-0.3-0.5-0.5-0.7-0.7-0.8c-0.1,0-0.3-0.1-0.6,0.1l-0.1-0.1
	c0.3-0.2,0.6-0.4,0.9-0.6c0.3-0.2,0.7-0.5,1-0.7l0.1,0.1C41.1,41.2,40.9,41.3,40.9,41.5"/>
<path class="st0" d="M48.6,37.9c-0.1,0.2,0,0.5,0.4,1.3l1.9,4.5l-0.5,0.2l-5.5-3.1c-0.2-0.1-0.4-0.3-0.4-0.3l1.6,3.6
	c0.2,0.6,0.4,0.8,0.5,0.9c0.1,0.1,0.3,0.1,0.6,0l0.1,0.2c-0.4,0.1-0.6,0.2-0.9,0.3s-0.5,0.2-0.9,0.4l-0.1-0.2
	c0.1-0.1,0.3-0.2,0.4-0.4c0.1-0.2,0-0.5-0.4-1.3L44.1,41c-0.2-0.6-0.4-0.8-0.5-0.9c-0.1-0.1-0.3-0.1-0.6,0L42.9,40
	c0.4-0.1,0.8-0.3,1.1-0.4c0.1-0.1,0.5-0.3,0.8-0.4l4.2,2.4c0.4,0.2,0.5,0.3,0.5,0.3l-1.2-2.7c-0.2-0.6-0.4-0.8-0.5-0.9
	c-0.1-0.1-0.3-0.1-0.6,0l-0.1-0.2c0.4-0.1,0.6-0.2,0.9-0.4c0.3-0.1,0.5-0.2,0.9-0.4l0.1,0.2C48.8,37.6,48.7,37.7,48.6,37.9"/>
<path class="st0" d="M52.9,36.6c-0.1,0.2,0,0.5,0.2,1.3l0.9,3.3c0.2,0.6,0.3,0.8,0.4,0.9c0.1,0.1,0.3,0.2,0.6,0.1l0,0.2
	c-0.4,0.1-1,0.2-1.3,0.3c-0.3,0.1-0.9,0.3-1.3,0.4l0-0.2c0.1,0,0.3-0.1,0.4-0.3c0.1-0.2,0-0.5-0.2-1.3L51.7,38
	c-0.2-0.6-0.3-0.8-0.4-0.9C51.2,37,51,37,50.8,37l0-0.2c0.4-0.1,1-0.2,1.3-0.3c0.3-0.1,0.9-0.3,1.3-0.4l0,0.2
	C53.2,36.3,53,36.4,52.9,36.6"/>
<path class="st0" d="M60.7,35.2c-0.1,0.1-0.1,0.5-0.3,1.1l-1.2,5.3l-0.7,0.3l-2.6-4.7c-0.4-0.6-0.6-1-0.7-1.1
	c-0.1-0.1-0.2-0.3-0.5-0.2l0-0.2c0.3,0,0.9-0.1,1.2-0.2c0.3,0,1-0.2,1.3-0.3l0,0.2c-0.2,0-0.4,0.1-0.4,0.2c-0.1,0.1-0.1,0.1-0.1,0.2
	c0,0.1,0.1,0.3,0.2,0.5l1.6,2.9c0.3,0.6,0.4,0.8,0.4,0.8s0.1-0.3,0.2-1l0.6-3.3c0.1-0.3,0.1-0.5,0.1-0.6c0-0.1,0-0.2-0.1-0.2
	c-0.1-0.1-0.3-0.1-0.5,0l0-0.2c0.3,0,0.6-0.1,0.9-0.1c0.3-0.1,0.6-0.1,0.9-0.2l0,0.2C60.9,34.8,60.7,35.1,60.7,35.2"/>
<path class="st0" d="M67,41l-2.8,0.1c-0.6,0-1.1,0-1.6,0.1l0-0.2c0.1,0,0.3-0.1,0.5-0.2c0.2-0.2,0.2-0.5,0.1-1.3L63.2,36
	c0-0.6-0.1-0.8-0.2-1c-0.1-0.1-0.2-0.2-0.5-0.2l0-0.2c0.5,0,1,0,1.5,0l2.8-0.1c0,0,0,0.8,0.1,1.3l-0.2,0c0-0.3-0.2-0.6-0.4-0.7
	c-0.2-0.1-0.4-0.1-1-0.1l-0.8,0l0.1,2.4l0.8,0c0.4,0,0.6,0,0.8-0.2c0.1-0.1,0.2-0.3,0.2-0.6l0.2,0c0,0.2,0,0.4,0,1c0,0.6,0,0.7,0,1
	l-0.2,0c0-0.3-0.1-0.4-0.2-0.5c-0.2-0.2-0.5-0.2-0.9-0.2l-0.8,0l0.1,2.2c0,0.4,0.1,0.5,0.6,0.5l0.2,0c0.5,0,0.9,0,1.2-0.3
	c0.1-0.1,0.2-0.4,0.2-0.7l0.2,0C67,40.1,67,41,67,41"/>
<path class="st0" d="M73.8,41.7c-1-0.1-1.2-0.6-1.5-1c-0.2-0.3-0.8-1.4-1.2-2.1l-0.4-0.1l-0.2,1.3c-0.1,0.6-0.1,0.8,0,1
	c0.1,0.1,0.2,0.3,0.5,0.3l0,0.2c-0.4-0.1-0.9-0.2-1.3-0.2c-0.3,0-0.9-0.1-1.3-0.1l0-0.2c0.1,0,0.3,0,0.5-0.2
	c0.2-0.2,0.2-0.4,0.3-1.3l0.4-3.4c0.1-0.6,0.1-0.8,0-1c-0.1-0.1-0.2-0.3-0.5-0.3l0-0.2c0.4,0.1,0.7,0.1,1.1,0.2
	c0.7,0.1,0.9,0.1,1.5,0.2c0.2,0,0.7,0.1,1.1,0.2c1.1,0.4,1.2,1.3,1.1,1.7c-0.1,0.5-0.4,1.4-1.7,1.6c0,0,0.9,1.4,1.4,2.1
	c0.4,0.6,0.7,1,1.1,1.1l0,0.2C74.9,41.8,74.6,41.8,73.8,41.7 M71.5,35.2c-0.2,0-0.4,0-0.4,0l-0.4,2.9c0,0,0.2,0,0.5,0.1
	c0.1,0,0.3,0,0.4,0c0.1,0,0.8-0.1,1-1.4C72.7,35.4,71.9,35.2,71.5,35.2"/>
<path class="st0" d="M76.9,42.5c-0.4-0.1-1.1-0.3-1.5-0.6l0-0.2c0.1-0.5,0.2-0.8,0.2-1.1l0.2,0.1c0,0.3,0,0.6,0.1,0.8
	c0.2,0.3,0.6,0.4,0.9,0.5c1.2,0.3,1.5-0.5,1.5-0.7c0.2-0.6-0.2-1-0.6-1.4l-0.4-0.5c-0.6-0.6-0.9-1.2-0.7-2.1
	c0.1-0.5,0.7-1.6,2.7-1.1c0.9,0.2,1.4,0.5,1.4,0.5s-0.1,0.2-0.2,0.5c-0.1,0.5-0.2,0.7-0.2,0.7L80.4,38c0-0.2,0-0.5-0.1-0.6
	c-0.2-0.3-0.6-0.5-0.9-0.6c-1-0.3-1.3,0.3-1.3,0.6c-0.1,0.5,0.1,0.8,0.5,1.3l0.5,0.5c0.7,0.7,1,1.2,0.7,2.2
	C79.5,42.6,78.3,42.9,76.9,42.5"/>
<path class="st0" d="M84.9,38.6c-0.2,0.1-0.3,0.4-0.6,1.2L83,43c-0.2,0.6-0.3,0.8-0.2,1c0,0.1,0.1,0.3,0.4,0.4l-0.1,0.2
	c-0.4-0.2-0.9-0.4-1.2-0.5c-0.3-0.1-0.9-0.3-1.3-0.4l0.1-0.2c0.1,0,0.3,0.1,0.5,0c0.2-0.1,0.3-0.4,0.6-1.2l1.2-3.2
	c0.2-0.6,0.3-0.8,0.2-1c0-0.1-0.1-0.3-0.4-0.4l0.1-0.2c0.4,0.2,0.9,0.4,1.2,0.5c0.3,0.1,0.9,0.3,1.3,0.4l-0.1,0.2
	C85.3,38.6,85.1,38.5,84.9,38.6"/>
<path class="st0" d="M87.9,46.8c-0.3-0.1-0.8-0.3-1.5-0.6c-0.4-0.2-0.8-0.4-1.1-0.7c-0.3-0.2-0.7-0.4-1-0.5l0.1-0.2
	c0.1,0.1,0.3,0.1,0.5,0c0.2-0.1,0.4-0.3,0.8-1.1l1.6-3c0.3-0.5,0.4-0.8,0.4-0.9c0-0.1-0.1-0.3-0.3-0.5l0.1-0.2c0,0,0.3,0.2,1,0.6
	c0.3,0.2,0.8,0.4,1.4,0.8c0.8,0.4,3.1,1.8,1.7,4.5C90.4,47,88.8,47,87.9,46.8 M89.6,40.9c-0.5-0.3-0.6-0.3-0.6-0.3l-2.4,4.4
	c-0.1,0.3-0.2,0.4,0,0.5c0.1,0.1,0.2,0.2,0.4,0.3c1.3,0.7,2.3,0.3,3.3-1.5C91.4,42.2,90.3,41.3,89.6,40.9"/>
<path class="st0" d="M94.3,51.4c-0.2-0.2-0.8-0.6-1.1-0.8l0.1-0.1c0.2,0.1,0.3,0.2,0.4,0.2c0.1,0,0.1,0,0.2-0.1
	c0.1-0.1,0.1-0.3,0.2-0.5l0.5-1.4l-1.5-1.1L92,48.3c-0.2,0.2-0.4,0.2-0.5,0.3c-0.1,0.1-0.1,0.1-0.1,0.2c0,0.2,0.2,0.3,0.3,0.4
	l-0.1,0.1c-0.3-0.2-0.4-0.4-0.7-0.6c-0.3-0.2-0.5-0.4-0.8-0.5l0.1-0.1c0.2,0.2,0.5,0.1,0.6,0.1c0.1,0,0.5-0.2,1-0.6l4.7-2.7l0.7,0.3
	l-1.7,5.1c-0.2,0.7-0.3,1.1-0.4,1.2c0,0.1,0,0.3,0.2,0.5l-0.1,0.1C95.1,52,94.5,51.5,94.3,51.4 M95.3,46.8c0.2-0.6,0.3-0.9,0.3-0.9
	l-2,1.3l1.2,0.9L95.3,46.8z"/>
<path class="st0" d="M98.7,55.5c-0.3-0.2-0.7-0.5-1.2-1.1c-0.3-0.4-0.6-0.7-0.9-1c-0.2-0.3-0.5-0.6-0.8-0.8l0.1-0.1
	c0.1,0.1,0.3,0.2,0.5,0.2c0.3,0,0.5-0.2,1.1-0.8l2.5-2.3c0.5-0.4,0.6-0.6,0.6-0.8c0-0.1,0-0.3-0.2-0.5l0.1-0.1c0,0,0.2,0.3,0.7,0.8
	c0.2,0.2,0.6,0.7,1.1,1.2c0.6,0.7,2.4,2.7,0.2,4.8C101,56.5,99.5,56,98.7,55.5 M102.1,50.5c-0.4-0.4-0.5-0.5-0.5-0.5l-3.7,3.5
	c-0.2,0.2-0.3,0.3-0.2,0.5c0,0.1,0.2,0.2,0.3,0.4c1,1.1,2.1,1,3.6-0.4C103.4,52.2,102.7,51.1,102.1,50.5"/>
<path class="st0" d="M109.4,62c0.2-0.1,0.3-0.3,0.4-0.5c0.1-0.4-0.1-0.9-0.3-1.1c-0.4-0.8-1.3-1.8-3.6-0.4c-1.4,0.8-2.1,1.9-1.3,3.4
	c0.2,0.3,0.5,0.7,0.9,0.8c0.2,0,0.4,0,0.6-0.1l0.1,0.2c-0.3,0.1-0.5,0.3-0.9,0.5l-0.1,0.1c-0.4-0.3-0.8-0.9-1-1.3
	c-0.6-1.1-0.9-2.2-0.5-3.1c0.2-0.6,0.7-1.1,1.4-1.6c1.5-0.9,2.9-0.6,3.9,0.3c0.4,0.3,0.8,0.9,1,1.2c0.4,0.7,0.7,1.3,0.7,1.4
	c-0.2,0.1-0.4,0.2-0.5,0.3c-0.2,0.1-0.4,0.3-0.5,0.3L109.4,62z"/>
<path class="st0" d="M107.3,70.1c-0.1-0.3-0.4-1-0.5-1.2l0.2-0.1c0.1,0.2,0.2,0.3,0.3,0.4c0.1,0,0.2,0,0.2,0c0.1,0,0.2-0.2,0.5-0.4
	l1.1-1l-0.7-1.7l-1.5,0c-0.3,0-0.5,0-0.6,0.1c-0.1,0-0.1,0.1-0.2,0.2c-0.1,0.1,0,0.3,0.1,0.5L106,67c-0.1-0.3-0.2-0.6-0.3-0.9
	c-0.1-0.3-0.2-0.6-0.4-0.8l0.2-0.1c0.1,0.3,0.3,0.3,0.4,0.3c0.1,0,0.5,0,1.2,0l5.4,0l0.4,0.6l-4,3.5c-0.5,0.5-0.9,0.8-0.9,0.9
	c-0.1,0.1-0.2,0.3-0.1,0.5l-0.2,0.1C107.6,71,107.4,70.4,107.3,70.1 M110.4,66.7c0.5-0.4,0.7-0.6,0.7-0.6l-2.4,0.1l0.6,1.4
	L110.4,66.7z"/>
<path class="st0" d="M114.1,75c0.3-0.1,0.5-0.3,0.6-0.5c0.1-0.2,0-0.4-0.1-1l-0.1-0.4l-4.5,1.2c-0.6,0.2-0.8,0.2-0.9,0.4
	c-0.2,0.2-0.1,0.7-0.1,0.7l-0.2,0c-0.1-0.4-0.3-1.2-0.3-1.5c-0.1-0.3-0.3-1.1-0.4-1.5l0.2,0c0,0.1,0.2,0.5,0.4,0.6
	c0.2,0.1,0.5,0.1,1.3-0.2l4.2-1.1l-0.1-0.4c-0.2-0.6-0.2-0.8-0.4-1c-0.2-0.2-0.4-0.2-0.7-0.2l-0.1-0.2c0.5-0.1,1.2-0.3,1.2-0.3
	l1.3,5c0,0-0.8,0.2-1.2,0.4L114.1,75z"/>
<path class="st0" d="M109.5,80.4c-0.2-2,0.9-3.4,2.9-3.6c2.1-0.2,3.6,1,3.8,3c0.2,2-0.9,3.4-2.9,3.6
	C111.2,83.6,109.7,82.4,109.5,80.4 M115.7,79.8c-0.1-1.3-1.5-1.7-3-1.5c-1.6,0.2-2.9,0.9-2.7,2.1c0.1,1.3,1.5,1.7,3,1.5
	C114.6,81.7,115.8,81.1,115.7,79.8 M117.4,81l-1-2.1l0.2-0.1l1.5,1.2l0,0.1l-0.6,0.9L117.4,81z"/>
<path class="st0" d="M109.6,89.2l0.1-2.7c0-0.6,0.1-1.1,0.1-1.6l0.2,0c0,0.1,0,0.3,0.2,0.5c0.2,0.2,0.5,0.2,1.3,0.2l3.4,0.2
	c0.6,0,0.8,0,1-0.1c0.1-0.1,0.2-0.2,0.3-0.5l0.2,0c0,0.4-0.1,1.1-0.1,1.4c0,0.3,0,1.1,0,1.5l-0.2,0c0-0.4-0.1-0.6-0.3-0.8
	c-0.2-0.2-0.5-0.2-1.3-0.2l-3.8-0.2c-0.4,0-0.5,0.1-0.5,0.6l0,0.2c0,0.5,0,0.9,0.2,1.1c0.1,0.1,0.4,0.2,0.7,0.3l0,0.2
	C110.6,89.3,109.6,89.2,109.6,89.2"/>
<path class="st0" d="M115.2,93.5c-0.2-0.2-0.4-0.2-1.3-0.4l-3.4-0.5c-0.6-0.1-0.8-0.1-1,0c-0.1,0.1-0.3,0.2-0.3,0.5l-0.2,0
	c0.1-0.4,0.2-1,0.2-1.3c0.1-0.3,0.1-0.9,0.2-1.3l0.2,0c0,0.1,0,0.3,0.1,0.5c0.2,0.2,0.4,0.2,1.3,0.4l3.4,0.5c0.6,0.1,0.8,0.1,1,0
	c0.1-0.1,0.3-0.2,0.3-0.5l0.2,0c-0.1,0.4-0.2,1-0.2,1.3c-0.1,0.3-0.1,0.9-0.2,1.3l-0.2,0C115.3,93.9,115.3,93.7,115.2,93.5"/>
<path class="st0" d="M112.5,100.6c0.2,0.1,0.5,0,0.6-0.1c0.3-0.2,0.5-0.7,0.6-1c0.2-0.8,0.4-2.2-2.2-2.9c-1.6-0.5-2.9-0.2-3.3,1.4
	c-0.1,0.3-0.2,0.8,0.1,1.2c0.1,0.2,0.3,0.3,0.5,0.4l-0.1,0.2c-0.3-0.1-0.6-0.2-1-0.3l-0.2,0c0-0.5,0.1-1.2,0.2-1.7
	c0.3-1.2,1-2.1,1.9-2.5c0.6-0.2,1.3-0.3,2.1,0c1.7,0.5,2.4,1.7,2.5,3c0,0.5-0.1,1.1-0.2,1.5c-0.2,0.7-0.5,1.4-0.5,1.5
	c-0.2-0.1-0.4-0.1-0.6-0.2c-0.2-0.1-0.5-0.1-0.6-0.2L112.5,100.6z"/>
<path class="st0" d="M105.2,104.6c0.1-0.3,0.4-0.9,0.5-1.2l0.2,0.1c-0.1,0.2-0.1,0.4-0.1,0.5c0,0.1,0.1,0.1,0.2,0.2
	c0.1,0,0.3,0.1,0.6,0.1l1.4,0.1l0.8-1.7l-1.1-1c-0.2-0.2-0.3-0.3-0.5-0.4c-0.1,0-0.2,0-0.2,0c-0.1,0.1-0.2,0.2-0.3,0.4l-0.2-0.1
	c0.2-0.3,0.3-0.5,0.4-0.8c0.1-0.3,0.2-0.6,0.3-0.9l0.2,0.1c-0.1,0.2,0,0.5,0.1,0.6c0.1,0.1,0.3,0.4,0.8,0.9l3.7,3.9l-0.2,0.7
	l-5.3-0.4c-0.7-0.1-1.2-0.1-1.3-0.1c-0.1,0-0.3,0.1-0.4,0.3l-0.2-0.1C104.7,105.4,105,104.8,105.2,104.6 M109.8,104.5
	c0.7,0.1,0.9,0.1,0.9,0.1l-1.7-1.7l-0.6,1.4L109.8,104.5z"/>
<path class="st2" d="M69.1,61.2h1c-0.3-0.3-0.6-0.7-0.6-1.1c0-0.9,1-1.4,1-2.5s-0.8-1.7-0.8-2.7c0-0.9,0.7-1.6,0.7-2.3
	c0-0.3-0.2-1-0.4-1.2h-0.9c0.2,0.3,0.4,0.9,0.4,1.2c0,0.8-0.7,1.3-0.7,2.4c0,1,0.9,1.9,0.9,2.7c0,0.9-1,1.5-1,2.5
	C68.7,60.5,68.9,60.9,69.1,61.2"/>
<path class="st2" d="M69.6,67.9V69h26.2v-1H89c2.5-0.5,4.1-2.4,4.1-5.1c0-4.1-4.6-8.2-11.3-8.2c-1.6,0-3,0.2-4.2,0.6
	c0-0.2-0.1-0.3-0.1-0.5c0-0.9,0.7-1.6,0.7-2.4c0-0.3-0.2-1-0.4-1.2h-0.9c0.2,0.3,0.4,0.9,0.4,1.2c0,0.8-0.7,1.3-0.7,2.4
	c0,0.3,0.1,0.5,0.2,0.8c-0.5,0.2-1,0.5-1.5,0.7c-0.2-0.5-0.5-1-0.5-1.5c0-0.9,0.7-1.6,0.7-2.3c0-0.3-0.2-1-0.4-1.2h-0.9
	c0.2,0.3,0.4,0.9,0.4,1.2c0,0.8-0.7,1.3-0.7,2.4c0,0.8,0.5,1.4,0.7,2c-1.3,0.9-2.1,2.1-2.7,3.3c0-0.1,0-0.1,0-0.2c0-0.7,1-1.5,1-2.4
	c0-1.1-0.8-1.7-0.8-2.7c0-0.9,0.7-1.6,0.7-2.3c0-0.3-0.2-1-0.4-1.2h-0.9c0.2,0.3,0.4,0.9,0.4,1.2c0,0.8-0.7,1.3-0.7,2.4
	c0,1,0.9,1.9,0.9,2.7c0,0.9-1,1.5-1,2.5c0,0.4,0.2,0.8,0.4,1.1h0.8h0.2c0.9-2.5,3.5-5.5,9.3-5.5c6.3,0,10.2,4,10.2,7.3
	c0,2.9-1.9,4.2-3.9,4.2c-2.7,0-3.7-1.7-3.7-3.2c0-1.2,0.6-2.3,2-2.8c-0.7-1.5-2.7-3.3-6.1-3.3c-3.7,0-5.5,2-6.1,3.3h1
	c0.2-0.3,0.5-0.9,1.2-1.3c0,0.1,0,0.1,0,0.2c0,0.4,0.2,0.8,0.4,1.1h1c-0.3-0.3-0.6-0.7-0.6-1.1c0-0.3,0.1-0.6,0.3-0.8
	c0.7-0.3,1.6-0.4,2.7-0.4c2.7,0,4.1,1.2,4.7,2c-0.9,0.4-1.8,1.8-1.8,3.2c0,1.9,1.2,3.5,3.6,4.1h-9.3c0-1.8-2.3-1.8-2.3-2.3
	s3.1-1.5,3.1-3.6h-9.5c0,2,3.1,3,3.1,3.5C71.9,66.2,69.6,66.3,69.6,67.9 M70,62.9h7.1c0,1.3-2.7,1.7-2.7,2.8c0,1,2,0.8,2,2.3h-5.7
	c0-1.5,2-1.3,2-2.3C72.7,64.7,70,64.2,70,62.9"/>
<path class="st2" d="M84.9,71.8c-0.2-0.2-0.6-0.3-1.2-0.3c-1.6,0-2.9,1.3-2.9,3c0,2,1.9,2.6,1.9,3.8c0,0.7-0.5,1.2-0.9,1.4
	c0.3,0.3,0.8,0.4,1.4,0.4c1.7,0,2.9-1.3,2.9-3s-1.8-2.5-1.8-3.7C84.2,72.9,84.5,72.3,84.9,71.8 M85.2,77.2c0,1.3-0.9,2.1-2,2.1
	c0.3-0.3,0.5-0.9,0.5-1.3c0-1.4-1.9-2.1-1.9-3.7c0-1.3,0.9-2.1,2-2.1c-0.3,0.3-0.4,0.9-0.4,1.4C83.3,75,85.2,75.8,85.2,77.2"/>
<path class="st2" d="M96.5,73.4c0-0.5,0.3-1.1,0.7-1.6c-0.2-0.2-0.6-0.3-1.2-0.3c-1.6,0-2.9,1.3-2.9,3c0,2,1.9,2.6,1.9,3.8
	c0,0.7-0.5,1.2-0.9,1.4c0.3,0.3,0.8,0.4,1.4,0.4c1.7,0,2.9-1.3,2.9-3C98.3,75.4,96.5,74.6,96.5,73.4 M95.4,79.3
	c0.3-0.3,0.5-0.9,0.5-1.3c0-1.4-1.9-2.1-1.9-3.7c0-1.3,0.9-2.1,2-2.1c-0.3,0.3-0.4,0.9-0.4,1.4c0,1.4,1.9,2.1,1.9,3.5
	C97.4,78.4,96.5,79.3,95.4,79.3"/>
<path class="st2" d="M91.1,71.8c-0.2-0.2-0.6-0.3-1.2-0.3c-1.6,0-2.9,1.3-2.9,3c0,2,1.9,2.6,1.9,3.8c0,0.7-0.5,1.2-0.9,1.4
	c0.3,0.3,0.8,0.4,1.4,0.4c1.7,0,2.9-1.3,2.9-3s-1.8-2.5-1.8-3.7C90.4,72.9,90.6,72.3,91.1,71.8 M91.3,77.2c0,1.3-0.9,2.1-2,2.1
	c0.3-0.3,0.5-0.9,0.5-1.3c0-1.4-1.9-2.1-1.9-3.7c0-1.3,0.9-2.1,2-2.1c-0.3,0.3-0.4,0.9-0.4,1.4C89.4,75,91.3,75.8,91.3,77.2"/>
<path class="st2" d="M53.6,62c0,0.3,0.1,0.5,0.2,0.5s0.3-0.3,0.4-0.3c0,0.3,0.3,0.4,0.5,0.4c0.3,0,0.5-0.2,0.5-0.5
	c0.3,0.1,0.3,0.3,0.5,0.3c0.1,0,0.3-0.1,0.3-0.3c0-0.5-0.4-0.7-1.1-0.7C54.2,61.4,53.7,61.8,53.6,62 M52.4,67.2
	c0.1,0.2,0.3,0.3,0.6,0.3c0.3,0,0.5-0.2,0.6-0.3c0-0.1,0-0.3-0.1-0.3C53.4,66.9,53.3,67,53,67c-0.3,0-0.4-0.1-0.5-0.2
	C52.4,66.9,52.4,67.1,52.4,67.2 M51.9,65.1c0.5,0,0.6,0.2,1,0.2c0.4,0,0.5-0.2,1-0.2c0-0.2-0.1-0.3-0.2-0.5c-0.7,0-0.7,0.3-0.9,0.3
	c-0.2,0-0.2-0.3-0.9-0.3C52,64.8,51.9,65,51.9,65.1 M51.7,66.1l0.1,0.4c0.1-0.1,0.3-0.1,0.4-0.1c0.3,0,0.3,0.1,0.8,0.1
	c0.4,0,0.5-0.1,0.8-0.1c0.2,0,0.3,0,0.4,0.1l0.1-0.4c-0.1-0.1-0.3-0.2-0.6-0.2c-0.3,0-0.4,0.1-0.7,0.1c-0.3,0-0.4-0.1-0.7-0.1
	C52,65.9,51.8,66,51.7,66.1 M49.9,62.1c0,0.3,0.2,0.3,0.3,0.3c0.2,0,0.3-0.3,0.5-0.3c0,0.3,0.2,0.5,0.5,0.5c0.3,0,0.5-0.2,0.5-0.4
	c0.2,0.1,0.3,0.3,0.4,0.3c0.1,0,0.2-0.2,0.2-0.5c-0.1-0.2-0.6-0.6-1.3-0.6C50.4,61.4,49.9,61.6,49.9,62.1 M47.5,61.7
	c-0.4,0.5-0.1,1,0.4,1c0.5,0,1.2-0.3,1.9-1.5c0.4-0.6,0.6-1,1.4-1c1.1,0,1-1.1,1.7-1.1c0.7,0,0.6,1.1,1.7,1.1c0.8,0,1,0.4,1.4,1
	c0.7,1.2,1.4,1.5,1.9,1.5c0.5,0,0.9-0.4,0.4-1c-0.1,0.2-0.3,0.3-0.5,0.3c-0.7,0-1-0.6-1.5-1.4c0.3,0.1,0.5,0.4,0.9,0.4
	c0.4,0,0.5-0.3,0.4-0.6c-1.4,0-1-1-2.8-1c-0.8,0-1-1.1-2-1.1c-0.9,0-1.2,1.1-2,1.1c-1.7,0-1.4,1-2.8,1c-0.1,0.3,0,0.6,0.4,0.6
	c0.3,0,0.6-0.3,0.9-0.4C49,61.4,48.7,62,48,62C47.8,62,47.6,61.8,47.5,61.7 M45.9,63.1c0,0.5,0.4,0.9,0.8,1.1
	c-0.1,0.1-0.2,0.3-0.2,0.6c0,0.9,1,1.1,1.2,1.1c-0.2,0.2-0.3,0.4-0.3,0.7c0,0.4,0.4,1,1.1,1c0.5,0,0.9-0.3,0.8-0.8
	c-0.2,0.1-0.3,0.2-0.6,0.2c-0.3,0-0.7-0.2-0.7-0.5c0-0.3,0.1-0.4,0.2-0.5c0.3-0.1,0.5-0.2,0.5-0.6c-0.3,0.1-0.5,0.1-0.8,0.1
	c-0.4,0-0.9-0.3-0.9-0.7c0-0.2,0.1-0.3,0.2-0.4c0.4,0.2,1.1,0.1,1.5-0.2c0.3,2,1.9,5.1,4.2,5c2.3,0.1,3.9-3,4.2-5
	c0.3,0.3,1,0.3,1.5,0.2c0.1,0.1,0.2,0.3,0.2,0.4c0,0.4-0.4,0.7-0.9,0.7c-0.3,0-0.5,0-0.8-0.1c0,0.4,0.2,0.5,0.5,0.6
	c0.1,0.1,0.2,0.3,0.2,0.5c0,0.3-0.3,0.5-0.7,0.5c-0.3,0-0.4-0.1-0.6-0.2c-0.1,0.4,0.3,0.8,0.8,0.8c0.7,0,1.1-0.5,1.1-1
	c0-0.3-0.1-0.5-0.3-0.7c0.3,0,1.2-0.2,1.2-1.1c0-0.3-0.1-0.5-0.2-0.6c0.3-0.2,0.8-0.6,0.8-1.1c0-0.4-0.3-0.9-1-0.9
	c0.2,0.2,0.3,0.3,0.3,0.6c0,0.5-0.4,0.9-1.1,0.9c-0.3,0-0.8-0.1-0.9-0.3c0.1-0.4-0.3-0.7-0.6-0.9c0.1,0.5,0,0.9-0.1,1.1
	c-0.3,0.8-1.4,0.9-1.4,1c0,0.3,0.3,0.3,0.4,0.3c0.3,0,0.6-0.2,0.9-0.5C56.2,66,55,68.4,53,68.4c-2,0-3.2-2.4-3.5-3.9
	c0.3,0.3,0.5,0.5,0.9,0.5c0.2,0,0.4-0.1,0.4-0.3c0-0.1-1.1-0.3-1.4-1c-0.1-0.3-0.2-0.6-0.1-1.1c-0.3,0.2-0.7,0.4-0.6,0.9
	c-0.2,0.2-0.7,0.3-1,0.3c-0.7,0-1.1-0.3-1.1-0.9c0-0.3,0.1-0.4,0.3-0.6C46.1,62.2,45.9,62.6,45.9,63.1 M44.7,54.9
	c0,0.2,0.1,0.3,0.2,0.3h16.2c0.1,0,0.2-0.1,0.2-0.3c0-0.3-0.2-0.5-0.7-0.5H45.4C44.9,54.4,44.7,54.7,44.7,54.9 M42.3,58.9
	c0,2.2,1.9,3,3.2,3c1.4,0,2.7-1,2.7-2.5c0-0.4-0.2-0.9-0.3-1.1c1,0.3,2.2,0.4,2.9,0.4c0.8,0,1.3-0.3,1.5-0.6c-3.3-0.1-4.6-0.9-6-0.9
	c-1.1,0-1.8,0.8-1.8,1.6c0,0.9,0.6,1.5,1.4,1.5c0.7,0,1-0.4,1-0.9c0-0.3-0.2-0.4-0.4-0.4c0,0.3-0.2,0.4-0.5,0.4
	c-0.3,0-0.6-0.3-0.6-0.6c0-0.4,0.3-0.8,1-0.8c0.9,0,1.3,0.5,1.3,1.3c0,1-0.7,1.7-2,1.7c-1.3,0-2.2-1-2.2-2.2c0-1.9,1.5-2.5,2.7-2.5
	c2,0,3.3,0.5,7.1,0.5c3.8,0,5.1-0.5,7.1-0.5c1.2,0,2.7,0.6,2.7,2.5c0,1.3-0.9,2.2-2.2,2.2c-1.3,0-2-0.7-2-1.7c0-0.8,0.4-1.3,1.3-1.3
	c0.6,0,0.9,0.3,0.9,0.8c0,0.3-0.3,0.6-0.6,0.6c-0.3,0-0.5-0.2-0.5-0.4c-0.3,0-0.4,0.2-0.4,0.4c0,0.4,0.3,0.9,1,0.9
	c0.8,0,1.4-0.6,1.4-1.5c0-0.9-0.7-1.6-1.8-1.6c-1.5,0-2.8,0.8-6,0.9c0.2,0.3,0.7,0.6,1.5,0.6c0.7,0,1.9-0.1,2.9-0.4
	c-0.2,0.3-0.3,0.7-0.3,1.1c0,1.5,1.3,2.5,2.7,2.5c1.3,0,3.2-0.9,3.2-3c0-1.9-1.2-3.3-3.6-3.3c-2.1,0-3.5,0.6-7.1,0.6
	c-3.6,0-5-0.6-7.1-0.6C43.5,55.6,42.3,57,42.3,58.9"/>
<path class="st2" d="M49.1,80.6c-3.5,0-5.7,0.6-7.1,1.6h-1.2c-1.5-1-3.6-1.6-7.1-1.6V71c0.2,0,0.8,0.1,1.1,0.3v8.4
	c2.6,0,4.5,0.3,6.1,1.3h1c1.7-0.9,3.5-1.3,6.1-1.3v-8.4c0.3-0.2,0.9-0.3,1.1-0.3V80.6z M47.1,70v9c-1.9,0-3.7,0.3-5.3,1.1v-8.8
	C42.9,70.3,45.3,70,47.1,70 M35.7,70c1.9,0,4.2,0.3,5.3,1.3v8.8c-1.7-0.7-3.4-1.1-5.3-1.1V70z M48,70.5v-1.1c-2.6,0-4.8,0.2-6.6,1.3
	c-1.9-1.1-3.9-1.3-6.6-1.3v1.1c-0.5-0.2-1.2-0.3-2-0.3v11.4c4.3,0,6.3,0.6,7.8,1.5h1.5c1.4-0.8,3.5-1.5,7.8-1.5V70.2
	C49.2,70.2,48.5,70.3,48,70.5"/>
<path class="st2" d="M55.7,108.2c-3.3,0-3.4,3-6.5,3c-3,0-3.4-3.1-6.5-3.1c-1.7,0-2.6,0.8-3.5,1.6c0.2,0.2,0.5,0.6,0.7,0.8
	c0.7-0.6,1.4-1.3,2.7-1.3c2.7,0,3.2,3,6.5,3c3.6,0,3.6-3,6.5-3c2.9,0,3.1,3.1,6.5,3v-1C59.1,111.2,59.1,108.2,55.7,108.2"/>
<path class="st2" d="M55.7,112.3c-3.3,0-3.4,3-6.5,3c-3,0-3.4-3.1-6.5-3.1c-0.3,0-0.7,0-1,0.1c0.3,0.3,1.1,1,1.1,1
	c2.5,0.1,3,3,6.3,3c3.6,0,3.6-3,6.5-3c2.9,0,3.1,3.1,6.5,3v-1C59.1,115.3,59.1,112.3,55.7,112.3"/>
<path class="st2" d="M55.8,116.3c-2.3,0-3,1.4-4.2,2.3c0.3,0.2,0.7,0.3,1,0.5c0.9-0.8,1.7-1.8,3.3-1.8c2.9,0,3.1,3.1,6.5,3v-1
	C59.1,119.3,59.1,116.3,55.8,116.3"/>
<path class="st2" d="M37.1,107.3l0.6,0.7c2-0.5,2.7-2.6,5-2.6c2.7,0,3.2,3,6.5,3c3.6,0,3.6-3,6.5-3c2.9,0,3.1,3.1,6.5,3v-1
	c-3.1,0-3.1-3-6.5-3c-3.3,0-3.4,3-6.5,3c-3,0-3.4-3.1-6.5-3.1C39.9,104.3,39.1,106.6,37.1,107.3"/>
<path class="st2" d="M41.6,104.7h1.1v-2.2c0.1,0.2,0.4,0.3,0.8,0.3c1.4,0,3-1.4,3-3.1l2.7-2.8l-0.5-0.4L46,99
	c-0.2-0.2-0.4-0.3-0.9-0.3c0.9-0.6,1.2-1.3,1.2-2.2l2.8-2.7l-0.5-0.4L46,95.9c-0.2-0.2-0.4-0.3-0.8-0.3c0.5-0.3,1.1-1.2,1.2-2.1
	l2.7-2.8l-0.5-0.5l-2.5,2.6c-0.2-0.3-0.4-0.4-0.9-0.4c-0.6,0-1.1,0.3-1.6,0.6c0.2-0.3,0.3-0.6,0.3-1.1c0-1-0.6-2.1-1.3-2.5l-0.1-3.1
	h-0.7l-0.1,3.1c-0.7,0.3-1.3,1.4-1.3,2.5c0,0.5,0.1,0.8,0.2,1c-0.4-0.3-1-0.5-1.6-0.5c-0.4,0-0.6,0.2-0.8,0.3l-2.5-2.6l-0.5,0.5
	l2.6,2.7c0,0.9,0.4,1.5,1,2.1c-0.3,0-0.5,0.1-0.7,0.3l-2.5-2.5L35,93.8l2.6,2.7c0,0.7,0.4,1.4,1.1,2.1c-0.4,0-0.6,0.2-0.7,0.3
	l-2.5-2.5L35,96.9l2.7,2.7c0,1.6,1.6,3.1,3,3.1c0.3,0,0.7-0.1,0.9-0.3V104.7z M42.1,97.9c-0.2-0.7-0.5-1.1-1.1-1.4
	c0.5,0,1-0.1,1.1-0.9c0.1,0.8,0.5,0.9,1.1,0.9C42.7,96.8,42.3,97.2,42.1,97.9 M43.4,102.1c-0.4,0-0.6-0.3-0.6-0.6c0-0.8,0.9-2,2.1-2
	c0.4,0,0.8,0.1,0.8,0.4C45.6,100.9,44.7,102.1,43.4,102.1 M40.8,102.1c-1.2,0-2.3-1.2-2.3-2.2c0-0.3,0.3-0.4,0.5-0.4
	c1.3,0,2.5,1.1,2.5,2C41.5,101.8,41.3,102.1,40.8,102.1 M42.1,101c-0.2-0.8-0.5-1.1-1-1.4c0.5,0,0.9-0.2,1-0.8
	c0.1,0.6,0.4,0.8,1,0.8C42.7,99.9,42.3,100.3,42.1,101 M43.3,98.9c-0.4,0-0.5-0.3-0.5-0.5c0-0.8,0.9-2,2.1-2c0.4,0,0.6,0.1,0.6,0.4
	C45.5,97.9,44.6,98.9,43.3,98.9 M38.9,96.4c1.5,0,2.6,1.3,2.6,2c0,0.3-0.3,0.5-0.6,0.5c-1.3,0-2.5-1.1-2.5-2.1
	C38.5,96.4,38.6,96.4,38.9,96.4 M45,93.2c0.4,0,0.5,0.2,0.5,0.5c0,0.9-1,2.1-2.3,2.1c-0.3,0-0.5-0.2-0.5-0.5
	C42.8,94.6,43.9,93.2,45,93.2 M39.2,93.2c1.1,0,2.4,1.4,2.4,2.1c0,0.3-0.3,0.5-0.7,0.5c-1.2,0-2.3-1.3-2.3-2.1
	C38.6,93.4,38.7,93.2,39.2,93.2 M42.1,90.1c0.4,0,1.1,1,1.1,2c0,1.2-0.6,2-1.1,2c-0.4,0-1.1-0.9-1.1-2
	C41.1,91.1,41.8,90.1,42.1,90.1"/>
<path class="st2" d="M75,113.3c-0.4-0.2-0.9-0.3-1.4-0.1c-0.5,0.2-0.8,0.5-1.1,0.9c-0.2,0.4-0.3,0.9-0.1,1.4
	c0.2,0.5,0.5,0.8,0.9,1.1c0.4,0.2,0.8,0.2,1.1,0.2c0.1,0,0.2,0,0.3-0.1c0.5-0.2,0.8-0.5,1.1-0.9c0.2-0.4,0.3-0.9,0.1-1.4
	C75.8,113.9,75.4,113.6,75,113.3 M75.2,115.5c-0.1,0.3-0.4,0.5-0.7,0.6c-0.3,0.1-0.6,0.1-0.9-0.1c-0.3-0.1-0.5-0.4-0.6-0.7
	c-0.1-0.3-0.1-0.6,0.1-0.9c0.1-0.3,0.4-0.5,0.7-0.6c0.3-0.1,0.6-0.1,0.9,0.1c0.3,0.1,0.5,0.4,0.6,0.7
	C75.4,114.9,75.4,115.2,75.2,115.5"/>
<path class="st2" d="M84.3,110.4c-0.4-0.2-0.8-0.2-1.2-0.1c-0.8,0.3-1.3,1.2-1,2c0.1,0.4,0.4,0.7,0.8,0.9c0.3,0.2,0.7,0.2,1,0.2
	c0.1,0,0.2,0,0.2-0.1c0.4-0.1,0.7-0.4,0.9-0.8c0.2-0.4,0.2-0.8,0.1-1.2C84.9,110.9,84.6,110.6,84.3,110.4 M84.4,112.2
	c-0.1,0.2-0.3,0.4-0.6,0.5c-0.2,0.1-0.5,0.1-0.7-0.1c-0.2-0.1-0.4-0.3-0.5-0.6c-0.2-0.5,0.1-1,0.6-1.2c0,0,0.1,0,0.1,0
	c0.2,0,0.4,0,0.6,0.1c0.2,0.1,0.4,0.3,0.5,0.6C84.5,111.8,84.5,112,84.4,112.2"/>
<path class="st2" d="M88.7,112c-0.5-0.7-1.5-0.8-2-0.7l-0.2-0.7c0.4-0.3,1.1-0.9,1.2-1.7l0-0.2l-1.4-1.2l-0.2,0.1
	c-0.9,0.4-1.3,1-1.5,1.4l-0.7-0.2c0-0.5-0.1-1.5-1-2l-0.2-0.1l-1.6,0.5l-0.1,0.2c-0.4,0.9,0.1,1.7,0.4,2.2L81,110
	c-0.4-0.2-1.1-0.5-2-0.2l-0.2,0.1l-0.4,1.8l0.2,0.2c0.1,0.1,0.3,0.2,0.4,0.3c-0.5,0-1,0.2-1.3,0.4l-0.5-0.6c0.3-0.4,0.9-1.1,0.6-1.9
	l-0.1-0.2l-1.5-0.7l-0.2,0.1c-0.8,0.2-1.1,1.1-1.2,1.6l-0.7-0.1c0-0.5-0.2-1.4-0.9-1.7l-0.2-0.1l-1.6,0.5l-0.1,0.2
	c-0.4,0.7,0,1.5,0.3,1.9l-0.5,0.5c-0.4-0.3-1.1-0.8-1.9-0.6l-0.2,0.1l-0.8,1.5l0.1,0.2c0.2,0.8,1.1,1.1,1.6,1.2L70,115
	c-0.5,0-1.4,0.2-1.8,0.9l-0.1,0.2l0.5,1.6l0.2,0.1c0.6,0.3,1.5-0.1,1.9-0.3l0.5,0.6c-0.4,0.4-0.9,1.1-0.6,1.9l0.1,0.2l1.5,0.7
	l0.2-0.1c0.8-0.3,1.1-1.1,1.2-1.6l0.7,0.1c0,0.5,0.2,1.3,0.9,1.8l0.2,0.1l1.7-0.5l0.1-0.2c0.3-0.8-0.1-1.5-0.3-1.9l0.5-0.5
	c0.4,0.3,1.1,0.8,1.9,0.6l0.2-0.1L80,117l-0.1-0.2c-0.2-0.7-1.1-1-1.6-1.1l0.1-0.8c0.3,0,0.8-0.1,1.1-0.3c0,0.1,0,0.3,0,0.4l0,0.2
	l1.2,1.2l0.2-0.1c1-0.3,1.4-1,1.6-1.4l0.7,0.1c0,0.5,0.1,1.5,0.9,2l0.2,0.1l1.7-0.5l0.1-0.2c0.4-0.9-0.1-1.7-0.4-2.2l0.5-0.5
	c0.4,0.2,1.1,0.5,2.1,0.2l0.2-0.1l0.3-1.7L88.7,112z M80.1,113.6l-0.4-1.2c0.3,0,0.5,0.1,0.7,0l0.2,0.7
	C80.5,113.3,80.3,113.4,80.1,113.6 M78,114.1l-0.4,0l-0.2,2.2l0.4,0c0.3,0,1,0.2,1.3,0.5l-0.4,0.8c-0.6,0.1-1.2-0.6-1.2-0.6
	l-0.3-0.3l-1.7,1.5l0.3,0.3c0,0,0.5,0.6,0.5,1.3l-0.8,0.3c-0.4-0.5-0.4-1.3-0.4-1.3l0-0.4l-2.3-0.2l0,0.4c0,0-0.1,0.9-0.6,1.2
	l-0.8-0.4c0-0.4,0.5-0.9,0.7-1.2l0.3-0.3l-1.5-1.7l-0.3,0.2c-0.3,0.2-0.9,0.5-1.2,0.5l-0.3-0.9c0.3-0.3,1-0.3,1.3-0.3l0.4,0l0.2-2.3
	l-0.4,0c-0.3,0-1-0.2-1.3-0.6l0.4-0.8c0.5,0,1,0.5,1.2,0.7l0.3,0.3l1.7-1.5l-0.3-0.3c-0.2-0.2-0.6-0.8-0.5-1.2l0.9-0.3
	c0.3,0.3,0.3,1,0.3,1.3l0,0.4l2.3,0.2l0-0.4c0-0.3,0.2-1,0.6-1.2l0.8,0.4c0,0.4-0.5,1-0.7,1.2L76,112l1.5,1.7l0.3-0.2
	c0.2-0.2,0.8-0.5,1.3-0.5l0.2,0.8C79.1,114,78.4,114.1,78,114.1 M87.7,113.1c-0.8,0.2-1.4-0.3-1.4-0.3l-0.3-0.3l-1.5,1.7l0.3,0.3
	c0,0,0.7,0.7,0.6,1.4l-0.9,0.3c-0.5-0.5-0.4-1.4-0.4-1.4l0.1-0.4l-1.8-0.4l-0.4-0.1l-0.1,0.4c0,0-0.1,0.7-0.9,1.1l-0.6-0.6
	c0.1-0.5,0.7-0.9,1-1l0.3-0.2l-0.6-2l-0.3,0c0,0-0.9,0.1-1.5-0.2l0.2-0.9c0.9-0.1,1.3,0.3,1.4,0.3l0.3,0.3l1.5-1.7l-0.3-0.3
	c0,0-0.7-0.7-0.5-1.4l0.9-0.3C83.2,108,83,109,83,109l0,0.4l1.8,0.4l0.4,0.1l0.1-0.4c0,0,0.1-0.7,0.9-1.1l0.7,0.6
	c-0.2,0.5-0.8,0.9-1,1.1l-0.3,0.2l0.7,2l0.3-0.1c0.3-0.1,1.1-0.1,1.4,0.2L87.7,113.1z"/>
<path class="st2" d="M95.6,95.4l-6.3,4.8v-4.3l-6.7,4.3V97l-6.6,4v1.2l5.7-3.5v3l6.7-4.3v4.3l8.5-6.3l-0.8-1h2.6v3l-1-1.1l-10.6,8.3
	v-4.4l-6.4,4.1v-2.7l-5.9,3.7v1.2l5.1-3.3v2.7l6.4-4.1v4.6l11.4-9l1.9,2.1v-5.9h-5.4L95.6,95.4z M86,89.1v3.4l6.2-3.6v3.6l5.7-3.9
	l-0.7-1h2.6v2.8l-1.1-1.1L91.1,95v-3.8l-6.8,4.3v-3l-6.3,3.7v1.2l5.5-3.2v3l6.8-4.3v3.8l8.5-6.3l1.9,2.1v-5.7h-5.3l1.2,1.5L93,90.9
	v-3.6l-6.2,3.6v-3.4l-7.2,3.9v1.2L86,89.1z"/>
<polygon class="st0" points="65.2,22.7 65.2,24.8 63,24.8 63,26 65.2,26 65.2,30.1 66.5,30.1 66.5,26 68.8,26 68.8,24.8 66.5,24.8 
	66.5,22.7 "/>
<path class="st0" d="M73.2,30.4L73,31.5C99.4,35,119.8,57.9,119.8,85c0,29.6-24.1,53.9-53.8,53.9c-29.6,0-53.8-24.2-53.8-53.9
	c0-27.2,20.4-50,46.8-53.5l-0.3-1.1C31.9,33.8,11,57.2,11,85c0,30.4,24.7,55.2,55,55.2c30.3,0,55-24.8,55-55.2
	C121,57.2,100.1,33.8,73.2,30.4"/>
<path class="st0" d="M84.2,29.9l-10.3-1.1l-0.1,0.8l9.4,1.4C83.3,30.8,83.9,30.2,84.2,29.9 M73.8,27.8l11,0.8c0.3-0.4,1-1.1,1-1.1
	l-1-0.7l-11,0.1V27.8z M73.7,25.5l0.1,0.7l9.9-1c0,0-0.8-1.1-1.1-1.4L73.7,25.5z M73.3,24l0.3,0.8l8.2-2.4L81,21L73.3,24z
	 M72.5,22.6l0.4,0.7l7.5-4.1c-0.1-0.3-0.3-1.7-0.3-1.7L72.5,22.6z M71.4,21.3L72,22l7.6-6.4V14h-1.5L71.4,21.3z M70,20.3l0.7,0.4
	l5.2-7.1L74,13.5L70,20.3z M68.8,19.5l0.7,0.4l2.9-6.6l-1.5-0.6L68.8,19.5z M67.2,19.2l0.8,0.1l1.6-7.3l-1-0.7L67.2,19.2z M48,29.9
	c0.3,0.3,0.8,0.8,1.1,1.1l9.4-1.4l-0.1-0.8L48,29.9z M58.3,27.8v-0.8l-11-0.1l-1,0.7c0,0,0.7,0.7,1,1.1L58.3,27.8z M58.4,25.5
	l-9-1.7c-0.3,0.3-1.1,1.4-1.1,1.4l9.9,1L58.4,25.5z M58.9,24l-7.8-3l-0.7,1.4l8.2,2.4L58.9,24z M59.7,22.6l-7.6-5.1
	c0,0-0.1,1.4-0.3,1.7l7.5,4.1L59.7,22.6z M60.8,21.3L54,14h-1.5v1.7l7.6,6.4L60.8,21.3z M62.1,20.3l-3.9-6.8l-1.9,0.1l5.2,7.1
	L62.1,20.3z M63.3,19.5l-2-6.8l-1.5,0.6l2.9,6.6L63.3,19.5z M65,19.2l-1.5-7.9c0,0-0.8,0.6-1,0.7l1.6,7.3L65,19.2z M66.5,19l0.7-8.7
	c-0.5-0.1-1.1-0.7-1.1-0.7s-0.5,0.6-1.1,0.7l0.7,8.7H66.5z"/>
<g>
	<path class="st3" d="M72.6,81.3H67v-5H65v5h-5.6v2.2H65v10.8c0.3,0.2,0.5,0.4,1,0.5c0.5-0.1,0.7-0.2,1-0.5V83.5h5.6V81.3z"/>
	<path class="st3" d="M72.2,95.1c-0.6-0.1-0.9-0.2-0.9-0.2s0.1,0.3,0.5,0.8L72.2,95.1z"/>
	<path class="st3" d="M72.6,92.6l-0.2,0.5l0.4,0.2l0.2-0.5c0.1-0.2,0.1-0.3-0.1-0.4C72.8,92.4,72.7,92.4,72.6,92.6z"/>
	<path class="st3" d="M58.8,92.9c0.4-0.2,0.5-0.5,0.3-0.9L59,91.6L57.8,92l0.2,0.4C58.1,92.9,58.4,93.1,58.8,92.9z"/>
	<path class="st3" d="M73.5,92.9l-0.3,0.7l0.4,0.2l0.3-0.7c0.1-0.2,0.1-0.3-0.1-0.4C73.7,92.6,73.6,92.6,73.5,92.9z"/>
	<path class="st3" d="M65.9,73c-2.4,0.8-5.5,1.3-11.6,0.9v11c0,9.8,4.9,16.8,11.6,18.3c6.7-1.5,11.6-8.5,11.6-18.3v-11
		C71.4,74.3,68.3,73.8,65.9,73z M56.5,87.7l2.3-0.2l0.2,1.8l-0.5,0l-0.1-1.3l-0.5,0l0.1,1.1l-0.4,0l-0.1-1.1l-0.9,0.1L56.5,87.7z
		 M56.8,90.2l2.2-0.5l0.1,0.5l-2.2,0.5L56.8,90.2z M57.5,92.6l-0.3-0.9l2.1-0.8l0.3,0.9c0.3,0.8,0.1,1.4-0.6,1.6
		C58.3,93.7,57.8,93.4,57.5,92.6z M59.8,96.1l-0.4,0.3l-1-1.5l1.9-1.2l0.9,1.5l-0.4,0.3l-0.7-1l-0.4,0.3l0.6,0.9l-0.4,0.2l-0.6-0.9
		L59.1,95L59.8,96.1z M62.4,97.2c-0.1,0.1-0.2,0.1-0.2,0.1l-0.3-0.4c0,0,0.1,0,0.2-0.1c0.1-0.1,0.1-0.2-0.1-0.5
		c-0.2-0.3-0.4-0.3-0.5-0.2c-0.4,0.3,0.9,1.2,0.3,1.7c-0.3,0.3-0.7,0.2-1.2-0.3c-0.5-0.5-0.5-0.9-0.2-1.2c0,0,0.2,0.1,0.4,0.3
		c-0.2,0.2-0.2,0.4,0.1,0.6c0.2,0.3,0.4,0.3,0.5,0.2c0.3-0.3-0.9-1.1-0.2-1.8c0.3-0.3,0.7-0.2,1.1,0.3C62.7,96.6,62.7,97,62.4,97.2z
		 M65.7,99.7h-1.8v-2.3h1.8v0.5h-1.2v0.5h1.1v0.4h-1.1v0.4h1.3V99.7z M64.1,94.9V84.4h-5.7v-3.9h5.7v-5.1h3.8v5.1h5.7v3.9h-5.7v10.6
		c-0.4,0.3-1.3,0.7-1.9,0.8C65.4,95.7,64.5,95.2,64.1,94.9z M68.1,97.9h-0.8v1.8h-0.5v-1.8h-0.8v-0.5h2V97.9z M70.5,98.6l-1.6-1.7
		l0.4-0.4l1.2,1.3l0.8-0.8l0.3,0.4L70.5,98.6z M73.3,95.3c-0.2-0.1-0.4-0.1-0.6-0.1L72,96.1c0.1,0.2,0.2,0.3,0.3,0.5L72.1,97
		c-0.9-1.4-1.3-2.1-1.3-2.1l0.4-0.5c0,0,0.9,0.1,2.5,0.5L73.3,95.3z M74.4,93.2l-0.5,1.2l-2.1-0.9l0.5-1.1c0.2-0.5,0.5-0.6,0.9-0.4
		c0.2,0.1,0.3,0.3,0.3,0.4c0.1-0.2,0.4-0.3,0.7-0.2C74.5,92.4,74.6,92.7,74.4,93.2z M75.2,90.6c-0.2,0.7-0.7,1.1-1.4,0.9
		c-0.7-0.2-1-0.7-0.9-1.5c0.2-0.7,0.7-1.1,1.4-0.9C75.1,89.4,75.4,89.9,75.2,90.6z M75.7,87.3c-0.2,0.1-0.5,0.2-0.7,0.3l0,0.1l0,0.6
		l0.7,0l0,0.5l-2.3-0.2l0.1-1.1c0-0.6,0.3-0.9,0.9-0.9c0.3,0,0.5,0.2,0.7,0.4c0.2-0.1,0.5-0.3,0.8-0.4L75.7,87.3z"/>
	<path class="st3" d="M74.2,87.2c-0.2,0-0.3,0.1-0.4,0.4l0,0.6l0.7,0l0-0.5C74.5,87.3,74.4,87.2,74.2,87.2z"/>
	<path class="st3" d="M74.2,89.7c-0.5-0.1-0.7,0.1-0.8,0.5c-0.1,0.4,0,0.8,0.5,0.9c0.5,0.1,0.7-0.1,0.8-0.5
		C74.8,90.1,74.7,89.8,74.2,89.7z"/>
</g>
</svg>
