<?xml version="1.0" encoding="utf-8"?>
<!-- Generator: Adobe Illustrator 21.0.0, SVG Export Plug-In . SVG Version: 6.00 Build 0)  -->
<svg version="1.1" id="Capa_1" xmlns="http://www.w3.org/2000/svg" xmlns:xlink="http://www.w3.org/1999/xlink" x="0px" y="0px"
	 viewBox="0 0 300 200" style="enable-background:new 0 0 300 200;" xml:space="preserve">
<style type="text/css">
	.st0{fill:#FFFFFF;}
</style>
<g>
	<path class="st0" d="M146.7,81.2c-0.7,0-0.9-0.1-0.9-0.1v-0.3c0,0,0.1,0,0.3,0c0.4,0,0.7-0.1,1.1-0.3c0.5-0.3,0.7-1,0.7-1.9
		c0-2.1-1.2-2.1-2-2.1c-0.3,0-0.6,0.1-0.6,0.1v6.4c0,1.1,0,1.6,0.2,1.9c0.2,0.3,0.5,0.4,1.1,0.5v0.3c-0.6,0-1.9-0.1-2.3-0.1
		c-0.5,0-1.3,0-1.9,0.1v-0.3c0.2,0,0.5-0.1,0.7-0.3c0.3-0.3,0.3-0.7,0.3-1.9v-5c0-0.9-0.1-1.3-0.2-1.5c-0.1-0.1-0.3-0.3-0.7-0.3
		v-0.3c0.6,0,1.3,0.1,1.7,0.1c0.8,0,1.3,0,2.2,0c0.3,0,1.1,0,1.7,0.1c1.1,0.3,2.1,0.9,2.1,2.4C150,80.3,148.4,81.2,146.7,81.2
		L146.7,81.2z"/>
	<path class="st0" d="M156,85.6c-3,0-4.8-1.9-4.8-4.7c0-3,1.9-5.1,4.9-5.1s4.8,1.9,4.8,4.7C161,83.5,159.1,85.6,156,85.6L156,85.6z
		 M156.1,76.4c-2,0-2.7,1.9-2.7,4.2c0,2.4,0.8,4.3,2.7,4.3c2,0,2.7-1.9,2.7-4.2C158.8,78.3,157.9,76.4,156.1,76.4L156.1,76.4z"/>
	<path class="st0" d="M171.5,76.4c-0.3,0.3-0.3,0.7-0.3,1.9v7.1h-0.8l-5.5-7.4c-0.3-0.3-0.3-0.5-0.3-0.5v5.8c0,0.9,0.1,1.3,0.2,1.5
		c0.1,0.1,0.3,0.3,0.7,0.3v0.3c-0.6,0-0.9-0.1-1.4-0.1c-0.5,0-0.8,0-1.5,0.1v-0.3c0.2,0,0.5-0.1,0.7-0.3c0.3-0.3,0.3-0.7,0.3-1.9v-5
		c0-0.9-0.1-1.3-0.2-1.5c-0.1-0.1-0.3-0.3-0.7-0.3v-0.3c0.6,0,1.2,0.1,1.7,0.1c0.2,0,0.9,0,1.3-0.1l4.2,5.6c0.3,0.5,0.5,0.7,0.5,0.7
		v-4.3c0-0.9-0.1-1.3-0.2-1.5c-0.1-0.1-0.3-0.3-0.7-0.3v-0.3c0.6,0,0.9,0.1,1.4,0.1c0.5,0,0.8,0,1.4-0.1v0.3
		C172,76.1,171.7,76.2,171.5,76.4L171.5,76.4z"/>
	<path class="st0" d="M180.3,77.7c0-0.5-0.2-0.8-0.5-1c-0.3-0.2-0.6-0.2-1.5-0.2h-0.5v6.8c0,0.9,0.1,1.3,0.2,1.5
		c0.3,0.3,0.9,0.4,1.1,0.4v0.3c-0.6,0-1.7-0.1-2.3-0.1s-1.7,0-2.3,0.1v-0.3c0.1,0,0.7-0.1,1-0.3c0.3-0.3,0.3-0.7,0.3-1.9v-6.4h-0.5
		c-0.9,0-1.2,0-1.5,0.2c-0.3,0.1-0.5,0.5-0.5,1h-0.3c0.1-0.7,0.1-1.9,0.1-1.9h7.7c0,0,0,1.2,0.1,1.9L180.3,77.7L180.3,77.7z"/>
	<path class="st0" d="M184.7,76.4c-0.3,0.3-0.3,0.7-0.3,1.9v5c0,0.9,0.1,1.3,0.2,1.5c0.1,0.1,0.3,0.3,0.7,0.3v0.3
		c-0.6,0-1.5-0.1-2-0.1s-1.4,0-1.9,0.1v-0.3c0.2,0,0.5-0.1,0.7-0.3c0.3-0.3,0.3-0.7,0.3-1.9v-5c0-0.9-0.1-1.3-0.2-1.5
		c-0.1-0.1-0.3-0.3-0.7-0.3v-0.3c0.6,0,1.5,0.1,2,0.1c0.5,0,1.4,0,1.9-0.1v0.3C185.3,76.1,184.9,76.2,184.7,76.4L184.7,76.4z"/>
	<path class="st0" d="M193.3,77.7c0-0.5-0.2-0.8-0.5-1c-0.3-0.2-0.6-0.2-1.5-0.2h-1.2v3.6h1.2c0.5,0,0.9,0,1.2-0.3
		c0.2-0.1,0.3-0.5,0.4-0.9h0.3c0,0.3,0,0.5,0,1.5c0,0.9,0,1.1,0,1.4h-0.3c0-0.4-0.1-0.6-0.3-0.8c-0.3-0.3-0.7-0.3-1.3-0.3h-1.2v2.6
		c0,0.9,0.1,1.2,0.2,1.4c0.3,0.3,0.9,0.4,1.1,0.4v0.3c-0.6,0-1.7-0.1-2.2-0.1c-0.8,0-1.1,0-2,0.1v-0.3c0.2,0,0.5-0.1,0.7-0.3
		c0.3-0.3,0.3-0.7,0.3-1.9v-5c0-0.9-0.1-1.3-0.2-1.5c-0.1-0.1-0.3-0.3-0.7-0.3v-0.3c0.8,0.1,1.4,0.1,2.3,0.1h4.2c0,0,0,1.2,0.1,1.9
		L193.3,77.7L193.3,77.7z"/>
	<path class="st0" d="M198.1,76.4c-0.3,0.3-0.3,0.7-0.3,1.9v5c0,0.9,0.1,1.3,0.2,1.5c0.1,0.1,0.3,0.3,0.7,0.3v0.3
		c-0.6,0-1.5-0.1-1.9-0.1c-0.5,0-1.4,0-1.9,0.1v-0.3c0.2,0,0.5-0.1,0.7-0.3c0.3-0.3,0.3-0.7,0.3-1.9v-5c0-0.9-0.1-1.3-0.2-1.5
		c-0.1-0.1-0.3-0.3-0.7-0.3v-0.3c0.6,0,1.5,0.1,2,0.1c0.5,0,1.4,0,1.9-0.1v0.3C198.6,76.1,198.3,76.2,198.1,76.4L198.1,76.4z"/>
	<path class="st0" d="M207.9,77.7c0-0.4-0.1-0.7-0.4-0.9c-0.5-0.4-1.2-0.5-1.7-0.5c-1.3,0-3.3,0.3-3.3,4.3c0,2.4,0.8,4.1,3.3,4.1
		c0.5,0,1.2-0.1,1.6-0.5c0.2-0.2,0.3-0.5,0.3-0.9h0.3c0,0.4-0.1,0.9-0.1,1.5v0.3c-0.7,0.2-1.7,0.3-2.5,0.3c-1.9,0-3.3-0.5-4.3-1.7
		c-0.6-0.7-0.9-1.7-0.9-3c0-2.5,1.4-4.1,3.3-4.8c0.7-0.3,1.7-0.3,2.2-0.3c1.1,0,2.1,0.1,2.3,0.1c0,0.3,0,0.6,0,0.9
		c0,0.4,0,0.7,0,0.9L207.9,77.7L207.9,77.7z"/>
	<path class="st0" d="M213.1,76.4c-0.3,0.3-0.3,0.7-0.3,1.9v5c0,0.9,0.1,1.3,0.2,1.5c0.1,0.1,0.3,0.3,0.7,0.3v0.3
		c-0.6,0-1.5-0.1-1.9-0.1c-0.5,0-1.4,0-1.9,0.1v-0.3c0.2,0,0.5-0.1,0.7-0.3c0.3-0.3,0.3-0.7,0.3-1.9v-5c0-0.9-0.1-1.3-0.2-1.5
		c-0.1-0.1-0.3-0.3-0.7-0.3v-0.3c0.6,0,1.5,0.1,1.9,0.1c0.5,0,1.4,0,1.9-0.1v0.3C213.6,76.1,213.3,76.2,213.1,76.4L213.1,76.4z"/>
	<path class="st0" d="M222.1,85.4c-0.5,0-1.5,0-1.9,0.1v-0.3c0.3,0,0.6-0.1,0.7-0.2c0.1-0.1,0.1-0.2,0.1-0.3c0-0.2-0.1-0.4-0.2-0.8
		l-0.7-2h-2.7l-0.7,2c-0.1,0.4-0.2,0.7-0.2,0.8s0,0.2,0.1,0.3s0.5,0.1,0.7,0.2v0.3c-0.5,0-0.9-0.1-1.4-0.1c-0.5,0-0.9,0-1.3,0.1
		v-0.3c0.4,0,0.6-0.3,0.7-0.4c0.1-0.2,0.3-0.7,0.7-1.6l3-7.3l1.1-0.2l2.6,7.4c0.3,1,0.6,1.6,0.7,1.7c0.1,0.1,0.3,0.4,0.7,0.4v0.3
		C223.5,85.4,222.5,85.4,222.1,85.4L222.1,85.4z M219.1,79.3c-0.3-0.9-0.4-1.3-0.4-1.3l-1.2,3.3h2.3L219.1,79.3L219.1,79.3z"/>
	<path class="st0" d="M151.1,93.3c-0.3,0.3-0.3,0.7-0.3,1.9v2.9c0,1.1,0,1.8-0.3,2.3c-0.7,1.7-2.5,1.9-3.7,1.9
		c-2.5,0-3.3-0.9-3.7-1.9c-0.3-0.7-0.3-1.7-0.3-2.5v-3.3c0-0.9-0.1-1.3-0.2-1.5c-0.1-0.1-0.3-0.3-0.7-0.3v-0.3c0.6,0,1.5,0.1,2,0.1
		c0.5,0,1.4,0,1.9-0.1v0.3c-0.2,0-0.5,0.1-0.7,0.3c-0.3,0.3-0.3,0.7-0.3,1.9V99c0,1.3,0.1,2.7,2.2,2.7c2.2,0,2.3-1.5,2.3-2.7v-4.3
		c0-0.9-0.1-1.3-0.2-1.5c-0.1-0.1-0.3-0.3-0.7-0.3v-0.3c0.6,0,1.1,0.1,1.6,0.1c0.5,0,1.1,0,1.7-0.1v0.3
		C151.6,93,151.3,93.1,151.1,93.3L151.1,93.3z"/>
	<path class="st0" d="M162,93.3c-0.3,0.3-0.3,0.7-0.3,1.9v7.1h-0.8l-5.5-7.4c-0.3-0.3-0.3-0.5-0.3-0.5v5.9c0,0.9,0.1,1.3,0.2,1.5
		c0.1,0.1,0.3,0.3,0.7,0.3v0.3c-0.6,0-0.9-0.1-1.4-0.1s-0.8,0-1.5,0.1v-0.3c0.2,0,0.5-0.1,0.7-0.3c0.3-0.3,0.3-0.7,0.3-1.9v-5
		c0-0.9-0.1-1.3-0.2-1.5c-0.1-0.1-0.3-0.3-0.7-0.3v-0.3c0.6,0,1.2,0.1,1.7,0.1c0.2,0,0.9,0,1.3-0.1l4.2,5.6c0.3,0.5,0.5,0.7,0.5,0.7
		v-4.3c0-0.9-0.1-1.3-0.2-1.5c-0.1-0.1-0.3-0.3-0.7-0.3v-0.3c0.6,0,0.9,0.1,1.4,0.1c0.5,0,0.8,0,1.4-0.1V93
		C162.5,93,162.3,93.1,162,93.3L162,93.3z"/>
	<path class="st0" d="M167.3,93.3c-0.3,0.3-0.3,0.7-0.3,1.9v5.1c0,0.9,0.1,1.3,0.2,1.5c0.1,0.1,0.3,0.3,0.7,0.3v0.3
		c-0.6,0-1.5-0.1-1.9-0.1c-0.5,0-1.4,0-1.9,0.1v-0.3c0.2,0,0.5-0.1,0.7-0.3c0.3-0.3,0.3-0.7,0.3-1.9v-5c0-0.9-0.1-1.3-0.2-1.5
		c-0.1-0.1-0.3-0.3-0.7-0.3v-0.3c0.6,0,1.5,0.1,1.9,0.1c0.5,0,1.4,0,1.9-0.1V93C167.9,93,167.6,93.1,167.3,93.3L167.3,93.3z"/>
	<path class="st0" d="M177.8,93.4c-0.1,0.2-0.3,0.7-0.7,1.6l-3,7.3l-1.1,0.2l-2.6-7.4c-0.3-1-0.6-1.6-0.7-1.7S169.4,93,169,93v-0.3
		c0.4,0,1.4,0.1,1.8,0.1c0.5,0,1.5,0,1.9-0.1V93c-0.3,0-0.6,0.1-0.7,0.2c-0.1,0.1-0.1,0.2-0.1,0.3c0,0.2,0.1,0.4,0.2,0.8l1.6,4.6
		c0.3,0.9,0.4,1.3,0.4,1.3s0.1-0.5,0.5-1.3l1.7-4.7c0.1-0.4,0.2-0.7,0.2-0.8c0-0.1,0-0.2-0.1-0.3c-0.1-0.1-0.5-0.1-0.7-0.2v-0.3
		c0.5,0,0.9,0.1,1.4,0.1c0.5,0,0.9,0,1.3-0.1v0.3C178.1,92.9,177.9,93.3,177.8,93.4L177.8,93.4z"/>
	<path class="st0" d="M185.5,102.3h-4.1c-0.8,0-1.6,0-2.4,0V102c0.2,0,0.5-0.1,0.7-0.3s0.3-0.7,0.3-1.9v-5c0-0.9-0.1-1.3-0.2-1.5
		c-0.1-0.1-0.3-0.3-0.7-0.3v-0.3c0.8,0.1,1.4,0.1,2.3,0.1h4.2c0,0,0,1.2,0.1,1.9h-0.3c0-0.5-0.2-0.8-0.5-1c-0.3-0.2-0.6-0.2-1.5-0.2
		h-1.2V97h1.2c0.5,0,0.9,0,1.2-0.3c0.2-0.1,0.3-0.5,0.4-0.9h0.3c0,0.3,0,0.5,0,1.5s0,1.1,0,1.4h-0.3c0-0.4-0.1-0.6-0.3-0.8
		c-0.3-0.3-0.7-0.3-1.3-0.3h-1.2v3.2c0,0.7,0.1,0.7,0.9,0.7h0.3c0.8,0,1.4,0,1.7-0.4c0.2-0.2,0.3-0.5,0.3-1h0.3
		C185.5,100.9,185.5,102.3,185.5,102.3L185.5,102.3z"/>
	<path class="st0" d="M195.4,102.3c-1.5,0-1.9-0.6-2.4-1.3c-0.3-0.4-1.4-1.8-2.1-2.9h-0.6v2c0,0.9,0.1,1.3,0.2,1.5
		c0.1,0.1,0.3,0.3,0.7,0.3v0.3c-0.6,0-1.4-0.1-1.9-0.1c-0.5,0-1.4,0-1.9,0.1V102c0.2,0,0.5-0.1,0.7-0.3c0.3-0.3,0.3-0.7,0.3-1.9v-5
		c0-0.9-0.1-1.3-0.2-1.5c-0.1-0.1-0.3-0.3-0.7-0.3v-0.3c0.6,0,1.1,0.1,1.6,0.1c1.1,0,1.3-0.1,2.2-0.1c0.3,0,1.1,0,1.7,0.1
		c1.7,0.5,1.9,1.7,1.9,2.3c0,0.7-0.3,2.1-2.1,2.7c0,0,1.6,1.9,2.5,2.9c0.7,0.8,1.2,1.3,1.8,1.4v0.3
		C197,102.3,196.7,102.3,195.4,102.3L195.4,102.3z M190.9,93.3c-0.3,0-0.6,0.1-0.6,0.1v4.3c0,0,0.3,0,0.7,0c0.2,0,0.4,0,0.6-0.1
		c0.2-0.1,1.1-0.3,1.1-2.2C192.7,93.3,191.5,93.3,190.9,93.3L190.9,93.3z"/>
	<path class="st0" d="M200.1,102.4c-0.7,0-1.6-0.1-2.3-0.3v-0.3c0-0.7,0-1.1-0.1-1.6h0.3c0.1,0.5,0.2,0.8,0.5,1.1
		c0.4,0.3,0.9,0.4,1.5,0.4c1.9,0,1.9-1.3,1.9-1.5c0-0.9-0.6-1.3-1.4-1.8l-0.8-0.5c-1.1-0.7-1.7-1.3-1.7-2.7c0-0.7,0.3-2.5,3.4-2.5
		c1.3,0,2.3,0.1,2.3,0.1s-0.1,0.3-0.1,0.8c0,0.8,0,1.1,0,1.1h-0.3c0-0.3-0.2-0.7-0.4-0.9c-0.4-0.4-1-0.5-1.5-0.5
		c-1.5,0-1.7,0.9-1.7,1.3c0,0.7,0.5,1.1,1.2,1.6l0.9,0.5c1.2,0.7,1.9,1.3,1.9,2.8C203.7,101.5,202.2,102.4,200.1,102.4L200.1,102.4z
		"/>
	<path class="st0" d="M208.7,93.3c-0.3,0.3-0.3,0.7-0.3,1.9v5.1c0,0.9,0.1,1.3,0.2,1.5c0.1,0.1,0.3,0.3,0.7,0.3v0.3
		c-0.6,0-1.5-0.1-2-0.1c-0.5,0-1.4,0-1.9,0.1v-0.3c0.2,0,0.5-0.1,0.7-0.3c0.3-0.3,0.3-0.7,0.3-1.9v-5c0-0.9-0.1-1.3-0.2-1.5
		c-0.1-0.1-0.3-0.3-0.7-0.3v-0.3c0.6,0,1.5,0.1,1.9,0.1c0.5,0,1.4,0,1.9-0.1V93C209.3,93,208.9,93.1,208.7,93.3L208.7,93.3z"/>
	<path class="st0" d="M217.1,102.1c-0.5,0.1-1.3,0.2-2.4,0.2c-0.7,0-1.3-0.1-1.9-0.1c-0.5,0-1.1,0-1.7,0.1V102
		c0.2,0,0.5-0.1,0.7-0.3s0.3-0.7,0.3-1.9v-5c0-0.9-0.1-1.3-0.2-1.5c-0.1-0.1-0.3-0.3-0.7-0.3v-0.3c0,0,0.5,0.1,1.6,0.1
		c0.5,0,1.3,0,2.4,0c1.3,0,5.3,0.1,5.3,4.5C220.5,100.7,218.4,101.7,217.1,102.1L217.1,102.1z M215.1,93.4c-0.8,0-1.1,0.1-1.1,0.1
		v7.5c0,0.4,0.1,0.7,0.3,0.7c0.1,0.1,0.4,0.1,0.7,0.1c2.2,0,3.1-1.1,3.1-4.2C218.3,93.7,216.3,93.4,215.1,93.4L215.1,93.4z"/>
	<path class="st0" d="M228.6,102.3c-0.5,0-1.5,0-1.9,0.1v-0.3c0.3,0,0.6-0.1,0.7-0.2c0.1-0.1,0.1-0.2,0.1-0.3c0-0.2-0.1-0.4-0.2-0.8
		l-0.7-2h-2.7l-0.7,2c-0.1,0.4-0.3,0.7-0.3,0.8s0,0.3,0.1,0.3c0.1,0.1,0.5,0.1,0.7,0.2v0.3c-0.5,0-0.9-0.1-1.4-0.1
		c-0.5,0-0.9,0-1.3,0.1v-0.3c0.4,0,0.6-0.3,0.7-0.4c0.1-0.2,0.3-0.7,0.7-1.6l3-7.3l1.1-0.2l2.6,7.4c0.3,1,0.6,1.6,0.7,1.7
		c0.1,0.1,0.3,0.4,0.7,0.4v0.3C230,102.3,229,102.3,228.6,102.3L228.6,102.3z M225.7,96.1c-0.3-0.9-0.4-1.3-0.4-1.3l-1.2,3.3h2.3
		L225.7,96.1L225.7,96.1z"/>
	<path class="st0" d="M237.3,102.1c-0.5,0.1-1.3,0.2-2.4,0.2c-0.7,0-1.3-0.1-1.9-0.1c-0.5,0-1.1,0-1.7,0.1V102
		c0.2,0,0.5-0.1,0.7-0.3s0.3-0.7,0.3-1.9v-5c0-0.9-0.1-1.3-0.2-1.5c-0.1-0.1-0.3-0.3-0.7-0.3v-0.3c0,0,0.5,0.1,1.6,0.1
		c0.5,0,1.3,0,2.4,0c1.3,0,5.3,0.1,5.3,4.5C240.7,100.7,238.7,101.7,237.3,102.1L237.3,102.1z M235.3,93.4c-0.8,0-1.1,0.1-1.1,0.1
		v7.5c0,0.4,0.1,0.7,0.3,0.7c0.1,0.1,0.4,0.1,0.7,0.1c2.2,0,3.1-1.1,3.1-4.2C238.5,93.7,236.6,93.4,235.3,93.4L235.3,93.4z"/>
	<path class="st0" d="M153.1,112.1c0-0.5-0.2-0.9-0.5-1.2c-0.7-0.5-1.7-0.7-2.3-0.7c-1.8,0-4.6,0.4-4.6,6c0,3.5,1.2,5.9,4.7,5.9
		c0.7,0,1.7-0.1,2.3-0.7c0.3-0.3,0.5-0.7,0.5-1.3h0.5c-0.1,0.6-0.1,1.3-0.1,2.2v0.3c-0.9,0.3-2.4,0.5-3.5,0.5
		c-2.6,0-4.8-0.7-6.1-2.3c-0.8-1.1-1.3-2.5-1.3-4.3c0-3.6,2-5.9,4.7-6.8c1.1-0.4,2.3-0.5,3.1-0.5c1.6,0,3.1,0.2,3.3,0.2
		c-0.1,0.4-0.1,0.9-0.1,1.3c0,0.5,0,1.1,0.1,1.3L153.1,112.1L153.1,112.1z"/>
	<path class="st0" d="M165.3,122.9c-0.6,0-2.1,0.1-2.7,0.1v-0.4c0.5,0,0.8-0.1,1-0.3c0.1-0.1,0.2-0.3,0.2-0.5c0-0.3-0.1-0.6-0.3-1.2
		l-1-2.9h-3.9l-1.1,2.9c-0.2,0.6-0.3,0.9-0.3,1.2c0,0.2,0.1,0.3,0.1,0.5c0.2,0.2,0.7,0.2,0.9,0.3v0.4c-0.7-0.1-1.2-0.1-2-0.1
		c-0.7,0-1.3,0-1.9,0.1v-0.4c0.6,0,0.9-0.4,1-0.6c0.1-0.3,0.5-1,1-2.3l4.3-10.5l1.5-0.3l3.7,10.5c0.5,1.4,0.9,2.3,1,2.5
		c0.1,0.2,0.4,0.6,1,0.6v0.4C167.3,123,165.9,122.9,165.3,122.9L165.3,122.9z M161.1,114.3c-0.5-1.3-0.5-1.9-0.5-1.9l-1.7,4.7h3.2
		L161.1,114.3L161.1,114.3z"/>
	<path class="st0" d="M178.5,112.1c0-0.7-0.3-1.2-0.7-1.4c-0.5-0.3-0.9-0.3-2.1-0.3h-0.7v9.7c0,1.3,0.1,1.7,0.3,2.1
		c0.3,0.5,1.3,0.5,1.5,0.5v0.4c-0.8-0.1-2.5-0.1-3.2-0.1s-2.4,0.1-3.2,0.1v-0.4c0.1,0,1.1-0.1,1.4-0.5c0.3-0.4,0.4-0.9,0.4-2.7v-9.1
		h-0.7c-1.3,0-1.7,0.1-2.1,0.3c-0.4,0.2-0.7,0.7-0.7,1.4h-0.5c0.1-0.9,0.1-2.7,0.1-2.7h10.9c0,0,0,1.7,0.1,2.7L178.5,112.1
		L178.5,112.1z"/>
	<path class="st0" d="M186.9,123.2c-4.3,0-6.8-2.6-6.8-6.8c0-4.3,2.7-7.1,7.1-7.1c4.3,0,6.8,2.6,6.8,6.8
		C194,120.3,191.3,123.2,186.9,123.2L186.9,123.2z M187.1,110.2c-2.8,0-3.8,2.7-3.8,6c0,3.5,1.2,6.1,3.8,6.1c2.8,0,3.8-2.7,3.8-6
		C190.9,112.9,189.7,110.2,187.1,110.2L187.1,110.2z M189.9,106.8l-4.5,1.6l-0.3-0.4l2.9-2.9l0.1-0.1l1.8,1.4L189.9,106.8
		L189.9,106.8z"/>
	<path class="st0" d="M205.4,123h-5.7c-1.1,0-2.3,0-3.5,0.1v-0.4c0.3,0,0.7-0.1,1-0.5c0.3-0.4,0.4-1,0.4-2.7v-7.1
		c0-1.3-0.1-1.7-0.3-2.1c-0.1-0.2-0.5-0.5-1.1-0.5v-0.4c0.8,0.1,2.3,0.1,3,0.1c0.7,0,2.3-0.1,3.1-0.1v0.4c-0.9,0.1-1.3,0.2-1.6,0.6
		c-0.3,0.4-0.3,1.1-0.3,2.7v7.9c0,0.9,0.1,1.1,1.3,1.1h0.3c1.1,0,1.9-0.1,2.3-0.5c0.3-0.3,0.5-0.7,0.5-1.4h0.5
		C205.3,121.1,205.4,123,205.4,123L205.4,123z"/>
	<path class="st0" d="M212.1,110.2c-0.3,0.4-0.4,1-0.4,2.7v7.1c0,1.3,0.1,1.7,0.3,2.1c0.1,0.2,0.5,0.5,1.1,0.5v0.4
		c-0.8-0.1-2.1-0.1-2.8-0.1c-0.7,0-2,0.1-2.8,0.1v-0.4c0.3,0,0.7-0.1,1-0.5c0.3-0.4,0.4-1,0.4-2.7v-7.1c0-1.3-0.1-1.7-0.3-2.1
		c-0.1-0.2-0.5-0.5-1.1-0.5v-0.4c0.8,0.1,2.1,0.1,2.8,0.1c0.7,0,1.9-0.1,2.8-0.1v0.4C212.9,109.7,212.4,109.9,212.1,110.2
		L212.1,110.2z"/>
	<path class="st0" d="M226.1,112.1c0-0.5-0.2-0.9-0.5-1.2c-0.7-0.5-1.7-0.7-2.3-0.7c-1.8,0-4.6,0.4-4.6,6c0,3.5,1.2,5.9,4.7,5.9
		c0.7,0,1.7-0.1,2.3-0.7c0.3-0.3,0.5-0.7,0.5-1.3h0.5c-0.1,0.6-0.1,1.3-0.1,2.2v0.3c-0.9,0.3-2.4,0.5-3.5,0.5
		c-2.6,0-4.8-0.7-6.1-2.3c-0.8-1.1-1.3-2.5-1.3-4.3c0-3.6,2-5.9,4.7-6.8c1.1-0.4,2.3-0.5,3.1-0.5c1.6,0,3.1,0.2,3.3,0.2
		c-0.1,0.4-0.1,0.9-0.1,1.3c0,0.5,0,1.1,0.1,1.3L226.1,112.1L226.1,112.1z"/>
	<path class="st0" d="M238.3,122.9c-0.6,0-2.1,0.1-2.7,0.1v-0.4c0.5,0,0.8-0.1,1-0.3c0.1-0.1,0.2-0.3,0.2-0.5c0-0.3-0.1-0.6-0.3-1.2
		l-1-2.9h-3.9l-1.1,2.9c-0.2,0.6-0.3,0.9-0.3,1.2c0,0.2,0.1,0.3,0.1,0.5c0.2,0.2,0.7,0.2,0.9,0.3v0.4c-0.7-0.1-1.2-0.1-2-0.1
		c-0.7,0-1.3,0-1.9,0.1v-0.4c0.6,0,0.9-0.4,1-0.6c0.1-0.3,0.5-1,1-2.3l4.3-10.5l1.5-0.3l3.7,10.5c0.5,1.4,0.9,2.3,1,2.5
		c0.1,0.2,0.4,0.6,1,0.6v0.4C240.3,123,238.9,122.9,238.3,122.9L238.3,122.9z M234.1,114.3c-0.5-1.3-0.5-1.9-0.5-1.9l-1.7,4.7h3.2
		L234.1,114.3L234.1,114.3z"/>
	<path class="st0" d="M252.6,122.8c-0.5,0.1-1.3,0.2-2.4,0.2c-0.7,0-1.3-0.1-1.9-0.1c-0.5,0-1.1,0-1.7,0.1v-0.3
		c0.2,0,0.5-0.1,0.7-0.3c0.3-0.3,0.3-0.7,0.3-1.9v-5c0-0.9-0.1-1.3-0.2-1.5c-0.1-0.1-0.3-0.3-0.7-0.3v-0.3c0,0,0.5,0.1,1.6,0.1
		c0.5,0,1.3,0,2.4,0c1.3,0,5.3,0.1,5.3,4.5C256,121.4,254,122.4,252.6,122.8L252.6,122.8z M250.7,114.1c-0.8,0-1.1,0.1-1.1,0.1v7.5
		c0,0.4,0.1,0.7,0.3,0.7c0.1,0.1,0.4,0.1,0.7,0.1c2.2,0,3.1-1.1,3.1-4.2C253.8,114.5,251.9,114.1,250.7,114.1L250.7,114.1z"/>
	<path class="st0" d="M264.1,123H260c-0.8,0-1.6,0-2.4,0v-0.3c0.2,0,0.5-0.1,0.7-0.3c0.3-0.3,0.3-0.7,0.3-1.9v-5
		c0-0.9-0.1-1.3-0.2-1.5c-0.1-0.1-0.3-0.3-0.7-0.3v-0.3c0.8,0.1,1.4,0.1,2.3,0.1h4.2c0,0,0,1.2,0.1,1.9h-0.3c0-0.5-0.2-0.8-0.5-1
		c-0.3-0.2-0.6-0.2-1.5-0.2h-1.2v3.6h1.2c0.5,0,0.9,0,1.2-0.3c0.2-0.1,0.3-0.5,0.4-0.9h0.3c0,0.3,0,0.5,0,1.5c0,0.9,0,1.1,0,1.4
		h-0.3c0-0.4-0.1-0.6-0.3-0.8c-0.3-0.3-0.7-0.3-1.3-0.3h-1.2v3.2c0,0.7,0.1,0.7,0.9,0.7h0.3c0.8,0,1.4,0,1.7-0.4
		c0.2-0.2,0.3-0.5,0.3-1h0.3C264.1,121.6,264.1,123,264.1,123L264.1,123z"/>
	<path class="st0" d="M153.9,131.1c-0.1,0.3-0.5,0.9-1,2.3l-4.3,10.3l-1.5,0.3l-3.7-10.5c-0.5-1.4-0.9-2.3-1-2.5
		c-0.1-0.2-0.4-0.6-0.9-0.6v-0.4c0.6,0.1,2,0.1,2.6,0.1c0.6,0,2.1-0.1,2.7-0.1v0.4c-0.5,0-0.8,0.1-0.9,0.3c-0.1,0.1-0.2,0.3-0.2,0.5
		c0,0.3,0.1,0.6,0.3,1.2l2.3,6.5c0.4,1.3,0.6,1.9,0.6,1.9s0.2-0.7,0.7-1.9l2.4-6.5c0.2-0.6,0.3-0.9,0.3-1.2c0-0.2-0.1-0.3-0.1-0.4
		c-0.2-0.2-0.7-0.2-0.9-0.3v-0.4c0.7,0.1,1.2,0.1,2,0.1c0.7,0,1.3,0,1.9-0.1v0.4C154.3,130.5,154.1,130.9,153.9,131.1L153.9,131.1z"
		/>
	<path class="st0" d="M164.5,143.7c-0.6,0-2.1,0.1-2.7,0.1v-0.4c0.5,0,0.8-0.1,0.9-0.3c0.1-0.1,0.2-0.3,0.2-0.5
		c0-0.3-0.1-0.6-0.3-1.2l-1-2.9h-3.9l-1.1,2.9c-0.2,0.6-0.3,0.9-0.3,1.2c0,0.2,0.1,0.3,0.1,0.4c0.2,0.2,0.7,0.2,0.9,0.3v0.4
		c-0.7-0.1-1.2-0.1-1.9-0.1c-0.7,0-1.3,0-1.9,0.1v-0.4c0.6,0,0.9-0.4,1-0.6c0.1-0.3,0.5-0.9,1-2.3l4.3-10.3l1.5-0.3l3.7,10.5
		c0.5,1.4,0.9,2.3,0.9,2.5c0.1,0.2,0.4,0.6,0.9,0.6v0.4C166.4,143.7,165,143.7,164.5,143.7L164.5,143.7z M160.3,135
		c-0.5-1.3-0.5-1.9-0.5-1.9l-1.7,4.6h3.2L160.3,135L160.3,135z"/>
	<path class="st0" d="M177.4,143.7h-5.6c-1.1,0-2.3,0-3.4,0.1v-0.4c0.3,0,0.7-0.1,1-0.5c0.3-0.4,0.4-0.9,0.4-2.7v-7.1
		c0-1.3-0.1-1.7-0.3-2.1c-0.1-0.2-0.5-0.5-1.1-0.5v-0.4c0.8,0.1,2.3,0.1,3,0.1c0.7,0,2.3-0.1,3.1-0.1v0.4c-0.9,0.1-1.3,0.2-1.6,0.6
		c-0.3,0.4-0.3,1.1-0.3,2.7v7.9c0,0.9,0.1,1.1,1.3,1.1h0.3c1.1,0,1.8-0.1,2.3-0.5c0.3-0.3,0.5-0.7,0.5-1.4h0.4
		C177.3,141.8,177.4,143.7,177.4,143.7L177.4,143.7z"/>
	<path class="st0" d="M185.7,137.7c-0.9,0-1.3-0.1-1.3-0.1v-0.4c0,0,0.2,0,0.4,0c0.6,0,1.1-0.1,1.5-0.4c0.7-0.5,1-1.5,1-2.7
		c0-2.9-1.7-3.1-2.8-3.1c-0.3,0-0.9,0.1-0.9,0.1v9.1c0,1.6,0,2.3,0.3,2.7s0.7,0.6,1.6,0.6v0.4c-0.8-0.1-2.6-0.1-3.3-0.1
		c-0.7,0-1.9,0-2.7,0.1v-0.4c0.3,0,0.7-0.1,1-0.5c0.3-0.4,0.4-0.9,0.4-2.7v-7.1c0-1.3-0.1-1.7-0.3-2.1c-0.1-0.2-0.5-0.5-1.1-0.5
		v-0.4c0.8,0.1,1.7,0.1,2.5,0.1c1.1,0,1.9-0.1,3.1-0.1c0.4,0,1.5,0,2.3,0.2c1.5,0.3,2.9,1.3,2.9,3.4
		C190.3,136.5,188.2,137.7,185.7,137.7L185.7,137.7z"/>
	<path class="st0" d="M200.7,143.7c-0.6,0-2.1,0.1-2.7,0.1v-0.4c0.5,0,0.8-0.1,0.9-0.3c0.1-0.1,0.2-0.3,0.2-0.5
		c0-0.3-0.1-0.6-0.3-1.2l-1-2.9h-3.9l-1.1,2.9c-0.2,0.6-0.3,0.9-0.3,1.2c0,0.2,0.1,0.3,0.1,0.4c0.2,0.2,0.7,0.2,0.9,0.3v0.4
		c-0.7-0.1-1.2-0.1-1.9-0.1c-0.7,0-1.3,0-1.9,0.1v-0.4c0.6,0,0.9-0.4,1-0.6c0.1-0.3,0.5-0.9,1-2.3l4.3-10.3l1.5-0.3l3.7,10.5
		c0.5,1.4,0.9,2.3,0.9,2.5c0.1,0.2,0.4,0.6,1,0.6v0.4C202.7,143.7,201.3,143.7,200.7,143.7L200.7,143.7z M196.5,135
		c-0.5-1.3-0.5-1.9-0.5-1.9l-1.7,4.6h3.2L196.5,135L196.5,135z"/>
	<path class="st0" d="M215.9,143.8c-2.1,0-2.7-0.9-3.4-1.7c-0.5-0.6-2-2.6-3-4.1h-0.9v2.8c0,1.3,0.1,1.7,0.3,2.1
		c0.1,0.2,0.5,0.5,1.1,0.5v0.4c-0.8-0.1-2-0.1-2.7-0.1c-0.7,0-1.9,0.1-2.7,0.1v-0.4c0.3,0,0.7-0.1,1-0.5c0.3-0.4,0.4-0.9,0.4-2.7
		v-7.1c0-1.3-0.1-1.7-0.3-2.1c-0.1-0.2-0.5-0.5-1.1-0.5v-0.4c0.8,0.1,1.5,0.1,2.2,0.1c1.5,0,1.8-0.1,3.1-0.1c0.5,0,1.5,0,2.3,0.2
		c2.5,0.6,2.7,2.5,2.7,3.3c0,1.1-0.4,3-3,3.7c0,0,2.3,2.6,3.5,4c1,1.1,1.7,1.9,2.6,1.9v0.3C218.1,143.7,217.7,143.8,215.9,143.8
		L215.9,143.8z M209.5,131c-0.4,0-0.9,0.1-0.9,0.1v6.1c0,0,0.5,0.1,0.9,0.1c0.3,0,0.6,0,0.8-0.1c0.3-0.1,1.7-0.3,1.7-3.1
		C212.1,131.1,210.3,131,209.5,131L209.5,131z"/>
	<path class="st0" d="M229.5,143.7c-0.6,0-2.1,0.1-2.7,0.1v-0.4c0.5,0,0.8-0.1,0.9-0.3c0.1-0.1,0.2-0.3,0.2-0.5
		c0-0.3-0.1-0.6-0.3-1.2l-1-2.9h-3.9l-1.1,2.9c-0.2,0.6-0.3,0.9-0.3,1.2c0,0.2,0.1,0.3,0.1,0.4c0.2,0.2,0.7,0.2,0.9,0.3v0.4
		c-0.7-0.1-1.2-0.1-1.9-0.1c-0.7,0-1.3,0-1.9,0.1v-0.4c0.6,0,0.9-0.4,1-0.6c0.1-0.3,0.5-0.9,1-2.3l4.3-10.3l1.5-0.3l3.7,10.5
		c0.5,1.4,0.9,2.3,0.9,2.5c0.1,0.2,0.4,0.6,1,0.6v0.4C231.5,143.7,230.1,143.7,229.5,143.7L229.5,143.7z M225.4,135
		c-0.5-1.3-0.5-1.9-0.5-1.9l-1.7,4.6h3.2L225.4,135L225.4,135z"/>
	<path class="st0" d="M238,131c-0.3,0.4-0.4,1-0.4,2.7v7.1c0,1.3,0.1,1.7,0.3,2.1c0.1,0.2,0.5,0.5,1.1,0.5v0.4
		c-0.8-0.1-2.1-0.1-2.8-0.1c-0.7,0-1.9,0.1-2.7,0.1v-0.4c0.3,0,0.7-0.1,1-0.5c0.3-0.4,0.4-0.9,0.4-2.7v-7.1c0-1.3-0.1-1.7-0.3-2.1
		c-0.1-0.2-0.5-0.5-1.1-0.5v-0.4c0.8,0.1,2.1,0.1,2.8,0.1c0.7,0,1.9-0.1,2.7-0.1v0.4C238.8,130.5,238.3,130.7,238,131L238,131z
		 M239,127.6l-4.5,1.5l-0.3-0.4l2.9-2.8l0.1-0.1l1.8,1.3L239,127.6L239,127.6z"/>
	<path class="st0" d="M244.6,143.8c-0.9,0-2.3-0.1-3.3-0.4v-0.3c0-0.9-0.1-1.7-0.1-2.3h0.4c0.1,0.6,0.3,1.1,0.7,1.5
		c0.5,0.5,1.3,0.5,2.1,0.5c2.7,0,2.7-1.7,2.7-2.1c0-1.3-0.9-1.8-2-2.5l-1.1-0.7c-1.5-0.9-2.5-1.8-2.5-3.8c0-1,0.5-3.6,4.8-3.6
		c1.9,0,3.1,0.2,3.1,0.2s-0.1,0.5-0.1,1.1c0,1.1,0.1,1.5,0.1,1.5h-0.4c-0.1-0.5-0.3-0.9-0.5-1.2c-0.5-0.5-1.5-0.7-2.1-0.7
		c-2.1,0-2.3,1.2-2.3,1.9c0,1.1,0.6,1.6,1.7,2.3l1.3,0.8c1.7,1,2.7,1.9,2.7,3.9C249.8,142.7,247.6,143.8,244.6,143.8L244.6,143.8z"
		/>
	<path class="st0" d="M259,143.9c-4.3,0-6.7-2.6-6.7-6.7c0-4.3,2.7-7.1,7-7.1c4.3,0,6.7,2.6,6.7,6.7
		C266,141.1,263.3,143.9,259,143.9L259,143.9z M259.1,131c-2.8,0-3.8,2.7-3.8,5.9c0,3.4,1.2,6.1,3.8,6.1c2.8,0,3.8-2.7,3.8-5.9
		C262.9,133.7,261.7,131,259.1,131L259.1,131z"/>
	<polygon class="st0" points="83,52.5 83,54.3 80.9,54.3 80.9,55.5 83,55.5 83,59.1 84.2,59.1 84.2,55.5 86.2,55.5 86.2,54.3 
		84.2,54.3 84.2,52.5 	"/>
	<path class="st0" d="M48,108.6c0,19.8,15.9,35.8,35.6,35.8s35.6-16,35.6-35.8c0-19.7-16.1-35.8-35.6-35.8
		C63.9,72.8,48,88.8,48,108.6 M49,109.1h23.3c0.1,9.2,4.8,15.3,10.7,16.8v17.5C64.2,143.1,49.2,127.9,49,109.1 M83.6,97.8
		c2.2,0.7,4.9,1.2,10.4,0.9v9.9c0,8.9-4.4,15.2-10.4,16.5c-6.1-1.3-10.4-7.7-10.4-16.5v-10C78.6,99,81.4,98.5,83.6,97.8 M84.2,143.4
		v-17.5c5.9-1.5,10.5-7.7,10.7-16.8h23.4C118,127.9,102.7,143.1,84.2,143.4 M118.3,108H94.9V97.8c-5.1,0.5-8.5-0.1-10.8-0.8V73.7
		C102.7,74,118,89.4,118.3,108 M83,73.7v23.2c-2.3,0.7-5.7,1.3-10.8,0.8v10.2H49C49.2,89.2,64.2,74,83,73.7"/>
	<path class="st0" d="M90.1,59.5l-0.3,1c23.8,3.1,42.1,23.8,42.1,48.2c0,26.7-21.7,48.5-48.4,48.5s-48.4-21.9-48.4-48.5
		c0-24.5,18.3-45,42.1-48.2l-0.3-1c-24.1,3-42.9,24.1-42.9,49.1c0,27.4,22.2,49.7,49.5,49.7c27.3,0,49.5-22.3,49.5-49.7
		C133.1,83.6,114.3,62.5,90.1,59.5"/>
	<path class="st0" d="M100,58.9l-9.3-1l-0.1,0.7l8.5,1.3C99.2,59.7,99.7,59.2,100,58.9 M90.6,57.1l9.9,0.7c0.3-0.4,0.9-1,0.9-1
		l-0.9-0.7l-9.9,0.1V57.1L90.6,57.1z M90.5,55l0.1,0.7l8.9-0.9c0,0-0.7-1-1-1.3L90.5,55L90.5,55z M90.2,53.6l0.3,0.7l7.3-2.1
		l-0.6-1.3L90.2,53.6L90.2,53.6z M89.4,52.3l0.4,0.7l6.7-3.7c-0.1-0.3-0.3-1.5-0.3-1.5L89.4,52.3L89.4,52.3z M88.4,51.2l0.6,0.7
		l6.9-5.7v-1.5h-1.3L88.4,51.2L88.4,51.2z M87.2,50.3l0.6,0.4l4.7-6.3l-1.7-0.1L87.2,50.3L87.2,50.3z M86.1,49.5l0.6,0.4l2.6-6
		L88,43.4L86.1,49.5L86.1,49.5z M84.6,49.3l0.7,0.1l1.5-6.6L86,42.1L84.6,49.3L84.6,49.3z M67.4,58.9c0.3,0.3,0.7,0.7,1,1l8.5-1.3
		l-0.1-0.7L67.4,58.9L67.4,58.9z M76.7,57.1v-0.8l-9.9-0.1l-0.9,0.7c0,0,0.6,0.7,0.9,1L76.7,57.1L76.7,57.1z M76.8,55l-8.1-1.5
		c-0.3,0.3-1,1.3-1,1.3l8.9,0.9L76.8,55L76.8,55z M77.2,53.6l-7-2.7l-0.6,1.3l7.3,2.1L77.2,53.6L77.2,53.6z M77.9,52.3L71,47.7
		c0,0-0.1,1.3-0.3,1.5l6.8,3.7L77.9,52.3L77.9,52.3z M78.9,51.2l-6.1-6.6h-1.3v1.5l6.9,5.7L78.9,51.2L78.9,51.2z M80.1,50.3
		l-3.5-6.1l-1.7,0.1l4.7,6.3L80.1,50.3L80.1,50.3z M81.2,49.5l-1.9-6.1L78,43.9l2.6,6L81.2,49.5L81.2,49.5z M82.7,49.3l-1.3-7.1
		c0,0-0.7,0.5-0.9,0.7l1.5,6.6L82.7,49.3L82.7,49.3z M84,49.2l0.6-7.9c-0.5-0.1-1-0.7-1-0.7s-0.5,0.5-1,0.7l0.6,7.9H84L84,49.2z"/>
	<path class="st0" d="M52.5,141.3c-0.3-0.1-0.7-0.5-1.1-0.9c-0.3-0.3-0.5-0.6-0.8-0.9c-0.2-0.2-0.5-0.5-0.7-0.7l0.1-0.1
		c0.1,0.1,0.3,0.2,0.5,0.2s0.4-0.2,0.9-0.7l2.1-2.2c0.4-0.4,0.5-0.5,0.5-0.7c0-0.1,0-0.3-0.1-0.5l0.1-0.1c0,0,0.2,0.3,0.7,0.7
		c0.2,0.2,0.6,0.5,1.1,1c0.6,0.5,2.3,2.3,0.4,4.3C54.6,142.2,53.2,141.8,52.5,141.3 M55.4,136.7c-0.3-0.3-0.5-0.4-0.5-0.4l-3.2,3.3
		c-0.2,0.2-0.3,0.3-0.1,0.5c0.1,0.1,0.1,0.2,0.3,0.3c0.9,0.9,1.9,0.9,3.2-0.5C56.6,138.2,56,137.3,55.4,136.7"/>
	<path class="st0" d="M58.5,146.4l-2-1.5c-0.4-0.3-0.8-0.6-1.2-0.9l0.1-0.1c0.1,0.1,0.3,0.1,0.5,0.1c0.2-0.1,0.4-0.3,0.9-0.9
		l1.8-2.5c0.3-0.5,0.4-0.6,0.5-0.8c0-0.1-0.1-0.3-0.3-0.5l0.1-0.1c0.4,0.3,0.7,0.5,1.1,0.9l2.1,1.5c0,0-0.5,0.6-0.7,0.9l-0.1-0.1
		c0.2-0.3,0.2-0.5,0.1-0.7s-0.2-0.3-0.7-0.7l-0.6-0.5l-1.3,1.8l0.6,0.5c0.3,0.2,0.5,0.3,0.7,0.3c0.1,0,0.3-0.1,0.5-0.3l0.1,0.1
		c-0.1,0.1-0.2,0.3-0.5,0.7c-0.3,0.5-0.4,0.5-0.5,0.7l-0.1-0.1c0.1-0.2,0.1-0.3,0.1-0.5c-0.1-0.3-0.3-0.4-0.5-0.6l-0.6-0.5l-1.2,1.6
		c-0.3,0.3-0.2,0.4,0.2,0.7l0.1,0.1c0.4,0.3,0.7,0.5,1,0.5c0.1,0,0.3-0.1,0.5-0.3l0.1,0.1C59,145.7,58.5,146.4,58.5,146.4"/>
	<path class="st0" d="M69.2,145.9c-0.1,0.1-0.3,0.3-0.8,0.7l-3.6,3.3l-0.7-0.2l0.5-4.8c0.1-0.7,0.1-1.1,0.1-1.1
		c0-0.1-0.1-0.3-0.3-0.4l0.1-0.1c0.2,0.1,0.7,0.4,1,0.5s0.9,0.4,1.1,0.5l-0.1,0.1c-0.2-0.1-0.3-0.1-0.4-0.1c-0.1,0-0.1,0.1-0.1,0.1
		c-0.1,0.1-0.1,0.3-0.1,0.5l-0.3,2.9c-0.1,0.6-0.1,0.9-0.1,0.9s0.2-0.2,0.6-0.6l2.1-2.1c0.2-0.2,0.3-0.3,0.3-0.4
		c0.1-0.1,0.1-0.1,0-0.2c-0.1-0.1-0.2-0.2-0.3-0.3l0.1-0.1c0.3,0.1,0.5,0.3,0.7,0.4c0.3,0.1,0.5,0.2,0.8,0.3l-0.1,0.1
		C69.5,145.7,69.3,145.9,69.2,145.9"/>
	<path class="st0" d="M72,152.5c-0.3-0.1-0.9-0.3-1.1-0.3L71,152c0.2,0.1,0.3,0.1,0.5,0c0.1,0,0.1-0.1,0.1-0.1c0-0.1,0.1-0.3,0-0.5
		l-0.1-1.3l-1.6-0.5l-0.8,1.1c-0.1,0.2-0.3,0.3-0.3,0.5c0,0.1,0,0.1,0,0.2c0.1,0.1,0.3,0.2,0.3,0.2l-0.1,0.1
		c-0.3-0.1-0.5-0.2-0.8-0.3c-0.3-0.1-0.5-0.1-0.8-0.2l0.1-0.1c0.3,0.1,0.4-0.1,0.5-0.1c0.1-0.1,0.3-0.3,0.7-0.8l3.1-3.7l0.7,0.1
		l0.2,4.8c0,0.7,0.1,1.1,0.1,1.1c0,0.1,0.1,0.3,0.3,0.3l-0.1,0.1C72.8,152.7,72.3,152.5,72,152.5 M71.4,148.3c0-0.6,0-0.9,0-0.9
		l-1.3,1.7l1.3,0.4L71.4,148.3L71.4,148.3z"/>
	<path class="st0" d="M78.3,153.7l-2.4-0.4c-0.5-0.1-1-0.2-1.5-0.2V153c0.1,0,0.3,0,0.5-0.1c0.2-0.1,0.2-0.4,0.3-1.1l0.5-3.1
		c0.1-0.5,0.1-0.7,0-0.9c-0.1-0.1-0.2-0.3-0.4-0.3v-0.1c0.3,0.1,1,0.2,1.3,0.3c0.3,0.1,0.9,0.1,1.3,0.2v0.2c-0.4-0.1-0.6,0-0.7,0.1
		c-0.1,0.1-0.2,0.4-0.3,1.1l-0.5,3.4c-0.1,0.4,0,0.5,0.5,0.5h0.1c0.5,0.1,0.8,0.1,1.1-0.1c0.1-0.1,0.3-0.3,0.3-0.5h0.2
		C78.4,152.9,78.3,153.7,78.3,153.7"/>
	<path class="st0" d="M82.8,151.4c-0.4,0-0.6-0.1-0.6-0.1v-0.2c0,0,0.1,0,0.2,0c0.3,0,0.5-0.1,0.7-0.2c0.3-0.2,0.5-0.6,0.5-1.2
		c0.1-1.3-0.7-1.3-1.1-1.3c-0.1,0-0.4,0-0.4,0l-0.1,3.9c0,0.7-0.1,1,0.1,1.1c0.1,0.2,0.3,0.3,0.7,0.3v0.1c-0.3,0-1.1-0.1-1.5-0.1
		s-0.8,0-1.2,0v-0.1c0.1,0,0.3-0.1,0.5-0.2c0.1-0.1,0.2-0.4,0.2-1.2l0.1-3.1c0-0.5,0-0.7-0.1-0.9c-0.1-0.1-0.2-0.2-0.5-0.3v-0.1
		c0.3,0,0.7,0.1,1.1,0.1c0.5,0,0.8,0,1.3,0c0.2,0,0.7,0,1,0.1c0.7,0.2,1.3,0.6,1.2,1.5C84.8,150.9,83.9,151.5,82.8,151.4"/>
	<path class="st0" d="M89.9,153.6c-0.3,0-0.9,0.1-1.2,0.1v-0.1c0.2,0,0.3-0.1,0.4-0.1c0.1-0.1,0.1-0.1,0.1-0.2
		c0-0.1-0.1-0.3-0.2-0.5l-0.5-1.2l-1.7,0.2l-0.3,1.3c-0.1,0.3-0.1,0.4-0.1,0.5c0,0.1,0,0.1,0.1,0.2c0.1,0.1,0.3,0.1,0.4,0.1v0.1
		c-0.3,0-0.5,0-0.9,0.1c-0.3,0-0.5,0.1-0.8,0.1v-0.1c0.3,0,0.3-0.2,0.4-0.3c0.1-0.1,0.1-0.5,0.3-1l1.4-4.7l0.7-0.2l2.1,4.3
		c0.3,0.6,0.5,0.9,0.5,1c0.1,0.1,0.2,0.3,0.5,0.2v0.1C90.8,153.5,90.2,153.5,89.9,153.6 M87.8,150c-0.3-0.5-0.3-0.8-0.3-0.8
		l-0.5,2.1l1.4-0.1L87.8,150L87.8,150z"/>
	<path class="st0" d="M97.2,152c-0.9,0.2-1.2-0.1-1.6-0.4c-0.3-0.2-1.1-0.9-1.7-1.4l-0.3,0.1l0.3,1.2c0.1,0.5,0.2,0.7,0.3,0.9
		c0.1,0.1,0.3,0.1,0.5,0.1l0.1,0.1c-0.3,0.1-0.9,0.2-1.1,0.3c-0.3,0.1-0.8,0.2-1.1,0.3l-0.1-0.1c0.1,0,0.3-0.1,0.4-0.3
		c0.1-0.2,0.1-0.5-0.1-1.2l-0.8-3c-0.1-0.5-0.2-0.7-0.3-0.9c-0.1-0.1-0.3-0.1-0.5-0.1l-0.1-0.1c0.3-0.1,0.7-0.1,0.9-0.2
		c0.6-0.1,0.7-0.2,1.3-0.4c0.2-0.1,0.7-0.1,1-0.2c1.1,0,1.4,0.7,1.5,1.1c0.1,0.5,0.2,1.3-0.9,1.9c0,0,1.3,0.9,1.9,1.3
		c0.5,0.4,0.9,0.6,1.3,0.5l0.1,0.1C98.2,151.7,98,151.9,97.2,152 M93.2,147.3c-0.2,0.1-0.3,0.1-0.3,0.1l0.7,2.5c0,0,0.2-0.1,0.4-0.1
		c0.1,0,0.3-0.1,0.3-0.1c0.1-0.1,0.7-0.3,0.3-1.5C94.2,147.1,93.5,147.2,93.2,147.3"/>
	<path class="st0" d="M103.5,149.5c-0.3,0.1-0.9,0.4-1.1,0.5l-0.1-0.1c0.2-0.1,0.3-0.2,0.3-0.3c0-0.1,0-0.1,0-0.2
		c-0.1-0.1-0.1-0.2-0.3-0.4l-0.9-0.9l-1.5,0.7l0.1,1.3c0,0.3,0,0.4,0.1,0.5c0,0.1,0.1,0.1,0.1,0.1c0.1,0.1,0.3,0,0.4-0.1l0.1,0.1
		c-0.3,0.1-0.5,0.2-0.8,0.3c-0.3,0.1-0.5,0.2-0.7,0.4l-0.1-0.1c0.2-0.1,0.3-0.3,0.3-0.4c0-0.1,0-0.5,0-1.1l-0.1-4.9l0.5-0.4l3.3,3.5
		c0.5,0.5,0.7,0.7,0.8,0.8c0.1,0.1,0.3,0.2,0.5,0.1l0.1,0.1C104.3,149.1,103.8,149.3,103.5,149.5 M100.4,146.7
		c-0.4-0.5-0.5-0.7-0.5-0.7l0.1,2.1l1.3-0.5L100.4,146.7L100.4,146.7z"/>
	<path class="st0" d="M104.2,141.1l-1.3,1.6l-0.2-0.1l0.5-1.7l0.1-0.1L104.2,141.1L104.2,141.1L104.2,141.1z M104.6,142.5
		c-0.1,0.2,0.1,0.5,0.5,1.1l1.6,2.7c0.3,0.5,0.4,0.7,0.5,0.7c0.1,0.1,0.3,0.1,0.5-0.1l0.1,0.1c-0.3,0.1-0.8,0.4-1.1,0.6
		c-0.3,0.1-0.7,0.5-1,0.7l-0.1-0.1c0.1-0.1,0.3-0.2,0.3-0.4c0.1-0.2-0.1-0.5-0.5-1.1l-1.6-2.7c-0.3-0.5-0.4-0.7-0.5-0.7
		c-0.1-0.1-0.3-0.1-0.5,0.1l-0.1-0.1c0.3-0.1,0.8-0.4,1.1-0.6c0.3-0.1,0.7-0.5,1-0.7l0.1,0.1C104.7,142.2,104.6,142.3,104.6,142.5"
		/>
	<path class="st0" d="M110.3,145.4c-0.3,0.3-0.9,0.5-1.3,0.7l-0.1-0.1c-0.3-0.3-0.5-0.5-0.6-0.7l0.1-0.1c0.2,0.2,0.4,0.3,0.7,0.3
		c0.3,0,0.6-0.1,0.9-0.3c0.9-0.7,0.5-1.3,0.4-1.5c-0.3-0.5-0.8-0.4-1.3-0.3l-0.6,0.1c-0.7,0.1-1.3,0-1.9-0.7
		c-0.3-0.3-0.7-1.4,0.7-2.5c0.7-0.5,1.1-0.7,1.1-0.7s0.1,0.2,0.3,0.4c0.3,0.4,0.4,0.5,0.4,0.5l-0.1,0.1c-0.1-0.2-0.3-0.3-0.5-0.3
		c-0.3-0.1-0.7,0.1-0.9,0.3c-0.7,0.5-0.5,1.1-0.3,1.3c0.3,0.4,0.6,0.4,1.2,0.3l0.7-0.1c0.9-0.1,1.4-0.1,1.9,0.7
		C111.8,143.6,111.4,144.6,110.3,145.4"/>
	<path class="st0" d="M115.8,140.8c-1.3,1.3-2.9,1.3-4.1,0c-1.3-1.3-1.3-3-0.1-4.3c1.3-1.3,2.9-1.3,4.1,0
		C117,137.8,117,139.5,115.8,140.8 M111.8,136.8c-0.9,0.9-0.3,2,0.7,3c1.1,1.1,2.2,1.5,3.1,0.7c0.9-0.9,0.3-2-0.7-3
		C113.8,136.5,112.6,136,111.8,136.8"/>
	<path class="st0" d="M44.4,123.9c0.1,0.4,0.1,0.6,0.1,0.6l-0.1,0.1c0,0,0-0.1-0.1-0.2c-0.1-0.3-0.2-0.4-0.4-0.5
		c-0.3-0.2-0.7-0.2-1.3,0.1c-1.2,0.5-0.9,1.2-0.8,1.6c0.1,0.1,0.1,0.3,0.1,0.3l3.7-1.5c0.7-0.3,0.9-0.3,1-0.5c0.1-0.2,0.1-0.4,0-0.7
		l0.1-0.1c0.1,0.3,0.4,1.1,0.5,1.3s0.3,0.7,0.5,1.1l-0.1,0.1c-0.1-0.1-0.1-0.3-0.3-0.3c-0.2-0.1-0.5,0-1.1,0.3l-2.9,1.1
		c-0.5,0.2-0.7,0.3-0.8,0.5c-0.1,0.1-0.1,0.3-0.1,0.5l-0.1,0.1c-0.1-0.3-0.3-0.7-0.4-1c-0.2-0.5-0.3-0.7-0.5-1.3
		c-0.1-0.1-0.3-0.6-0.3-1c-0.1-0.7,0.1-1.3,0.9-1.7C43.2,122.3,44,122.9,44.4,123.9"/>
	<path class="st0" d="M45.2,117.4c0.4,1.8-0.4,3.1-2.2,3.5s-3.3-0.5-3.7-2.3c-0.4-1.8,0.4-3.1,2.2-3.5S44.8,115.6,45.2,117.4
		 M39.7,118.7c0.3,1.2,1.5,1.3,2.9,1c1.5-0.3,2.5-1.1,2.2-2.2c-0.3-1.2-1.5-1.3-2.9-1C40.5,116.8,39.5,117.5,39.7,118.7"/>
	<path class="st0" d="M38.5,108.3c0.2,0.1,0.4,0.1,1.2,0.1l4.4-0.3v0.5l-4.3,3.7c-0.2,0.1-0.3,0.3-0.3,0.3l3.5-0.2
		c0.5,0,0.7-0.1,0.9-0.1c0.1-0.1,0.2-0.2,0.2-0.5h0.1c0,0.3,0,0.5,0,0.9s0,0.5,0.1,0.9h-0.1c0-0.1-0.1-0.3-0.2-0.4
		c-0.2-0.1-0.4-0.1-1.2-0.1l-3.1,0.2c-0.5,0-0.7,0.1-0.9,0.1c-0.1,0.1-0.2,0.2-0.2,0.5h-0.1c0-0.3,0-0.7,0-1.1
		c0-0.1-0.1-0.5-0.1-0.8l3.3-2.8c0.3-0.3,0.4-0.3,0.4-0.3l-2.6,0.1c-0.5,0-0.7,0.1-0.9,0.1c-0.1,0.1-0.2,0.2-0.2,0.5h-0.1
		c0-0.3,0-0.5,0-0.9s0-0.5-0.1-0.9h0.1C38.3,108.1,38.3,108.2,38.5,108.3"/>
	<path class="st0" d="M39.8,102.1c-0.3,0-0.5,0.1-0.7,0.3s-0.2,0.3-0.2,0.9v0.3l4.1,0.4c0.5,0.1,0.7,0.1,0.9,0
		c0.2-0.1,0.3-0.5,0.3-0.6h0.2c-0.1,0.3-0.1,1.1-0.1,1.4c0,0.3-0.1,1.1-0.1,1.4H44c0-0.1,0-0.5-0.1-0.7s-0.4-0.2-1.1-0.3l-3.9-0.4
		v0.3c-0.1,0.5-0.1,0.7,0.1,0.9c0.1,0.2,0.3,0.3,0.6,0.3v0.2c-0.4-0.1-1.1-0.1-1.1-0.1l0.5-4.7c0,0,0.7,0.1,1.1,0.1L39.8,102.1
		L39.8,102.1z"/>
	<path class="st0" d="M39.6,98.7c0.1,0.2,0.4,0.3,1.1,0.4l3,0.6c0.5,0.1,0.7,0.1,0.9,0.1c0.1-0.1,0.3-0.2,0.3-0.4h0.1
		c-0.1,0.3-0.2,0.9-0.3,1.2s-0.1,0.9-0.2,1.2h-0.1c0-0.1,0-0.3-0.1-0.5c-0.1-0.2-0.4-0.3-1.1-0.4l-3-0.7c-0.5-0.1-0.7-0.1-0.9-0.1
		c-0.1,0.1-0.3,0.2-0.3,0.4h-0.1c0.1-0.3,0.2-0.9,0.3-1.2s0.1-0.9,0.2-1.2h0.1C39.5,98.3,39.5,98.5,39.6,98.7"/>
	<path class="st0" d="M42,93.3c-0.3-0.1-0.5,0-0.7,0.1c-0.2,0.1-0.3,0.3-0.4,0.9l-0.2,0.7l2.1,0.7l0.2-0.7c0.1-0.3,0.1-0.5,0.1-0.7
		c-0.1-0.1-0.2-0.3-0.4-0.4l0.1-0.2c0.2,0.1,0.3,0.1,0.9,0.3c0.5,0.2,0.6,0.2,0.8,0.3l-0.1,0.2c-0.2-0.1-0.4,0-0.5,0.1
		c-0.2,0.1-0.3,0.4-0.4,0.7l-0.2,0.7l1.5,0.5c0.5,0.2,0.7,0.2,0.9,0.1c0.3-0.1,0.4-0.5,0.4-0.5l0.1,0.1c-0.1,0.3-0.3,1-0.5,1.3
		c-0.1,0.5-0.2,0.7-0.3,1.2l-0.1,0c0.1-0.1,0.1-0.3-0.1-0.5c-0.1-0.2-0.3-0.3-1.1-0.5l-2.9-0.9c-0.5-0.2-0.7-0.2-0.9-0.1
		S40,96.3,40,96.5l-0.1-0.1c0.2-0.5,0.3-0.8,0.5-1.3l0.8-2.5c0,0,0.7,0.3,1.1,0.3L42,93.3L42,93.3z"/>
	<path class="st0" d="M42.7,89.6c0.1,0.2,0.3,0.3,1,0.6l2.8,1.3c0.5,0.2,0.7,0.3,0.9,0.3c0.1,0,0.3-0.1,0.4-0.3l0.1,0.1
		c-0.1,0.3-0.4,0.8-0.5,1.1c-0.1,0.3-0.3,0.8-0.5,1.1l-0.1-0.1c0.1-0.1,0.1-0.3,0-0.5s-0.3-0.3-1-0.6L43,91.3
		c-0.5-0.2-0.7-0.3-0.9-0.3s-0.3,0.1-0.4,0.3l-0.2-0.1c0.1-0.3,0.4-0.8,0.5-1.1c0.1-0.3,0.3-0.8,0.5-1.1l0.1,0.1
		C42.7,89.2,42.6,89.4,42.7,89.6"/>
	<path class="st0" d="M46.7,84.1c-0.2-0.1-0.4-0.1-0.6-0.1c-0.3,0.1-0.6,0.5-0.7,0.7c-0.4,0.7-0.9,1.8,1.2,3.1
		c1.3,0.7,2.5,0.9,3.2-0.5c0.1-0.3,0.3-0.7,0.2-1c-0.1-0.1-0.1-0.3-0.4-0.5l0.1-0.1c0.2,0.1,0.5,0.3,0.8,0.5l0.1,0.1
		c-0.1,0.4-0.3,1-0.6,1.4c-0.6,1-1.3,1.6-2.2,1.7c-0.5,0.1-1.2-0.1-1.9-0.5c-1.3-0.8-1.7-2.1-1.5-3.2c0.1-0.5,0.3-1,0.5-1.3
		c0.3-0.6,0.7-1.1,0.8-1.1c0.1,0.1,0.3,0.2,0.5,0.3c0.2,0.1,0.4,0.2,0.5,0.3L46.7,84.1L46.7,84.1z"/>
	<path class="st0" d="M48.3,80.5c0.1,0.2,0.3,0.4,0.9,0.9l2.5,1.9c0.5,0.3,0.6,0.5,0.8,0.5c0.1,0,0.3-0.1,0.5-0.2l0.1,0.1
		c-0.2,0.3-0.6,0.7-0.7,0.9c-0.2,0.3-0.5,0.7-0.7,1l-0.1-0.1c0.1-0.1,0.1-0.3,0.1-0.5c-0.1-0.2-0.3-0.4-0.9-0.9l-2.5-1.9
		c-0.5-0.3-0.6-0.5-0.8-0.5c-0.1,0-0.3,0.1-0.5,0.2l-0.1-0.1c0.2-0.3,0.6-0.7,0.7-0.9c0.2-0.3,0.5-0.7,0.7-1l0.1,0.1
		C48.4,80.1,48.2,80.3,48.3,80.5"/>
	<path class="st0" d="M56.4,79.7c-0.2,0.2-0.7,0.7-0.8,0.9l-0.1-0.1c0.1-0.1,0.2-0.3,0.2-0.4c0-0.1,0-0.1-0.1-0.2
		c-0.1-0.1-0.2-0.1-0.5-0.3L54,79.1l-1.1,1.2l0.6,1.2c0.1,0.3,0.2,0.4,0.3,0.5c0.1,0.1,0.1,0.1,0.2,0.1c0.1,0,0.3-0.1,0.3-0.2
		l0.1,0.1c-0.2,0.2-0.4,0.3-0.6,0.6c-0.2,0.2-0.4,0.4-0.5,0.6L53.1,83c0.2-0.2,0.1-0.4,0.1-0.5c0-0.1-0.1-0.5-0.4-1l-1.9-4.5
		l0.4-0.5l4.4,2c0.6,0.3,1,0.4,1.1,0.5c0.1,0,0.3,0.1,0.5-0.1l0.1,0.1C57,79.1,56.6,79.5,56.4,79.7 M52.5,78.4
		C52,78.1,51.8,78,51.8,78l0.9,1.9l1-1L52.5,78.4L52.5,78.4z"/>
	<path class="st0" d="M61,69.5c-0.1,0.2,0.1,0.5,0.5,1.1l1,1.5c0.4,0.5,0.6,0.9,0.7,1.3c0.3,1.1-0.7,1.8-1.3,2.2
		c-1.3,0.8-2,0.7-2.5,0.3c-0.4-0.3-0.7-0.8-0.9-1.2l-1.2-1.7c-0.3-0.5-0.5-0.6-0.6-0.7c-0.1-0.1-0.3-0.1-0.5,0.1l-0.1-0.1
		c0.3-0.2,0.7-0.5,1-0.6c0.3-0.2,0.7-0.5,1-0.7l0.1,0.1c-0.1,0.1-0.2,0.2-0.3,0.4s0.1,0.5,0.5,1.1l1.3,2c0.5,0.7,0.9,1.3,2.1,0.6
		c1.1-0.7,0.7-1.5,0.3-2.1l-1.5-2.2c-0.3-0.5-0.5-0.6-0.6-0.7c-0.1-0.1-0.3-0.1-0.5,0.1l-0.1-0.1c0.3-0.2,0.5-0.3,0.8-0.5
		c0.3-0.2,0.6-0.4,0.9-0.6l0.1,0.1C61.2,69.1,61,69.3,61,69.5"/>
	<path class="st0" d="M68,66.2c-0.1,0.2,0,0.5,0.3,1.1l1.7,4l-0.5,0.2l-4.9-2.8c-0.2-0.1-0.3-0.2-0.3-0.2l1.4,3.3
		c0.2,0.5,0.3,0.7,0.5,0.8c0.1,0.1,0.3,0.1,0.5,0l0.1,0.1c-0.3,0.1-0.5,0.2-0.8,0.3c-0.3,0.1-0.5,0.2-0.8,0.4l-0.1-0.1
		c0.1-0.1,0.3-0.1,0.3-0.3c0.1-0.2,0-0.5-0.3-1.1l-1.3-2.9c-0.2-0.5-0.3-0.7-0.5-0.8c-0.1-0.1-0.3-0.1-0.5,0L62.8,68
		c0.3-0.1,0.7-0.3,0.9-0.4c0.1-0.1,0.5-0.2,0.7-0.3l3.7,2.1c0.3,0.2,0.5,0.3,0.5,0.3l-1.1-2.4c-0.2-0.5-0.3-0.7-0.5-0.8
		c-0.1-0.1-0.3-0.1-0.5,0l-0.1-0.1c0.3-0.1,0.5-0.2,0.8-0.3c0.3-0.1,0.5-0.2,0.8-0.4l0.1,0.1C68.2,65.9,68,66,68,66.2"/>
	<path class="st0" d="M71.8,65c-0.1,0.2-0.1,0.5,0.2,1.2l0.9,2.9c0.1,0.5,0.3,0.7,0.3,0.8c0.1,0.1,0.3,0.1,0.5,0.1l0.1,0.1
		c-0.3,0.1-0.9,0.2-1.2,0.3c-0.3,0.1-0.8,0.3-1.1,0.4l-0.1-0.1c0.1,0,0.3-0.1,0.3-0.3c0.1-0.2,0.1-0.5-0.2-1.2l-0.7-2.9
		c-0.1-0.5-0.3-0.7-0.3-0.8c-0.1-0.1-0.3-0.1-0.5-0.1l-0.1-0.1c0.3-0.1,0.9-0.2,1.2-0.3c0.3-0.1,0.8-0.3,1.1-0.4l0.1,0.1
		C72.1,64.7,71.9,64.8,71.8,65"/>
	<path class="st0" d="M78.8,63.7c-0.1,0.1-0.1,0.5-0.3,1.1l-1.1,4.7l-0.7,0.2l-2.3-4.2c-0.3-0.6-0.5-0.9-0.6-1
		c-0.1-0.1-0.2-0.2-0.5-0.2v-0.1c0.3,0,0.9-0.1,1.1-0.1c0.3-0.1,0.9-0.2,1.2-0.2v0.1c-0.2,0.1-0.3,0.1-0.4,0.2
		c-0.1,0.1-0.1,0.1-0.1,0.2c0,0.1,0.1,0.3,0.2,0.5l1.4,2.6c0.3,0.5,0.4,0.7,0.4,0.7s0.1-0.3,0.1-0.9l0.5-2.9
		c0.1-0.3,0.1-0.4,0.1-0.5c0-0.1-0.1-0.1-0.1-0.2c0,0-0.2,0-0.3,0.1v-0.1c0.3-0.1,0.5-0.1,0.9-0.1c0.3-0.1,0.5-0.1,0.8-0.2v0.1
		C79,63.4,78.9,63.6,78.8,63.7"/>
	<path class="st0" d="M84.6,68.9L82,69c-0.5,0-1,0-1.5,0.1v-0.1c0.1,0,0.3-0.1,0.4-0.2c0.1-0.2,0.1-0.4,0.1-1.2L81,64.5
		c0-0.5-0.1-0.7-0.1-0.9c-0.1-0.1-0.2-0.2-0.5-0.2v-0.1c0.5,0,0.9,0,1.4,0l2.5-0.1c0,0,0,0.7,0.1,1.1l-0.2-0.1
		c0-0.3-0.1-0.5-0.3-0.6c-0.2-0.1-0.4-0.1-0.9-0.1h-0.7l0.1,2.2H83c0.3,0,0.5,0,0.7-0.2c0.1-0.1,0.2-0.3,0.2-0.5h0.2
		c0,0.2,0,0.3,0,0.9s0,0.7,0.1,0.9H84c0-0.2-0.1-0.4-0.2-0.5c-0.2-0.1-0.5-0.2-0.8-0.1h-0.7l0.1,2c0,0.4,0.1,0.5,0.5,0.5H83
		c0.5,0,0.9-0.1,1.1-0.3c0.1-0.1,0.2-0.3,0.2-0.6h0.2C84.5,68.1,84.6,68.9,84.6,68.9"/>
	<path class="st0" d="M90.6,69.6c-0.9-0.1-1.1-0.5-1.3-0.9c-0.1-0.3-0.7-1.2-1.1-1.9l-0.4-0.1l-0.1,1.2c-0.1,0.5-0.1,0.7,0,0.9
		c0.1,0.1,0.2,0.2,0.4,0.3v0.1c-0.3-0.1-0.9-0.1-1.1-0.2c-0.3-0.1-0.9-0.1-1.2-0.1v-0.1c0.1,0,0.3,0,0.5-0.1
		c0.2-0.1,0.2-0.4,0.3-1.1l0.4-3.1c0.1-0.5,0.1-0.7,0-0.9c-0.1-0.1-0.2-0.2-0.4-0.3v-0.1c0.3,0.1,0.7,0.1,0.9,0.1
		c0.7,0.1,0.8,0.1,1.3,0.1c0.2,0,0.7,0.1,1,0.2c1,0.4,1.1,1.2,1,1.5c-0.1,0.5-0.3,1.3-1.5,1.5c0,0,0.9,1.3,1.3,1.9
		c0.4,0.5,0.7,0.9,1,1v0.1C91.6,69.7,91.4,69.7,90.6,69.6 M88.6,63.7c-0.2,0-0.4,0-0.4,0l-0.3,2.6c0,0,0.2,0.1,0.4,0.1
		c0.1,0,0.3,0,0.3,0c0.1,0,0.7-0.1,0.9-1.3C89.7,63.9,89,63.7,88.6,63.7"/>
	<path class="st0" d="M93.5,70.3c-0.4-0.1-0.9-0.3-1.3-0.5l0.1-0.1c0.1-0.4,0.2-0.7,0.2-0.9l0.2,0.1c-0.1,0.3,0,0.5,0.1,0.7
		c0.2,0.3,0.5,0.4,0.8,0.5c1.1,0.3,1.3-0.4,1.4-0.6c0.1-0.5-0.1-0.9-0.5-1.3L94,67.7c-0.5-0.5-0.8-1.1-0.6-1.9
		c0.1-0.4,0.6-1.5,2.4-0.9c0.8,0.2,1.3,0.5,1.3,0.5s-0.1,0.2-0.1,0.5c-0.1,0.5-0.1,0.6-0.1,0.6l-0.2-0.1c0.1-0.2,0-0.4-0.1-0.6
		c-0.1-0.3-0.5-0.5-0.8-0.5c-0.9-0.3-1.1,0.3-1.2,0.5c-0.1,0.5,0.1,0.7,0.5,1.1l0.5,0.5c0.6,0.6,0.9,1.1,0.7,1.9
		C95.8,70.4,94.7,70.7,93.5,70.3"/>
	<path class="st0" d="M100.6,66.8c-0.2,0.1-0.3,0.3-0.6,1.1l-1.1,2.9c-0.2,0.5-0.3,0.7-0.2,0.9c0,0.1,0.1,0.3,0.3,0.4L99,72.1
		c-0.3-0.1-0.8-0.3-1.1-0.5c-0.3-0.1-0.8-0.3-1.1-0.4l0.1-0.1c0.1,0.1,0.3,0.1,0.5,0c0.2-0.1,0.3-0.3,0.6-1.1l1.1-2.9
		c0.2-0.5,0.3-0.7,0.2-0.9c0-0.1-0.1-0.3-0.3-0.4l0.1-0.1c0.3,0.1,0.8,0.3,1.1,0.5c0.3,0.1,0.8,0.3,1.1,0.4l-0.1,0.1
		C101,66.7,100.8,66.7,100.6,66.8"/>
	<path class="st0" d="M103.4,74.1c-0.3-0.1-0.7-0.3-1.3-0.6c-0.4-0.2-0.7-0.4-1-0.6c-0.3-0.1-0.6-0.3-0.9-0.5l0.1-0.1
		c0.1,0.1,0.3,0.1,0.5,0.1c0.2-0.1,0.3-0.3,0.7-0.9l1.5-2.7c0.3-0.5,0.3-0.7,0.3-0.9c0-0.1-0.1-0.3-0.3-0.4l0.1-0.1
		c0,0,0.3,0.2,0.9,0.5c0.3,0.1,0.7,0.4,1.3,0.7c0.7,0.4,2.9,1.7,1.5,4C105.6,74.4,104.2,74.3,103.4,74.1 M104.8,68.9
		c-0.4-0.2-0.6-0.3-0.6-0.3l-2.2,4c-0.1,0.2-0.1,0.3,0,0.5c0.1,0.1,0.2,0.1,0.3,0.2c1.2,0.7,2.1,0.3,2.9-1.3
		C106.4,70,105.5,69.3,104.8,68.9"/>
	<path class="st0" d="M109.1,78.3c-0.2-0.1-0.7-0.5-0.9-0.7l0.1-0.1c0.2,0.1,0.3,0.2,0.4,0.2c0.1,0,0.1-0.1,0.2-0.1
		c0.1-0.1,0.1-0.2,0.2-0.5l0.4-1.3l-1.3-1l-1.1,0.7c-0.2,0.1-0.3,0.2-0.4,0.3c-0.1,0.1-0.1,0.1-0.1,0.2c0,0.1,0.1,0.3,0.3,0.3
		l-0.1,0.1c-0.3-0.2-0.4-0.3-0.7-0.5c-0.2-0.2-0.5-0.3-0.7-0.5l0.1-0.1c0.2,0.1,0.4,0.1,0.5,0.1c0.1-0.1,0.4-0.2,0.9-0.5l4.2-2.4
		l0.6,0.3l-1.5,4.6c-0.2,0.6-0.3,1-0.3,1.1c0,0.1,0,0.3,0.2,0.5l-0.1,0.1C109.8,78.9,109.3,78.5,109.1,78.3 M110,74.2
		c0.2-0.5,0.3-0.8,0.3-0.8l-1.8,1.1l1.1,0.9L110,74.2L110,74.2z"/>
	<path class="st0" d="M113,82c-0.3-0.1-0.6-0.5-1.1-0.9c-0.3-0.3-0.5-0.6-0.8-0.9c-0.2-0.2-0.5-0.5-0.7-0.7l0.1-0.1
		c0.1,0.1,0.3,0.2,0.5,0.2c0.2,0,0.4-0.2,1-0.7l2.3-2.1c0.4-0.4,0.5-0.5,0.6-0.7c0-0.1,0-0.3-0.1-0.5l0.1-0.1c0,0,0.2,0.3,0.7,0.7
		c0.2,0.2,0.6,0.6,1,1.1c0.5,0.6,2.2,2.5,0.2,4.3C115.1,82.9,113.8,82.5,113,82 M116.1,77.5c-0.3-0.3-0.5-0.5-0.5-0.5l-3.3,3.1
		c-0.2,0.2-0.3,0.3-0.2,0.5c0.1,0.1,0.1,0.2,0.3,0.3c0.9,1,1.9,0.9,3.2-0.3C117.3,79.1,116.6,78.1,116.1,77.5"/>
	<path class="st0" d="M122.8,87.9c0.2-0.1,0.3-0.3,0.3-0.5c0.1-0.3-0.1-0.8-0.3-1c-0.4-0.7-1.1-1.6-3.3-0.4c-1.3,0.7-1.9,1.7-1.1,3
		c0.1,0.3,0.4,0.6,0.8,0.7c0.2,0.1,0.3,0,0.5-0.1l0.1,0.1c-0.2,0.1-0.5,0.3-0.9,0.5l-0.1,0.1c-0.3-0.3-0.7-0.8-0.9-1.2
		c-0.6-1-0.8-1.9-0.5-2.8c0.2-0.5,0.6-1,1.3-1.4c1.3-0.8,2.6-0.5,3.5,0.3c0.4,0.3,0.7,0.8,0.9,1.1c0.3,0.6,0.6,1.2,0.6,1.3
		c-0.1,0.1-0.3,0.2-0.5,0.3c-0.2,0.1-0.4,0.3-0.5,0.3L122.8,87.9L122.8,87.9z"/>
	<path class="st0" d="M120.8,95.2c-0.1-0.3-0.3-0.9-0.5-1.1l0.1-0.1c0.1,0.2,0.2,0.3,0.3,0.3c0.1,0,0.1,0,0.2,0
		c0.1-0.1,0.2-0.1,0.4-0.3l1-0.9l-0.6-1.5l-1.3,0.1c-0.3,0-0.4,0-0.5,0.1c-0.1,0-0.1,0.1-0.1,0.1c-0.1,0.1,0,0.3,0.1,0.4l-0.1,0.1
		c-0.1-0.3-0.1-0.5-0.3-0.8c-0.1-0.3-0.2-0.5-0.3-0.7l0.1-0.1c0.1,0.3,0.3,0.3,0.4,0.3c0.1,0,0.5,0,1.1,0.1l4.9,0.1l0.3,0.5
		l-3.6,3.1c-0.5,0.5-0.8,0.7-0.8,0.8c-0.1,0.1-0.2,0.3-0.1,0.5l-0.1,0.1C121.1,96,120.9,95.5,120.8,95.2 M123.6,92.1
		c0.5-0.4,0.7-0.5,0.7-0.5l-2.1,0.1l0.5,1.3L123.6,92.1L123.6,92.1z"/>
	<path class="st0" d="M126.9,99.5c0.3-0.1,0.5-0.3,0.5-0.5c0.1-0.2,0.1-0.4-0.1-0.9l-0.1-0.3l-4.1,1.1c-0.5,0.1-0.7,0.2-0.8,0.3
		c-0.2,0.2-0.1,0.6-0.1,0.7l-0.1,0.1c-0.1-0.3-0.2-1.1-0.3-1.3c-0.1-0.3-0.3-1-0.4-1.3l0.1-0.1c0,0.1,0.1,0.4,0.3,0.5
		c0.2,0.1,0.4,0.1,1.2-0.1l3.8-1l-0.1-0.3c-0.1-0.5-0.2-0.7-0.3-0.9c-0.1-0.1-0.4-0.2-0.7-0.1l-0.1-0.2c0.4-0.1,1.1-0.3,1.1-0.3
		l1.2,4.5c0,0-0.7,0.2-1.1,0.3L126.9,99.5L126.9,99.5z"/>
	<path class="st0" d="M122.8,104.4c-0.2-1.9,0.8-3.1,2.6-3.2c1.9-0.2,3.2,0.9,3.4,2.7s-0.8,3.1-2.6,3.2
		C124.3,107.3,123,106.3,122.8,104.4 M128.4,103.9c-0.1-1.2-1.3-1.5-2.7-1.4c-1.5,0.1-2.6,0.8-2.5,1.9c0.1,1.2,1.3,1.5,2.7,1.4
		C127.4,105.7,128.4,105.1,128.4,103.9 M129.9,105l-0.9-1.9l0.1-0.1l1.3,1.1v0.1L129.9,105L129.9,105L129.9,105z"/>
	<path class="st0" d="M122.9,112.4l0.1-2.5c0-0.5,0.1-1,0.1-1.5h0.1c0,0.1,0,0.3,0.2,0.5c0.1,0.1,0.4,0.2,1.2,0.2l3.1,0.1
		c0.5,0,0.7,0,0.9-0.1c0.1-0.1,0.2-0.2,0.3-0.5h0.1c-0.1,0.3-0.1,1-0.1,1.3c0,0.3,0,1,0,1.3h-0.2c0-0.4-0.1-0.6-0.3-0.7
		c-0.2-0.1-0.5-0.1-1.1-0.2l-3.4-0.2c-0.4,0-0.5,0.1-0.5,0.5v0.1c0,0.5,0,0.8,0.2,1c0.1,0.1,0.3,0.2,0.6,0.3v0.2
		C123.8,112.5,122.9,112.4,122.9,112.4"/>
	<path class="st0" d="M127.9,116.3c-0.1-0.2-0.4-0.2-1.1-0.3l-3.1-0.5c-0.5-0.1-0.7-0.1-0.9,0c-0.1,0.1-0.3,0.2-0.3,0.4h-0.1
		c0.1-0.3,0.2-0.9,0.2-1.2c0.1-0.3,0.1-0.9,0.1-1.2h0.1c0,0.1,0,0.3,0.1,0.5c0.1,0.2,0.4,0.2,1.1,0.3l3.1,0.5c0.5,0.1,0.7,0.1,0.9,0
		c0.1-0.1,0.3-0.2,0.3-0.4h0.1c-0.1,0.3-0.2,0.9-0.2,1.2c-0.1,0.3-0.1,0.9-0.1,1.2H128C128,116.6,128,116.5,127.9,116.3"/>
	<path class="st0" d="M125.5,122.6c0.2,0.1,0.4,0,0.5-0.1c0.3-0.2,0.5-0.7,0.5-0.9c0.2-0.7,0.4-1.9-1.9-2.6c-1.5-0.4-2.6-0.2-3,1.3
		c-0.1,0.3-0.1,0.7,0.1,1.1c0.1,0.1,0.3,0.3,0.5,0.3l-0.1,0.2c-0.3-0.1-0.5-0.2-0.9-0.3l-0.1-0.1c0-0.4,0.1-1.1,0.2-1.5
		c0.3-1.1,0.9-1.9,1.7-2.3c0.5-0.2,1.2-0.3,1.9-0.1c1.5,0.4,2.2,1.5,2.3,2.7c0,0.5-0.1,1.1-0.2,1.3c-0.2,0.7-0.5,1.3-0.5,1.3
		c-0.1-0.1-0.3-0.1-0.5-0.2s-0.5-0.1-0.5-0.1L125.5,122.6L125.5,122.6z"/>
	<path class="st0" d="M118.9,126.3c0.1-0.3,0.3-0.9,0.5-1.1l0.1,0.1c-0.1,0.2-0.1,0.3-0.1,0.4c0,0.1,0.1,0.1,0.1,0.1
		c0.1,0.1,0.3,0.1,0.5,0.1l1.3,0.1l0.7-1.5l-0.9-0.9c-0.2-0.2-0.3-0.3-0.4-0.3c-0.1-0.1-0.1-0.1-0.2,0c-0.1,0.1-0.2,0.2-0.3,0.3
		l-0.1-0.1c0.1-0.3,0.3-0.5,0.4-0.7c0.1-0.3,0.2-0.5,0.3-0.8l0.1,0.1c-0.1,0.2,0,0.4,0.1,0.5c0.1,0.1,0.3,0.3,0.7,0.8l3.3,3.5
		l-0.1,0.7l-4.8-0.4c-0.7-0.1-1.1-0.1-1.1-0.1c-0.1,0-0.3,0.1-0.4,0.3l-0.1-0.1C118.5,127,118.8,126.5,118.9,126.3 M123,126.1
		c0.6,0.1,0.9,0.1,0.9,0.1l-1.5-1.5l-0.6,1.3L123,126.1L123,126.1z"/>
	<path class="st0" d="M86.4,87.1h0.9c-0.2-0.2-0.5-0.6-0.5-1c0-0.8,0.9-1.3,0.9-2.3s-0.7-1.5-0.7-2.5c0-0.9,0.6-1.4,0.6-2.1
		c0-0.3-0.1-0.9-0.4-1.1h-0.9c0.1,0.2,0.4,0.8,0.4,1.1c0,0.7-0.6,1.1-0.6,2.1c0,0.9,0.8,1.7,0.8,2.5s-0.9,1.3-0.9,2.3
		C86,86.5,86.2,86.9,86.4,87.1"/>
	<path class="st0" d="M86.9,93.2v1h23.6v-0.9h-6.1c2.2-0.5,3.7-2.1,3.7-4.6c0-3.7-4.1-7.4-10.1-7.4c-1.5,0-2.7,0.2-3.8,0.5
		C94,81.7,94,81.5,94,81.3c0-0.9,0.6-1.4,0.6-2.1c0-0.3-0.1-0.9-0.4-1.1h-0.9c0.1,0.2,0.4,0.8,0.4,1.1c0,0.7-0.6,1.1-0.6,2.1
		c0,0.3,0.1,0.5,0.1,0.7c-0.5,0.2-0.9,0.4-1.3,0.7c-0.2-0.5-0.4-0.9-0.4-1.4c0-0.9,0.6-1.4,0.6-2.1c0-0.3-0.1-0.9-0.4-1.1h-0.9
		c0.1,0.2,0.4,0.8,0.4,1.1c0,0.7-0.6,1.1-0.6,2.1c0,0.7,0.4,1.2,0.6,1.8c-1.1,0.9-1.9,1.9-2.4,2.9c0-0.1,0-0.1,0-0.2
		c0-0.6,0.9-1.4,0.9-2.1c0-1-0.7-1.5-0.7-2.5c0-0.9,0.6-1.4,0.6-2.1c0-0.3-0.1-0.9-0.4-1.1h-0.9c0.1,0.2,0.4,0.8,0.4,1.1
		c0,0.7-0.6,1.1-0.6,2.1c0,0.9,0.8,1.7,0.8,2.5s-0.9,1.3-0.9,2.3c0,0.4,0.1,0.7,0.4,1h0.7h0.1c0.8-2.3,3.1-5,8.4-5
		c5.7,0,9.2,3.6,9.2,6.5c0,2.6-1.7,3.8-3.5,3.8c-2.5,0-3.3-1.5-3.3-2.9c0-1.1,0.5-2.1,1.7-2.5c-0.6-1.4-2.5-2.9-5.5-2.9
		c-3.3,0-5,1.8-5.5,3h0.9c0.1-0.2,0.5-0.8,1.1-1.2c0,0.1,0,0.1,0,0.2c0,0.4,0.1,0.7,0.4,1h0.9c-0.2-0.2-0.5-0.6-0.5-1
		c0-0.3,0.1-0.5,0.3-0.7c0.7-0.3,1.5-0.4,2.4-0.4c2.5,0,3.7,1.1,4.2,1.8c-0.8,0.4-1.6,1.7-1.6,2.9c0,1.7,1.1,3.2,3.3,3.7H94
		c0-1.6-2.1-1.6-2.1-2.1s2.7-1.4,2.7-3.2h-8.5c0,1.9,2.8,2.7,2.8,3.2C88.9,91.7,86.9,91.8,86.9,93.2 M87.2,88.7h6.3
		c0,1.1-2.5,1.5-2.5,2.5c0,0.9,1.9,0.7,1.9,2.1h-5.1c0-1.4,1.9-1.2,1.9-2.1C89.7,90.3,87.2,89.9,87.2,88.7"/>
	<path class="st0" d="M100.6,96.7c-0.1-0.1-0.5-0.3-1.1-0.3c-1.5,0-2.6,1.1-2.6,2.7c0,1.8,1.7,2.3,1.7,3.4c0,0.6-0.5,1.1-0.9,1.3
		c0.2,0.2,0.7,0.4,1.2,0.4c1.5,0,2.6-1.1,2.6-2.7s-1.6-2.2-1.6-3.3C100,97.7,100.2,97.1,100.6,96.7 M100.9,101.5
		c0,1.1-0.9,1.9-1.9,1.9c0.2-0.2,0.5-0.8,0.5-1.1c0-1.3-1.7-1.9-1.7-3.3c0-1.1,0.8-1.9,1.7-1.9c-0.2,0.3-0.4,0.9-0.4,1.3
		C99.2,99.6,100.9,100.3,100.9,101.5"/>
	<path class="st0" d="M111.1,98.1c0-0.5,0.2-1,0.6-1.5c-0.1-0.1-0.5-0.3-1.1-0.3c-1.5,0-2.6,1.1-2.6,2.7c0,1.8,1.7,2.3,1.7,3.4
		c0,0.6-0.5,1.1-0.9,1.3c0.2,0.2,0.7,0.4,1.2,0.4c1.5,0,2.6-1.1,2.6-2.7C112.7,99.9,111.1,99.2,111.1,98.1 M110.1,103.5
		c0.2-0.2,0.5-0.8,0.5-1.1c0-1.3-1.7-1.9-1.7-3.3c0-1.1,0.8-1.9,1.7-1.9c-0.2,0.3-0.4,0.9-0.4,1.3c0,1.2,1.7,1.9,1.7,3.1
		C112,102.7,111.1,103.5,110.1,103.5"/>
	<path class="st0" d="M106.2,96.7c-0.1-0.1-0.5-0.3-1.1-0.3c-1.5,0-2.6,1.1-2.6,2.7c0,1.8,1.7,2.3,1.7,3.4c0,0.6-0.5,1.1-0.9,1.3
		c0.2,0.2,0.7,0.4,1.2,0.4c1.5,0,2.6-1.1,2.6-2.7s-1.6-2.2-1.6-3.3C105.6,97.7,105.8,97.1,106.2,96.7 M106.4,101.5
		c0,1.1-0.9,1.9-1.9,1.9c0.2-0.2,0.5-0.8,0.5-1.1c0-1.3-1.7-1.9-1.7-3.3c0-1.1,0.8-1.9,1.7-1.9c-0.2,0.3-0.4,0.9-0.4,1.3
		C104.7,99.6,106.4,100.3,106.4,101.5"/>
	<path class="st0" d="M72.4,87.9c0,0.3,0.1,0.5,0.1,0.5c0.1,0,0.3-0.3,0.4-0.3c0,0.2,0.3,0.4,0.5,0.4c0.3,0,0.5-0.1,0.5-0.5
		c0.3,0.1,0.3,0.3,0.5,0.3c0.1,0,0.2-0.1,0.2-0.3c0-0.5-0.4-0.6-1-0.6S72.5,87.7,72.4,87.9 M71.4,92.5c0.1,0.1,0.3,0.3,0.5,0.3
		c0.3,0,0.5-0.1,0.5-0.3c0-0.1,0-0.3-0.1-0.3c-0.1,0.1-0.1,0.1-0.5,0.1c-0.3,0-0.4-0.1-0.5-0.1C71.4,92.3,71.4,92.5,71.4,92.5
		 M71,90.7c0.5,0,0.5,0.1,0.9,0.1s0.5-0.1,0.9-0.1c0-0.1-0.1-0.3-0.1-0.5c-0.6,0-0.6,0.3-0.8,0.3c-0.1,0-0.1-0.3-0.8-0.3
		C71,90.4,71,90.5,71,90.7 M70.7,91.5l0.1,0.4c0.1-0.1,0.3-0.1,0.4-0.1c0.3,0,0.3,0.1,0.7,0.1s0.5-0.1,0.7-0.1c0.1,0,0.3,0,0.4,0.1
		l0.1-0.4c-0.1-0.1-0.3-0.1-0.5-0.1c-0.3,0-0.4,0.1-0.6,0.1c-0.3,0-0.4-0.1-0.6-0.1C71,91.4,70.8,91.5,70.7,91.5 M69.2,88
		c0,0.3,0.1,0.3,0.3,0.3c0.1,0,0.3-0.2,0.5-0.3c0,0.3,0.1,0.5,0.5,0.5c0.3,0,0.5-0.1,0.5-0.4c0.1,0.1,0.3,0.3,0.4,0.3
		c0.1,0,0.1-0.1,0.1-0.5c-0.1-0.1-0.5-0.5-1.2-0.5C69.6,87.3,69.2,87.5,69.2,88 M67,87.6c-0.4,0.5-0.1,0.9,0.4,0.9
		c0.5,0,1.1-0.3,1.7-1.3c0.4-0.5,0.5-0.9,1.3-0.9c1,0,0.9-1,1.5-1c0.6,0,0.5,1,1.5,1c0.7,0,0.9,0.4,1.3,0.9c0.6,1.1,1.3,1.3,1.7,1.3
		s0.8-0.4,0.4-0.9c-0.1,0.1-0.2,0.3-0.5,0.3c-0.6,0-0.9-0.5-1.3-1.3c0.2,0.1,0.5,0.4,0.8,0.4c0.4,0,0.5-0.3,0.4-0.5
		c-1.3,0-0.9-0.9-2.5-0.9c-0.7,0-0.9-1-1.8-1s-1.1,1-1.8,1c-1.5,0-1.3,0.9-2.5,0.9c-0.1,0.3,0,0.5,0.4,0.5c0.3,0,0.5-0.3,0.8-0.4
		c-0.5,0.7-0.7,1.3-1.3,1.3C67.2,87.9,67,87.7,67,87.6 M65.5,88.8c0,0.5,0.4,0.9,0.7,1c-0.1,0.1-0.1,0.3-0.1,0.5c0,0.9,0.9,1,1.1,1
		c-0.1,0.1-0.3,0.4-0.3,0.6c0,0.4,0.4,0.9,1,0.9c0.5,0,0.8-0.3,0.7-0.7c-0.1,0.1-0.3,0.1-0.5,0.1c-0.3,0-0.6-0.1-0.6-0.5
		c0-0.3,0.1-0.4,0.1-0.5c0.3-0.1,0.5-0.1,0.5-0.5c-0.2,0.2-0.4,0.2-0.7,0.2c-0.4,0-0.8-0.3-0.8-0.6c0-0.1,0.1-0.3,0.1-0.4
		c0.4,0.1,1,0.1,1.3-0.1c0.3,1.8,1.7,4.6,3.8,4.5c2.1,0.1,3.5-2.7,3.8-4.5c0.3,0.3,0.9,0.3,1.3,0.1c0.1,0.1,0.1,0.3,0.1,0.4
		c0,0.4-0.4,0.6-0.8,0.6c-0.3,0-0.5,0-0.7-0.1c0,0.4,0.1,0.5,0.5,0.5c0.1,0.1,0.1,0.3,0.1,0.5c0,0.3-0.3,0.5-0.6,0.5
		c-0.3,0-0.4-0.1-0.5-0.1c-0.1,0.4,0.3,0.7,0.7,0.7c0.6,0,1-0.5,1-0.9c0-0.3-0.1-0.5-0.3-0.6c0.3,0,1.1-0.1,1.1-1
		c0-0.3-0.1-0.5-0.1-0.5c0.3-0.1,0.7-0.5,0.7-1c0-0.4-0.2-0.8-0.9-0.8c0.1,0.1,0.3,0.3,0.3,0.5c0,0.5-0.4,0.8-1,0.8
		c-0.3,0-0.7-0.1-0.9-0.3c0.1-0.4-0.2-0.6-0.5-0.8c0.1,0.5,0,0.8-0.1,1c-0.3,0.7-1.3,0.9-1.3,0.9c0,0.3,0.3,0.3,0.4,0.3
		c0.3,0,0.5-0.1,0.8-0.5c-0.3,1.3-1.4,3.5-3.2,3.5c-1.8,0-2.9-2.2-3.2-3.5c0.2,0.3,0.5,0.5,0.8,0.5c0.1,0,0.4-0.1,0.4-0.3
		c0-0.1-1-0.3-1.3-0.9c-0.1-0.3-0.1-0.5-0.1-1c-0.3,0.1-0.6,0.4-0.5,0.8c-0.1,0.1-0.6,0.3-0.9,0.3c-0.6,0-1-0.3-1-0.8
		c0-0.3,0.1-0.4,0.3-0.5C65.8,88.1,65.5,88.5,65.5,88.8 M64.4,81.5c0,0.1,0.1,0.3,0.1,0.3h14.6c0.1,0,0.1-0.1,0.1-0.3
		c0-0.3-0.1-0.5-0.6-0.5H65C64.6,81.1,64.4,81.3,64.4,81.5 M62.2,85.1c0,1.9,1.7,2.7,2.9,2.7c1.3,0,2.4-0.9,2.4-2.3
		c0-0.4-0.1-0.8-0.3-1c0.9,0.3,1.9,0.4,2.5,0.4c0.7,0,1.2-0.3,1.3-0.5c-2.9-0.1-4.1-0.8-5.5-0.8c-1,0-1.6,0.7-1.6,1.5
		c0,0.7,0.5,1.3,1.3,1.3c0.6,0,0.9-0.4,0.9-0.8c0-0.3-0.1-0.4-0.4-0.4c0,0.2-0.1,0.4-0.5,0.4s-0.5-0.3-0.5-0.5
		c0-0.4,0.3-0.7,0.9-0.7c0.8,0,1.2,0.5,1.2,1.2c0,0.9-0.6,1.5-1.8,1.5s-1.9-0.9-1.9-2c0-1.7,1.3-2.3,2.4-2.3c1.8,0,2.9,0.5,6.4,0.5
		c3.4,0,4.6-0.5,6.4-0.5c1.1,0,2.4,0.5,2.4,2.3c0,1.2-0.8,2-1.9,2c-1.2,0-1.8-0.6-1.8-1.5c0-0.7,0.4-1.2,1.2-1.2
		c0.5,0,0.9,0.3,0.9,0.7c0,0.3-0.2,0.5-0.5,0.5S78,85.5,78,85.2c-0.3,0-0.4,0.1-0.4,0.4c0,0.4,0.3,0.8,0.9,0.8
		c0.7,0,1.3-0.5,1.3-1.3s-0.7-1.5-1.7-1.5c-1.3,0-2.5,0.7-5.5,0.8c0.1,0.3,0.6,0.5,1.3,0.5c0.6,0,1.7-0.1,2.5-0.4
		c-0.1,0.3-0.3,0.6-0.3,1c0,1.3,1.1,2.3,2.4,2.3c1.2,0,2.9-0.8,2.9-2.7c0-1.7-1.1-2.9-3.3-2.9c-1.9,0-3.1,0.5-6.4,0.5
		s-4.5-0.5-6.4-0.5C63.3,82.1,62.2,83.4,62.2,85.1"/>
	<path class="st0" d="M68.4,104.6c-3.1,0-5.1,0.5-6.4,1.5h-1.1c-1.3-0.9-3.3-1.5-6.5-1.5V96c0.1,0,0.7,0.1,1,0.3v7.6
		c2.4,0,4,0.3,5.5,1.1h0.9c1.5-0.9,3.2-1.1,5.5-1.1v-7.6c0.3-0.1,0.8-0.3,1-0.3V104.6L68.4,104.6z M66.6,95.1v8.1
		c-1.7,0-3.3,0.3-4.8,0.9v-7.9C62.8,95.3,65,95.1,66.6,95.1 M56.3,95.1c1.7,0,3.7,0.3,4.8,1.1v7.9c-1.5-0.7-3.1-0.9-4.8-0.9V95.1
		L56.3,95.1z M67.4,95.5v-1c-2.3,0-4.3,0.1-6,1.1c-1.7-1-3.5-1.1-5.9-1.1v1c-0.5-0.1-1.1-0.3-1.8-0.3v10.3c3.9,0,5.7,0.5,7.1,1.3
		h1.4c1.3-0.7,3.1-1.3,7-1.3V95.3C68.5,95.3,67.9,95.3,67.4,95.5"/>
	<path class="st0" d="M74.4,129.5c-3,0-3,2.7-5.9,2.7c-2.7,0-3-2.7-5.9-2.7c-1.5,0-2.4,0.7-3.1,1.5c0.2,0.2,0.5,0.5,0.7,0.7
		c0.6-0.6,1.3-1.2,2.5-1.2c2.4,0,2.9,2.7,5.9,2.7c3.3,0,3.3-2.7,5.9-2.7c2.6,0,2.8,2.8,5.9,2.7v-0.8
		C77.4,132.3,77.4,129.5,74.4,129.5"/>
	<path class="st0" d="M74.4,133.2c-3,0-3,2.7-5.9,2.7c-2.7,0-3-2.7-5.9-2.7c-0.3,0-0.6,0.1-0.9,0.1c0.3,0.3,1,0.9,1,0.9
		c2.3,0.1,2.7,2.7,5.7,2.7c3.3,0,3.3-2.7,5.9-2.7s2.8,2.8,5.9,2.7v-0.9C77.4,135.9,77.4,133.2,74.4,133.2"/>
	<path class="st0" d="M74.4,136.8c-2.1,0-2.7,1.3-3.8,2.1c0.3,0.2,0.6,0.3,0.9,0.5c0.9-0.7,1.5-1.6,2.9-1.6c2.6,0,2.8,2.8,5.9,2.7
		v-0.9C77.4,139.5,77.4,136.8,74.4,136.8"/>
	<path class="st0" d="M57.6,128.7l0.5,0.7c1.7-0.5,2.4-2.4,4.5-2.4c2.4,0,2.9,2.7,5.9,2.7c3.3,0,3.3-2.7,5.9-2.7s2.8,2.8,5.9,2.7
		v-0.9c-2.8,0-2.8-2.7-5.9-2.7c-3,0-3,2.7-5.9,2.7c-2.7,0-3-2.7-5.9-2.7C60.1,126,59.4,128.1,57.6,128.7"/>
	<path class="st0" d="M61.6,126.3h0.9v-2c0.1,0.1,0.4,0.2,0.7,0.2c1.3,0,2.7-1.3,2.7-2.7l2.5-2.5l-0.5-0.4l-2.4,2.3
		c-0.1-0.1-0.4-0.2-0.8-0.2c0.8-0.5,1.1-1.1,1.1-2l2.5-2.5l-0.5-0.4l-2.4,2.3c-0.1-0.1-0.4-0.2-0.7-0.2c0.5-0.2,1-1.1,1.1-1.9
		l2.5-2.5l-0.5-0.5l-2.3,2.4c-0.1-0.2-0.4-0.4-0.8-0.4c-0.5,0-1,0.2-1.4,0.5c0.1-0.2,0.3-0.5,0.3-1c0-0.9-0.5-1.9-1.2-2.2l-0.1-2.7
		h-0.6l-0.1,2.7c-0.6,0.3-1.2,1.3-1.2,2.2c0,0.5,0.1,0.7,0.1,0.9c-0.4-0.2-0.9-0.5-1.4-0.5c-0.4,0-0.5,0.1-0.7,0.3l-2.3-2.3
		l-0.5,0.5l2.4,2.5c0,0.8,0.3,1.4,0.9,1.9c-0.3,0-0.5,0.1-0.6,0.2l-2.2-2.2l-0.5,0.4l2.4,2.5c0,0.6,0.3,1.3,1,1.9
		c-0.3,0-0.5,0.1-0.6,0.2l-2.3-2.2l-0.5,0.4l2.5,2.5c0,1.5,1.4,2.9,2.7,2.9c0.3,0,0.6-0.1,0.8-0.2v1.8H61.6z M62.2,120.2
		c-0.1-0.6-0.5-1-0.9-1.3c0.5,0,0.9-0.1,0.9-0.8c0.1,0.7,0.5,0.8,0.9,0.8C62.6,119.2,62.3,119.6,62.2,120.2 M63.2,123.9
		c-0.4,0-0.5-0.2-0.5-0.5c0-0.7,0.8-1.9,1.9-1.9c0.4,0,0.7,0.1,0.7,0.4C65.3,122.9,64.4,123.9,63.2,123.9 M61,123.9
		c-1.1,0-2.1-1.1-2.1-2c0-0.3,0.3-0.4,0.5-0.4c1.2,0,2.2,1,2.2,1.9C61.6,123.7,61.4,123.9,61,123.9 M62.2,123.1
		c-0.1-0.7-0.5-1-0.9-1.3c0.5,0,0.8-0.1,0.9-0.7c0.1,0.5,0.4,0.7,0.9,0.7C62.6,122.1,62.3,122.3,62.2,123.1 M63.2,121.1
		c-0.4,0-0.5-0.2-0.5-0.5c0-0.7,0.8-1.7,1.9-1.7c0.4,0,0.5,0.1,0.5,0.4C65.1,120.2,64.4,121.1,63.2,121.1 M59.2,118.8
		c1.3,0,2.3,1.1,2.3,1.9c0,0.3-0.3,0.5-0.5,0.5c-1.2,0-2.2-1-2.2-1.9C58.8,118.9,59,118.8,59.2,118.8 M64.8,116
		c0.3,0,0.5,0.1,0.5,0.5c0,0.7-0.9,1.9-2.1,1.9c-0.3,0-0.5-0.1-0.5-0.5C62.7,117.2,63.7,116,64.8,116 M59.4,116c1,0,2.1,1.2,2.1,1.9
		c0,0.3-0.3,0.5-0.6,0.5c-1.1,0-2.1-1.1-2.1-1.9C58.9,116.1,59,116,59.4,116 M62.2,113.1c0.3,0,0.9,0.9,0.9,1.9
		c0,1.1-0.5,1.9-0.9,1.9c-0.4,0-0.9-0.8-0.9-1.9C61.2,114.1,61.8,113.1,62.2,113.1"/>
	<path class="st0" d="M91.7,134.1c-0.4-0.2-0.9-0.3-1.3-0.1c-0.4,0.1-0.7,0.4-0.9,0.8c-0.2,0.4-0.3,0.9-0.1,1.3
		c0.1,0.4,0.4,0.7,0.8,0.9c0.3,0.1,0.7,0.2,1,0.1c0.1,0,0.1,0,0.3-0.1c0.4-0.1,0.7-0.4,0.9-0.8s0.3-0.9,0.1-1.3
		C92.4,134.7,92.1,134.3,91.7,134.1 M91.9,136.1c-0.1,0.3-0.3,0.5-0.6,0.5c-0.3,0.1-0.5,0.1-0.8-0.1c-0.3-0.1-0.5-0.3-0.5-0.6
		c-0.1-0.3-0.1-0.5,0.1-0.8s0.3-0.5,0.6-0.5c0.3-0.1,0.5-0.1,0.8,0.1c0.3,0.1,0.5,0.3,0.5,0.6C92.1,135.5,92,135.9,91.9,136.1"/>
	<path class="st0" d="M100,131.5c-0.3-0.2-0.7-0.2-1.1-0.1c-0.7,0.3-1.2,1.1-0.9,1.8c0.1,0.3,0.4,0.7,0.7,0.9
		c0.3,0.1,0.6,0.2,0.9,0.1c0.1,0,0.1,0,0.2-0.1c0.3-0.1,0.7-0.4,0.9-0.7c0.2-0.3,0.2-0.7,0.1-1.1C100.6,131.9,100.4,131.7,100,131.5
		 M100.2,133.1c-0.1,0.2-0.3,0.3-0.5,0.4s-0.5,0.1-0.7-0.1c-0.2-0.1-0.3-0.3-0.4-0.5c-0.1-0.5,0.1-0.9,0.5-1.1c0.1,0,0.1,0,0.1,0
		c0.2,0,0.3,0,0.5,0.1c0.2,0.1,0.3,0.3,0.4,0.5S100.3,132.9,100.2,133.1"/>
	<path class="st0" d="M104,132.9c-0.5-0.7-1.3-0.7-1.8-0.7l-0.2-0.6c0.4-0.3,1-0.8,1.1-1.5v-0.2l-1.3-1.1l-0.2,0.1
		c-0.8,0.3-1.2,0.9-1.3,1.3l-0.6-0.1c0-0.5-0.1-1.3-0.9-1.8l-0.1-0.1l-1.4,0.5l-0.1,0.1c-0.3,0.8,0.1,1.5,0.3,1.9l-0.4,0.5
		c-0.3-0.2-1-0.5-1.8-0.2l-0.2,0.1l-0.3,1.7l0.1,0.1c0.1,0.1,0.2,0.2,0.3,0.3c-0.5,0-0.9,0.2-1.1,0.4l-0.5-0.5
		c0.3-0.3,0.8-1,0.5-1.7l-0.1-0.1l-1.3-0.7l-0.1,0.1c-0.7,0.2-0.9,1-1.1,1.5l-0.7-0.1c0-0.5-0.1-1.3-0.8-1.6l-0.1-0.1l-1.5,0.5
		l-0.1,0.1c-0.3,0.7,0,1.3,0.3,1.7l-0.5,0.5c-0.3-0.3-1-0.7-1.7-0.5l-0.1,0.1l-0.7,1.3l0.1,0.1c0.2,0.7,1,0.9,1.5,1.1l-0.1,0.7
		c-0.5,0-1.3,0.1-1.6,0.8l-0.1,0.1l0.5,1.4l0.1,0.1c0.6,0.3,1.3-0.1,1.7-0.3l0.5,0.5c-0.3,0.3-0.8,1-0.6,1.7l0.1,0.1l1.3,0.7
		l0.1-0.1c0.7-0.3,1-1,1.1-1.4l0.6,0.1c0,0.5,0.2,1.2,0.8,1.6l0.1,0.1l1.5-0.5l0.1-0.2c0.3-0.7-0.1-1.3-0.3-1.7l0.5-0.4
		c0.3,0.3,1,0.7,1.7,0.5l0.1-0.1l0.7-1.3l-0.1-0.1c-0.2-0.7-1-0.9-1.5-1l0.1-0.7c0.3-0.1,0.7-0.1,1-0.3c0,0.1-0.1,0.3-0.1,0.4v0.1
		l1.1,1.1l0.2-0.1c0.9-0.3,1.3-0.9,1.4-1.3l0.6,0.1c0,0.5,0.1,1.3,0.8,1.8l0.1,0.1l1.5-0.5l0.1-0.1c0.3-0.8-0.1-1.5-0.4-1.9l0.4-0.5
		c0.3,0.2,1.1,0.5,1.9,0.2l0.2-0.1l0.3-1.5L104,132.9L104,132.9z M96.4,134.3l-0.3-1.1c0.3,0.1,0.5,0.1,0.7,0.1l0.2,0.7
		C96.7,134.1,96.5,134.2,96.4,134.3 M94.4,134.8h-0.3l-0.2,2l0.4,0.1c0.3,0,0.9,0.2,1.1,0.5l-0.4,0.7c-0.5,0.1-1.1-0.6-1.1-0.6
		l-0.3-0.3l-1.5,1.3l0.3,0.3c0,0,0.5,0.6,0.4,1.1l-0.7,0.3c-0.4-0.4-0.3-1.1-0.3-1.2v-0.3l-2.1-0.2v0.4c0,0-0.1,0.8-0.5,1.1
		l-0.7-0.3c0-0.3,0.4-0.9,0.7-1.1l0.3-0.3l-1.3-1.5l-0.3,0.2c-0.3,0.2-0.8,0.5-1.1,0.5l-0.3-0.8c0.3-0.3,0.9-0.3,1.2-0.3h0.3
		l0.2-2.1l-0.3-0.1c-0.3,0-0.9-0.1-1.1-0.5L87,133c0.4,0,0.9,0.4,1.1,0.6l0.3,0.3l1.5-1.4l-0.3-0.3c-0.1-0.2-0.5-0.7-0.5-1.1
		l0.9-0.3c0.3,0.3,0.3,0.9,0.3,1.1l-0.1,0.3l2.1,0.2l0.1-0.4c0-0.3,0.1-0.9,0.5-1.1l0.7,0.3c0,0.4-0.5,0.9-0.6,1.1l-0.3,0.3l1.3,1.5
		l0.3-0.2c0.2-0.1,0.7-0.5,1.1-0.4l0.2,0.7C95.4,134.7,94.8,134.8,94.4,134.8 M103.2,133.9c-0.7,0.1-1.3-0.3-1.3-0.3l-0.3-0.3
		l-1.3,1.5l0.3,0.3c0,0,0.6,0.6,0.5,1.3l-0.8,0.3c-0.5-0.4-0.3-1.3-0.3-1.3l0.1-0.3l-1.6-0.3l-0.4-0.1L98,135c0,0-0.1,0.7-0.9,1
		l-0.5-0.5c0.1-0.5,0.7-0.8,0.9-0.9l0.3-0.1l-0.5-1.8l-0.3,0.1c0,0-0.8,0.1-1.3-0.2l0.1-0.8c0.8-0.1,1.2,0.3,1.2,0.3l0.3,0.3
		l1.3-1.5l-0.2-0.3c0,0-0.6-0.7-0.5-1.3l0.8-0.3c0.5,0.4,0.3,1.3,0.3,1.3l-0.1,0.3l1.6,0.3l0.4,0.1l0.1-0.4c0,0,0.1-0.6,0.8-1
		l0.6,0.5c-0.2,0.5-0.7,0.8-0.9,0.9l-0.3,0.1l0.6,1.8l0.3-0.1c0.3-0.1,0.9-0.1,1.3,0.2L103.2,133.9L103.2,133.9z"/>
	<path class="st0" d="M110.2,117.9l-5.7,4.3v-3.8l-6.1,3.8v-2.8l-5.9,3.6v1.1l5.1-3.1v2.7l6.1-3.9v3.9l7.7-5.7l-0.7-0.9h2.4v2.7
		l-0.9-1l-9.5,7.5v-3.9l-5.8,3.7v-2.5l-5.3,3.4v1.1l4.6-2.9v2.5l5.8-3.7v4.1l10.3-8.1l1.7,1.9v-5.3h-4.9L110.2,117.9L110.2,117.9z
		 M101.6,112.3v3.1l5.6-3.3v3.3l5.1-3.5l-0.7-0.9h2.4v2.5l-1-1l-6.9,5.1v-3.4l-6.1,3.8v-2.7l-5.7,3.3v1.1l4.9-2.9v2.7l6.1-3.8v3.4
		l7.7-5.7l1.7,1.9v-5.2h-4.7l1.1,1.4l-3.2,2.3v-3.3l-5.6,3.3v-3.1l-6.5,3.5v1.1L101.6,112.3L101.6,112.3z"/>
	<path class="st0" d="M82.7,116.9c0.3,0.2,0.5,0.3,0.9,0.4c0.5-0.1,0.7-0.2,0.9-0.4v-9.7h5v-2h-5v-4.5h-1.9v4.5h-5v2h5V116.9
		L82.7,116.9z M85.3,117.5c-0.4,0.3-1.1,0.7-1.7,0.7c-0.5-0.1-1.3-0.5-1.7-0.7V108h-5.1v-3.5h5.1v-4.6h3.4v4.6h5.1v3.5h-5.1
		L85.3,117.5L85.3,117.5z"/>
	<polygon class="st0" points="83.4,121.9 83.4,122.3 81.8,122.3 81.8,120.3 83.4,120.3 83.4,120.7 82.2,120.7 82.2,121.1 
		83.2,121.1 83.2,121.5 82.2,121.5 82.2,121.9 	"/>
	<polygon class="st0" points="85.6,120.7 84.9,120.7 84.9,122.3 84.4,122.3 84.4,120.7 83.8,120.7 83.8,120.3 85.6,120.3 	"/>
	<polygon class="st0" points="88.8,120 89,120.3 88,121.3 86.5,119.9 86.9,119.5 88,120.7 	"/>
	<path class="st0" d="M90.5,118.4c-0.2-0.1-0.4-0.1-0.5-0.1l-0.5,0.8c0.1,0.1,0.2,0.3,0.3,0.5l-0.3,0.4c-0.8-1.2-1.1-1.9-1.1-1.9
		l0.3-0.5c0,0,0.8,0.1,2.2,0.5L90.5,118.4L90.5,118.4z M89.5,118.2c-0.5-0.1-0.8-0.1-0.8-0.1s0.1,0.3,0.4,0.7L89.5,118.2L89.5,118.2
		z"/>
	<path class="st0" d="M91.2,115.6c0.4,0.2,0.4,0.5,0.3,0.9l-0.5,1.1l-1.9-0.9l0.4-0.9c0.2-0.4,0.5-0.5,0.8-0.4
		c0.2,0.1,0.3,0.3,0.3,0.4C90.6,115.6,90.9,115.5,91.2,115.6 M89.6,116.5l0.4,0.2l0.2-0.5c0.1-0.2,0.1-0.3-0.1-0.3
		c-0.1-0.1-0.3,0-0.3,0.2L89.6,116.5L89.6,116.5z M91,116.4c0.1-0.2,0.1-0.3-0.1-0.4c-0.1-0.1-0.3,0-0.3,0.2l-0.3,0.6l0.4,0.2
		L91,116.4L91,116.4z"/>
	<path class="st0" d="M90.2,113.7c0.1-0.7,0.6-1,1.3-0.9s0.9,0.7,0.8,1.3s-0.6,1-1.3,0.9S90,114.4,90.2,113.7 M91.8,114.1
		c0.1-0.4-0.1-0.7-0.5-0.8c-0.4-0.1-0.7,0.1-0.7,0.5c-0.1,0.4,0.1,0.7,0.5,0.8C91.4,114.7,91.7,114.5,91.8,114.1"/>
	<path class="st0" d="M92.6,111.2c-0.2,0.1-0.5,0.2-0.6,0.3v0.1l-0.1,0.5l0.6,0.1v0.5l-2.1-0.1l0.1-1c0.1-0.5,0.3-0.8,0.8-0.8
		c0.3,0,0.5,0.1,0.6,0.4c0.2-0.1,0.5-0.3,0.7-0.4L92.6,111.2L92.6,111.2z M91.5,112l0.1-0.5c0-0.3-0.1-0.4-0.3-0.4s-0.3,0.1-0.3,0.4
		l-0.1,0.5H91.5L91.5,112z"/>
	<polygon class="st0" points="76.6,111.9 76.1,111.9 76.2,112.9 75.8,112.9 75.7,111.9 74.9,112 74.9,111.5 77,111.4 77.1,113 
		76.6,113.1 	"/>
	<polygon class="st0" points="77.3,113.9 75.2,114.3 75.2,113.8 77.2,113.4 	"/>
	<path class="st0" d="M77.7,115.3c0.3,0.7,0.1,1.2-0.5,1.5c-0.6,0.3-1.1,0-1.4-0.7l-0.3-0.8l1.9-0.7L77.7,115.3L77.7,115.3z
		 M76.2,115.9c0.1,0.4,0.4,0.5,0.8,0.4c0.4-0.1,0.5-0.4,0.3-0.8l-0.1-0.4l-1.1,0.4L76.2,115.9L76.2,115.9z"/>
	<polygon class="st0" points="77.9,119.1 77.5,119.3 76.6,117.9 78.4,116.9 79.2,118.2 78.9,118.4 78.3,117.5 77.9,117.7 
		78.4,118.5 78.1,118.7 77.6,117.9 77.2,118.1 	"/>
	<path class="st0" d="M79.7,119.9c0,0,0.1,0,0.1-0.1c0.1-0.1,0.1-0.2-0.1-0.5c-0.2-0.2-0.3-0.3-0.5-0.1c-0.3,0.3,0.8,1.1,0.3,1.6
		c-0.3,0.3-0.7,0.2-1.1-0.3c-0.5-0.5-0.4-0.9-0.1-1.1c0,0,0.1,0.1,0.3,0.3c-0.2,0.1-0.1,0.3,0.1,0.6c0.2,0.3,0.3,0.3,0.5,0.1
		c0.3-0.3-0.9-1-0.2-1.6c0.3-0.3,0.6-0.2,1,0.3c0.5,0.5,0.4,0.8,0.2,1c-0.1,0.1-0.2,0.1-0.2,0.1L79.7,119.9L79.7,119.9z"/>
</g>
</svg>
