<?xml version="1.0" encoding="utf-8"?>
<!-- Generator: Adobe Illustrator 21.0.0, SVG Export Plug-In . SVG Version: 6.00 Build 0)  -->
<svg version="1.1" id="Capa_1" xmlns="http://www.w3.org/2000/svg" xmlns:xlink="http://www.w3.org/1999/xlink" x="0px" y="0px"
	 viewBox="0 0 418.5 144.3" style="enable-background:new 0 0 418.5 144.3;" xml:space="preserve">
<style type="text/css">
	.st0{fill:#6C6E6C;}
	.st1{fill:#C06025;}
	.st2{fill:#717175;}
</style>
<g id="XMLID_9_">
	<g id="XMLID_79_">
		<path id="XMLID_112_" class="st0" d="M24.1,83.3V23.8H27v59.5H24.1z"/>
		<path id="XMLID_110_" class="st0" d="M44.9,39.5c1.6,0,3.2,0.3,4.6,0.9c1.4,0.6,2.7,1.5,3.7,2.5c1.1,1,1.9,2.3,2.5,3.7
			c0.6,1.4,0.9,3,0.9,4.6v10.3v21.7h-2.9V61.6V51.3c0-1.2-0.2-2.4-0.7-3.5c-0.5-1.1-1.1-2-1.9-2.8c-0.8-0.8-1.7-1.4-2.8-1.9
			c-1.1-0.5-2.2-0.7-3.5-0.7c-1.2,0-2.4,0.2-3.5,0.7c-1.1,0.5-2,1.1-2.8,1.9c-0.8,0.8-1.4,1.7-1.9,2.8c-0.5,1.1-0.7,2.2-0.7,3.5
			v10.3v21.7h-2.9V61.6V51.3V39.9H36v3.6c1.1-1.3,2.4-2.3,4-3C41.5,39.9,43.2,39.5,44.9,39.5z"/>
		<path id="XMLID_102_" class="st0" d="M86.4,39.9v11.3V72v20c0,1.6-0.3,3.2-0.9,4.6c-0.6,1.4-1.4,2.7-2.5,3.7
			c-1.1,1.1-2.3,1.9-3.7,2.5c-1.4,0.6-3,0.9-4.6,0.9c-1.6,0-3.2-0.3-4.6-0.9c-1.4-0.6-2.7-1.5-3.7-2.5c-1.1-1-1.9-2.3-2.5-3.7
			c-0.6-1.4-0.9-3-0.9-4.6h2.9c0,1.2,0.2,2.4,0.7,3.4c0.5,1.1,1.1,2,1.9,2.8c0.8,0.8,1.7,1.5,2.8,1.9c1.1,0.5,2.2,0.7,3.5,0.7
			c1.2,0,2.4-0.2,3.5-0.7c1.1-0.5,2-1.1,2.8-1.9c0.8-0.8,1.4-1.8,1.9-2.8c0.5-1.1,0.7-2.2,0.7-3.4V79.7c-1.1,1.2-2.4,2.2-4,2.9
			c-1.5,0.7-3.2,1.1-4.9,1.1c-1.6,0-3.2-0.3-4.6-0.9c-1.4-0.6-2.7-1.4-3.7-2.5c-1.1-1.1-1.9-2.3-2.5-3.7c-0.6-1.4-0.9-3-0.9-4.6
			V51.3c0-1.6,0.3-3.2,0.9-4.6c0.6-1.4,1.4-2.7,2.5-3.7c1.1-1.1,2.3-1.9,3.7-2.5c1.4-0.6,3-0.9,4.6-0.9c1.8,0,3.4,0.4,4.9,1.1
			c1.5,0.7,2.8,1.7,4,3v-3.6H86.4z M74.7,80.8c1.2,0,2.4-0.2,3.5-0.7c1.1-0.5,2-1.1,2.8-1.9c0.8-0.8,1.4-1.7,1.9-2.8
			c0.5-1.1,0.7-2.2,0.7-3.5V51.3c0-1.2-0.2-2.4-0.7-3.5c-0.5-1.1-1.1-2-1.9-2.8c-0.8-0.8-1.7-1.4-2.8-1.9c-1.1-0.5-2.2-0.7-3.5-0.7
			c-1.2,0-2.4,0.2-3.5,0.7c-1.1,0.5-2,1.1-2.8,1.9c-0.8,0.8-1.4,1.7-1.9,2.8c-0.5,1.1-0.7,2.2-0.7,3.5V72c0,1.2,0.2,2.4,0.7,3.5
			c0.5,1.1,1.1,2,1.9,2.8c0.8,0.8,1.7,1.4,2.8,1.9C72.3,80.6,73.4,80.8,74.7,80.8z"/>
		<path id="XMLID_98_" class="st0" d="M110.4,59.2c-0.5,0.2-1.4,0.5-2.6,1c-1.2,0.5-2.6,1-4,1.5c-1.4,0.5-2.8,1.1-4.2,1.6
			c-1.3,0.5-2.4,0.9-3.2,1.1V72c0,1.2,0.2,2.4,0.7,3.5c0.5,1.1,1.1,2,1.9,2.8c0.8,0.8,1.7,1.4,2.8,1.9c1.1,0.5,2.2,0.7,3.5,0.7
			c1.2,0,2.4-0.2,3.5-0.7c1.1-0.5,2-1.1,2.8-1.9c0.8-0.8,1.4-1.7,1.9-2.8c0.5-1.1,0.7-2.2,0.7-3.5h2.9c0,1.6-0.3,3.2-0.9,4.6
			c-0.6,1.4-1.4,2.7-2.5,3.7c-1,1.1-2.3,1.9-3.7,2.5c-1.4,0.6-3,0.9-4.6,0.9c-1.6,0-3.2-0.3-4.6-0.9c-1.4-0.6-2.7-1.4-3.7-2.5
			c-1.1-1.1-1.9-2.3-2.5-3.7c-0.6-1.4-0.9-3-0.9-4.6V51.3c0-1.6,0.3-3.2,0.9-4.6c0.6-1.4,1.4-2.7,2.5-3.7c1-1.1,2.3-1.9,3.7-2.5
			c1.4-0.6,3-0.9,4.6-0.9c1.6,0,3.2,0.3,4.6,0.9c1.4,0.6,2.7,1.5,3.7,2.5c1.1,1,1.9,2.3,2.5,3.7c0.6,1.4,0.9,3,0.9,4.5v0.1
			C117.1,54.9,114.8,57.6,110.4,59.2z M105.3,42.4c-1.2,0-2.4,0.2-3.5,0.7c-1.1,0.5-2,1.1-2.8,1.9c-0.8,0.8-1.4,1.7-1.9,2.8
			c-0.5,1.1-0.7,2.2-0.7,3.5v10.1c0.9-0.3,2-0.8,3.3-1.3c1.3-0.5,2.6-1,3.9-1.4c1.3-0.5,2.5-0.9,3.6-1.3c1.1-0.4,1.9-0.7,2.3-0.9
			c1.1-0.4,2.1-1,3.2-1.9c1-0.8,1.6-2,1.6-3.4c0-1.2-0.2-2.4-0.7-3.4c-0.5-1.1-1.1-2-1.9-2.8c-0.8-0.8-1.7-1.4-2.8-1.9
			C107.7,42.6,106.5,42.4,105.3,42.4z"/>
		<path id="XMLID_96_" class="st0" d="M135,39.5c1.6,0,3.2,0.3,4.6,0.9c1.4,0.6,2.7,1.5,3.7,2.5c1,1,1.9,2.3,2.5,3.7
			c0.6,1.4,0.9,3,0.9,4.6v10.3v21.7h-2.9V61.6V51.3c0-1.2-0.2-2.4-0.7-3.5c-0.5-1.1-1.1-2-1.9-2.8c-0.8-0.8-1.7-1.4-2.8-1.9
			c-1.1-0.5-2.2-0.7-3.5-0.7c-1.2,0-2.4,0.2-3.5,0.7c-1.1,0.5-2,1.1-2.8,1.9c-0.8,0.8-1.4,1.7-1.9,2.8c-0.5,1.1-0.7,2.2-0.7,3.5
			v10.3v21.7h-2.9V61.6V51.3V39.9h2.9v3.6c1.1-1.3,2.4-2.3,4-3C131.6,39.9,133.2,39.5,135,39.5z"/>
		<path id="XMLID_93_" class="st0" d="M155.9,39.2h2.9v3v40.5h-2.9V42.2H153v-3H155.9z M156.6,29.2c-0.6,0-1.2-0.2-1.6-0.6
			c-0.4-0.4-0.6-0.9-0.6-1.6c0-0.6,0.2-1.2,0.6-1.6c0.4-0.4,0.9-0.6,1.6-0.6c0.6,0,1.1,0.2,1.5,0.6c0.4,0.4,0.7,0.9,0.7,1.6
			c0,0.7-0.2,1.2-0.7,1.6C157.7,29,157.2,29.2,156.6,29.2z"/>
		<path id="XMLID_89_" class="st0" d="M183.2,59.2c-0.5,0.2-1.4,0.5-2.6,1c-1.2,0.5-2.6,1-4,1.5c-1.4,0.5-2.8,1.1-4.2,1.6
			c-1.3,0.5-2.4,0.9-3.2,1.1V72c0,1.2,0.2,2.4,0.7,3.5c0.5,1.1,1.1,2,1.9,2.8c0.8,0.8,1.7,1.4,2.8,1.9c1.1,0.5,2.2,0.7,3.5,0.7
			c1.2,0,2.4-0.2,3.5-0.7c1.1-0.5,2-1.1,2.8-1.9c0.8-0.8,1.4-1.7,1.9-2.8c0.5-1.1,0.7-2.2,0.7-3.5h2.9c0,1.6-0.3,3.2-0.9,4.6
			c-0.6,1.4-1.5,2.7-2.5,3.7c-1.1,1.1-2.3,1.9-3.7,2.5c-1.4,0.6-3,0.9-4.6,0.9c-1.6,0-3.2-0.3-4.6-0.9c-1.4-0.6-2.7-1.4-3.7-2.5
			c-1-1.1-1.9-2.3-2.5-3.7c-0.6-1.4-0.9-3-0.9-4.6V51.3c0-1.6,0.3-3.2,0.9-4.6c0.6-1.4,1.5-2.7,2.5-3.7c1.1-1.1,2.3-1.9,3.7-2.5
			c1.4-0.6,3-0.9,4.6-0.9c1.6,0,3.2,0.3,4.6,0.9c1.4,0.6,2.7,1.5,3.7,2.5c1,1,1.9,2.3,2.5,3.7c0.6,1.4,0.9,3,0.9,4.5v0.1
			C189.9,54.9,187.7,57.6,183.2,59.2z M178.1,42.4c-1.2,0-2.4,0.2-3.5,0.7c-1.1,0.5-2,1.1-2.8,1.9c-0.8,0.8-1.4,1.7-1.9,2.8
			c-0.5,1.1-0.7,2.2-0.7,3.5v10.1c0.9-0.3,2-0.8,3.3-1.3c1.3-0.5,2.6-1,3.9-1.4c1.3-0.5,2.5-0.9,3.6-1.3c1.1-0.4,1.9-0.7,2.3-0.9
			c1.1-0.4,2.1-1,3.2-1.9c1.1-0.8,1.6-2,1.6-3.4c0-1.2-0.2-2.4-0.7-3.4c-0.5-1.1-1.1-2-1.9-2.8c-0.8-0.8-1.7-1.4-2.8-1.9
			C180.5,42.6,179.3,42.4,178.1,42.4z"/>
		<path id="XMLID_87_" class="st0" d="M212,39.5v2.9h-3.4c-1.2,0-2.4,0.2-3.4,0.7c-1.1,0.5-2,1.1-2.8,1.9c-0.8,0.8-1.5,1.7-1.9,2.8
			c-0.5,1.1-0.7,2.2-0.7,3.5v10.3v21.7h-2.9V61.6V51.3v-8.4h-2.9v-2.9h2.9h2.9v2.9v0.7c2.2-2.6,5.1-3.9,8.6-4H212z"/>
		<path id="XMLID_84_" class="st0" d="M219.2,34.6l9-10l1.7,1.8l-8.9,10.1L219.2,34.6z M218.1,39.2h2.9h2.9v3v40.5H221V42.2h-2.9
			V39.2z"/>
		<path id="XMLID_80_" class="st0" d="M244,39.5c1.6,0,3.1,0.3,4.5,0.9c1.3,0.6,2.5,1.5,3.5,2.5c1,1,1.7,2.3,2.3,3.7
			c0.6,1.4,0.8,3,0.8,4.6v10.3V72v11.3h-2.9v-3.6c-1.1,1.2-2.4,2.2-4,2.9c-1.5,0.7-3.2,1.1-4.9,1.1c-1.6,0-3.2-0.3-4.6-0.9
			c-1.4-0.6-2.7-1.4-3.7-2.5c-1.1-1.1-1.9-2.3-2.5-3.7c-0.6-1.4-0.9-3-0.9-4.6v-2.5c0-3.6,2.2-6.3,6.7-7.9c0.5-0.2,1.4-0.6,2.7-1.1
			c1.3-0.5,2.6-1,4.1-1.5c1.4-0.6,2.8-1.1,4.2-1.6c1.3-0.5,2.4-0.9,3.1-1.2v-4.9c0-2.5-0.8-4.6-2.2-6.3c-1.5-1.7-3.5-2.6-5.9-2.6
			c-1.2,0-2.4,0.2-3.4,0.7c-1.1,0.5-2,1.1-2.8,1.9c-0.8,0.8-1.5,1.7-1.9,2.8c-0.5,1.1-0.7,2.2-0.7,3.5h-2.9c0-1.6,0.3-3.2,0.9-4.6
			c0.6-1.4,1.4-2.7,2.5-3.7c1.1-1.1,2.3-1.9,3.7-2.5C240.8,39.8,242.4,39.5,244,39.5z M252.2,61.6v-2.2c-0.9,0.4-2,0.8-3.3,1.2
			c-1.3,0.5-2.6,1-3.9,1.4c-1.3,0.5-2.5,1-3.5,1.4c-1.1,0.4-1.8,0.7-2.3,0.9c-1.1,0.4-2.2,1-3.3,1.8c-1.1,0.8-1.6,1.9-1.6,3.3V72
			c0,1.2,0.2,2.4,0.7,3.5c0.5,1.1,1.1,2,1.9,2.8c0.8,0.8,1.7,1.4,2.8,1.9c1.1,0.5,2.2,0.7,3.5,0.7c1.2,0,2.4-0.2,3.5-0.7
			c1.1-0.5,2-1.1,2.8-1.9c0.8-0.8,1.4-1.7,1.9-2.8c0.5-1.1,0.7-2.2,0.7-3.5V61.6z"/>
	</g>
	<path id="XMLID_77_" class="st1" d="M277.8,80.4h22.5v2.9h-22.5h-1.4h-1.5V71c0-2.3,0.4-4.4,1.1-6.3c0.7-1.9,1.6-3.5,2.8-5
		c1.1-1.5,2.4-2.9,3.9-4.1c1.4-1.3,2.9-2.5,4.4-3.7c1.4-1.1,2.7-2.1,3.9-3.2c1.3-1.1,2.4-2.2,3.3-3.5c1-1.2,1.7-2.6,2.3-4
		c0.6-1.4,0.9-3.1,0.9-5c0-1.4-0.3-2.6-0.8-3.8c-0.5-1.2-1.2-2.2-2.1-3.1c-0.9-0.9-1.9-1.6-3.1-2.1c-1.2-0.5-2.4-0.8-3.8-0.8
		c-1.4,0-2.6,0.3-3.8,0.8c-1.2,0.5-2.2,1.2-3.1,2.1c-0.9,0.9-1.6,1.9-2.1,3.1c-0.5,1.2-0.8,2.4-0.8,3.8h-2.9c0-1.8,0.3-3.4,1-5
		c0.7-1.5,1.6-2.9,2.7-4c1.2-1.1,2.5-2,4.1-2.7c1.6-0.7,3.2-1,5-1c1.8,0,3.4,0.3,4.9,1c1.5,0.7,2.9,1.6,4,2.7c1.1,1.1,2,2.5,2.7,4.1
		c0.7,1.6,1,3.2,1,5c0,2.2-0.3,4.2-1,5.9c-0.7,1.7-1.6,3.2-2.6,4.7c-1.1,1.4-2.3,2.7-3.7,3.9c-1.4,1.2-2.8,2.4-4.2,3.5
		c-1.4,1.1-2.8,2.2-4.1,3.4c-1.3,1.1-2.5,2.4-3.5,3.7c-1,1.3-1.8,2.8-2.5,4.4c-0.6,1.6-0.9,3.4-0.9,5.4V80.4z"/>
	<path id="XMLID_74_" class="st1" d="M319.2,83.7c-1.8,0-3.4-0.3-5-1c-1.6-0.7-2.9-1.6-4.1-2.7c-1.1-1.1-2.1-2.5-2.7-4
		c-0.7-1.5-1-3.2-1-5V36.2c0-1.8,0.3-3.4,1-5c0.7-1.5,1.6-2.9,2.7-4.1c1.1-1.1,2.5-2,4.1-2.7c1.5-0.7,3.2-1,5-1c1.8,0,3.4,0.3,4.9,1
		c1.5,0.7,2.9,1.6,4,2.7c1.1,1.1,2.1,2.5,2.7,4.1c0.7,1.6,1,3.2,1,5V71c0,1.8-0.3,3.4-1,5c-0.7,1.5-1.6,2.9-2.7,4
		c-1.1,1.1-2.5,2.1-4,2.7C322.6,83.4,321,83.7,319.2,83.7z M319.2,26.4c-1.3,0-2.6,0.3-3.8,0.8c-1.2,0.5-2.2,1.2-3.1,2.1
		c-0.9,0.9-1.6,1.9-2.1,3.1c-0.5,1.2-0.8,2.4-0.8,3.8V71c0,1.3,0.3,2.6,0.8,3.8c0.5,1.2,1.2,2.2,2.1,3.1c0.9,0.9,1.9,1.6,3.1,2.1
		c1.2,0.5,2.5,0.8,3.8,0.8c1.4,0,2.6-0.3,3.8-0.8c1.2-0.5,2.2-1.2,3.1-2.1c0.9-0.9,1.6-1.9,2.1-3.1c0.5-1.2,0.8-2.5,0.8-3.8V36.2
		c0-1.4-0.3-2.6-0.8-3.8c-0.5-1.2-1.2-2.2-2.1-3.1c-0.9-0.9-1.9-1.6-3.1-2.1C321.8,26.7,320.6,26.4,319.2,26.4z"/>
	<path id="XMLID_72_" class="st1" d="M361.6,49.1c-1.2,2-2.9,3.5-4.9,4.7c2.1,1.1,3.7,2.6,4.9,4.6c1.2,2,1.8,4.2,1.8,6.7v6
		c0,1.8-0.3,3.4-1,5c-0.7,1.5-1.6,2.9-2.7,4c-1.1,1.1-2.5,2.1-4,2.7c-1.5,0.7-3.2,1-4.9,1c-1.8,0-3.4-0.3-5-1
		c-1.6-0.7-2.9-1.6-4-2.7c-1.2-1.1-2.1-2.5-2.7-4c-0.7-1.5-1-3.2-1-5h2.9c0,1.3,0.3,2.6,0.8,3.8c0.5,1.2,1.2,2.2,2.1,3.1
		c0.9,0.9,1.9,1.6,3.1,2.1c1.2,0.5,2.5,0.8,3.8,0.8c1.3,0,2.6-0.3,3.8-0.8c1.2-0.5,2.2-1.2,3.1-2.1c0.9-0.9,1.6-1.9,2.1-3.1
		c0.5-1.2,0.8-2.5,0.8-3.8v-6c0-1.3-0.3-2.6-0.8-3.8c-0.5-1.2-1.2-2.2-2.1-3.1c-0.9-0.9-1.9-1.6-3.1-2.1c-1.2-0.5-2.4-0.8-3.8-0.8
		h-3.2v-2.9h3.2c1.3,0,2.6-0.3,3.8-0.8c1.2-0.5,2.2-1.2,3.1-2.1c0.9-0.9,1.6-1.9,2.1-3.1c0.5-1.2,0.8-2.5,0.8-3.8v-6.1
		c0-1.3-0.3-2.6-0.8-3.8c-0.5-1.2-1.2-2.2-2.1-3.1c-0.9-0.9-1.9-1.6-3.1-2.1c-1.2-0.5-2.4-0.8-3.8-0.8c-1.3,0-2.6,0.3-3.8,0.8
		c-1.2,0.5-2.2,1.2-3.1,2.1c-0.9,0.9-1.6,1.9-2.1,3.1c-0.5,1.2-0.8,2.5-0.8,3.8H338c0-1.8,0.3-3.4,1-5c0.7-1.5,1.6-2.9,2.7-4.1
		c1.1-1.2,2.5-2.1,4-2.7c1.5-0.7,3.2-1,5-1c1.8,0,3.4,0.3,4.9,1c1.5,0.7,2.9,1.6,4,2.8c1.1,1.2,2.1,2.5,2.7,4.1c0.7,1.5,1,3.2,1,5
		v6.1C363.5,44.9,362.8,47.1,361.6,49.1z"/>
	<path id="XMLID_68_" class="st1" d="M382.4,83.7c-1.8,0-3.4-0.3-5-1c-1.6-0.7-2.9-1.6-4-2.7c-1.1-1.1-2.1-2.5-2.7-4
		c-0.7-1.5-1-3.2-1-5V36.2c0-1.8,0.3-3.4,1-5c0.7-1.5,1.6-2.9,2.7-4.1c1.1-1.1,2.5-2,4-2.7c1.6-0.7,3.2-1,5-1c1.8,0,3.4,0.3,4.9,1
		c1.5,0.7,2.9,1.6,4,2.7c1.1,1.1,2.1,2.5,2.7,4.1c0.7,1.6,1,3.2,1,5V71c0,1.8-0.3,3.4-1,5c-0.7,1.5-1.6,2.9-2.7,4
		c-1.1,1.1-2.5,2.1-4,2.7C385.8,83.4,384.1,83.7,382.4,83.7z M382.4,26.4c-1.4,0-2.6,0.3-3.8,0.8c-1.2,0.5-2.2,1.2-3.1,2.1
		c-0.9,0.9-1.6,1.9-2.1,3.1c-0.5,1.2-0.8,2.4-0.8,3.8V71c0,1.3,0.3,2.6,0.8,3.8c0.5,1.2,1.2,2.2,2.1,3.1c0.9,0.9,1.9,1.6,3.1,2.1
		c1.2,0.5,2.5,0.8,3.8,0.8c1.3,0,2.6-0.3,3.8-0.8c1.2-0.5,2.2-1.2,3.1-2.1c0.9-0.9,1.6-1.9,2.1-3.1c0.5-1.2,0.8-2.5,0.8-3.8V36.2
		c0-1.4-0.3-2.6-0.8-3.8c-0.5-1.2-1.2-2.2-2.1-3.1c-0.9-0.9-1.9-1.6-3.1-2.1C385,26.7,383.7,26.4,382.4,26.4z"/>
	<path id="XMLID_65_" class="st2" d="M91.9,115.5v-13.7h3.5c1.5,0,2.6,0.3,3.3,0.9c0.7,0.6,1,1.6,1,2.9c0,1.4-0.4,2.4-1.1,3.1
		c-0.7,0.7-1.8,1-3.2,1h-2.1v5.8H91.9z M93.5,108.4h2c0.9,0,1.6-0.2,2.1-0.7c0.4-0.4,0.7-1.1,0.7-2.1c0-0.9-0.2-1.5-0.7-1.9
		c-0.4-0.4-1.2-0.6-2.1-0.6h-1.9V108.4z"/>
	<path id="XMLID_63_" class="st2" d="M101.6,101.8h1.5v9.2c0,1.3,0.2,2.2,0.6,2.7c0.4,0.5,1,0.8,1.9,0.8c0.9,0,1.6-0.3,2-0.8
		c0.4-0.6,0.6-1.4,0.6-2.6v-9.2h1.5v9c0,1.2-0.1,2-0.2,2.5c-0.1,0.5-0.3,0.9-0.7,1.3c-0.4,0.4-0.8,0.8-1.4,1
		c-0.6,0.2-1.2,0.3-1.9,0.3c-0.7,0-1.4-0.1-1.9-0.4c-0.6-0.3-1-0.6-1.4-1.1c-0.2-0.3-0.4-0.7-0.5-1.2c-0.1-0.5-0.1-1.3-0.1-2.5
		V101.8z"/>
	<path id="XMLID_61_" class="st2" d="M118.7,110.5h1.5c0,1.7-0.4,3.1-1.1,4c-0.7,0.9-1.7,1.4-3.1,1.4c-1.4,0-2.5-0.6-3.1-1.8
		c-0.7-1.2-1-3-1-5.4c0-2.5,0.3-4.4,1-5.5c0.7-1.1,1.8-1.7,3.3-1.7c1.3,0,2.2,0.4,2.9,1.1c0.7,0.7,1,1.8,1,3.1v0.2h-1.5
		c0-0.9-0.2-1.7-0.7-2.2c-0.4-0.5-1-0.8-1.8-0.8c-0.9,0-1.6,0.5-2,1.4c-0.4,0.9-0.6,2.4-0.6,4.5c0,2.1,0.2,3.5,0.6,4.4
		c0.4,0.9,1.1,1.3,2.1,1.3c0.8,0,1.4-0.3,1.8-1c0.4-0.6,0.6-1.5,0.6-2.7V110.5z"/>
	<path id="XMLID_58_" class="st2" d="M125.1,115.5l-3.8-13.7h1.7l3.1,11.8l3.2-11.8h1.5l-3.8,13.7H125.1z"/>
	<path id="XMLID_56_" class="st1" d="M140.6,101.6v18.3h-1.3v-18.3H140.6z"/>
	<path id="XMLID_54_" class="st2" d="M150.3,101.8h1.5v9.2c0,1.3,0.2,2.2,0.5,2.7c0.4,0.5,1,0.8,1.9,0.8c0.9,0,1.5-0.3,2-0.8
		c0.4-0.6,0.6-1.4,0.6-2.6v-9.2h1.5v9c0,1.2-0.1,2-0.2,2.5c-0.1,0.5-0.4,0.9-0.7,1.3c-0.4,0.4-0.8,0.8-1.4,1
		c-0.5,0.2-1.2,0.3-1.9,0.3c-0.7,0-1.4-0.1-1.9-0.4c-0.6-0.3-1-0.6-1.4-1.1c-0.2-0.3-0.4-0.7-0.5-1.2c-0.1-0.5-0.1-1.3-0.1-2.5
		V101.8z"/>
	<path id="XMLID_51_" class="st2" d="M167.3,115.5h-1.4v-1.3c-0.1,0.5-0.4,0.8-0.8,1.1c-0.4,0.3-0.9,0.4-1.4,0.4
		c-1.1,0-1.9-0.5-2.4-1.5c-0.6-1-0.8-2.4-0.8-4.2c0-1.6,0.3-2.8,0.8-3.7c0.6-0.9,1.3-1.3,2.3-1.3c0.5,0,1,0.1,1.4,0.4
		c0.4,0.2,0.7,0.6,0.8,0.9v-4.5h1.4V115.5z M165.9,110.3c0-1.5-0.1-2.5-0.4-3.1c-0.3-0.6-0.8-0.9-1.5-0.9c-0.7,0-1.2,0.3-1.5,1
		c-0.3,0.6-0.5,1.6-0.5,3c0,1.5,0.2,2.6,0.5,3.2c0.3,0.7,0.8,1,1.5,1c0.7,0,1.2-0.3,1.5-0.9C165.8,112.9,165.9,111.8,165.9,110.3z"
		/>
	<path id="XMLID_48_" class="st2" d="M174.1,112.1h1.4c0,1.2-0.3,2.1-0.8,2.8c-0.5,0.6-1.3,1-2.3,1c-1.1,0-1.9-0.4-2.4-1.3
		c-0.5-0.9-0.8-2.2-0.8-4c0-1.9,0.3-3.3,0.8-4.2c0.5-0.9,1.4-1.3,2.5-1.3c1.1,0,1.9,0.4,2.4,1.1c0.5,0.8,0.8,1.9,0.8,3.5
		c0,0.2,0,0.4,0,0.6c0,0.1,0,0.2,0,0.3l-4.9,0v0.5c0,1.3,0.1,2.2,0.4,2.8c0.3,0.6,0.8,0.9,1.4,0.9c0.5,0,0.9-0.2,1.2-0.7
		C174,113.5,174.1,112.9,174.1,112.1L174.1,112.1z M170.6,109.3h3.5V109c0-0.9-0.1-1.7-0.4-2.1c-0.3-0.5-0.7-0.7-1.3-0.7
		c-0.6,0-1.1,0.3-1.4,0.8C170.8,107.4,170.6,108.2,170.6,109.3z"/>
	<path id="XMLID_46_" class="st2" d="M184.1,110.5h1.5c0,1.7-0.4,3.1-1.1,4c-0.7,0.9-1.7,1.4-3.1,1.4c-1.4,0-2.5-0.6-3.1-1.8
		c-0.7-1.2-1-3-1-5.4c0-2.5,0.3-4.4,1-5.5c0.7-1.1,1.8-1.7,3.3-1.7c1.3,0,2.2,0.4,2.9,1.1c0.7,0.7,1,1.8,1,3.1v0.2H184
		c0-0.9-0.2-1.7-0.7-2.2c-0.4-0.5-1-0.8-1.8-0.8c-0.9,0-1.6,0.5-2,1.4c-0.4,0.9-0.6,2.4-0.6,4.5c0,2.1,0.2,3.5,0.6,4.4
		c0.4,0.9,1.1,1.3,2.1,1.3c0.8,0,1.4-0.3,1.8-1c0.4-0.6,0.6-1.5,0.6-2.7V110.5z"/>
	<path id="XMLID_44_" class="st1" d="M196.5,101.6v18.3h-1.3v-18.3H196.5z"/>
	<path id="XMLID_42_" class="st2" d="M206.2,101.8h1.5v9.2c0,1.3,0.2,2.2,0.5,2.7c0.4,0.5,1,0.8,1.9,0.8c0.9,0,1.6-0.3,2-0.8
		c0.4-0.6,0.6-1.4,0.6-2.6v-9.2h1.5v9c0,1.2-0.1,2-0.2,2.5c-0.1,0.5-0.4,0.9-0.7,1.3c-0.4,0.4-0.8,0.8-1.4,1
		c-0.6,0.2-1.2,0.3-1.9,0.3c-0.7,0-1.4-0.1-1.9-0.4c-0.6-0.3-1-0.6-1.4-1.1c-0.2-0.3-0.4-0.7-0.5-1.2c-0.1-0.5-0.1-1.3-0.1-2.5
		V101.8z"/>
	<path id="XMLID_40_" class="st2" d="M216.4,111.2h1.5v0.5c0,0.9,0.2,1.6,0.6,2.1c0.4,0.5,1.1,0.7,1.9,0.7c0.8,0,1.4-0.2,1.8-0.7
		c0.4-0.5,0.7-1.1,0.7-1.9c0-0.6-0.1-1.1-0.4-1.5c-0.3-0.4-0.9-0.7-1.8-1c-0.2-0.1-0.5-0.2-0.9-0.4c-1.1-0.4-1.8-0.7-2-0.9
		c-0.4-0.3-0.7-0.7-0.9-1.2c-0.2-0.5-0.3-1-0.3-1.6c0-1.2,0.3-2.1,1-2.8c0.7-0.7,1.6-1,2.8-1c1.1,0,2,0.3,2.6,0.9
		c0.6,0.6,1,1.5,1,2.6c0,0,0,0.1,0,0.2c0,0.1,0,0.1,0,0.2h-1.4v-0.1c0-0.8-0.2-1.4-0.6-1.8c-0.4-0.4-0.9-0.6-1.6-0.6
		c-0.7,0-1.3,0.2-1.7,0.6c-0.4,0.4-0.6,0.9-0.6,1.6c0,0.6,0.1,1.1,0.4,1.5c0.3,0.4,0.9,0.7,1.8,1.1c0.1,0,0.3,0.1,0.5,0.2
		c1.4,0.5,2.3,0.9,2.6,1.2c0.3,0.3,0.6,0.7,0.8,1.1c0.2,0.5,0.3,1,0.3,1.6c0,1.3-0.4,2.3-1.1,3c-0.7,0.7-1.7,1.1-3,1.1
		c-1.3,0-2.2-0.4-2.9-1.1c-0.7-0.7-1-1.8-1-3.1c0,0,0-0.1,0-0.2C216.4,111.3,216.4,111.2,216.4,111.2z"/>
	<path id="XMLID_37_" class="st2" d="M225.5,115.5l3.7-13.7h2l3.8,13.7h-1.5l-1-4h-4.4l-1,4H225.5z M228.4,110.2h3.7l-1.8-7.2
		L228.4,110.2z"/>
	<path id="XMLID_35_" class="st2" d="M243,110.5h1.5c0,1.7-0.4,3.1-1.1,4c-0.7,0.9-1.7,1.4-3.1,1.4c-1.4,0-2.5-0.6-3.1-1.8
		c-0.7-1.2-1-3-1-5.4c0-2.5,0.3-4.4,1-5.5c0.7-1.1,1.8-1.7,3.3-1.7c1.3,0,2.2,0.4,2.9,1.1c0.7,0.7,1,1.8,1,3.1v0.2H243
		c0-0.9-0.2-1.7-0.7-2.2c-0.4-0.5-1-0.8-1.8-0.8c-0.9,0-1.6,0.5-2,1.4c-0.4,0.9-0.6,2.4-0.6,4.5c0,2.1,0.2,3.5,0.6,4.4
		c0.4,0.9,1.1,1.3,2.1,1.3c0.8,0,1.4-0.3,1.8-1c0.4-0.6,0.6-1.5,0.6-2.7V110.5z"/>
	<path id="XMLID_32_" class="st2" d="M246.9,115.5v-13.7h1.6v5.7h5.1v-5.7h1.6v13.7h-1.6v-6.7h-5.1v6.7H246.9z"/>
	<g id="XMLID_10_">
		<path id="XMLID_26_" class="st2" d="M283.4,111.4c0,0.6,0,1.2-0.2,1.8c-0.1,0.6-0.4,1.2-0.7,1.7c-0.3,0.5-0.8,0.9-1.3,1.2
			c-0.5,0.3-1.1,0.5-1.8,0.5c-0.7,0-1.3-0.1-1.7-0.4c-0.5-0.3-0.9-0.6-1.2-1c-0.3-0.4-0.5-0.9-0.7-1.4c-0.2-0.5-0.3-1.1-0.4-1.7
			c-0.1-0.6-0.1-1.2-0.1-1.8c0-0.6,0-1.1,0-1.6c0-0.5,0-1,0-1.5c0-0.5,0.1-1.1,0.2-1.6c0.1-0.5,0.2-1,0.4-1.5
			c0.2-0.5,0.4-0.9,0.7-1.3c0.3-0.4,0.7-0.6,1.1-0.9c0.4-0.2,1-0.3,1.6-0.3c0.7,0,1.2,0.1,1.7,0.4c0.5,0.2,0.9,0.6,1.2,1
			c0.3,0.4,0.6,0.9,0.7,1.4c0.2,0.5,0.2,1.1,0.2,1.7h-1.2c0-0.4-0.1-0.8-0.2-1.2c-0.1-0.4-0.3-0.8-0.5-1.1c-0.2-0.3-0.5-0.6-0.8-0.8
			c-0.3-0.2-0.7-0.3-1.2-0.3c-0.5,0-0.9,0.1-1.3,0.3c-0.3,0.2-0.6,0.5-0.8,0.9c-0.2,0.4-0.4,0.8-0.5,1.2c-0.1,0.4-0.2,0.9-0.2,1.4
			c0,0.5-0.1,0.9-0.1,1.4c0,0.4,0,0.8,0,1.1c0,0.4,0,0.8,0,1.2c0,0.5,0,0.9,0.1,1.4c0,0.5,0.1,0.9,0.2,1.4c0.1,0.5,0.3,0.9,0.5,1.2
			c0.2,0.4,0.5,0.6,0.9,0.9c0.4,0.2,0.8,0.3,1.3,0.3c0.5,0,1-0.1,1.3-0.4c0.3-0.3,0.6-0.6,0.8-1c0.2-0.4,0.3-0.8,0.4-1.3
			c0.1-0.5,0.1-0.9,0.1-1.4H283.4z"/>
		<path id="XMLID_19_" class="st2" d="M290.8,116.6c-0.7,0-1.3-0.1-1.7-0.4c-0.5-0.3-0.9-0.6-1.2-1c-0.3-0.4-0.5-0.9-0.7-1.4
			c-0.2-0.5-0.3-1.1-0.4-1.7c-0.1-0.6-0.1-1.2-0.1-1.8c0-0.6,0-1.1,0-1.6c0-0.7,0-1.5,0.1-2.3c0.1-0.8,0.3-1.6,0.5-2.3
			c0.3-0.7,0.7-1.3,1.3-1.7c0.5-0.5,1.3-0.7,2.2-0.7c0.7,0,1.3,0.1,1.8,0.4c0.5,0.2,0.9,0.6,1.2,1c0.3,0.4,0.5,0.9,0.7,1.4
			c0.2,0.5,0.3,1.1,0.4,1.6c0.1,0.6,0.1,1.2,0.2,1.7c0,0.6,0,1.1,0,1.7c0,0.8,0,1.6-0.1,2.4c-0.1,0.8-0.2,1.6-0.5,2.3
			c-0.3,0.7-0.7,1.3-1.3,1.7C292.6,116.3,291.8,116.6,290.8,116.6z M290.9,115.5c0.5,0,0.9-0.1,1.3-0.3c0.3-0.2,0.6-0.5,0.8-0.9
			c0.2-0.4,0.4-0.8,0.5-1.2c0.1-0.5,0.2-0.9,0.2-1.4c0-0.5,0.1-0.9,0.1-1.4c0-0.4,0-0.8,0-1.2c0-0.3,0-0.7,0-1.2
			c0-0.4,0-0.9-0.1-1.4c-0.1-0.5-0.1-0.9-0.3-1.4c-0.1-0.5-0.3-0.9-0.5-1.2c-0.2-0.4-0.5-0.6-0.9-0.9c-0.3-0.2-0.8-0.3-1.3-0.3
			c-0.5,0-0.9,0.1-1.2,0.3c-0.3,0.2-0.6,0.5-0.8,0.8c-0.2,0.3-0.4,0.7-0.5,1.2c-0.1,0.4-0.2,0.9-0.3,1.4c0,0.5-0.1,0.9-0.1,1.4
			c0,0.4,0,0.8,0,1.2c0,0.4,0,0.8,0,1.2c0,0.5,0,0.9,0.1,1.4c0,0.5,0.1,0.9,0.2,1.4c0.1,0.5,0.3,0.9,0.5,1.2
			c0.2,0.4,0.5,0.6,0.9,0.9C290,115.3,290.4,115.5,290.9,115.5z"/>
		<path id="XMLID_16_" class="st2" d="M299.5,109.5v6.7h-1.2V102h2.7c0.6,0,1.2,0,1.8,0.2c0.5,0.1,1,0.3,1.4,0.6
			c0.4,0.3,0.7,0.6,0.9,1.1c0.2,0.5,0.3,1.1,0.3,1.8c0,0.3,0,0.7-0.1,1c-0.1,0.4-0.2,0.7-0.4,1c-0.2,0.3-0.4,0.6-0.6,0.8
			c-0.3,0.2-0.6,0.4-1,0.5v0c0.4,0.1,0.7,0.3,1,0.5c0.3,0.2,0.4,0.5,0.6,0.8c0.1,0.3,0.2,0.6,0.3,1c0,0.4,0.1,0.8,0.1,1.2
			c0,0.2,0,0.4,0,0.8c0,0.4,0,0.7,0.1,1.1c0,0.4,0.1,0.7,0.2,1.1c0.1,0.3,0.2,0.5,0.4,0.6v0.2h-1.3c-0.1-0.3-0.2-0.7-0.3-1.1
			c-0.1-0.4-0.1-0.9-0.2-1.3c0-0.4-0.1-0.9-0.1-1.3c0-0.4,0-0.7,0-1c0-0.5-0.1-0.9-0.3-1.1c-0.2-0.3-0.4-0.5-0.7-0.6
			c-0.3-0.1-0.6-0.2-1-0.2c-0.4,0-0.8-0.1-1.2-0.1H299.5z M299.5,108.4h2.2c0.1,0,0.3,0,0.6-0.1c0.3,0,0.6-0.1,0.8-0.3
			c0.3-0.2,0.5-0.4,0.8-0.8c0.2-0.4,0.3-0.9,0.3-1.5c0-0.5-0.1-0.9-0.2-1.3c-0.1-0.3-0.3-0.6-0.5-0.8c-0.2-0.2-0.5-0.3-0.9-0.4
			c-0.4-0.1-0.8-0.1-1.3-0.1h-1.8V108.4z"/>
		<path id="XMLID_14_" class="st2" d="M308.8,116.2V102h6.5v1.1H310v5.1h4.7v1.1H310v6.9H308.8z"/>
		<path id="XMLID_11_" class="st2" d="M322.1,116.6c-0.7,0-1.3-0.1-1.7-0.4c-0.5-0.3-0.9-0.6-1.2-1c-0.3-0.4-0.5-0.9-0.7-1.4
			c-0.2-0.5-0.3-1.1-0.4-1.7c-0.1-0.6-0.1-1.2-0.1-1.8c0-0.6,0-1.1,0-1.6c0-0.7,0-1.5,0.1-2.3c0.1-0.8,0.3-1.6,0.6-2.3
			c0.3-0.7,0.7-1.3,1.3-1.7c0.6-0.5,1.3-0.7,2.2-0.7c0.7,0,1.3,0.1,1.8,0.4c0.5,0.2,0.9,0.6,1.2,1c0.3,0.4,0.5,0.9,0.7,1.4
			c0.2,0.5,0.3,1.1,0.4,1.6c0.1,0.6,0.1,1.2,0.1,1.7c0,0.6,0,1.1,0,1.7c0,0.8,0,1.6-0.1,2.4c-0.1,0.8-0.2,1.6-0.5,2.3
			c-0.3,0.7-0.7,1.3-1.3,1.7C323.9,116.3,323.1,116.6,322.1,116.6z M322.2,115.5c0.5,0,0.9-0.1,1.3-0.3c0.3-0.2,0.6-0.5,0.8-0.9
			c0.2-0.4,0.4-0.8,0.5-1.2c0.1-0.5,0.2-0.9,0.2-1.4c0-0.5,0.1-0.9,0.1-1.4c0-0.4,0-0.8,0-1.2c0-0.3,0-0.7,0-1.2
			c0-0.4,0-0.9-0.1-1.4c-0.1-0.5-0.1-0.9-0.3-1.4c-0.1-0.5-0.3-0.9-0.5-1.2c-0.2-0.4-0.5-0.6-0.9-0.9c-0.3-0.2-0.8-0.3-1.3-0.3
			c-0.5,0-0.9,0.1-1.2,0.3c-0.3,0.2-0.6,0.5-0.8,0.8c-0.2,0.3-0.4,0.7-0.5,1.2c-0.1,0.4-0.2,0.9-0.3,1.4c0,0.5-0.1,0.9-0.1,1.4
			c0,0.4,0,0.8,0,1.2c0,0.4,0,0.8,0,1.2c0,0.5,0,0.9,0.1,1.4c0.1,0.5,0.1,0.9,0.2,1.4c0.1,0.5,0.3,0.9,0.5,1.2
			c0.2,0.4,0.5,0.6,0.9,0.9C321.2,115.3,321.7,115.5,322.2,115.5z"/>
	</g>
</g>
</svg>
