<?xml version="1.0" encoding="utf-8"?>
<!-- Generator: Adobe Illustrator 21.0.0, SVG Export Plug-In . SVG Version: 6.00 Build 0)  -->
<svg version="1.1" id="Capa_1" xmlns="http://www.w3.org/2000/svg" xmlns:xlink="http://www.w3.org/1999/xlink" x="0px" y="0px"
	 viewBox="0 0 456.9 188.7" style="enable-background:new 0 0 456.9 188.7;" xml:space="preserve">
<style type="text/css">
	.st0{fill:#F4C53D;}
	.st1{fill:#4C9FDC;}
</style>
<g>
	<polygon class="st0" points="106,93.8 88.9,123.2 121.1,123.2 138.3,93.8 	"/>
	<g>
		<path class="st1" d="M219.5,132.1c0,4-2.9,6.5-6.7,7.6c-3.3,0.9-8.6,0.9-11.8,0.1c-3.9-1-7-3.6-7.1-7.5v-26.5
			c0.1-4.4,3.7-7,8.2-7.9c3.3-0.6,8.2-0.5,11.3,0.5c3.6,1.2,6.2,3.6,6.2,7.4h-3c0-2.2-1.8-3.7-4-4.5c-2.8-0.9-6.9-0.9-9.8-0.4
			c-3.1,0.6-5.7,2.2-5.7,4.9v26.5c0,2.4,2.1,3.9,4.8,4.6c2.8,0.7,7.4,0.7,10.2-0.1c2.6-0.7,4.5-2.3,4.5-4.6L219.5,132.1z"/>
		<path class="st1" d="M228,120.5c0,6.2,0,13.3,0,19.6h-3V97.7h3v19.7h18.7V97.7h3v42.3h-3v-19.6H228z"/>
		<path class="st1" d="M259,123.9v16.2h-3c0-13.9,0-28.3,0-42.3h11.4c1.4,0,11.2,0.1,11.2,8.1V116c0,3.3-2.5,6-5.7,6.7
			c3.1,0.7,5.7,3.2,5.7,6.6v10.8h-3v-10.8c0-4.1-5.4-5.4-8.5-5.4H259z M275.6,105.9c0-3.9-5.1-5.4-8.2-5.4H259v20.7h8.2
			c3.3,0,8.5-1,8.5-5.2V105.9z"/>
		<path class="st1" d="M296.1,120.7l7.7-8.1c1.1-1.1,1.6-1.9,1.6-3.5V97.8h3.1v11.3c0,2.3-0.6,3.8-2.3,5.5l-8.6,8.9V140h-3v-16.5
			l-8.6-8.9c-1.7-1.7-2.3-3.2-2.3-5.5V97.8h3.1v11.4c0,1.6,0.5,2.4,1.6,3.5L296.1,120.7z"/>
		<path class="st1" d="M332.6,105.1c0.1-6-11.4-6.3-15.3-2.6c-2.5,2.4-3.1,7.7-0.7,10.6c1.8,2.1,5,3,7.9,3.7
			c7.1,1.8,12.8,4.9,12.7,13.1c-0.1,3.4-1.6,6.2-3.9,8.2c-3.9,3.2-10.5,3.3-15.2,1.7c-3.5-1.2-6.2-4-6.1-7.7l3,0.1
			c0.1,2.5,2.2,4.6,4.5,5.3c3.9,1.1,8.5,1.1,11.8-1.6c1.7-1.4,2.8-3.4,2.8-5.9c0.1-6.5-5.5-9.1-10.5-10.4c-3.6-0.9-7.1-2-9.2-4.2
			c-3.7-4-3.1-11.4,0.7-14.9c5.4-5.1,20.4-4,20.4,4.8L332.6,105.1z"/>
		<path class="st1" d="M367.5,105.5L367.5,105.5l0.1,34.5h-3v-16.5c-6.5,0-13,0-19.6,0c0,6.2,0,10.3,0,16.5h-3c0-10.9,0-23.7,0-34.5
			c0-2.8,1.5-4.9,3.7-6.2c4.4-2.7,13.7-2.7,18.1,0C366,100.6,367.5,102.7,367.5,105.5z M345,105.5v15c6.5,0,13,0,19.6,0v-15
			c0-1.6-1-2.8-2.4-3.7c-3.4-2.1-11.5-2.1-14.9,0C345.9,102.7,345,103.9,345,105.5z"/>
		<path class="st1" d="M394.4,137v3.1h-8.8c-5.8,0-11.5-2.4-11.5-9.1c0-11,0-22.2,0-33.2h3.1V131c0,4.5,4.7,6,8.4,6H394.4z"/>
		<path class="st1" d="M402.8,97.7v42.3h-3c0-14.1,0-28.2,0-42.3H402.8z"/>
		<path class="st1" d="M428.7,105.1c0.1-6-11.4-6.3-15.3-2.6c-2.5,2.4-3.1,7.7-0.7,10.6c1.8,2.1,5,3,7.9,3.7
			c7.1,1.8,12.8,4.9,12.7,13.1c-0.1,3.4-1.6,6.2-3.9,8.2c-3.9,3.2-10.5,3.3-15.2,1.7c-3.5-1.2-6.2-4-6.1-7.7l3,0.1
			c0.1,2.5,2.2,4.6,4.5,5.3c3.9,1.1,8.5,1.1,11.8-1.6c1.7-1.4,2.8-3.4,2.8-5.9c0.1-6.5-5.5-9.1-10.5-10.4c-3.6-0.9-7.1-2-9.2-4.2
			c-3.7-4-3.1-11.4,0.7-14.9c5.4-5.1,20.4-4,20.3,4.8L428.7,105.1z"/>
		<path class="st1" d="M192.2,159.4v-11.7h1.4v11.7H192.2z"/>
		<path class="st1" d="M201.5,159.4v-5.9c0-1.2-0.7-1.9-2.1-1.9c-0.8,0-1.4,0.1-1.9,0.3v7.5h-1.4v-8.2c0.8-0.4,1.9-0.6,3.2-0.6
			c2.3,0,3.5,1.1,3.5,2.9v6H201.5z"/>
		<path class="st1" d="M208.7,159.6c-1.9,0-3.7-1.3-3.7-4.5c0-3.2,1.9-4.5,3.7-4.5c0.9,0,1.6,0.2,2.2,0.6l-0.5,1
			c-0.4-0.3-1-0.5-1.5-0.5c-1.2,0-2.5,0.9-2.5,3.4c0,2.4,1.3,3.4,2.5,3.4c0.6,0,1.2-0.2,1.5-0.5l0.5,1
			C210.4,159.3,209.6,159.6,208.7,159.6z"/>
		<path class="st1" d="M216.3,159.6c-2.2,0-3.4-0.9-3.4-3v-5.8h1.4v5.8c0,1.3,0.7,1.9,2,1.9c0.8,0,1.5-0.1,1.8-0.3v-7.4h1.3v8.2
			C218.8,159.3,217.5,159.6,216.3,159.6z"/>
		<path class="st1" d="M224.7,159.6c-1.1,0-2.1-0.3-2.8-0.6v-12.2h1.4v4.2c0.5-0.2,1.1-0.4,1.8-0.4c2.2,0,3.8,1.6,3.8,4.3
			C228.9,158.1,227.1,159.6,224.7,159.6z M224.9,151.6c-0.6,0-1.2,0.1-1.6,0.4v6.2c0.3,0.1,0.9,0.3,1.5,0.3c1.5,0,2.8-1,2.8-3.5
			C227.5,152.9,226.5,151.6,224.9,151.6z"/>
		<path class="st1" d="M234.2,159.6c-2.4,0-3.6-1-3.6-2.7c0-2.5,2.7-2.9,5.3-3v-0.7c0-1.3-0.9-1.7-2.1-1.7c-0.8,0-1.8,0.3-2.4,0.5
			l-0.4-1c0.7-0.3,1.8-0.6,2.8-0.6c1.9,0,3.2,0.8,3.2,2.8v5.6C236.6,159.3,235.3,159.6,234.2,159.6z M235.9,154.8
			c-1.9,0.1-4,0.2-4,2c0,1,0.8,1.7,2.3,1.7c0.7,0,1.5-0.1,1.8-0.3V154.8z"/>
		<path class="st1" d="M243.5,159.6c-2.6,0-4.1-1.7-4.1-4.4c0-2.7,1.4-4.5,4-4.5c0.6,0,1.2,0.1,1.6,0.2v-4.1h1.3v12.2
			C245.8,159.3,244.7,159.6,243.5,159.6z M245,151.9c-0.3-0.1-0.9-0.2-1.5-0.2c-1.8,0-2.8,1.5-2.8,3.5c0,2,1,3.3,2.8,3.3
			c0.5,0,1.2-0.1,1.5-0.3V151.9z"/>
		<path class="st1" d="M252.2,159.6c-2.4,0-3.7-1.9-3.7-4.5c0-2.6,1.3-4.5,3.7-4.5c2.4,0,3.7,1.9,3.7,4.5
			C255.9,157.6,254.6,159.6,252.2,159.6z M252.2,151.6c-1.6,0-2.4,1.4-2.4,3.4c0,2,0.8,3.4,2.4,3.4c1.6,0,2.4-1.4,2.4-3.4
			C254.5,153,253.7,151.6,252.2,151.6z"/>
		<path class="st1" d="M261.8,151.7c-0.2,0-0.5-0.1-0.8-0.1c-0.6,0-1.2,0.1-1.6,0.3v7.5H258v-8.2c0.8-0.4,2-0.6,3.2-0.6
			c0.3,0,0.6,0,0.9,0.1L261.8,151.7z"/>
		<path class="st1" d="M266.9,159.6c-2.4,0-3.6-1-3.6-2.7c0-2.5,2.7-2.9,5.3-3v-0.7c0-1.3-0.9-1.7-2.1-1.7c-0.8,0-1.8,0.3-2.4,0.5
			l-0.4-1c0.7-0.3,1.8-0.6,2.8-0.6c2,0,3.2,0.8,3.2,2.8v5.6C269.3,159.3,268,159.6,266.9,159.6z M268.6,154.8c-1.9,0.1-4,0.2-4,2
			c0,1,0.8,1.7,2.3,1.7c0.7,0,1.5-0.1,1.8-0.3V154.8z"/>
		<path class="st1" d="M280.7,159.6c-2.6,0-4.1-1.7-4.1-4.4c0-2.7,1.4-4.5,4-4.5c0.6,0,1.2,0.1,1.6,0.2v-4.1h1.3v12.2
			C283,159.3,281.9,159.6,280.7,159.6z M282.2,151.9c-0.3-0.1-0.9-0.2-1.5-0.2c-1.8,0-2.8,1.5-2.8,3.5c0,2,1,3.3,2.8,3.3
			c0.5,0,1.2-0.1,1.5-0.3V151.9z"/>
		<path class="st1" d="M292.9,154.8l-5.9,0.9c0.1,1.9,1.3,2.8,2.9,2.8c0.9,0,1.8-0.2,2.4-0.5l0.4,1c-0.6,0.4-1.7,0.6-2.8,0.6
			c-2.6,0-4.2-1.7-4.2-4.5c0-2.7,1.4-4.5,3.8-4.5c2.1,0,3.5,1.4,3.5,3.7C292.9,154.4,292.9,154.6,292.9,154.8z M289.5,151.6
			c-1.5,0-2.5,1.2-2.5,3.2l4.7-0.7C291.6,152.4,290.8,151.6,289.5,151.6z"/>
		<path class="st1" d="M305,159.4v-5.9c0-1.2-0.7-1.9-2.1-1.9c-0.8,0-1.4,0.1-1.9,0.3v7.5h-1.4v-8.2c0.8-0.4,1.9-0.6,3.2-0.6
			c2.3,0,3.5,1.1,3.5,2.9v6H305z"/>
		<path class="st1" d="M315.7,154.8l-5.9,0.9c0.1,1.9,1.3,2.8,2.9,2.8c0.9,0,1.8-0.2,2.4-0.5l0.4,1c-0.6,0.4-1.7,0.6-2.9,0.6
			c-2.6,0-4.2-1.7-4.2-4.5c0-2.7,1.4-4.5,3.8-4.5c2.1,0,3.5,1.4,3.5,3.7C315.7,154.4,315.7,154.6,315.7,154.8z M312.3,151.6
			c-1.5,0-2.5,1.2-2.5,3.2l4.7-0.7C314.4,152.4,313.6,151.6,312.3,151.6z"/>
		<path class="st1" d="M320.9,163c-1.1,0-2.2-0.3-2.9-0.6l0.4-1.1c0.5,0.3,1.5,0.6,2.4,0.6c1.6,0,2.4-0.9,2.4-2.4v-0.7
			c-0.5,0.2-1.2,0.4-1.9,0.4c-2.2,0-3.7-1.5-3.7-4.1c0-3,1.8-4.4,4.2-4.4c1.1,0,2.1,0.3,2.7,0.6v8.3
			C324.5,161.7,323.2,163,320.9,163z M323.2,151.9c-0.3-0.1-0.9-0.3-1.5-0.3c-1.5,0-2.8,0.9-2.8,3.3c0,2.1,1.1,3.1,2.6,3.1
			c0.6,0,1.3-0.1,1.7-0.3V151.9z"/>
		<path class="st1" d="M330.4,159.6c-2.4,0-3.7-1.9-3.7-4.5c0-2.6,1.3-4.5,3.7-4.5c2.4,0,3.7,1.9,3.7,4.5
			C334.1,157.6,332.8,159.6,330.4,159.6z M330.4,151.6c-1.6,0-2.4,1.4-2.4,3.4c0,2,0.8,3.4,2.4,3.4c1.6,0,2.4-1.4,2.4-3.4
			C332.7,153,332,151.6,330.4,151.6z"/>
		<path class="st1" d="M339.7,159.6c-1.9,0-3.7-1.3-3.7-4.5c0-3.2,1.9-4.5,3.7-4.5c0.9,0,1.6,0.2,2.2,0.6l-0.5,1
			c-0.4-0.3-1-0.5-1.5-0.5c-1.2,0-2.5,0.9-2.5,3.4c0,2.4,1.3,3.4,2.5,3.4c0.6,0,1.2-0.2,1.5-0.5l0.5,1
			C341.3,159.3,340.5,159.6,339.7,159.6z"/>
		<path class="st1" d="M344.6,148.9c-0.5,0-0.9-0.4-0.9-0.8c0-0.4,0.4-0.8,0.9-0.8c0.5,0,0.9,0.4,0.9,0.8
			C345.4,148.6,345,148.9,344.6,148.9z M343.9,159.4v-8.7h1.3v8.7H343.9z"/>
		<path class="st1" d="M351.2,159.6c-2.4,0-3.7-1.9-3.7-4.5c0-2.6,1.3-4.5,3.7-4.5c2.4,0,3.7,1.9,3.7,4.5
			C354.9,157.6,353.6,159.6,351.2,159.6z M351.2,151.6c-1.6,0-2.3,1.4-2.3,3.4c0,2,0.8,3.4,2.3,3.4c1.6,0,2.4-1.4,2.4-3.4
			C353.5,153,352.8,151.6,351.2,151.6z"/>
		<path class="st1" d="M359.2,159.6c-0.9,0-1.9-0.3-2.6-0.6l0.5-1c0.5,0.3,1.4,0.5,2.1,0.5c1.1,0,1.9-0.5,1.9-1.4
			c0-0.9-0.7-1.3-1.8-1.6c-1.2-0.4-2.4-1-2.4-2.6c0-1.4,1-2.3,2.9-2.3c1,0,1.8,0.3,2.4,0.6l-0.5,1c-0.4-0.3-1.1-0.5-1.8-0.5
			c-1,0-1.6,0.6-1.6,1.3c0,0.9,0.7,1.2,1.7,1.6c1.3,0.5,2.5,1,2.5,2.6C362.4,158.6,361.2,159.6,359.2,159.6z"/>
		<path class="st1" d="M371.9,154.6c-0.5,0-1,0-1.4-0.1v4.9h-1.4v-11.2c0.8-0.4,1.9-0.6,3.1-0.6c2.7,0,4.2,1.4,4.2,3.6
			C376.4,153.1,374.8,154.6,371.9,154.6z M372.2,148.7c-0.7,0-1.3,0.1-1.7,0.3v4.5c0.3,0.1,0.8,0.1,1.3,0.1c2,0,3.2-1,3.2-2.4
			C375,149.5,374,148.7,372.2,148.7z"/>
		<path class="st1" d="M382.3,159.5c-2.1,0-3.8-1.3-3.8-3.5v-8.3h1.4v8.3c0,1.4,1.1,2.3,2.4,2.3c1.3,0,2.4-0.9,2.4-2.3v-8.3h1.4v8.3
			C386,158.2,384.4,159.5,382.3,159.5z"/>
		<path class="st1" d="M393,159.6c-2.5,0-4.6-1.9-4.6-6c0-4.1,2.1-6,4.6-6c1,0,2,0.3,2.5,0.6l-0.5,1.1c-0.4-0.3-1.1-0.5-1.9-0.5
			c-1.8,0-3.3,1.5-3.3,4.8c0,3.3,1.5,4.8,3.3,4.8c0.8,0,1.5-0.2,1.9-0.5l0.5,1.1C394.9,159.3,394,159.6,393,159.6z"/>
		<path class="st1" d="M402,159.4h-1.5l-3.8-11.7h1.5l2.6,8.6c0.2,0.7,0.4,1.6,0.4,1.6h0c0,0,0.2-0.9,0.4-1.6l2.6-8.6h1.5L402,159.4
			z"/>
	</g>
	<path class="st1" d="M139.9,93.9c0-0.1,0-0.1,0-0.2c0-0.1,0-0.1,0-0.2c0-0.1,0-0.1,0-0.2c0-0.1,0-0.1-0.1-0.2c0-0.1,0-0.1-0.1-0.2
		c0,0,0,0,0,0l0,0l-17.2-29.5c-0.2-0.4-0.7-0.7-1.2-0.7H89c-0.1,0-0.2,0-0.4,0c0,0-0.1,0-0.1,0c-0.1,0-0.2,0.1-0.2,0.1
		c0,0-0.1,0.1-0.1,0.1c-0.1,0-0.1,0.1-0.2,0.1c0,0-0.1,0.1-0.1,0.1c0,0-0.1,0.1-0.1,0.1l0,0l0,0v0L70.6,93.1c-0.2,0.4-0.2,0.9,0,1.3
		l17.2,29.5l0,0v0l0,0c0,0,0.1,0.1,0.1,0.1c0,0,0.1,0.1,0.1,0.1c0.1,0.1,0.1,0.1,0.2,0.1c0,0,0.1,0.1,0.1,0.1c0.1,0,0.2,0.1,0.2,0.1
		c0,0,0.1,0,0.1,0c0.1,0,0.2,0,0.4,0h32.5c0.5,0,0.9-0.3,1.2-0.7l17.2-29.5h0c0,0,0,0,0,0c0-0.1,0-0.1,0.1-0.2c0,0,0-0.1,0.1-0.1
		C139.9,94,139.9,94,139.9,93.9z M120.6,65.6l15.6,26.8h-29.4L91.3,65.6H120.6z M89,66.9l15.6,26.8l-4.2,7.3L89,120.6L73.3,93.8
		L89,66.9z M120.6,121.9H91.3l14.2-24.4l1.4-2.4h29.4L120.6,121.9z"/>
	<g>
		<path class="st1" d="M133.6,143H76.8L48.3,93.8l28.4-49.2h56.8L162,93.8L133.6,143z M78.7,139.6h53l26.5-45.9l-26.5-45.9h-53
			L52.2,93.8L78.7,139.6z"/>
	</g>
	<g>
		<path class="st1" d="M145.6,163.7H64.8L24.4,93.8l40.4-69.9l80.7,0l40.4,69.9L145.6,163.7z M68.7,157h73l36.5-63.2l-36.5-63.2h-73
			L32.2,93.8L68.7,157z"/>
	</g>
</g>
</svg>
